<?xml version="1.0" encoding="utf-8"?>
<!-- Generator: Adobe Illustrator 27.9.0, SVG Export Plug-In . SVG Version: 6.00 Build 0)  -->
<svg version="1.1" xmlns="http://www.w3.org/2000/svg" xmlns:xlink="http://www.w3.org/1999/xlink" x="0px" y="0px"
	 viewBox="0 0 469 469" style="enable-background:new 0 0 469 469;" xml:space="preserve">
<style type="text/css">
	.st0{fill:#009872;}
	.st1{fill:#F9F9C3;}
	.st2{fill:#246665;}
	.st3{fill:#C99030;}
	.st4{fill:#C19338;}
	.st5{fill:#79003B;}
	.st6{fill:#DB214C;}
	.st7{fill:#FF6766;}
	.st8{fill:#5C7E7F;}
	.st9{fill:#495678;}
	.st10{fill:#0E5D99;}
	.st11{fill:#FFFFFF;}
	.st12{fill:#137CCF;}
	.st13{fill:#B8683D;}
	.st14{fill:#007CC4;}
</style>
<g id="UNDER">
	<path class="st0" d="M449.8,234.5c0,118.9-96.4,215.3-215.3,215.3l0,0c-118.9,0-215.3-96.4-215.3-215.3l0,0
		c0-118.9,96.4-215.3,215.3-215.3l0,0C353.4,19.2,449.8,115.6,449.8,234.5L449.8,234.5z"/>
	<path class="st1" d="M395.8,234.5c0,89.1-72.2,161.3-161.3,161.3l0,0c-89.1,0-161.3-72.2-161.3-161.3l0,0
		c0-89.1,72.2-161.3,161.3-161.3l0,0C323.6,73.2,395.8,145.4,395.8,234.5L395.8,234.5z"/>
	<g>
		<path class="st1" d="M126.1,373.1c-3.1,3.9-6.2,7.8-9.2,11.7c-3.3,4.3-9.5,8.2-13.8,2.3c-3.7-5.1,5.9-8.3,3.5-0.1
			c-0.2,0.5,0.1,1.1,0.7,1.2c0,0,0.1,0,0.1,0c1.1,0.2,2.6-1.7,3.2-2.5c4.5-5.6,8.9-11.4,13.2-17.1c0.1-0.2,0.2-0.3,0.1-0.5
			c-0.2-1.3-0.8-2.3-2-3c-0.2-0.1-0.2-0.3-0.2-0.5c0-0.3,0.2-0.5,0.5-0.5c0.1,0,0.3,0.1,0.4,0.2c3.2,2.4,6.3,4.9,9.5,7.4
			c0.1,0.1,0.2,0.2,0.1,0.4c-0.1,0.4-0.3,0.5-0.7,0.5c-0.1,0-0.2-0.1-0.3-0.2C129.3,370.4,127.6,371.2,126.1,373.1z"/>
		<path class="st1" d="M357.4,385.7c-1-3.9-2.2-7.7-3.5-11.5c-0.3-0.9-1-1.5-1.9-0.7c-0.3,0.2-0.4,0.4-0.5,0.4
			c-0.3,0.1-0.6,0-0.7-0.4c-0.1-0.2,0-0.4,0.1-0.6l4.8-3.9c0.1-0.1,0.3-0.1,0.4,0l0.4,0.4c0.2,0.2,0.2,0.4,0,0.5
			c-0.7,0.6-1,1.3-0.8,1.9c3,10.1,5.1,17.3,6.5,21.6c1.2,3.7,1.4,8.7-2.7,10.5c-1.8,0.8-4-1.4-2.9-3.2c0.7-1,2.4-1.6,3.6-2.2
			c0.1-0.1,0.3-0.2,0.3-0.4c0.7-1.9-0.5-5.2-1.2-7.1c-0.1-0.2-0.2-0.3-0.3-0.3c-4.7-2.3-9.4-4.5-14.2-6.8c-1.1-0.5-2.1-0.8-3.3-1.1
			c-0.2,0-0.3,0-0.5,0.1l-3.8,2.5c-0.1,0.1-0.2,0.2-0.1,0.4c2.4,3.6,4.7,7.2,7.1,10.8c1.7,2.6,4.3,1.3,4.1-1.4
			c0-0.3,0.2-0.5,0.4-0.5c0.2,0,0.4,0.1,0.5,0.4c1.3,4.5-3.9,9.8-7.3,5c-1.4-1.9-4.1-6-8-12.2c-0.1-0.2-0.2-0.2-0.4-0.1l-2.1,1.4
			c-0.3,0.2-0.6,0.1-0.8-0.2c-0.1-0.2-0.1-0.4,0-0.6c0.9-1.6,1.4-3.3,1.5-5.2c0.1-1.3-0.4-2.7-0.4-4.1c0-0.3,0.2-0.5,0.5-0.5
			c0.2,0,0.4,0.1,0.4,0.2l3.2,5c0.1,0.1,0.2,0.2,0.4,0.1c3.5-2.1,6.7-4.5,9.7-7.2c0.2-0.2,0.5-0.2,0.7,0c0,0,0,0,0,0.1l0.2,0.3
			c0.1,0.2,0.1,0.3-0.1,0.4c-0.6,0.4-0.9,1-1,1.6c0,0.2,0,0.3,0.1,0.5c1.4,1.8,8.4,4.6,11.5,6C357.4,385.9,357.5,385.9,357.4,385.7z
			"/>
		<circle class="st1" cx="136.4" cy="375.9" r="2.3"/>
		<circle class="st1" cx="320.9" cy="383.4" r="2.3"/>
		<path class="st1" d="M122.5,399.3c0.3,0.8,0.8,1.4,1.5,1.8c0.2,0.1,0.2,0.3,0,0.4l-0.4,0.4c-0.1,0.1-0.3,0.1-0.4,0l-7.6-5.5
			c-0.2-0.1-0.2-0.3-0.1-0.4l0.3-0.4c0.1-0.1,0.3-0.2,0.4-0.1c0,0,0,0,0,0c1.3,1.2,2.5,1,3.6-0.5c0.8-1.1,7.7-9.4,7.5-11.5
			c0-0.2-0.1-0.3-0.3-0.4l-1.4-0.7c-0.3-0.1-0.4-0.5-0.3-0.8c0.1-0.2,0.4-0.4,0.6-0.3l6,1.5c0.9,0.2,1.1,0.7,0.5,1.4
			c-3,4-6,8.3-9.2,12.7c-0.4,0.6-0.8,1.2-1,1.8C122.4,399,122.4,399.1,122.5,399.3z"/>
		<path class="st1" d="M139.8,391.8c1.9-0.6,3.3-0.9,4.2-0.8c4.8,0.4,6.8,4.7,4.4,8.8c-3.3,5.5-5.3,8.9-6.1,10.4
			c-0.7,1.3,1.1,2.2,1.6,3.1c0.1,0.2,0.1,0.5-0.2,0.6c-0.1,0.1-0.3,0.1-0.5,0l-8.1-4.9c-0.1-0.1-0.2-0.2-0.2-0.4
			c0-0.4,0.2-0.6,0.4-0.6c0.1,0,0.3,0,0.5,0.2c1.4,0.9,2.6,0.6,3.5-1c1.7-2.6,3.3-5.3,4.9-8c3-5.2-1.3-7.3-5.6-5.7
			c-0.2,0.1-0.3,0.2-0.4,0.3c-3.1,4.9-5.1,8.2-5.9,9.9c-0.8,1.5-0.3,2.6,1.3,3.1c0.2,0.1,0.3,0.3,0.2,0.4c0,0,0,0,0,0.1l-0.2,0.4
			c-0.1,0.2-0.3,0.3-0.5,0.1l-8-4.8c-0.2-0.1-0.2-0.3-0.1-0.5c0,0,0,0,0-0.1l0.3-0.4c0.1-0.1,0.3-0.2,0.4,0c1.2,1,2.3,0.9,3.1-0.3
			c1.2-1.7,3.2-5,5.9-9.8c0.6-1,0.9-1.8,1.1-2.6c0-0.2,0-0.4-0.2-0.5l-1.7-0.8c-0.1-0.1-0.2-0.2-0.2-0.3l0-0.5
			c0-0.2,0.2-0.4,0.4-0.3l6.6,1.1c0.3,0.1,0.5,0.3,0.4,0.6c0,0.1,0,0.1-0.1,0.2l-1.6,2.8c0,0.1,0,0.2,0.1,0.2
			C139.7,391.8,139.7,391.8,139.8,391.8z"/>
		<path class="st1" d="M322,395.5c-0.2-0.1-0.2-0.3-0.2-0.4c0,0,0,0,0-0.1l4.3-5.5c0.1-0.2,0.4-0.2,0.6-0.1c0,0,0.1,0.1,0.1,0.1
			c3,5,6,10,8.9,14.9c0.5,0.8,1.3,1,2.5,0.8c0.2,0,0.3-0.1,0.4-0.2c0.1-0.1,0.3-0.2,0.5-0.2c0.3-0.1,0.6,0.1,0.6,0.4
			c0,0.2-0.1,0.4-0.3,0.6l-7.8,4.7c-0.2,0.1-0.3,0.1-0.5-0.1L331,410c-0.1-0.1-0.1-0.3,0.1-0.4c0,0,0,0,0,0c2.2-1,1.6-2.6,0.6-4.3
			c-2-3.4-4.1-7.8-6.8-10.6c-0.1-0.1-0.3-0.2-0.4-0.1c-0.6,0.2-1.2,0.5-1.7,1c-0.1,0.1-0.3,0.2-0.5,0.1L322,395.5z"/>
		<path class="st1" d="M311.6,407.4c-5.2-4-1.8-10.3,3.8-11c1.2-0.1,1.8-0.7,2-1.8c0-0.2,0.2-0.3,0.4-0.2c0.1,0,0.2,0.1,0.2,0.2
			l3,5.7c0.1,0.2,0.1,0.4-0.1,0.6c-0.2,0.2-0.3,0.3-0.5,0.3c-0.1,0-0.3-0.1-0.4-0.2c-2.6-2.5-4.9-4.3-8-1.1c-2,1.9-0.1,4.2,2.2,4.3
			c1.4,0.1,3.4,0.1,6.2,0.2c5,0,8.2,4.3,5.7,8.8c-1.6,2.8-4.8,3.8-8,4.5c-0.2,0-0.3,0.1-0.4,0.3l-0.4,0.8c-0.1,0.2-0.3,0.2-0.5,0.2
			c-0.1,0-0.1-0.1-0.2-0.2c-1-2-2.1-3.9-3.1-5.9c-0.1-0.2-0.1-0.4-0.1-0.6c0.1-0.2,0.4-0.3,0.7-0.2c0,0,0.1,0.1,0.1,0.1
			c2,2.3,4.9,3.8,7.9,2.5c2.8-1.2,2.6-5-0.4-5.8C319.1,408,313.7,409,311.6,407.4z"/>
		<path class="st1" d="M155.7,416.9c-1.6,0.4-3.4,0.9-4.8,0.7c-2.6-0.3-4.8-2.5-4.5-5.3c0.8-6.6,8.7-5.6,13.8-5.4
			c0.2,0,0.3-0.1,0.4-0.2c0.8-1.5,1.6-3.8,0.5-5.2c-0.9-1.2-2.6-1.9-3.9-1.2c-1.4,0.8-1.3,2.3-2.3,3.1c-1.2,1-3.1-0.1-3.1-1.6
			c-0.1-1.6,2.1-3.1,3.4-3.5c4.1-1.2,12.1,2.5,9.8,7.9c-1.6,3.8-3.2,7.7-4.9,11.5c-0.2,0.4,0,0.9,0.4,1c0.2,0.1,0.4,0.1,0.5,0
			l2.1-0.6c0.2-0.1,0.3,0,0.2,0.2c-0.4,2.7-9.1,4.4-7.4-1.2C156,416.9,155.9,416.8,155.7,416.9z M150.5,413c0.2,3,4,2.9,6.1,2
			c0.1-0.1,0.2-0.2,0.3-0.3l2.6-5.8c0.1-0.2,0-0.3-0.2-0.3C156.4,408.3,150.2,408,150.5,413z"/>
		<path class="st1" d="M301.1,405.7c0,0.1,0.1,0.1,0.2,0.1c0.1,0,0.1-0.1,0.1-0.1c0.3-2.7,2.7-7.4,6-4.6c0.6,0.5,0.8,1.1,0.7,1.8
			c-0.4,2.7-2.6,1.7-4.3,1.5c-0.3,0-0.6,0.1-0.8,0.4c-1.1,2.2-1,3.5-0.1,5.9c0.7,1.8,1.4,3.5,2.2,5.3c1.1,2.6,1.6,4.7,4.9,3.5
			c0.1,0,0.2,0,0.3,0.1l0.3,0.3c0.1,0.2,0.1,0.4-0.1,0.6c0,0-0.1,0-0.1,0.1l-9.3,3.8c-0.3,0.1-0.4,0-0.4-0.3l0-0.6
			c0-0.2,0.1-0.3,0.2-0.3c2.2-0.6,2-2.2,1.3-4c-1.5-3.7-3-7.4-4.5-11c-0.3-0.6-1-0.9-1.7-0.7c0,0,0,0-0.1,0l-1.1,0.6
			c-0.3,0.1-0.6,0-0.7-0.3c-0.1-0.2-0.1-0.5,0.1-0.6l5-4.7c0.1-0.1,0.4-0.1,0.5,0c0,0,0.1,0.1,0.1,0.1L301.1,405.7z"/>
		<path class="st1" d="M197.3,403.3c-0.1-0.2-0.1-0.4,0-0.7c0.1-0.2,0.2-0.2,0.3-0.2L210,404c0.3,0,0.4,0.3,0.4,0.5
			c0,0.1,0,0.1-0.1,0.2l-0.1,0.3c-0.1,0.2-0.2,0.3-0.4,0.2c-2.2-0.3-3.7-0.2-4.1,2.2c-0.8,4.9-1.4,9.8-1.8,14.7
			c-0.1,1.6-0.1,3.2,0,4.8c0.5,5,6.1,6.3,10.3,5.3c3-0.8,4.8-2.7,5.4-5.8c0.8-4.8,1.5-9.6,2-14.5c0.3-3,1-5.5-2.8-5.7
			c-0.2,0-0.4-0.1-0.4-0.3c-0.4-0.7-0.3-1,0.3-0.9c3.3,0.4,6.6,0.8,9.9,1.3c0.2,0,0.4,0.2,0.3,0.4c0,0,0,0,0,0.1
			c-0.1,0.5-0.5,0.7-1.1,0.6c-2.1-0.4-3.4,0.5-3.6,2.6c-0.9,7.8-1.6,13.1-2.1,15.9c-1.2,7.1-6.9,9.7-13.5,8.5
			c-4.4-0.8-8.1-3-9.1-7.6c-0.3-1.3-0.2-3.7,0.2-7.1c0.4-3.5,0.8-7,1.2-10.4c0.2-1.7,0.2-3.2,0.1-4.4c0-0.2-0.1-0.3-0.3-0.4
			C199.9,404.1,197.5,403.6,197.3,403.3z"/>
		<circle class="st1" cx="251.5" cy="405.7" r="2.3"/>
		<path class="st1" d="M174.3,408.4c1.3-0.6,2.6-1.1,4-1.5c3.4-0.9,6.5,1.6,6.5,5c0,1-0.5,2.8-1.4,5.4c-1.4,4-2.3,6.8-2.7,8.3
			c-0.6,2.1,1.2,1.8,2,2.6c0.2,0.2,0.2,0.6,0,0.8c-0.2,0.1-0.4,0.2-0.6,0.1l-8.8-3.1c-0.1-0.1-0.2-0.2-0.2-0.4l0.1-0.4
			c0.1-0.2,0.2-0.3,0.4-0.3c2.4,0.5,2.8,0.5,3.7-1.8c1.8-4.8,3-8.3,3.5-10.5c1.1-4.5-4.8-4.3-7.2-2.5c-0.1,0.1-0.2,0.2-0.3,0.4
			c-1.3,3.6-2.6,7.2-3.7,10.9c-0.2,0.8-0.1,1.5,0.4,2.1c0,0,0,0,0.1,0l1.6,0.7c0.3,0.1,0.4,0.4,0.3,0.7c-0.1,0.3-0.4,0.4-0.7,0.3
			l-9.1-3.1c-0.2-0.1-0.3-0.2-0.3-0.4c0-0.4,0.2-0.6,0.5-0.6c0.1,0,0.3,0,0.6,0.1c1.3,0.4,2.2-0.1,2.7-1.5c1.6-4.1,3-8.2,4.2-12.4
			c0.2-0.6-0.2-1.2-0.8-1.4c-0.1,0-0.2,0-0.3,0c-0.5,0-0.9-0.1-1.2-0.2c-0.3-0.1-0.4-0.4-0.2-0.7c0.1-0.2,0.2-0.3,0.4-0.3l6.6-0.4
			c0.4,0,0.7,0.3,0.7,0.6c0,0.1,0,0.2,0,0.3l-1,2.8C174,408.4,174.1,408.5,174.3,408.4z"/>
		<path class="st1" d="M294.9,426.1c-10.8,9.6-22.8-14.3-8.2-19c4.3-1.4,8.4,1.7,9.7,5.7c0.1,0.2,0,0.3-0.2,0.3l-12.7,3.7
			c-0.1,0-0.2,0.1-0.2,0.3c0.7,2.8,2.1,4.8,4.1,5.9c4.5,2.5,9.1-0.1,9.1-5.3c0-0.2,0.1-0.3,0.3-0.3c0,0,0,0,0.1,0
			c0.6,0.2,1,0.6,0.9,1.4C297.7,421.6,297,424.2,294.9,426.1z M283.1,415.2l7.9-2.3c0.1,0,0.1-0.1,0.1-0.2c0,0,0,0,0,0l0-0.1
			c-0.7-2.4-3.1-3.8-5.4-3.2l0,0c-2.3,0.7-3.5,3.2-2.8,5.6c0,0,0,0,0,0l0,0.1C282.9,415.2,283,415.3,283.1,415.2z"/>
		<path class="st1" d="M265.8,414c-1.9,0.5-2.2,1.5-1.2,3.2c2,3.2,4.1,6.3,6.3,9.5c0.1,0.2,0.2,0.2,0.3-0.1c0.9-4,1.7-8.1,2.4-12.2
			c0.2-1,0-1.8-1.3-1.6c-0.4,0.1-0.6,0.1-0.8,0c-0.3-0.1-0.5-0.3-0.4-0.6c0-0.1,0.1-0.2,0.2-0.3c0.1-0.1,0.4-0.2,0.7-0.3
			c1.8-0.3,3.5-0.7,5.3-1.1c0.3-0.1,0.5,0.1,0.6,0.3c0.1,0.2,0.1,0.4,0,0.5c-0.4,0.7-1.8,0.7-2.1,2c-1.3,6.4-2.6,12.8-3.9,19.2
			c-0.1,0.4-0.5,0.6-0.8,0.6c-0.2,0-0.3-0.1-0.5-0.3c-3.5-5.1-6.9-10.3-10.4-15.5c-0.7-1.1-1.8-1.6-3.2-1.6c-0.5,0-0.7-0.2-0.7-0.7
			c0-0.2,0.2-0.4,0.4-0.5c2.9-0.6,5.7-1.1,8.6-1.7c0.3-0.1,0.6,0.1,0.7,0.3c0.1,0.2,0.1,0.5-0.2,0.6
			C265.9,413.9,265.9,414,265.8,414z"/>
		<path class="st1" d="M249.3,417.2l-1.5,0.4c-0.1,0-0.3,0-0.3-0.1l-0.3-0.4c-0.1-0.2-0.1-0.4,0.1-0.5c0,0,0,0,0,0l6-3
			c0.3-0.1,0.6,0,0.8,0.3c0,0.1,0.1,0.1,0.1,0.2c0.5,5.6,1,11.2,1.5,16.9c0.1,1.6,1.1,2.2,2.8,1.9c0.2,0,0.3,0,0.4,0.2l0.2,0.6
			c0.1,0.2,0,0.3-0.2,0.4c0,0,0,0-0.1,0l-9.5,0.9c-0.3,0-0.4-0.1-0.4-0.3l0-0.6c0-0.2,0.1-0.3,0.3-0.3c1.7,0,2.5-0.8,2.4-2.5
			c-0.2-4.2-0.6-8.3-1.1-12.4c-0.1-0.6-0.4-1.2-0.8-1.6C249.6,417.2,249.5,417.1,249.3,417.2z"/>
		<path class="st1" d="M227.1,418.9c-0.7-0.3-1.6,0.3-2.1,0.1c-0.2-0.1-0.3-0.3-0.3-0.6c0-0.2,0.2-0.5,0.4-0.6l5.8-2.7
			c0.3-0.1,0.6,0,0.7,0.3c0,0.1,0,0.1,0,0.2l0.3,3c0,0.1,0.1,0.2,0.2,0.1c0,0,0.1,0,0.1-0.1c1.4-1.6,3.1-3.3,5.2-3.7
			c3.9-0.8,6.2,2.4,6.4,5.9c0.2,3.2,0.4,6.4,0.6,9.6c0.1,2,0.1,3.8,2.8,3.6c0.3,0,0.6,0.2,0.6,0.5c0,0.3-0.1,0.5-0.4,0.6
			c-0.2,0.1-0.5,0.1-0.9,0.1c-2.9,0.1-5.8,0.2-8.7,0.5c-0.2,0-0.3-0.1-0.3-0.3c0,0,0,0,0,0l0-0.6c0-0.3,0.1-0.4,0.4-0.4
			c1.8,0.1,2.7-0.8,2.7-2.9c-0.1-3-0.3-6.6-0.7-10.7c-0.4-4.9-5.1-3-7.2-0.8c-0.8,0.8-0.7,1.7-0.6,2.8c0.3,4.3,0,8.6,1,11.2
			c0.1,0.2,0.2,0.3,0.4,0.3c0.7,0.2,1.4,0.3,2.1,0.2c0.2,0,0.4,0.1,0.5,0.3l0.1,0.5c0.1,0.3,0,0.4-0.3,0.4l-9.6,0.6
			c-0.1,0-0.2-0.1-0.2-0.2l-0.1-0.6c0-0.2,0.1-0.3,0.2-0.3c0,0,0,0,0.1,0c1.8,0,2.6-0.9,2.6-2.7c-0.1-4.2-0.4-8.4-0.8-12.6
			C227.8,419.4,227.5,419,227.1,418.9z"/>
	</g>
</g>
<g id="MAIN">
</g>
<g id="SCIENCES">
</g>
<g id="HEALTH_00000128469052700009300670000012666611077201334713_">
</g>
<g id="COMMUNICATION">
</g>
<g id="EDUCATION">
</g>
<g id="POLITICAL">
</g>
<g id="LETTRES">
</g>
<g id="BUSINESS">
	<g>
		<circle class="st1" cx="181.4" cy="38.4" r="2.3"/>
		<path class="st1" d="M247.3,59.4c3.1-1.2,2.1-4.6-0.3-6c-2.9-1.7-8.5-4.4-7.1-9.3c1.4-4.8,6-5,9.9-3.5c0.7,0.3,1.4,0.4,1.7-0.4
			c0.1-0.3,0.4-0.4,0.7-0.3c0.2,0.1,0.3,0.3,0.3,0.5l-0.5,6.4c0,0.3-0.3,0.5-0.6,0.5c-0.2,0-0.4-0.2-0.5-0.4c-0.3-1.7-1-3.7-2.4-4.7
			c-4-3-8.9,1.7-3.6,4.9c2.1,1.3,3.7,2.3,4.8,3c3.8,2.6,4.2,7.4,0.3,9.9c-3,2-6,1.2-9.6,0c-0.2-0.1-0.3,0-0.4,0l-1.1,0.5
			c-0.1,0.1-0.3,0-0.4-0.1c0,0,0-0.1,0-0.1l0.6-7.1c0-0.2,0.2-0.3,0.3-0.3c0,0,0.1,0,0.1,0c0.3,0.2,0.6,0.6,0.7,1
			C240.8,56.9,243.9,60.7,247.3,59.4z"/>
		<path class="st1" d="M221.6,48.6c-0.1,7.7,9.2,13.2,12.8,4.1c0.1-0.2,0.2-0.2,0.4-0.2c0,0,0,0,0,0c0.4,0.3,0.6,0.7,0.4,1.3
			c-1.6,6.5-8.4,10-13.8,5.2c-5.6-5-4-16.7,3.7-19c5.3-1.5,10.2,2.3,10.1,7.9c0,0.1-0.1,0.2-0.2,0.2l-13.2,0.2
			C221.6,48.3,221.6,48.4,221.6,48.6z M221.8,46.7l8.4-0.1c0.1,0,0.1-0.1,0.1-0.1c0,0,0,0,0,0l0-0.2c0-2.5-2-4.5-4.4-4.4h0
			c-2.4,0-4.3,2.1-4.2,4.6v0.2C221.7,46.6,221.8,46.7,221.8,46.7C221.8,46.7,221.8,46.7,221.8,46.7z"/>
		<path class="st1" d="M290.9,59.3c-1.4,1.6-2.7,3.2-4,4.8c-1.6,2,0.8,2.8,2.1,3.5c0.2,0.1,0.2,0.3,0.1,0.5c0,0,0,0,0,0.1l-0.3,0.4
			c-0.1,0.1-0.2,0.2-0.4,0.1l-8.5-2.8c-0.3-0.1-0.3-0.3-0.2-0.5l0.2-0.4c0.1-0.2,0.3-0.3,0.5-0.2c2.4,0.7,3.8-1.1,5.5-3
			c5.9-6.7,11.8-13.4,17.7-20.2c0.2-0.2,0.5-0.2,0.6,0c0.1,0.1,0.1,0.1,0.1,0.2c0.1,0.4,0.2,0.9,0.2,1.4c0.7,8.5,1.5,17,2.1,25.5
			c0.2,2.8,0.4,4.4,3.2,5.8c0.2,0.1,0.2,0.2,0.1,0.4l-0.2,0.5c-0.1,0.2-0.2,0.3-0.4,0.2L298.7,72c-0.2-0.1-0.3-0.2-0.3-0.4
			c-0.1-0.4,0.1-0.7,0.5-0.8c0.1-0.1,0.3-0.1,0.4,0c1.9,1,2.9,0,2.9-2c0-2-0.1-4.1-0.4-6c0-0.2-0.1-0.3-0.3-0.3l-10.2-3.3
			C291.1,59.2,291,59.2,290.9,59.3z M292.7,57.3c-0.1,0.1-0.1,0.2,0,0.2c0,0,0,0,0.1,0l8.7,2.9c0.1,0,0.2,0,0.2-0.1c0,0,0,0,0-0.1
			l-1-11.7c0-0.1-0.1-0.1-0.2-0.1c0,0-0.1,0-0.1,0L292.7,57.3z"/>
		<path class="st1" d="M198.8,46.5c0,0.1,0.1,0.1,0.1,0.1c0,0,0.1,0,0.1-0.1c2.6-3.8,6.9-7.5,10.8-2.2c0.5,0.6,0.9,2,1.3,4.1
			c0.4,2.3,1.2,9.8,2.6,11.4c0.1,0.1,0.2,0.2,0.4,0.2l1.9,0c0.2,0,0.3,0.1,0.4,0.3l0,0.4c0,0.2-0.1,0.3-0.3,0.4l-9.6,1.7
			c-0.2,0-0.3-0.1-0.4-0.3l-0.1-0.7c0-0.2,0.1-0.3,0.3-0.3c2,0,2.8-1,2.4-3c-0.6-3.5-1-6-1.3-7.4c-0.4-2-0.7-6.5-3.8-5.9
			c-2,0.4-3.5,1.5-4.5,3.3c-0.1,0.1-0.1,0.3-0.1,0.4c0.4,2.3,1.5,11.8,3,13c0.1,0.1,0.3,0.2,0.5,0.1l1.6-0.2c0.3,0,0.7,0.2,0.7,0.5
			c0,0.3-0.2,0.7-0.5,0.7l-9.3,1.6c-0.2,0-0.3-0.1-0.4-0.3l-0.1-0.5c0-0.2,0.1-0.3,0.2-0.4l1.8-0.5c0.2,0,0.3-0.2,0.3-0.3
			c0.2-0.7,0.2-1.6,0.1-2.5c-0.5-3.1-1.2-6.9-2.1-11.5c-0.1-0.6-0.3-1.1-0.7-1.5c-0.1-0.1-0.3-0.2-0.5-0.2l-1.7,0.4
			c-0.2,0-0.3,0-0.4-0.1l-0.3-0.3c-0.1-0.1-0.1-0.3,0-0.4c0,0,0,0,0,0l5.9-3.6c0.3-0.2,0.7-0.1,0.9,0.2c0,0.1,0.1,0.1,0.1,0.2
			L198.8,46.5z"/>
		<path class="st1" d="M270.6,50c0,0.2-0.2,0.3-0.3,0.4c-0.3,0.1-0.5,0-0.6-0.2c-0.1-0.1-0.1-0.3-0.1-0.5c-0.2-1.9-0.6-4.1-2.4-5.1
			c-3.6-2-7.9,0.9-4.1,4.4c3,2.8,10,6,6.9,11.4c-2.2,4-7.1,4-10.9,2c-1-0.5-1.8-0.6-2.6-0.1c-0.2,0.1-0.4,0-0.5-0.1
			c0-0.1-0.1-0.2,0-0.2l1.2-6.7c0.1-0.3,0.4-0.5,0.7-0.5c0.3,0.1,0.5,0.3,0.5,0.6c0,3.1,1.2,5.2,3.8,6.4c4.3,2,6.3-3.2,3-5.7
			c-3.7-2.8-9.2-6-5.7-11.2c2.8-4.2,6.4-2.5,10.2-1c0.2,0.1,0.3,0.1,0.4,0l1.2-0.6c0.2-0.1,0.4,0,0.4,0.1c0,0.1,0,0.1,0,0.2
			L270.6,50z"/>
		<path class="st1" d="M184,66.3c1.5-0.1,2.4-1.1,2-2.7c-1-4.1-2.1-8.1-3.3-12.1c-0.2-0.5-0.4-1-0.8-1.4c-0.1-0.1-0.3-0.2-0.5-0.1
			l-1.6,0.7c-0.1,0.1-0.2,0-0.3-0.1l-0.4-0.4c-0.2-0.2-0.1-0.3,0-0.4c1.6-1.2,3.2-2.4,4.7-3.7c0.4-0.3,0.6-0.4,0.8-0.4
			c0.5,0,0.7,0.2,0.8,0.5c1.4,5.4,2.8,10.7,4.3,15.8c0.2,0.8,0.6,1.5,1.1,1.9c0.1,0.1,0.3,0.2,0.4,0.1l1.8-0.2
			c0.3,0,0.6,0.2,0.6,0.5c0,0.3-0.2,0.6-0.4,0.6l-9.2,2.5c-0.2,0.1-0.3,0-0.4-0.2l-0.1-0.6C183.7,66.5,183.8,66.3,184,66.3z"/>
		<path class="st1" d="M165.6,56.7c2,4.2,12.5-0.1,14.1,7.5c0.3,1.4,0,2.8-1,4.2c-2.2,3.1-5.3,3.6-8.8,3.7c-0.2,0-0.3,0.1-0.4,0.2
			l-0.4,0.7c-0.1,0.2-0.5,0.3-0.7,0.2c-0.1-0.1-0.2-0.2-0.2-0.3l-2.2-6.3c-0.1-0.2,0-0.4,0.2-0.5l0.4-0.2c0.2-0.1,0.3,0,0.4,0.2
			c1.5,3,4.8,4.7,8,3.4c2.6-1.1,2-4.8-0.6-5.6c-2.8-0.8-9.7-0.5-11.1-4.9c-2-5.9,3.2-8.3,8.1-8.3c0.2,0,0.3-0.1,0.4-0.2l0.5-1.1
			c0.1-0.2,0.4-0.3,0.6-0.2c0.1,0.1,0.2,0.1,0.3,0.3l2.1,6c0.1,0.3,0,0.6-0.3,0.8c-0.3,0.1-0.6,0-0.7-0.2c-1.8-2.5-3.8-4.5-6.9-3
			C165.7,53.8,164.8,55.1,165.6,56.7z"/>
		<path class="st1" d="M158.4,74.2c0-0.1-0.1-0.1-0.2-0.1c0,0-0.1,0.1-0.1,0.1c-1.9,6.7-7.9,9.9-11.8,2.1c-1.5-3-3-6-4.5-9.1
			c-0.8-1.7-2-2-3.6-1c-0.1,0.1-0.3,0.1-0.5,0l-0.4-0.4c-0.1-0.1-0.2-0.3,0-0.5c0,0,0.1-0.1,0.1-0.1l6.1-3c0.2-0.1,0.3,0,0.3,0.1
			c1.9,4,3.9,8.1,5.9,12.1c2.7,5.4,6.6,1.9,7.6-2c0-0.2,0-0.3,0-0.5c-1.5-3.3-3.1-6.5-4.7-9.7c-0.8-1.6-1.8-2.6-3.5-1.3
			c-0.3,0.2-0.6,0.2-0.8-0.1c-0.1-0.1-0.1-0.2-0.1-0.4c0-0.4,0.2-0.7,0.6-0.9c1.9-0.8,3.6-1.7,5.3-2.5c0.2-0.1,0.4-0.1,0.5,0.2
			c2.2,4.7,4.5,9.3,6.9,13.9c0.8,1.6,1.9,1.4,3.1,0.3c0.2-0.2,0.6-0.2,0.8,0c0.2,0.2,0.2,0.5,0,0.8l-4.8,5.2c-0.1,0.1-0.3,0.1-0.5,0
			c0,0-0.1-0.1-0.1-0.1L158.4,74.2z"/>
		<path class="st1" d="M323.7,82.5c-5,1.2-9.3-2.1-9.7-7.1c-0.7-9.1,12.8-18.3,18.6-8.5c0.1,0.1,0.2,0.1,0.3,0
			c1.4-2.1,2.6-4.2,3.5-6.5c0.2-0.5,0-1.1-0.5-1.3c-0.1,0-0.2-0.1-0.3-0.1c-0.5,0-0.9-0.2-1.2-0.5c-0.2-0.2-0.2-0.6,0-0.8
			c0.1-0.1,0.3-0.2,0.5-0.2l6.4,0.9c0.4,0.1,0.7,0.4,0.6,0.8c0,0.1,0,0.2-0.1,0.3c-4.4,7.6-8.8,15.2-13.2,23.1
			c-0.2,0.3-0.2,0.8,0,1.6c0,0.2,0.1,0.3,0.3,0.3l1.5,0.4c0.2,0.1,0.3,0.2,0.2,0.4l-0.1,0.4c0,0.3-0.2,0.4-0.5,0.4l-6.4-0.9
			c-0.4-0.1-0.7-0.5-0.7-0.9c0-0.1,0.1-0.2,0.1-0.3l0.8-1.2c0.1-0.1,0-0.2-0.1-0.3C323.8,82.5,323.8,82.4,323.7,82.5z M324.9,65.2
			c-5.5,2.1-10.3,15.1-1.7,15.7c1,0.1,1.8-0.3,2.3-1.1c1.3-2.1,2.8-4.7,4.5-7.9C332.1,68.1,329.7,63.4,324.9,65.2z"/>
		<path class="st1" d="M130.6,75.8c3.4-1.2,6.1-0.7,8.1,1.5c5.3,5.7-0.1,11.5-4.8,14.8c-3.8,2.7-7.7,5.3-11.5,8
			c-0.2,0.1-0.3,0.1-0.4-0.1l-0.4-0.6c-0.1-0.2-0.1-0.3,0.1-0.4c2.9-1.4,2.4-3.3,0.9-5.5c-3.6-5.3-7.3-10.6-11.1-15.9
			c-1.9-2.6-2.6-3.2-5.6-1.2c-0.2,0.1-0.3,0.1-0.4-0.1l-0.3-0.3c-0.1-0.1-0.1-0.4,0-0.5c0,0,0,0,0,0c4.2-3,8.4-5.9,12.5-8.7
			c2.8-1.9,7.2-3.1,10.4-1.2c3.6,2.1,4.4,6.4,2.2,10C130.4,75.8,130.5,75.8,130.6,75.8z M123.7,68.4c-3.5-1.2-7.7,1.4-10,4
			c-0.1,0.1-0.1,0.2,0,0.4l6,8.6c0.1,0.1,0.2,0.2,0.4,0.1c2.7-1.2,7-4,7.3-7.2C127.7,71.5,126.3,69.2,123.7,68.4z M121.7,84l5.9,8.8
			c0.3,0.4,0.8,0.5,1.3,0.2c0,0,0,0,0,0l3.6-2.4c3.4-2.3,4.6-6.5,2.7-9.3c0,0,0,0,0,0l0,0c-1.9-2.8-6.2-3.3-9.6-0.9c0,0,0,0,0,0
			l-3.6,2.4C121.5,83,121.4,83.6,121.7,84C121.7,84,121.7,84,121.7,84z"/>
		<path class="st1" d="M337.1,89.3c-1.4,2.1-0.2,2.4,0.8,3.8c0.2,0.2,0.1,0.5-0.1,0.7c-0.2,0.1-0.4,0.1-0.6,0l-7.5-5.7
			c-0.2-0.2-0.3-0.4-0.1-0.7l0.2-0.3c0.1-0.1,0.3-0.2,0.4-0.1c0,0,0,0,0.1,0c1.4,1.3,2.6,1.1,3.7-0.3c2.9-3.7,5.2-6.8,6.9-9.2
			c0.9-1.3,1.5-2.9-0.7-3.2c-0.2,0-0.4-0.2-0.3-0.4c0,0,0-0.1,0-0.1c0.2-0.5,0.5-0.7,0.8-0.6c1.7,0.4,3.7,1,6.2,1.7
			c0.6,0.2,0.7,0.5,0.3,1l-1.8,2.3c-0.1,0.1-0.1,0.2,0,0.3c0,0,0.1,0.1,0.2,0c2-0.2,4.2-0.7,6.2,0.3c2.5,1.3,3.8,3.7,2.9,6.6
			c0,0.1,0,0.3,0.2,0.4c0.1,0,0.1,0,0.2,0c5.8-1.9,12.8,2.8,8.1,9c-2.1,2.7-4.1,5.4-6.1,8.2c-1.2,1.6-1.9,3,0.1,4.3
			c0.2,0.1,0.2,0.3,0.1,0.4l-0.3,0.4c-0.1,0.1-0.3,0.2-0.4,0l-7.7-5.7c-0.1-0.1-0.1-0.2,0-0.3l0.4-0.6c0.1-0.1,0.3-0.2,0.5-0.1
			c0,0,0,0,0,0c1.3,1.4,2.5,1.3,3.7-0.1c1.9-2.4,3.7-4.8,5.4-7.3c1.3-1.8,2.6-3.4,1.4-5.2c-1.3-1.8-4.1-2.1-6.2-1.7
			c-0.2,0-0.3,0.1-0.4,0.2c-2.2,2.8-4.3,5.6-6.3,8.4c-1.3,1.7-1.6,2.9,0.3,4.3c0.2,0.2,0.3,0.5,0.1,0.7c-0.1,0.2-0.3,0.2-0.5,0.2
			c-0.4-0.1-0.9-0.4-1.4-0.7c-2.2-1.8-4.4-3.4-6.5-5c-0.3-0.2-0.3-0.5-0.1-0.8c0.2-0.2,0.4-0.3,0.7-0.2c1.2,0.5,2.1,1.7,3.4,0.2
			c2.5-3,4.8-6,6.8-9c3.2-4.7-2.2-6.2-5.6-5.7c-0.2,0-0.3,0.1-0.4,0.2C341.6,83.1,339.3,86.1,337.1,89.3z"/>
		<path class="st1" d="M92.5,100.6c-1.5-1.5-2.4-2.5-2.9-3.2c-2.9-4.5-1.2-9.9,3.5-12c1.9-0.8,3.4-0.5,4.5,0.9
			c0.1,0.1,0.2,0.3,0.2,0.5c-0.2,3.7-3.8,1.7-5.7,2.1c-2.1,0.4-2.6,2.7-1.4,4.4c0.8,1.1,2.3,2.6,4.5,4.5c0.1,0.1,0.2,0.1,0.4,0
			l3.1-3.3c0.1-0.2,0.3-0.2,0.5,0l0.9,0.9c0.1,0.1,0.1,0.3,0,0.4l-3.2,3.2c-0.1,0.1-0.1,0.3,0,0.4c2.8,2.7,5.6,5.4,8.4,8.2
			c2.7,2.7,4.1,3.7,6.9,0.5c0.1-0.1,0.2-0.1,0.3,0c0.5,0.3,0.6,0.7,0.3,1c-2.7,2.7-5.3,5.5-7.9,8.3c-0.1,0.2-0.3,0.2-0.5,0L104,117
			c-0.1-0.1-0.1-0.2,0-0.4c1.2-1.6,2-2.8,0.4-4.4c-3.4-3.4-6.8-6.8-10.3-10.1c-0.1-0.1-0.2-0.1-0.3,0l-2.3,2.4
			c-0.1,0.1-0.3,0.2-0.4,0l-0.8-0.8c-0.2-0.2-0.2-0.4,0-0.5c0,0,0,0,0,0l2.3-2.3C92.6,100.8,92.6,100.7,92.5,100.6z"/>
		<circle class="st1" cx="381.1" cy="93.5" r="2.3"/>
		<path class="st1" d="M371.1,99.7c-0.3-0.6-0.8-1-1.4-1.3c-0.2-0.1-0.3-0.4-0.2-0.6c0,0,0-0.1,0.1-0.1c0.2-0.2,0.5-0.3,0.8-0.1
			c2,0.7,4,1.6,6,2.6c0.2,0.1,0.3,0.4,0.2,0.7c0,0-0.1,0.1-0.1,0.1c-3.7,3.6-7.4,7.3-11.1,11.1c-1.4,1.4-2.5,2.4-0.9,4.3
			c0.3,0.3,0.4,0.7,0.1,1c-0.1,0.2-0.3,0.2-0.5,0l-6.9-6.9c-0.2-0.2-0.1-0.3,0.1-0.4l0.7-0.2c0.2,0,0.3,0,0.4,0.1
			c1,1.1,2.1,1.2,3.1,0.2c3-2.8,7.4-6.6,9.5-10C371.2,100.1,371.2,99.9,371.1,99.7z"/>
		<path class="st1" d="M383.1,113c7.9,0.7,10.9,6,4.1,11.5c-2.5,2-5,4.1-7.4,6.1c-1.3,1.1-1.5,2.5-0.1,3.6c0.1,0.1,0.1,0.3,0,0.4
			c0,0,0,0,0,0l-0.4,0.4c-0.2,0.2-0.3,0.1-0.4,0l-6.1-7.5c-0.2-0.2-0.1-0.5,0.1-0.7l0.1-0.1c0.1-0.1,0.3-0.1,0.4,0l1.7,1.4
			c0.1,0.1,0.3,0.2,0.5,0.1c0.6-0.1,1.1-0.3,1.5-0.7c4.6-3.5,7.7-6,9.1-7.5c1.5-1.6,1.1-3.6-0.7-4.8c-1.2-0.8-2.6-1.2-4.1-1.3
			c-0.2,0-0.3,0-0.4,0.1c-2.8,2.2-5.5,4.5-8.2,6.7c-1.3,1.1-2.2,2.3-0.8,3.8c0.2,0.2,0.3,0.4,0.4,0.5c0.1,0.3-0.1,0.5-0.4,0.7
			c-0.2,0.1-0.4,0.1-0.5-0.1l-6-7.4c-0.1-0.1-0.1-0.2,0-0.3l0.5-0.5c0.1-0.1,0.3-0.1,0.4,0c0,0,0,0,0,0.1c0.8,1.5,2,1.7,3.6,0.5
			c2.8-2.1,5.5-4.3,8.2-6.4c0.8-0.6,1.4-1.3,1.9-2.1c0.2-0.4,0.2-0.9-0.2-1.2l-1-0.9c-0.3-0.2-0.3-0.6-0.1-0.9
			c0.2-0.2,0.5-0.3,0.8-0.1l5.9,3.4c0.2,0.1,0.3,0.4,0.2,0.6c0,0-0.1,0.1-0.1,0.1l-2.5,2.1C382.8,112.8,382.8,112.9,383.1,113z"/>
		<path class="st1" d="M96.2,128.5c-3.7,3.9-10.2,3.8-14.5-0.3c-4.3-4.1-4.8-10.6-1.2-14.5c0,0,0,0,0,0c3.7-3.9,10.2-3.8,14.5,0.3
			C99.4,118.1,99.9,124.6,96.2,128.5L96.2,128.5z M96.2,125.7c1.5-2.6-0.7-6.7-5-9.2c0,0,0,0,0,0c-4.3-2.5-9-2.5-10.5,0
			c-1.5,2.6,0.7,6.7,5,9.2c0,0,0,0,0,0C89.9,128.3,94.6,128.2,96.2,125.7z"/>
		<circle class="st1" cx="406.5" cy="124.9" r="2.3"/>
		<path class="st1" d="M385.7,144.2c0.1,0.3,0,0.5-0.3,0.6c-0.2,0.1-0.5,0-0.6-0.2l-5.1-7.8c-0.1-0.2-0.1-0.4,0.1-0.5l0.4-0.2
			c0.2-0.1,0.4,0,0.4,0.1c0,0,0,0,0,0c0.8,1.5,1.9,1.9,3.3,1c4.5-2.8,8-5.1,10.6-7c0.4-0.3,0.6-0.7,0.8-1.3c0-0.2,0-0.3-0.1-0.5
			l-1-1c-0.1-0.1-0.1-0.3-0.1-0.4l0.3-0.6c0.1-0.1,0.2-0.2,0.3-0.1c0,0,0,0,0,0l5.7,4.1c0.2,0.1,0.2,0.4,0.1,0.6
			c0,0-0.1,0.1-0.1,0.1c-5.1,3.3-9.9,6.4-14.6,9.5c-0.5,0.3-0.8,0.8-0.9,1.5c0,0.1,0,0.2,0,0.3L385.7,144.2z"/>
		<path class="st1" d="M73.4,151.6c0.1,0,0.1,0,0.1-0.1c0,0,0-0.1,0-0.1c-2.5-3-5.1-5.9-7.6-8.8c-0.3-0.3-0.7-0.6-1.2-0.8
			c-0.2-0.1-0.3-0.1-0.5,0c-0.4,0.2-0.7,0.6-0.9,1c-0.1,0.3-0.4,0.4-0.7,0.3c-0.2-0.1-0.3-0.3-0.3-0.5c0-1.1,2.1-4.6,2.7-5.8
			c0.1-0.2,0.3-0.3,0.5-0.1l0.4,0.3c0.2,0.1,0.2,0.3,0.1,0.4c-0.4,1-0.3,1.9,0.4,2.7c4.8,5.5,9.6,11.1,14.4,16.7
			c2.2,2.6,5.6,8.5,1.2,11c-0.8,0.5-2,0.3-2.7-0.4c-1.7-1.7,0.2-3.5,1.7-4.9c0.1-0.1,0.2-0.3,0.2-0.4c0.1-2.2-2.4-4.8-3.7-6.2
			c-0.1-0.1-0.2-0.2-0.4-0.2c-5-0.2-9.9-0.4-14.8-0.6c-2.2-0.1-5.1,0.1-5.9,1.6c-0.1,0.2-0.3,0.2-0.4,0.1c0,0,0,0,0,0
			c-0.5-0.3-0.6-0.7-0.4-1.1c1.3-2.6,2.6-5.2,4-7.8c0.1-0.2,0.3-0.3,0.5-0.1l0.2,0.2c0.1,0.1,0.2,0.3,0.2,0.5l-0.4,1.6
			c0,0.1,0,0.3,0.1,0.4c0.6,0.6,1.1,0.8,1.5,0.8C65.5,151.4,69.5,151.5,73.4,151.6z"/>
		<path class="st1" d="M406.2,143.5c-1.4-2-4.3-1.8-4.9,0.8c-1.1,4.6,1.8,10.7-4.1,13.2c-1.2,0.5-2.6,0.5-4-0.2
			c-3.9-1.8-4.4-4.5-5.5-8.3c0-0.2-0.1-0.3-0.3-0.4l-1.1-0.8c-0.1-0.1-0.1-0.2-0.1-0.3c0,0,0-0.1,0.1-0.1l6.3-3.3
			c0.2-0.1,0.5,0,0.6,0.2c0.1,0.2,0.1,0.4-0.1,0.5c-0.8,0.9-1.8,1.9-2.4,2.9c-1.1,2-1.1,5.8,1.5,6.9c4.4,1.8,4.5-4.6,4.5-7.3
			c0-3.8,0.2-6,3.9-7.3c4.6-1.6,8,2.8,8.1,7.1c0,0.2,0.1,0.3,0.3,0.4l1.1,0.4c0.3,0.1,0.4,0.4,0.3,0.7c-0.1,0.1-0.2,0.2-0.3,0.3
			l-5.5,2.8c-0.3,0.1-0.6,0-0.7-0.2c-0.1-0.2-0.1-0.4,0.1-0.6C406.2,148.7,408.5,146.9,406.2,143.5z"/>
		<path class="st1" d="M414.8,159.4l1.8,3.7c0.1,0.2,0,0.3-0.1,0.4l-1.2,0.5c-0.2,0.1-0.3,0-0.4-0.2l-1.7-3.7
			c-0.1-0.1-0.2-0.2-0.3-0.1c-4.1,1.9-8.1,3.8-12.1,5.7c-2.5,1.2-1.5,3.9,1,3.9c0.2,0,0.3,0.1,0.4,0.2l0.3,0.5
			c0.1,0.3,0.1,0.4-0.2,0.4c-1.2,0.1-2.3,0-3.4-0.5c-2.5-1-4.1-3.9-2.2-6.3c0.6-0.7,1.6-1.4,3.2-2.2c3.8-1.8,7.6-3.6,11.5-5.4
			c0.2-0.1,0.2-0.2,0.1-0.4c-0.3-0.7-0.7-1.4-1-2c-0.1-0.1-0.1-0.2-0.1-0.3c0-0.1,0-0.2,0-0.2c0-0.3,0.3-0.4,0.6-0.4
			c0.1,0,0.1,0,0.2,0.1c2.1,1.6,4.5,2.3,7.3,2.2c0.6,0,1.2,0,1.9,0.1c0.3,0,0.5,0.3,0.4,0.6c0,0.2-0.1,0.3-0.3,0.4l-5.4,2.6
			C414.8,159.2,414.7,159.3,414.8,159.4z"/>
		<path class="st1" d="M54.6,163.5c2.7,1.1,12.2,5.7,14.6,5c0.1,0,0.3-0.1,0.3-0.3c0.5-1.2,0.3-2.4-0.5-3.4c-0.1-0.1-0.1-0.2,0-0.3
			c0,0,0,0,0,0c0.1,0,0.1-0.1,0.1-0.2c0-0.5,0.1-0.5,0.5-0.2c2.5,2,3.4,5.8,0.8,7.9c-1.1,0.9-2.4,1.1-4,0.5
			c-4.3-1.7-8.7-3.5-13.1-5.2c-0.3-0.1-0.7,0-0.8,0.3c0,0,0,0,0,0l-0.8,2.1c-0.1,0.3-0.4,0.4-0.7,0.3c-0.2-0.1-0.3-0.2-0.3-0.4
			c-0.4-3.4-1.9-6.1-4.5-8.3c-0.2-0.2-0.3-0.5-0.1-0.8c0.1-0.2,0.4-0.2,0.6-0.2l5.4,2.2c0.2,0.1,0.4,0,0.5-0.2l1.5-3.9
			c0.1-0.2,0.2-0.2,0.4-0.1l1.2,0.7c0.1,0.1,0.2,0.2,0.1,0.3l-1.6,3.7C54.4,163.3,54.5,163.4,54.6,163.5z"/>
		<path class="st1" d="M417.3,174.3c2.1,0.4,4.8,1.8,5.2,4.1c0.2,1.7-1.8,3.8-3.5,2.6c-1.7-1.2-0.7-2.9-0.5-4.4
			c0-0.2-0.1-0.3-0.2-0.4c-1.6-0.7-3.1-1.3-4.9-0.7c-2.1,0.7-4.3,1.5-6.4,2.2c-2.8,1-5,1.4-3.9,4.9c0.1,0.2,0,0.3-0.2,0.4l-0.4,0.1
			c-0.2,0.1-0.4,0-0.4-0.2l-3.2-9.4c-0.1-0.3,0-0.6,0.3-0.7c0.2-0.1,0.5,0,0.6,0.2c1.2,1.4,0.9,2.7,3.4,1.8
			c4.5-1.4,8.4-2.8,11.7-4.1c1.6-0.6,1.1-1.9,0.2-2.9c-0.1-0.1-0.1-0.2,0-0.3l0.3-0.5c0.1-0.2,0.3-0.2,0.5-0.1c0,0,0,0,0.1,0.1
			l4.6,5.3c0.2,0.2,0.2,0.5,0,0.7c0,0-0.1,0.1-0.2,0.1l-3.1,1C416.9,174.1,416.9,174.2,417.3,174.3z"/>
		<path class="st1" d="M62.3,183.2c-7.2-2.5-14.5-5.3-21.9-7.3c-0.5-0.1-1,0.2-1.1,0.6c0,0,0,0,0,0.1l-0.3,1.4
			c-0.1,0.3-0.4,0.5-0.7,0.5c-0.3,0-0.5-0.3-0.5-0.5l-0.4-6.4c0-0.4,0.3-0.7,0.6-0.7c0.1,0,0.2,0,0.3,0c8.1,2.8,16.3,5.6,24.6,8.4
			c1.9,0.6,3.8,1,4.2-1.5c0-0.3,0.3-0.4,0.6-0.4c0,0,0.1,0,0.1,0c0.4,0.1,0.6,0.4,0.5,0.8c-1,3-2,6-3,9c-0.1,0.2-0.3,0.3-0.5,0.2
			c-0.1,0-0.1,0-0.1-0.1l-0.3-0.3c-0.1-0.1-0.1-0.2-0.1-0.3l0.2-1.8c0-0.2-0.1-0.4-0.2-0.5C63.9,183.9,63.2,183.5,62.3,183.2z"/>
		<path class="st1" d="M408.8,197.8c-3.5-2.4-7-7.5-1.7-10.5c5.2-2.9,9.7,4,12.2,8.1c0.1,0.2,0.2,0.2,0.4,0.2c1.7-0.3,4.3-0.9,4.6-3
			c0.3-2.2-0.4-3.5-2.3-3.8c-1.8-0.4-3,1.4-4.4-1c-0.1-0.1-0.1-0.3-0.1-0.4c0.3-3.5,4.3-2.6,6-0.8c2.2,2.2,3.1,5,2.7,8.2
			c-0.3,3-2.3,3.8-5.2,4.5c-3.5,0.8-7,1.7-10.6,2.6c-0.4,0.1-0.6,0.5-0.5,0.8c0,0.2,0.1,0.3,0.3,0.4l2,1.5c0.1,0.1,0.1,0.2,0,0.2
			c-1.4,1.1-4-1.1-4.9-2.1c-1.4-1.7-1-4.1,1.4-4.4c0.1,0,0.2-0.1,0.2-0.3C408.9,197.9,408.8,197.9,408.8,197.8z M417.6,195.9
			c-1.5-2.9-5.4-7.6-8.9-4.5c-2.3,2,0,4.5,1.9,6.1c0.1,0.1,0.3,0.1,0.4,0.1l6.5-1.5C417.6,196.1,417.7,196,417.6,195.9z"/>
		<path class="st1" d="M60.5,195.4c2,3.3,4.1,7.8-0.5,10.2c-2,1.1-4.2,0.5-6.4,0c-2.8-0.7-8.3-2.6-11-2.1c-0.2,0-0.3,0.1-0.4,0.3
			l-0.9,2c-0.1,0.2-0.4,0.3-0.6,0.2c-0.4-0.1-0.5-0.4-0.4-0.8c0.6-2.1,1.1-4.2,1.6-6.3c0-0.1,0.2-0.2,0.3-0.2c0,0,0,0,0,0
			c4.6,1.2,9.2,2.3,13.9,3.4c0.9,0.2,2.4,0.1,3.1-0.7c1.7-1.9,0.6-4.6-0.4-6.6c-0.1-0.1-0.2-0.2-0.4-0.3c-3.5-0.9-6.9-1.8-10.4-2.6
			c-2.5-0.6-2.9-0.3-3.8,2.1c-0.1,0.2-0.2,0.2-0.4,0.2l-0.5-0.2c-0.2-0.1-0.3-0.2-0.2-0.4l1.6-6.4c0-0.2,0.1-0.2,0.3-0.2
			c4.8,1.2,9.7,2.4,14.5,3.5c1.4,0.3,3.2,0.5,2.7-1.8c0-0.2,0-0.4,0.2-0.5l0.2-0.1c0.3-0.2,0.6-0.1,0.8,0.2c0,0.1,0.1,0.2,0.1,0.2
			l0.9,6.7c0,0.3-0.2,0.6-0.5,0.6c-0.1,0-0.2,0-0.2,0l-3.1-0.9c-0.1,0-0.2,0-0.2,0.1C60.4,195.3,60.4,195.3,60.5,195.4z"/>
		<path class="st1" d="M428.8,210.8l0.5,4.1c0,0.2-0.1,0.3-0.3,0.3l-1.4,0.1c-0.2,0-0.3-0.1-0.3-0.2l-0.5-4c0-0.2-0.1-0.3-0.3-0.3
			c-6,0.7-10.3,1.3-12.8,1.6c-0.5,0.1-1.2,0.3-1.9,0.6c-0.2,0.1-0.3,0.2-0.3,0.4c-0.9,2.8,2.3,2.7,1.9,4.1c0,0.2-0.2,0.2-0.3,0.2
			c-5.3-1.2-7.3-8.1-0.4-9.1c4.4-0.6,8.8-1.2,13.3-1.6c0.2,0,0.3-0.1,0.3-0.3l-0.2-2.5c0-0.3,0.2-0.5,0.5-0.5c0.2,0,0.3,0.1,0.4,0.2
			c2.2,3.1,4.6,3.9,8,5c0.2,0.1,0.3,0.2,0.3,0.4c0,0,0,0.1,0,0.2c0,0.2-0.1,0.4-0.3,0.4c0,0,0,0,0,0l-5.9,0.7
			C428.9,210.5,428.8,210.6,428.8,210.8C428.8,210.7,428.8,210.8,428.8,210.8z"/>
		<path class="st1" d="M57.4,225.6c-6.4,5.8-19.5,2.4-18.9-7.6c0.2-2.9,1.5-5,4-6.3c2.9-1.5,4.6,2.2,2.4,3.9
			c-0.9,0.7-2.2,0.6-3.3,0.8c-0.1,0-0.3,0.1-0.4,0.2c-1.3,1.5-1.4,3.1-0.5,4.8c2.6,4.6,13.8,4.2,15.2-1.5c1-4.2-1.5-5.1-4.1-7.3
			c-0.2-0.2-0.2-0.5-0.1-0.7c0.1-0.1,0.3-0.2,0.5-0.2C58.4,213.1,63,220.5,57.4,225.6z"/>
		<path class="st1" d="M411.6,222c0.7,0.2,1.4,0.2,2.3,0.2c6.3-0.4,10.3-0.8,12-1.1c1.1-0.2,1.5-0.9,1-2.1c-0.2-0.5-0.2-0.8,0-1.1
			c0.2-0.3,0.5-0.3,0.8-0.1c0.1,0.1,0.1,0.1,0.2,0.2l2.9,5.6c0.4,0.7,0.1,1.1-0.6,1.2c-5.3,0.4-10.8,0.9-16.5,1.4
			c-1.7,0.1-2.4,1.1-2.2,2.8c0,0.3-0.2,0.6-0.5,0.6c-0.2,0-0.3,0-0.5-0.2c-0.2-0.3-0.4-0.6-0.4-1.1c-0.2-2.9-0.4-5.7-0.6-8.4
			c0-0.3,0.2-0.5,0.5-0.5c0.2,0,0.4,0.1,0.5,0.3l0.6,2C411.3,221.9,411.4,222,411.6,222z"/>
		<circle class="st1" cx="438.8" cy="222.1" r="2.3"/>
		<path class="st1" d="M56.4,238.1c2.9,3,5,7.6,0.2,10.1c-6.2,3.2-9.5-5.8-11-9.8c-0.1-0.2-0.2-0.2-0.3-0.3c-1.7-0.3-4.7,0-5.3,2.1
			c-0.5,1.8,0,3.2,1.5,4c0.1,0.1,0.3,0.1,0.5,0.1c6.5-0.8,3.5,6.5-0.8,3.2c-3.1-2.3-3.6-6.8-2.5-10.2c0.9-2.6,2.9-3.2,5.6-3.3
			c3.5-0.1,7-0.2,10.5-0.2c0.2,0,0.3,0,0.5-0.1c0.2-0.1,0.3-0.1,0.4-0.1c0.4-0.1,0.7-0.4,0.6-0.8c0-0.1-0.1-0.2-0.1-0.3l-1.7-1.8
			c-0.1-0.1-0.1-0.2,0.1-0.3c2.2-0.7,6.8,4.4,3.6,6.9c0,0-0.1,0-0.1,0l-1.5,0.4C56.2,237.8,56.2,237.9,56.4,238.1z M50.4,243.7
			c1.6,1.7,4.6,1.6,5.8-0.6c0.9-1.7-0.5-3.6-1.6-5.2c-0.1-0.1-0.2-0.2-0.3-0.2l-6.7,0.2c-0.2,0-0.2,0.1-0.2,0.2
			C48,240.5,49,242.3,50.4,243.7z"/>
		<path class="st1" d="M431.3,243c-0.6,5.4-5.8,9.2-11.7,8.6c-5.9-0.6-10.3-5.5-9.7-10.8c0.6-5.4,5.8-9.2,11.7-8.6
			C427.5,232.8,431.8,237.7,431.3,243L431.3,243z M413.5,245.9c3.5,2.4,12.6,1.5,15.1-1.9c2.1-2.8,0.2-6.2-3-7
			c-4.1-1-7.9-0.5-11.4,1.5C411.4,240,410.8,244,413.5,245.9z"/>
		<path class="st1" d="M425.7,263.4c1.5,1.8,3.2,4.8,2.5,7.2c-0.9,3-3.2,4.2-6.7,3.7c-2-0.3-5.7-0.9-11.1-1.8
			c-2.4-0.4-2.2,0.7-3,2.3c-0.1,0.3-0.5,0.4-0.7,0.3c-0.2-0.1-0.3-0.3-0.3-0.6l1.6-9.3c0-0.2,0.2-0.3,0.4-0.4c0.3,0,0.5,0.1,0.6,0.4
			c0.4,0.9-0.3,1.7,0.4,2.8c0.1,0.1,0.2,0.2,0.4,0.3c3.7,0.8,7.3,1.5,11,2c1.5,0.2,2.5,0.2,3.1-0.1c2.9-1.2,1.5-7.2-1.3-7.6
			c-3.3-0.5-6.7-1.1-10-1.8c-2-0.4-3,0.4-3.1,2.3c0,0.3-0.2,0.5-0.5,0.5c0,0,0,0,0,0c-0.6,0-0.8-0.3-0.7-0.9
			c0.5-3.1,1.1-6.1,1.7-9.1c0-0.2,0.2-0.3,0.4-0.3c0,0,0,0,0,0l0.5,0.1c0.2,0.1,0.3,0.2,0.2,0.4c-0.9,2.5,1.4,3,3.2,3.3
			c4,0.7,8.2,1.7,12.2,1.7c0.2,0,0.4-0.2,0.4-0.4l0.1-1.8c0-0.1,0.1-0.2,0.1-0.3c0.2-0.2,0.5-0.3,0.8-0.2c0.2,0.1,0.3,0.2,0.3,0.4
			l1.3,6.4c0.1,0.6-0.1,0.8-0.7,0.7l-3.1-0.6c-0.1,0-0.2,0-0.2,0.1C425.7,263.3,425.7,263.3,425.7,263.4z"/>
		<path class="st1" d="M59,265.1c0.4-0.9,0.6-1.9,0.4-2.9c-0.1-0.7,0.1-1,0.7-1c0.3,0,0.5,0.2,0.5,0.5l1.3,12.3
			c0,0.2-0.1,0.3-0.3,0.3l-0.6,0c-0.2,0-0.3-0.1-0.3-0.3c0,0,0,0,0,0c0-1.2-0.4-2.3-1.1-3.2c-0.1-0.1-0.3-0.2-0.4-0.2
			c-0.7-0.1-1.5-0.1-2.4,0c-10.6,1-17.9,1.8-21.9,2.3c-1.5,0.2-1.6,2.6-1.4,4c0,0.2,0,0.3-0.2,0.4c-0.3,0.2-0.6,0.2-0.8,0.1
			c-0.1-0.1-0.2-0.3-0.3-0.6c-0.7-7.1-1.5-14.2-2.2-21.4c0-0.1,0-0.2,0.2-0.2l6.2-0.9c0.2,0,0.3,0,0.4,0.2c0.2,0.3,0.2,0.6-0.1,0.9
			c-0.1,0.1-0.3,0.2-0.4,0.3c-3.5,1.1-3.9,3.5-3.6,6.9c0.2,1.9,0.4,3.9,0.6,5.8c0,0.1,0.1,0.2,0.2,0.2c0,0,0,0,0,0l10.7-1.1
			c0.1,0,0.2-0.1,0.2-0.3c-0.1-1.4-0.3-2.8-0.5-4.1c-0.5-3.1-0.8-3.9-4.2-4.1c-0.2,0-0.3-0.1-0.3-0.3l0-0.5c0-0.2,0.1-0.3,0.3-0.3
			l9.6-1c0.2,0,0.3,0.1,0.4,0.2l0.1,0.5c0,0.2-0.1,0.3-0.2,0.4c0,0,0,0,0,0c-1.9,0.3-3.5,0.8-3.5,3.2c0.1,2,0.2,3.9,0.5,5.8
			c0,0.2,0.1,0.2,0.3,0.2c3.2-0.3,6.4-0.7,9.6-1c0.7-0.1,1.5-0.3,2.1-0.6C58.9,265.3,59,265.2,59,265.1z"/>
	</g>
	<path class="st14" d="M391.6,234.5c0,86.7-70.3,157.1-157.1,157.1l0,0c-86.7,0-157.1-70.3-157.1-157.1
		c0-86.7,70.3-157.1,157.1-157.1C321.3,77.4,391.6,147.8,391.6,234.5L391.6,234.5z"/>
	<g>
		<g>
			<path class="st0" d="M267.5,163.7c-10.2-15.7-23.7-30-40-39.4c-8.5-4.9-18.5-8.3-28.5-7.4c-6.3,0.5-12.7,3.7-15.2,9.8
				c-7.4,18.4-0.7,41.3,8.4,57.8c0,0.1,0.1,0.1,0.2,0.1c0.1,0,0.1-0.1,0.1-0.2c-5.3-16.1-14.5-41.7,4.8-52.9
				c10.4-6,23.5-0.8,32.9,4.7c28.7,17,46.7,45.3,57,76.4c0,0.1,0.1,0.1,0.2,0c0-0.1,0-0.2,0-0.3c-0.7-3.2-1.5-6.4-2.3-9.5
				C281.4,188.6,275.4,175.8,267.5,163.7z"/>
			<path class="st0" d="M281.8,272.8l-31.9,0.3c-0.2,0-0.3,0.1-0.3,0.3c-0.4,16.8-0.6,33.7-0.5,50.7c0,3.3-0.2,7.1-0.1,10.6
				c0,0,0,0,0,0c0,0.2-0.2,0.4-0.4,0.4l-9.5-0.1c-0.2,0-0.3-0.1-0.3-0.3l0.1-40.5c0-0.3-0.2-0.5-0.5-0.5l-32.5,0
				c-0.2,0-0.3,0.1-0.3,0.3l0,31.8c0,0.3,0.2,0.5,0.5,0.5l20.8,0c0.2,0,0.3,0.1,0.3,0.3l-0.2,7.7c0,0.2-0.1,0.3-0.3,0.3l-30.5,0
				c-0.2,0-0.2-0.1-0.2-0.2v-61c0-0.2-0.1-0.2-0.2-0.2l-13.7-0.4c-0.2,0-0.4,0.1-0.4,0.3l0,60.4c0,0.1-0.1,0.2-0.2,0.3l-6.2,0.2
				c-0.1,0-0.2-0.1-0.2-0.2l0-17.4c0-0.1-0.1-0.2-0.2-0.2l-11.2,0c-0.2,0-0.3,0.1-0.3,0.3v17.6c0,0.2-0.1,0.2-0.2,0.2l-7.2,0
				c-0.2,0-0.2-0.1-0.2-0.2l0-24.4c0-0.5,0.2-0.7,0.7-0.7l18.6,0c0.2,0,0.4-0.2,0.4-0.4l0-35.3c0-0.2-0.1-0.2-0.2-0.2l-3.6,0
				L141,273c-0.3,0-0.5,0.2-0.5,0.5l0.1,73c0,0.2,0.2,0.4,0.4,0.4h118.1c0.4,0,0.5-0.2,0.5-0.5l-0.1-60.9c0-0.2,0.1-0.3,0.3-0.3
				l11.5,0c0.2,0,0.3,0.1,0.3,0.3l0,62.2c0,0.2,0.1,0.2,0.2,0.2l9.6-0.3c0.2,0,0.4-0.2,0.4-0.5l0.1-66.8l0-7.3
				C282.1,273,282,272.8,281.8,272.8z M152.9,295.7c-0.3,0-0.5-0.2-0.5-0.5l0-10.9c0-0.3,0.2-0.5,0.5-0.5l10.8,0c0,0,0,0,0,0
				c0.3,0,0.5,0.2,0.5,0.5l0,10.9v0c0,0.3-0.2,0.5-0.5,0.5L152.9,295.7L152.9,295.7z M228.7,316C228.7,316,228.7,316,228.7,316
				c0,0.1-0.1,0.2-0.2,0.2h-11.4c-0.1,0-0.2-0.1-0.2-0.2v-11.5c0-0.1,0.1-0.2,0.2-0.2l11.5-0.1c0.1,0,0.2,0.1,0.2,0.2L228.7,316z"/>
			<path class="st0" d="M216.9,284.5C216.9,284.5,217,284.5,216.9,284.5l0.2,0.2c0,0,0,0,0.1,0c0.1,0,0.1,0,0.1-0.1l0.1-10.8
				c0-0.1,0-0.1-0.1-0.1l-10.7,0c-0.1,0-0.1,0-0.1,0.1l0,10.6c0,0.1,0,0.1,0.1,0.1L216.9,284.5z"/>
			<path class="st0" d="M227.3,284.5l10.4,0c0.1,0,0.2-0.1,0.2-0.2l0-10.5c0-0.1-0.1-0.2-0.2-0.2l-10.4,0c-0.1,0-0.2,0.1-0.2,0.2
				l0,10.5C227.2,284.5,227.3,284.5,227.3,284.5z"/>
			<path class="st0" d="M322.8,274.5l-31.5,0c-0.1,0-0.2,0.1-0.2,0.2l0,4.5l0,24.9c0,0.2,0.1,0.3,0.3,0.3l20.6,0
				c0.4,0,0.7,0.2,0.7,0.7v31.4c0,0.3-0.2,0.5-0.5,0.5h-10c-0.1,0-0.2-0.1-0.2-0.2l0-21.5c0-0.2-0.1-0.2-0.2-0.2l-10.8-0.2
				c-0.2,0-0.3,0.1-0.3,0.3l0,32.7c0,0.1,0.1,0.2,0.2,0.2l3.7,0l28.2,0c0.4,0,0.6-0.2,0.6-0.6l0-72.4
				C323.4,274.7,323.2,274.5,322.8,274.5z M312.7,295.6l-11.3,0c-0.2,0-0.3-0.1-0.3-0.3l0-11.2c0-0.2,0.1-0.3,0.3-0.3l11.3,0
				c0.2,0,0.3,0.1,0.3,0.3l0,11.2C313,295.5,312.9,295.6,312.7,295.6z"/>
		</g>
		<g>
			<path class="st1" d="M351.1,163.9c0-0.4-0.2-0.6-0.6-0.6l-82.5,0c-0.1,0-0.3-0.1-0.3-0.2c-11.4-17-26.9-33.5-45.8-42.2
				c-11.5-5.3-32.7-9.1-38.7,6.6c-4.1,10.8-3.2,24.3-0.2,35.2c0,0,0,0.1,0,0.1c0,0.2-0.2,0.4-0.4,0.4l-64.4,0
				c-0.2,0-0.3,0.1-0.3,0.3v17.7c0,0.2,0.1,0.3,0.3,0.3l2.2,0l69.4,0c0.4,0,0.7,0.2,0.9,0.5l1.3,2.7l1.8,3.2c0,0.1,0.1,0.1,0.2,0.1
				c0.1,0,0.1,0,0.2-0.1c0.1,0,0.2-0.1,0.1-0.3l-1-3.1l-0.9-2.8c-0.1-0.2,0-0.3,0.2-0.3h80c0.2,0,0.4,0.1,0.5,0.3l1.7,3.4
				c1.8,2.9,3.4,6.1,4.8,9.6c0.1,0.2,0,0.2-0.2,0.2H144.9c-0.2,0-0.3,0.1-0.3,0.3v17.7c0,0.2,0.1,0.3,0.3,0.3l3.1,0l138.9,0
				c0.1,0,0.2,0.1,0.3,0.2l0.9,2.6c0,0.1,0.1,0.1,0.2,0.1c0.1,0,0.2-0.1,0.2-0.2l-0.4-2.2c0,0,0,0,0-0.1c0-0.2,0.2-0.4,0.4-0.4h35.4
				c0.2,0,0.4-0.2,0.4-0.4l0.1-16.4l-0.1-1.3c0-0.2-0.1-0.2-0.2-0.2h-40.3c-0.2,0-0.4-0.1-0.4-0.3l-4-10.6l-1.1-2.4
				c-0.1-0.2,0-0.2,0.2-0.2h72.5c0.2,0,0.4-0.2,0.4-0.4l0-15L351.1,163.9z M260.2,163.3l-72.7,0c-0.3,0-0.5-0.2-0.5-0.5
				c-1.9-9.9-1.3-21.8,7.2-28.8c20.2-16.7,54.3,14,66.3,28.7C260.8,163.1,260.7,163.3,260.2,163.3z M285,202.7
				c0.8,3.2,1.6,6.3,2.3,9.5c0,0.1,0,0.2,0,0.3c-0.1,0.1-0.1,0.1-0.2,0c-10.3-31.1-28.3-59.4-57-76.4c-9.4-5.5-22.5-10.7-32.9-4.7
				c-19.2,11.2-10.1,36.8-4.8,52.9c0,0.1,0,0.2-0.1,0.2c-0.1,0-0.2,0-0.2-0.1c-9.2-16.5-15.8-39.4-8.4-57.8
				c2.5-6.1,8.9-9.3,15.2-9.8c9.9-0.8,20,2.5,28.5,7.4c16.3,9.4,29.7,23.7,40,39.4C275.4,175.8,281.4,188.6,285,202.7z"/>
			<path class="st1" d="M323.4,274l-24,0l-4.3-0.1c-0.2,0-0.3-0.1-0.3-0.3v-44.2l0-2.3c0-0.2-0.1-0.2-0.2-0.2h-17.7
				c-0.2,0-0.4,0.1-0.4,0.4V272c0,0.2-0.1,0.3-0.3,0.3l-27-0.1c-0.2,0-0.3,0.1-0.3,0.3l-0.1,9.1c0,17.5-0.1,35-0.3,52.5
				c0,0.3-0.1,0.4-0.4,0.3c-1.7,0.3-3.2,0.3-4.6-0.1l0-36.7l0-6.9l0-10.2l0-51.4l0-2.2c0-0.1-0.1-0.2-0.2-0.2h-17.8
				c-0.1,0-0.2,0.1-0.2,0.2l0,47.6l-0.1,18.2c0,0.2-0.1,0.3-0.3,0.3l-19.4,0c-0.2,0-0.3,0.1-0.3,0.3c0.1,10.2,0.1,20.3-0.1,30.4
				c0,0.5,0.1,1.3,0.2,2.6c0,0.2,0.1,0.2,0.3,0.2l19.7,0l0,4.6l-0.1,2.3c0,0.2-0.1,0.3-0.3,0.3l-23.2,0.2l-4.6,0
				c-0.4,0-0.7-0.3-0.7-0.7l0-52.7v-6.1l0-2c0-0.2-0.1-0.3-0.3-0.3l-3.1-0.1l-3.1,0.2c0,0,0,0,0,0c-0.2,0-0.3-0.2-0.3-0.3l0-42.5
				l0-2.3c0-0.2-0.1-0.2-0.2-0.2h-17.7c-0.2,0-0.2,0.1-0.2,0.2V272c0,0.1,0,0.1-0.1,0.1c0,0-0.1,0.1-0.1,0.1h-31.1
				c-0.3,0-0.6,0.3-0.6,0.6l0.4,74.1c0,0.2,0.1,0.3,0.3,0.3l3.9,0.2h27.5l-0.3,5.1c0,0.2,0.1,0.2,0.2,0.2h17.8
				c0.2,0,0.2-0.1,0.2-0.2l-0.2-5.1l35.9,0l-0.2,5c0,0.2,0.1,0.3,0.3,0.3l3.6,0l14.3,0c0.2,0,0.3-0.1,0.2-0.3l-0.1-5.1l16.3,0
				c0.2,0,0.4-0.2,0.4-0.4l0.1-60.9c0-0.1,0.1-0.2,0.2-0.2h10.3c0.2,0,0.3,0.1,0.3,0.3l0.1,1.4l0.1,60.6c0,0.2,0.1,0.3,0.3,0.3h4.8
				c0,0,0,0,0,0c0.2,0,0.3,0.1,0.3,0.3l-0.1,3.7c0,0.1,0.1,0.2,0.2,0.2l4.3,0l13.5,0c0.2,0,0.3-0.1,0.3-0.3l0-3.9
				c7.4,0,14.8,0,22.1-0.1c2.1,0,4.2,0,6.4,0.2c0,0,0,0,0,0c0.3,0,0.6-0.3,0.6-0.6l0-68.1l0-1.8v-3.7
				C323.8,274.1,323.7,274,323.4,274z M283.1,276.7C283.2,276.7,283.2,276.7,283.1,276.7C283.2,276.7,283.2,276.7,283.1,276.7z
				 M283.1,276.8C283,276.8,283,276.8,283.1,276.8C283,276.8,283,276.8,283.1,276.8z M282.9,277.1c0,0,0,0.1,0,0.1
				C282.9,277.2,282.9,277.2,282.9,277.1C282.9,277.2,282.9,277.2,282.9,277.1z M282.9,276.9C282.9,277,282.9,277,282.9,276.9
				C282.9,277,282.9,277,282.9,276.9z M235.5,286.1c0,0.1,0,0.2,0.1,0.4C235.5,286.3,235.5,286.2,235.5,286.1
				C235.5,286.1,235.5,286.1,235.5,286.1z M235.5,285.8c0-0.1,0-0.1,0-0.2C235.6,285.7,235.6,285.8,235.5,285.8z M235.7,285.5
				c0-0.1,0.1-0.1,0.1-0.2C235.8,285.4,235.7,285.5,235.7,285.5z M236,285.2c0.1,0,0.1-0.1,0.2-0.1C236.1,285.2,236,285.2,236,285.2
				z M227.1,273.9c0-0.1,0.1-0.2,0.2-0.2l10.4,0c0.1,0,0.2,0.1,0.2,0.2l0,10.5v0c0,0.1-0.1,0.2-0.2,0.2l-10.4,0
				c-0.1,0-0.2-0.1-0.2-0.2L227.1,273.9C227.1,273.9,227.1,273.9,227.1,273.9z M171.5,315.6l-8.4,0c-0.2,0-0.3,0.1-0.3,0.3l0,17.5
				c0,0.2-0.1,0.2-0.2,0.2h-6.1c-0.2,0-0.4-0.2-0.4-0.4l0.1-23.7c0-0.1,0.1-0.3,0.3-0.3l15.2,0L171.5,315.6z M282,347.2
				c0,0.2-0.2,0.5-0.4,0.5L272,348c-0.2,0-0.2-0.1-0.2-0.2l0-62.2c0-0.2-0.1-0.3-0.3-0.3l-11.5,0c-0.2,0-0.3,0.1-0.3,0.3l0.1,60.9
				c0,0.4-0.2,0.5-0.5,0.5H141c-0.2,0-0.4-0.2-0.4-0.4l-0.1-73c0-0.3,0.2-0.5,0.5-0.5l30.5-0.1l3.6,0c0.2,0,0.2,0.1,0.2,0.2l0,35.3
				c0,0.2-0.2,0.4-0.4,0.4l-18.6,0c-0.5,0-0.7,0.2-0.7,0.7l0,24.4c0,0.2,0.1,0.2,0.2,0.2l7.2,0c0.2,0,0.2-0.1,0.2-0.2v-17.6
				c0-0.2,0.1-0.3,0.3-0.3l11.2,0c0.1,0,0.2,0.1,0.2,0.2l0,17.4c0,0.1,0.1,0.2,0.2,0.2l6.2-0.2c0.1,0,0.2-0.1,0.2-0.3l0-60.4
				c0-0.2,0.1-0.3,0.4-0.3l13.7,0.4c0.2,0,0.2,0.1,0.2,0.2v61c0,0.2,0.1,0.2,0.2,0.2l30.5,0c0.2,0,0.3-0.1,0.3-0.3l0.2-7.7
				c0-0.2-0.1-0.3-0.3-0.3l-20.8,0c-0.3,0-0.5-0.2-0.5-0.5l0-31.8c0-0.2,0.1-0.3,0.3-0.3l32.5,0c0.3,0,0.5,0.2,0.5,0.5l-0.1,40.5
				c0,0.2,0.1,0.3,0.3,0.3l9.5,0.1c0,0,0,0,0,0c0.2,0,0.3-0.2,0.3-0.4c-0.1-3.6,0.1-7.4,0.1-10.6c-0.1-16.9,0.1-33.8,0.5-50.7
				c0-0.2,0.1-0.3,0.3-0.3l31.9-0.3c0.2,0,0.3,0.1,0.3,0.3l0,7.3L282,347.2z M323.3,347.4c0,0.4-0.2,0.6-0.6,0.6l-28.2,0l-3.7,0
				c-0.1,0-0.2-0.1-0.2-0.2l0-32.7c0-0.2,0.1-0.3,0.3-0.3l10.8,0.2c0.2,0,0.2,0.1,0.2,0.2l0,21.5c0,0.1,0.1,0.2,0.2,0.2h10
				c0.3,0,0.5-0.2,0.5-0.5v-31.4c0-0.4-0.2-0.7-0.7-0.7l-20.6,0c-0.2,0-0.3-0.1-0.3-0.3l0-24.9l0-4.5c0-0.1,0.1-0.2,0.2-0.2l31.5,0
				c0.4,0,0.6,0.2,0.6,0.6L323.3,347.4z M302.2,314.4l-2.9,0.1l-4.3-0.2c-0.2,0-0.2-0.1-0.2-0.3l0-8.8c0,0,0,0,0,0
				c0-0.2,0.2-0.4,0.4-0.4h16.6c0.2,0,0.4,0.2,0.4,0.4l0,6.7l0,24.2c0,0.2-0.1,0.3-0.3,0.3l-2.9,0l-6,0c-0.2,0-0.3-0.1-0.3-0.3
				v-14.1v-7.2c0,0,0,0,0,0C302.6,314.6,302.4,314.4,302.2,314.4z"/>
			<path class="st1" d="M217.9,273.6c0-0.1-0.1-0.2-0.3-0.2l-11.1-0.1h0c-0.2,0-0.4,0.2-0.4,0.4v4l0,7.2c0,0.1,0.1,0.2,0.2,0.2h11.2
				c0,0,0,0,0,0c0.2,0,0.4-0.2,0.4-0.4l0-10.3C217.9,274.1,217.9,273.8,217.9,273.6z M217.3,284.6
				C217.3,284.6,217.3,284.6,217.3,284.6c-0.1,0.1-0.1,0.1-0.2,0.1l-0.2-0.2c0,0,0,0-0.1,0l-10.3,0c-0.1,0-0.1,0-0.1-0.1l0-10.6
				c0-0.1,0-0.1,0.1-0.1l10.7,0c0.1,0,0.1,0,0.1,0.1L217.3,284.6z"/>
			<path class="st1" d="M163.7,295.7c0.3,0,0.5-0.2,0.5-0.5l0-10.9v0c0-0.3-0.2-0.5-0.5-0.5l-10.8,0c0,0,0,0,0,0
				c-0.3,0-0.5,0.2-0.5,0.5l0,10.9c0,0,0,0,0,0c0,0.3,0.2,0.5,0.5,0.5L163.7,295.7L163.7,295.7z M163.4,295.2l-10.2,0c0,0,0,0,0,0
				c-0.2,0-0.3-0.1-0.3-0.3l0-10.2c0-0.2,0.1-0.3,0.3-0.3l10.2,0c0.2,0,0.3,0.1,0.3,0.3l0,10.2C163.7,295.1,163.6,295.2,163.4,295.2
				z"/>
			<path class="st1" d="M312.7,283.8l-11.3,0c-0.2,0-0.3,0.1-0.3,0.3l0,11.2c0,0.2,0.1,0.3,0.3,0.3l11.3,0c0.2,0,0.3-0.1,0.3-0.3
				l0-11.2C313,284,312.8,283.8,312.7,283.8z M312.5,294.9c0,0.2-0.1,0.3-0.3,0.3l-10.3,0c-0.2,0-0.3-0.1-0.3-0.3l0-10.3
				c0-0.2,0.1-0.3,0.3-0.3l10.3,0c0.2,0,0.3,0.1,0.3,0.3L312.5,294.9z"/>
			<path class="st1" d="M228.6,304.3l-11.5,0.1c-0.1,0-0.2,0.1-0.2,0.2V316c0,0.1,0.1,0.2,0.2,0.2h11.4c0.1,0,0.2-0.1,0.2-0.2
				l0.1-11.5C228.8,304.4,228.7,304.3,228.6,304.3z M217.8,315.7c-0.2,0-0.3-0.1-0.3-0.3v-10.2c0-0.2,0.1-0.3,0.3-0.3l7.5,0
				l-0.1,10.7L217.8,315.7z"/>
		</g>
	</g>
</g>
</svg>
