<?xml version="1.0" encoding="utf-8"?>
<!-- Generator: Adobe Illustrator 27.9.0, SVG Export Plug-In . SVG Version: 6.00 Build 0)  -->
<svg version="1.1" xmlns="http://www.w3.org/2000/svg" xmlns:xlink="http://www.w3.org/1999/xlink" x="0px" y="0px"
	 viewBox="0 0 469 469" style="enable-background:new 0 0 469 469;" xml:space="preserve">
<style type="text/css">
	.st0{fill:#009872;}
	.st1{fill:#F9F9C3;}
	.st2{fill:#246665;}
	.st3{fill:#C99030;}
	.st4{fill:#C19338;}
	.st5{fill:#79003B;}
	.st6{fill:#DB214C;}
	.st7{fill:#FF6766;}
	.st8{fill:#5C7E7F;}
	.st9{fill:#495678;}
	.st10{fill:#0E5D99;}
	.st11{fill:#FFFFFF;}
	.st12{fill:#137CCF;}
	.st13{fill:#B8683D;}
	.st14{fill:#007CC4;}
</style>
<g id="UNDER">
	<path class="st0" d="M449.8,234.5c0,118.9-96.4,215.3-215.3,215.3l0,0c-118.9,0-215.3-96.4-215.3-215.3l0,0
		c0-118.9,96.4-215.3,215.3-215.3l0,0C353.4,19.2,449.8,115.6,449.8,234.5L449.8,234.5z"/>
	<path class="st1" d="M395.8,234.5c0,89.1-72.2,161.3-161.3,161.3l0,0c-89.1,0-161.3-72.2-161.3-161.3l0,0
		c0-89.1,72.2-161.3,161.3-161.3l0,0C323.6,73.2,395.8,145.4,395.8,234.5L395.8,234.5z"/>
	<g>
		<path class="st1" d="M126.1,373.1c-3.1,3.9-6.2,7.8-9.2,11.7c-3.3,4.3-9.5,8.2-13.8,2.3c-3.7-5.1,5.9-8.3,3.5-0.1
			c-0.2,0.5,0.1,1.1,0.7,1.2c0,0,0.1,0,0.1,0c1.1,0.2,2.6-1.7,3.2-2.5c4.5-5.6,8.9-11.4,13.2-17.1c0.1-0.2,0.2-0.3,0.1-0.5
			c-0.2-1.3-0.8-2.3-2-3c-0.2-0.1-0.2-0.3-0.2-0.5c0-0.3,0.2-0.5,0.5-0.5c0.1,0,0.3,0.1,0.4,0.2c3.2,2.4,6.3,4.9,9.5,7.4
			c0.1,0.1,0.2,0.2,0.1,0.4c-0.1,0.4-0.3,0.5-0.7,0.5c-0.1,0-0.2-0.1-0.3-0.2C129.3,370.4,127.6,371.2,126.1,373.1z"/>
		<path class="st1" d="M357.4,385.7c-1-3.9-2.2-7.7-3.5-11.5c-0.3-0.9-1-1.5-1.9-0.7c-0.3,0.2-0.4,0.4-0.5,0.4
			c-0.3,0.1-0.6,0-0.7-0.4c-0.1-0.2,0-0.4,0.1-0.6l4.8-3.9c0.1-0.1,0.3-0.1,0.4,0l0.4,0.4c0.2,0.2,0.2,0.4,0,0.5
			c-0.7,0.6-1,1.3-0.8,1.9c3,10.1,5.1,17.3,6.5,21.6c1.2,3.7,1.4,8.7-2.7,10.5c-1.8,0.8-4-1.4-2.9-3.2c0.7-1,2.4-1.6,3.6-2.2
			c0.1-0.1,0.3-0.2,0.3-0.4c0.7-1.9-0.5-5.2-1.2-7.1c-0.1-0.2-0.2-0.3-0.3-0.3c-4.7-2.3-9.4-4.5-14.2-6.8c-1.1-0.5-2.1-0.8-3.3-1.1
			c-0.2,0-0.3,0-0.5,0.1l-3.8,2.5c-0.1,0.1-0.2,0.2-0.1,0.4c2.4,3.6,4.7,7.2,7.1,10.8c1.7,2.6,4.3,1.3,4.1-1.4
			c0-0.3,0.2-0.5,0.4-0.5c0.2,0,0.4,0.1,0.5,0.4c1.3,4.5-3.9,9.8-7.3,5c-1.4-1.9-4.1-6-8-12.2c-0.1-0.2-0.2-0.2-0.4-0.1l-2.1,1.4
			c-0.3,0.2-0.6,0.1-0.8-0.2c-0.1-0.2-0.1-0.4,0-0.6c0.9-1.6,1.4-3.3,1.5-5.2c0.1-1.3-0.4-2.7-0.4-4.1c0-0.3,0.2-0.5,0.5-0.5
			c0.2,0,0.4,0.1,0.4,0.2l3.2,5c0.1,0.1,0.2,0.2,0.4,0.1c3.5-2.1,6.7-4.5,9.7-7.2c0.2-0.2,0.5-0.2,0.7,0c0,0,0,0,0,0.1l0.2,0.3
			c0.1,0.2,0.1,0.3-0.1,0.4c-0.6,0.4-0.9,1-1,1.6c0,0.2,0,0.3,0.1,0.5c1.4,1.8,8.4,4.6,11.5,6C357.4,385.9,357.5,385.9,357.4,385.7z
			"/>
		<circle class="st1" cx="136.4" cy="375.9" r="2.3"/>
		<circle class="st1" cx="320.9" cy="383.4" r="2.3"/>
		<path class="st1" d="M122.5,399.3c0.3,0.8,0.8,1.4,1.5,1.8c0.2,0.1,0.2,0.3,0,0.4l-0.4,0.4c-0.1,0.1-0.3,0.1-0.4,0l-7.6-5.5
			c-0.2-0.1-0.2-0.3-0.1-0.4l0.3-0.4c0.1-0.1,0.3-0.2,0.4-0.1c0,0,0,0,0,0c1.3,1.2,2.5,1,3.6-0.5c0.8-1.1,7.7-9.4,7.5-11.5
			c0-0.2-0.1-0.3-0.3-0.4l-1.4-0.7c-0.3-0.1-0.4-0.5-0.3-0.8c0.1-0.2,0.4-0.4,0.6-0.3l6,1.5c0.9,0.2,1.1,0.7,0.5,1.4
			c-3,4-6,8.3-9.2,12.7c-0.4,0.6-0.8,1.2-1,1.8C122.4,399,122.4,399.1,122.5,399.3z"/>
		<path class="st1" d="M139.8,391.8c1.9-0.6,3.3-0.9,4.2-0.8c4.8,0.4,6.8,4.7,4.4,8.8c-3.3,5.5-5.3,8.9-6.1,10.4
			c-0.7,1.3,1.1,2.2,1.6,3.1c0.1,0.2,0.1,0.5-0.2,0.6c-0.1,0.1-0.3,0.1-0.5,0l-8.1-4.9c-0.1-0.1-0.2-0.2-0.2-0.4
			c0-0.4,0.2-0.6,0.4-0.6c0.1,0,0.3,0,0.5,0.2c1.4,0.9,2.6,0.6,3.5-1c1.7-2.6,3.3-5.3,4.9-8c3-5.2-1.3-7.3-5.6-5.7
			c-0.2,0.1-0.3,0.2-0.4,0.3c-3.1,4.9-5.1,8.2-5.9,9.9c-0.8,1.5-0.3,2.6,1.3,3.1c0.2,0.1,0.3,0.3,0.2,0.4c0,0,0,0,0,0.1l-0.2,0.4
			c-0.1,0.2-0.3,0.3-0.5,0.1l-8-4.8c-0.2-0.1-0.2-0.3-0.1-0.5c0,0,0,0,0-0.1l0.3-0.4c0.1-0.1,0.3-0.2,0.4,0c1.2,1,2.3,0.9,3.1-0.3
			c1.2-1.7,3.2-5,5.9-9.8c0.6-1,0.9-1.8,1.1-2.6c0-0.2,0-0.4-0.2-0.5l-1.7-0.8c-0.1-0.1-0.2-0.2-0.2-0.3l0-0.5
			c0-0.2,0.2-0.4,0.4-0.3l6.6,1.1c0.3,0.1,0.5,0.3,0.4,0.6c0,0.1,0,0.1-0.1,0.2l-1.6,2.8c0,0.1,0,0.2,0.1,0.2
			C139.7,391.8,139.7,391.8,139.8,391.8z"/>
		<path class="st1" d="M322,395.5c-0.2-0.1-0.2-0.3-0.2-0.4c0,0,0,0,0-0.1l4.3-5.5c0.1-0.2,0.4-0.2,0.6-0.1c0,0,0.1,0.1,0.1,0.1
			c3,5,6,10,8.9,14.9c0.5,0.8,1.3,1,2.5,0.8c0.2,0,0.3-0.1,0.4-0.2c0.1-0.1,0.3-0.2,0.5-0.2c0.3-0.1,0.6,0.1,0.6,0.4
			c0,0.2-0.1,0.4-0.3,0.6l-7.8,4.7c-0.2,0.1-0.3,0.1-0.5-0.1L331,410c-0.1-0.1-0.1-0.3,0.1-0.4c0,0,0,0,0,0c2.2-1,1.6-2.6,0.6-4.3
			c-2-3.4-4.1-7.8-6.8-10.6c-0.1-0.1-0.3-0.2-0.4-0.1c-0.6,0.2-1.2,0.5-1.7,1c-0.1,0.1-0.3,0.2-0.5,0.1L322,395.5z"/>
		<path class="st1" d="M311.6,407.4c-5.2-4-1.8-10.3,3.8-11c1.2-0.1,1.8-0.7,2-1.8c0-0.2,0.2-0.3,0.4-0.2c0.1,0,0.2,0.1,0.2,0.2
			l3,5.7c0.1,0.2,0.1,0.4-0.1,0.6c-0.2,0.2-0.3,0.3-0.5,0.3c-0.1,0-0.3-0.1-0.4-0.2c-2.6-2.5-4.9-4.3-8-1.1c-2,1.9-0.1,4.2,2.2,4.3
			c1.4,0.1,3.4,0.1,6.2,0.2c5,0,8.2,4.3,5.7,8.8c-1.6,2.8-4.8,3.8-8,4.5c-0.2,0-0.3,0.1-0.4,0.3l-0.4,0.8c-0.1,0.2-0.3,0.2-0.5,0.2
			c-0.1,0-0.1-0.1-0.2-0.2c-1-2-2.1-3.9-3.1-5.9c-0.1-0.2-0.1-0.4-0.1-0.6c0.1-0.2,0.4-0.3,0.7-0.2c0,0,0.1,0.1,0.1,0.1
			c2,2.3,4.9,3.8,7.9,2.5c2.8-1.2,2.6-5-0.4-5.8C319.1,408,313.7,409,311.6,407.4z"/>
		<path class="st1" d="M155.7,416.9c-1.6,0.4-3.4,0.9-4.8,0.7c-2.6-0.3-4.8-2.5-4.5-5.3c0.8-6.6,8.7-5.6,13.8-5.4
			c0.2,0,0.3-0.1,0.4-0.2c0.8-1.5,1.6-3.8,0.5-5.2c-0.9-1.2-2.6-1.9-3.9-1.2c-1.4,0.8-1.3,2.3-2.3,3.1c-1.2,1-3.1-0.1-3.1-1.6
			c-0.1-1.6,2.1-3.1,3.4-3.5c4.1-1.2,12.1,2.5,9.8,7.9c-1.6,3.8-3.2,7.7-4.9,11.5c-0.2,0.4,0,0.9,0.4,1c0.2,0.1,0.4,0.1,0.5,0
			l2.1-0.6c0.2-0.1,0.3,0,0.2,0.2c-0.4,2.7-9.1,4.4-7.4-1.2C156,416.9,155.9,416.8,155.7,416.9z M150.5,413c0.2,3,4,2.9,6.1,2
			c0.1-0.1,0.2-0.2,0.3-0.3l2.6-5.8c0.1-0.2,0-0.3-0.2-0.3C156.4,408.3,150.2,408,150.5,413z"/>
		<path class="st1" d="M301.1,405.7c0,0.1,0.1,0.1,0.2,0.1c0.1,0,0.1-0.1,0.1-0.1c0.3-2.7,2.7-7.4,6-4.6c0.6,0.5,0.8,1.1,0.7,1.8
			c-0.4,2.7-2.6,1.7-4.3,1.5c-0.3,0-0.6,0.1-0.8,0.4c-1.1,2.2-1,3.5-0.1,5.9c0.7,1.8,1.4,3.5,2.2,5.3c1.1,2.6,1.6,4.7,4.9,3.5
			c0.1,0,0.2,0,0.3,0.1l0.3,0.3c0.1,0.2,0.1,0.4-0.1,0.6c0,0-0.1,0-0.1,0.1l-9.3,3.8c-0.3,0.1-0.4,0-0.4-0.3l0-0.6
			c0-0.2,0.1-0.3,0.2-0.3c2.2-0.6,2-2.2,1.3-4c-1.5-3.7-3-7.4-4.5-11c-0.3-0.6-1-0.9-1.7-0.7c0,0,0,0-0.1,0l-1.1,0.6
			c-0.3,0.1-0.6,0-0.7-0.3c-0.1-0.2-0.1-0.5,0.1-0.6l5-4.7c0.1-0.1,0.4-0.1,0.5,0c0,0,0.1,0.1,0.1,0.1L301.1,405.7z"/>
		<path class="st1" d="M197.3,403.3c-0.1-0.2-0.1-0.4,0-0.7c0.1-0.2,0.2-0.2,0.3-0.2L210,404c0.3,0,0.4,0.3,0.4,0.5
			c0,0.1,0,0.1-0.1,0.2l-0.1,0.3c-0.1,0.2-0.2,0.3-0.4,0.2c-2.2-0.3-3.7-0.2-4.1,2.2c-0.8,4.9-1.4,9.8-1.8,14.7
			c-0.1,1.6-0.1,3.2,0,4.8c0.5,5,6.1,6.3,10.3,5.3c3-0.8,4.8-2.7,5.4-5.8c0.8-4.8,1.5-9.6,2-14.5c0.3-3,1-5.5-2.8-5.7
			c-0.2,0-0.4-0.1-0.4-0.3c-0.4-0.7-0.3-1,0.3-0.9c3.3,0.4,6.6,0.8,9.9,1.3c0.2,0,0.4,0.2,0.3,0.4c0,0,0,0,0,0.1
			c-0.1,0.5-0.5,0.7-1.1,0.6c-2.1-0.4-3.4,0.5-3.6,2.6c-0.9,7.8-1.6,13.1-2.1,15.9c-1.2,7.1-6.9,9.7-13.5,8.5
			c-4.4-0.8-8.1-3-9.1-7.6c-0.3-1.3-0.2-3.7,0.2-7.1c0.4-3.5,0.8-7,1.2-10.4c0.2-1.7,0.2-3.2,0.1-4.4c0-0.2-0.1-0.3-0.3-0.4
			C199.9,404.1,197.5,403.6,197.3,403.3z"/>
		<circle class="st1" cx="251.5" cy="405.7" r="2.3"/>
		<path class="st1" d="M174.3,408.4c1.3-0.6,2.6-1.1,4-1.5c3.4-0.9,6.5,1.6,6.5,5c0,1-0.5,2.8-1.4,5.4c-1.4,4-2.3,6.8-2.7,8.3
			c-0.6,2.1,1.2,1.8,2,2.6c0.2,0.2,0.2,0.6,0,0.8c-0.2,0.1-0.4,0.2-0.6,0.1l-8.8-3.1c-0.1-0.1-0.2-0.2-0.2-0.4l0.1-0.4
			c0.1-0.2,0.2-0.3,0.4-0.3c2.4,0.5,2.8,0.5,3.7-1.8c1.8-4.8,3-8.3,3.5-10.5c1.1-4.5-4.8-4.3-7.2-2.5c-0.1,0.1-0.2,0.2-0.3,0.4
			c-1.3,3.6-2.6,7.2-3.7,10.9c-0.2,0.8-0.1,1.5,0.4,2.1c0,0,0,0,0.1,0l1.6,0.7c0.3,0.1,0.4,0.4,0.3,0.7c-0.1,0.3-0.4,0.4-0.7,0.3
			l-9.1-3.1c-0.2-0.1-0.3-0.2-0.3-0.4c0-0.4,0.2-0.6,0.5-0.6c0.1,0,0.3,0,0.6,0.1c1.3,0.4,2.2-0.1,2.7-1.5c1.6-4.1,3-8.2,4.2-12.4
			c0.2-0.6-0.2-1.2-0.8-1.4c-0.1,0-0.2,0-0.3,0c-0.5,0-0.9-0.1-1.2-0.2c-0.3-0.1-0.4-0.4-0.2-0.7c0.1-0.2,0.2-0.3,0.4-0.3l6.6-0.4
			c0.4,0,0.7,0.3,0.7,0.6c0,0.1,0,0.2,0,0.3l-1,2.8C174,408.4,174.1,408.5,174.3,408.4z"/>
		<path class="st1" d="M294.9,426.1c-10.8,9.6-22.8-14.3-8.2-19c4.3-1.4,8.4,1.7,9.7,5.7c0.1,0.2,0,0.3-0.2,0.3l-12.7,3.7
			c-0.1,0-0.2,0.1-0.2,0.3c0.7,2.8,2.1,4.8,4.1,5.9c4.5,2.5,9.1-0.1,9.1-5.3c0-0.2,0.1-0.3,0.3-0.3c0,0,0,0,0.1,0
			c0.6,0.2,1,0.6,0.9,1.4C297.7,421.6,297,424.2,294.9,426.1z M283.1,415.2l7.9-2.3c0.1,0,0.1-0.1,0.1-0.2c0,0,0,0,0,0l0-0.1
			c-0.7-2.4-3.1-3.8-5.4-3.2l0,0c-2.3,0.7-3.5,3.2-2.8,5.6c0,0,0,0,0,0l0,0.1C282.9,415.2,283,415.3,283.1,415.2z"/>
		<path class="st1" d="M265.8,414c-1.9,0.5-2.2,1.5-1.2,3.2c2,3.2,4.1,6.3,6.3,9.5c0.1,0.2,0.2,0.2,0.3-0.1c0.9-4,1.7-8.1,2.4-12.2
			c0.2-1,0-1.8-1.3-1.6c-0.4,0.1-0.6,0.1-0.8,0c-0.3-0.1-0.5-0.3-0.4-0.6c0-0.1,0.1-0.2,0.2-0.3c0.1-0.1,0.4-0.2,0.7-0.3
			c1.8-0.3,3.5-0.7,5.3-1.1c0.3-0.1,0.5,0.1,0.6,0.3c0.1,0.2,0.1,0.4,0,0.5c-0.4,0.7-1.8,0.7-2.1,2c-1.3,6.4-2.6,12.8-3.9,19.2
			c-0.1,0.4-0.5,0.6-0.8,0.6c-0.2,0-0.3-0.1-0.5-0.3c-3.5-5.1-6.9-10.3-10.4-15.5c-0.7-1.1-1.8-1.6-3.2-1.6c-0.5,0-0.7-0.2-0.7-0.7
			c0-0.2,0.2-0.4,0.4-0.5c2.9-0.6,5.7-1.1,8.6-1.7c0.3-0.1,0.6,0.1,0.7,0.3c0.1,0.2,0.1,0.5-0.2,0.6
			C265.9,413.9,265.9,414,265.8,414z"/>
		<path class="st1" d="M249.3,417.2l-1.5,0.4c-0.1,0-0.3,0-0.3-0.1l-0.3-0.4c-0.1-0.2-0.1-0.4,0.1-0.5c0,0,0,0,0,0l6-3
			c0.3-0.1,0.6,0,0.8,0.3c0,0.1,0.1,0.1,0.1,0.2c0.5,5.6,1,11.2,1.5,16.9c0.1,1.6,1.1,2.2,2.8,1.9c0.2,0,0.3,0,0.4,0.2l0.2,0.6
			c0.1,0.2,0,0.3-0.2,0.4c0,0,0,0-0.1,0l-9.5,0.9c-0.3,0-0.4-0.1-0.4-0.3l0-0.6c0-0.2,0.1-0.3,0.3-0.3c1.7,0,2.5-0.8,2.4-2.5
			c-0.2-4.2-0.6-8.3-1.1-12.4c-0.1-0.6-0.4-1.2-0.8-1.6C249.6,417.2,249.5,417.1,249.3,417.2z"/>
		<path class="st1" d="M227.1,418.9c-0.7-0.3-1.6,0.3-2.1,0.1c-0.2-0.1-0.3-0.3-0.3-0.6c0-0.2,0.2-0.5,0.4-0.6l5.8-2.7
			c0.3-0.1,0.6,0,0.7,0.3c0,0.1,0,0.1,0,0.2l0.3,3c0,0.1,0.1,0.2,0.2,0.1c0,0,0.1,0,0.1-0.1c1.4-1.6,3.1-3.3,5.2-3.7
			c3.9-0.8,6.2,2.4,6.4,5.9c0.2,3.2,0.4,6.4,0.6,9.6c0.1,2,0.1,3.8,2.8,3.6c0.3,0,0.6,0.2,0.6,0.5c0,0.3-0.1,0.5-0.4,0.6
			c-0.2,0.1-0.5,0.1-0.9,0.1c-2.9,0.1-5.8,0.2-8.7,0.5c-0.2,0-0.3-0.1-0.3-0.3c0,0,0,0,0,0l0-0.6c0-0.3,0.1-0.4,0.4-0.4
			c1.8,0.1,2.7-0.8,2.7-2.9c-0.1-3-0.3-6.6-0.7-10.7c-0.4-4.9-5.1-3-7.2-0.8c-0.8,0.8-0.7,1.7-0.6,2.8c0.3,4.3,0,8.6,1,11.2
			c0.1,0.2,0.2,0.3,0.4,0.3c0.7,0.2,1.4,0.3,2.1,0.2c0.2,0,0.4,0.1,0.5,0.3l0.1,0.5c0.1,0.3,0,0.4-0.3,0.4l-9.6,0.6
			c-0.1,0-0.2-0.1-0.2-0.2l-0.1-0.6c0-0.2,0.1-0.3,0.2-0.3c0,0,0,0,0.1,0c1.8,0,2.6-0.9,2.6-2.7c-0.1-4.2-0.4-8.4-0.8-12.6
			C227.8,419.4,227.5,419,227.1,418.9z"/>
	</g>
</g>
<g id="MAIN">
</g>
<g id="SCIENCES">
</g>
<g id="HEALTH_00000128469052700009300670000012666611077201334713_">
</g>
<g id="COMMUNICATION">
	<path class="st7" d="M391.6,234.5c0,86.7-70.3,157.1-157.1,157.1l0,0c-86.7,0-157.1-70.3-157.1-157.1
		c0-86.7,70.3-157.1,157.1-157.1C321.3,77.4,391.6,147.8,391.6,234.5L391.6,234.5z"/>
	<g>
		<path class="st0" d="M226.9,111.2c-0.1,0-0.2-0.1-0.1-0.2c0-0.1,0.1-0.1,0.2-0.1c3.3,0.1,6.6-0.2,9.7,0.2c3.7,0.5,7.4,1.3,11,2.3
			c0.2,0,0.2,0.2,0.2,0.4c0,0,0,0.1,0,0.1l-2.5,4.2c-0.1,0.1-0.2,0.2-0.4,0.1c-4.6-2.7-9.5-4.7-14.7-6
			C229.2,111.9,228,111.6,226.9,111.2z"/>
		<path class="st1" d="M231.6,110.9c1.7,0,3.4,0,5.1,0.3c3.7,0.5,7.4,1.3,11,2.3c0.2,0,0.2,0.2,0.2,0.4c0,0,0,0.1,0,0.1l-2.5,4.2
			c-0.1,0.1-0.1,0.1-0.2,0.1c0,0-0.1,0-0.1,0c-4.6-2.7-9.5-4.7-14.7-6c-1.2-0.3-2.3-0.6-3.4-0.9c-0.1,0-0.2-0.1-0.1-0.2
			c0-0.1,0.1-0.1,0.2-0.1c0,0,0,0,0,0c0.4,0,0.9,0,1.3,0C229.4,110.9,230.5,110.9,231.6,110.9 M231.6,110.4c-0.6,0-1.1,0-1.7,0
			c-0.6,0-1.1,0-1.7,0c-0.4,0-0.8,0-1.3,0l0,0l0,0c-0.3,0-0.6,0.2-0.6,0.5c-0.1,0.4,0.1,0.7,0.5,0.8c1.1,0.3,2.3,0.6,3.4,0.9
			c5.1,1.3,10,3.3,14.6,5.9c0.1,0.1,0.2,0.1,0.4,0.1c0.3,0,0.5-0.1,0.7-0.4l2.5-4.2c0-0.1,0.1-0.1,0.1-0.2c0.1-0.2,0-0.4-0.1-0.6
			c-0.1-0.2-0.3-0.3-0.5-0.4c-3.7-1.1-7.4-1.8-11.1-2.3C235,110.4,233.2,110.4,231.6,110.4L231.6,110.4z"/>
	</g>
	<g>
		<path class="st0" d="M188.4,127.9c6.4-6.3,13.7-11.2,22.3-13.8c1.5-0.5,3-0.9,4.4-1.4c0.2-0.1,0.3,0,0.4,0.2c0,0.1,0,0.2,0,0.2
			c-3.8,7.4-11.4,13.6-20,15c-2.7,0.4-4.7,0.7-7.1,0.1C188.3,128.1,188.2,128,188.4,127.9z"/>
		<path class="st1" d="M215.3,112.7c0.1,0,0.2,0.1,0.3,0.2c0,0.1,0,0.2,0,0.2c-3.8,7.4-11.4,13.6-20,15c-1.6,0.3-2.9,0.5-4.3,0.5
			c-0.9,0-1.8-0.1-2.8-0.3c-0.2,0-0.2-0.1-0.1-0.3c6.4-6.3,13.7-11.2,22.3-13.8C212.3,113.6,213.8,113.1,215.3,112.7
			C215.2,112.7,215.2,112.7,215.3,112.7 M215.3,112.2L215.3,112.2c-0.1,0-0.2,0-0.2,0c-1.4,0.5-2.9,0.9-4.4,1.4
			c-8.1,2.4-15.5,7-22.6,13.9c-0.3,0.3-0.3,0.5-0.2,0.7c0,0.1,0.2,0.4,0.5,0.5c0.9,0.2,1.9,0.4,2.9,0.4c1.4,0,2.9-0.2,4.4-0.5
			c8.3-1.3,16.2-7.3,20.3-15.2c0.1-0.2,0.1-0.4,0-0.6C215.9,112.4,215.6,112.2,215.3,112.2L215.3,112.2z"/>
	</g>
	<g>
		<path class="st0" d="M219.8,116.1C219.8,116.1,219.9,116.1,219.8,116.1c7.6,1.6,14.7,4.3,21.3,8.2c0.1,0.1,0.1,0.1,0,0.2l-5.7,6.4
			c-0.3,0.3-0.8,0.4-1.1,0.1c-5.3-4.2-10.8-7.9-16.7-11.2c-0.3-0.2-0.4-0.4-0.2-0.7L219.8,116.1z"/>
		<path class="st1" d="M219.9,116.1C219.9,116.1,219.9,116.1,219.9,116.1c7.5,1.6,14.6,4.4,21.3,8.3c0.1,0.1,0.1,0.1,0,0.2l-5.7,6.4
			c-0.2,0.2-0.4,0.3-0.6,0.3c-0.2,0-0.4-0.1-0.5-0.2c-5.3-4.2-10.8-7.9-16.7-11.2c-0.3-0.2-0.4-0.4-0.2-0.7L219.9,116.1
			C219.8,116.1,219.9,116.1,219.9,116.1 M219.9,115.6c-0.2,0-0.3,0.1-0.4,0.2l-2.3,3.1c-0.2,0.3-0.3,0.5-0.2,0.8
			c0,0.2,0.2,0.4,0.5,0.6c5.8,3.2,11.4,7,16.6,11.2c0.2,0.2,0.5,0.3,0.8,0.3c0.4,0,0.7-0.2,1-0.4l5.7-6.4c0.2-0.2,0.2-0.4,0.2-0.5
			c0-0.1-0.1-0.3-0.3-0.4c-6.6-3.9-13.8-6.7-21.4-8.3L219.9,115.6L219.9,115.6L219.9,115.6L219.9,115.6L219.9,115.6z"/>
	</g>
	<g>
		<path class="st0" d="M256.6,126.6c-1.5-1.2-3-2.4-4.5-3.5c-0.3-0.2-0.4-0.7-0.2-1l3-5.4c0.2-0.3,0.4-0.4,0.8-0.2
			c5.1,2.8,11.7,6.1,15.9,10.2c3.6,3.6,6.9,7.3,10,11.3c0,0.1,0,0.1,0,0.2c0,0,0,0,0,0l-9,5.3c-0.2,0.1-0.4,0-0.5-0.1
			C267.8,136.9,262.7,131.3,256.6,126.6z"/>
		<path class="st1" d="M255.5,116.3c0.1,0,0.2,0,0.3,0.1c5.1,2.8,11.7,6.1,15.9,10.2c3.6,3.6,6.9,7.3,10,11.3c0,0.1,0,0.1,0,0.2
			c0,0,0,0,0,0l-9,5.3c-0.1,0-0.1,0-0.2,0c-0.1,0-0.2-0.1-0.3-0.2c-4.3-6.4-9.4-12-15.5-16.8c-1.5-1.2-3-2.4-4.5-3.5
			c-0.3-0.2-0.4-0.7-0.2-1l3-5.4C255.1,116.4,255.3,116.3,255.5,116.3 M255.5,115.8L255.5,115.8c-0.2,0-0.6,0.1-0.9,0.6l-3,5.4
			c-0.3,0.5-0.2,1.2,0.3,1.6c1.5,1.2,3,2.4,4.5,3.5c6,4.7,11.1,10.3,15.4,16.7c0.2,0.2,0.4,0.4,0.7,0.4c0.1,0,0.3,0,0.4-0.1l9-5.3
			l0,0l0,0c0.1-0.1,0.2-0.2,0.2-0.4c0-0.2,0-0.3-0.1-0.4c-3.1-4-6.5-7.8-10-11.4c-3.9-3.9-9.6-6.9-14.6-9.6
			c-0.5-0.2-0.9-0.5-1.4-0.7C255.8,115.9,255.6,115.8,255.5,115.8L255.5,115.8z"/>
	</g>
	<g>
		<path class="st0" d="M229,137.5l-8.7,6.7c-0.3,0.2-0.8,0.2-1-0.1c0,0,0-0.1-0.1-0.1l-9.1-16.1c-0.2-0.3-0.1-0.7,0.2-0.9l2.1-1.8
			c0.2-0.2,0.6-0.2,0.9,0l15.7,11.2c0.3,0.2,0.4,0.7,0.2,1C229.1,137.4,229.1,137.4,229,137.5z"/>
		<path class="st1" d="M212.9,125c0.1,0,0.3,0,0.4,0.1l15.7,11.2c0.3,0.2,0.4,0.7,0.2,1c0,0.1-0.1,0.1-0.1,0.2l-8.7,6.7
			c-0.1,0.1-0.3,0.1-0.4,0.1c-0.2,0-0.4-0.1-0.6-0.3c0,0,0-0.1-0.1-0.1l-9.1-16.1c-0.2-0.3-0.1-0.7,0.2-0.9l2.1-1.8
			C212.6,125,212.7,125,212.9,125 M212.9,124.5L212.9,124.5c-0.3,0-0.6,0.1-0.8,0.3l-2.1,1.8c-0.4,0.4-0.6,1-0.3,1.5l9.1,16.1
			c0,0,0.1,0.1,0.1,0.1c0.2,0.3,0.6,0.5,1,0.5c0.3,0,0.5-0.1,0.7-0.2l8.7-6.7c0.1-0.1,0.2-0.2,0.2-0.3c0.4-0.5,0.3-1.3-0.3-1.7
			l-15.7-11.2C213.4,124.6,213.2,124.5,212.9,124.5L212.9,124.5z"/>
	</g>
	<g>
		<path class="st0" d="M254.3,153.5c-4.1-6.1-7.7-10.8-13.8-16.8c-0.1-0.1-0.1-0.2,0-0.3c2.6-2.3,4.9-4.8,7-7.4
			c0.1-0.1,0.2-0.2,0.4,0c2.6,1.9,5,3.9,7.4,6c3.8,3.4,7.1,7.8,10.4,11.8c0.3,0.3,0.2,0.6-0.1,0.8l-10.8,6.2
			C254.6,153.7,254.4,153.6,254.3,153.5z"/>
		<path class="st1" d="M247.7,128.8c0.1,0,0.1,0,0.2,0.1c2.6,1.9,5,3.9,7.4,6c3.8,3.4,7.1,7.8,10.4,11.8c0.3,0.3,0.2,0.6-0.1,0.8
			l-10.8,6.2c-0.1,0-0.1,0-0.2,0c-0.1,0-0.2-0.1-0.3-0.2c-4.1-6.1-7.7-10.8-13.8-16.8c-0.1-0.1-0.1-0.2,0-0.3c2.6-2.3,4.9-4.8,7-7.4
			C247.6,128.8,247.6,128.8,247.7,128.8 M247.7,128.3L247.7,128.3c-0.1,0-0.4,0-0.6,0.3c-2.1,2.7-4.4,5.1-7,7.4
			c-0.2,0.2-0.3,0.4-0.3,0.5c0,0.1,0,0.3,0.2,0.5c6.1,6,9.7,10.7,13.7,16.7c0.2,0.2,0.4,0.4,0.7,0.4c0.1,0,0.3,0,0.4-0.1l10.8-6.2
			c0.3-0.2,0.5-0.4,0.5-0.7c0.1-0.3,0-0.6-0.3-0.8c-0.7-0.9-1.4-1.7-2.1-2.6c-2.6-3.2-5.3-6.6-8.3-9.2c-2.4-2.1-4.9-4.1-7.4-6
			C248,128.3,247.9,128.3,247.7,128.3L247.7,128.3z"/>
	</g>
	<g>
		<path class="st0" d="M200.4,132.5l3.2-1.2c0.2-0.1,0.3,0,0.3,0.1l9.8,16.6c0.1,0.1,0,0.2-0.1,0.3c0,0,0,0,0,0
			c-3.6,1.8-7.3,3.4-11.1,4.6c-0.2,0.1-0.4,0-0.4-0.3l-2-19.8C200.2,132.7,200.3,132.5,200.4,132.5z"/>
		<path class="st1" d="M203.7,131.3c0.1,0,0.2,0,0.2,0.1l9.8,16.6c0.1,0.1,0,0.2-0.1,0.3c0,0,0,0,0,0c-3.6,1.8-7.3,3.4-11.1,4.6
			c-0.1,0-0.1,0-0.2,0c-0.1,0-0.2-0.1-0.3-0.3l-2-19.8c0-0.2,0.1-0.3,0.2-0.4l3.2-1.2C203.6,131.3,203.7,131.3,203.7,131.3
			 M203.7,130.8c-0.1,0-0.2,0-0.3,0.1l-3.2,1.2c-0.4,0.2-0.6,0.5-0.6,0.9l2,19.7c0.1,0.5,0.4,0.7,0.7,0.7c0.1,0,0.2,0,0.3-0.1
			c3.8-1.2,7.6-2.8,11.2-4.6l0,0l0,0c0.3-0.2,0.4-0.6,0.2-0.9l-9.8-16.6C204.2,130.9,204,130.8,203.7,130.8L203.7,130.8z"/>
	</g>
	<g>
		<path class="st0" d="M189,134.4C189,134.4,189.1,134.3,189,134.4l3.6-0.5c0.5-0.1,0.9,0.3,0.9,0.7c0,0,0,0.1,0,0.1
			c-0.1,5.6,0.2,11.3,0.9,17c0.1,0.8,0.5,2,0.4,3.1c0,0.1-0.1,0.2-0.2,0.2l-8.5,1.7c-0.1,0-0.3-0.1-0.3-0.2c0,0,0,0,0-0.1
			c0-3.1,0.2-6.2,0.6-9.3C186.8,143.1,188,138.7,189,134.4z"/>
		<path class="st1" d="M192.7,133.9c0.4,0,0.8,0.3,0.8,0.7c0,0,0,0.1,0,0.1c-0.1,5.6,0.2,11.3,0.9,17c0.1,0.8,0.5,2,0.4,3.1
			c0,0.1-0.1,0.2-0.2,0.2l-8.5,1.7c0,0,0,0-0.1,0c-0.1,0-0.2-0.1-0.3-0.2c0,0,0,0,0-0.1c0-3.1,0.2-6.2,0.6-9.3
			c0.5-4.1,1.7-8.5,2.7-12.8c0,0,0-0.1,0.1-0.1l3.5-0.5C192.7,133.9,192.7,133.9,192.7,133.9 M192.7,133.4L192.7,133.4
			c-0.1,0-0.1,0-0.2,0l-3.5,0.5c-0.3,0-0.5,0.2-0.5,0.5c-0.2,0.9-0.4,1.8-0.6,2.7c-0.8,3.4-1.7,6.9-2.1,10.1
			c-0.4,3.1-0.6,6.3-0.6,9.3c0,0,0,0.1,0,0.1c0.1,0.4,0.4,0.6,0.7,0.6c0,0,0.1,0,0.1,0l8.5-1.7c0.3-0.1,0.6-0.3,0.6-0.7
			c0.1-0.9-0.1-1.7-0.2-2.4c-0.1-0.3-0.1-0.5-0.1-0.8c-0.7-5.6-1-11.3-0.9-16.9c0-0.1,0-0.1,0-0.2
			C194,133.9,193.4,133.4,192.7,133.4L192.7,133.4z"/>
	</g>
	<g>
		<path class="st0" d="M173.4,157.6c-0.3,0.1-0.5,0-0.5-0.3c1.9-8,4.7-13.2,8.1-19.6c0.1-0.1,0.2-0.2,0.3-0.1
			c0.1,0.1,0.1,0.2,0.1,0.3c-1.9,6.2-3,12.5-3.2,18.9c0,0.3-0.3,0.5-0.5,0.5c0,0,0,0-0.1,0C176.3,157.2,174.9,157.3,173.4,157.6z"/>
		<path class="st1" d="M181.2,137.7c0,0,0.1,0,0.1,0c0.1,0.1,0.1,0.2,0.1,0.3c-1.9,6.2-3,12.5-3.2,18.9c0,0.3-0.2,0.5-0.5,0.5
			c0,0,0,0,0,0c0,0,0,0-0.1,0c-0.5-0.1-0.9-0.1-1.4-0.1c-0.9,0-1.8,0.1-2.8,0.3c-0.1,0-0.1,0-0.1,0c-0.2,0-0.3-0.1-0.4-0.3
			c1.9-8,4.7-13.2,8.1-19.6C181.1,137.7,181.1,137.7,181.2,137.7 M181.2,137.2c-0.3,0-0.5,0.1-0.6,0.4c-3.6,6.6-6.3,11.9-8.2,19.7
			l0,0.1l0.1,0.1c0.1,0.4,0.5,0.6,0.9,0.6c0.1,0,0.2,0,0.3,0c0.9-0.2,1.9-0.3,2.7-0.3c0.5,0,0.9,0,1.4,0.1c0,0,0.1,0,0.1,0l0,0l0,0
			c0.6,0,1-0.4,1-1c0.2-6.4,1.3-12.7,3.2-18.8c0.1-0.3,0-0.7-0.3-0.9C181.5,137.2,181.4,137.2,181.2,137.2L181.2,137.2z"/>
	</g>
	<g>
		<path class="st0" d="M223.4,150.1c4-2.6,7.7-5.3,11.4-8.3c0.2-0.1,0.4-0.1,0.6,0c4.4,4.8,8.5,9.9,12.3,15.2
			c0.1,0.1,0.1,0.3-0.1,0.4c0,0,0,0,0,0l-15,8.4c-0.2,0.1-0.5,0-0.6-0.2l-8.7-14.9C223.2,150.6,223.2,150.3,223.4,150.1z"/>
		<path class="st1" d="M235.1,141.7c0.1,0,0.2,0,0.3,0.1c4.4,4.8,8.5,9.9,12.3,15.2c0.1,0.1,0.1,0.3-0.1,0.4c0,0,0,0,0,0l-15,8.4
			c-0.1,0-0.1,0.1-0.2,0.1c-0.2,0-0.3-0.1-0.4-0.2l-8.7-14.9c-0.1-0.2-0.1-0.5,0.2-0.7c4-2.6,7.7-5.3,11.4-8.3
			C234.9,141.8,235,141.7,235.1,141.7 M235.1,141.2L235.1,141.2c-0.2,0-0.4,0.1-0.6,0.2c-3.7,3.1-7.3,5.7-11.3,8.3
			c-0.4,0.3-0.6,0.9-0.3,1.3l8.7,14.9c0.2,0.3,0.5,0.5,0.8,0.5c0.2,0,0.3,0,0.5-0.1l15-8.4c0,0,0,0,0.1,0c0.2-0.1,0.3-0.3,0.3-0.5
			c0-0.2,0-0.4-0.1-0.6c-3.8-5.3-7.9-10.4-12.3-15.3C235.6,141.3,235.3,141.2,235.1,141.2L235.1,141.2z"/>
	</g>
	<g>
		<path class="st0" d="M283.5,142.8c0-0.1,0.1-0.2,0.3-0.2c0.4,0,0.7,0.2,0.8,0.5c0.1,0.4,0.1,0.6,0.1,0.6c1.9,4.9,3.5,9.2,4.7,13.1
			c1.8,5.9,1.2,13.6,1,19.7c0,0.2-0.2,0.4-0.5,0.4c0,0,0,0,0,0c-1.8-0.1-3.6-0.1-5.4-0.1c-1,0-1.4-0.2-1.6-1.3
			c-0.9-6.5-2-12.9-4.3-19c-1.1-2.9-2.3-5.7-3.6-8.5c-0.1-0.3,0-0.6,0.2-0.7C278,145.9,280.8,144.3,283.5,142.8z"/>
		<path class="st1" d="M283.8,142.6c0.4,0,0.7,0.2,0.7,0.5c0.1,0.4,0.1,0.6,0.1,0.6c1.9,4.9,3.5,9.2,4.7,13.1
			c1.8,5.9,1.2,13.6,1,19.7c0,0.2-0.2,0.4-0.5,0.4c0,0,0,0,0,0c0,0,0,0,0,0c-1.2-0.1-2.4-0.1-3.7-0.1c-0.6,0-1.2,0-1.8,0
			c0,0-0.1,0-0.1,0c-0.9,0-1.3-0.3-1.4-1.3c-0.9-6.5-2-12.9-4.3-19c-1.1-2.9-2.3-5.7-3.6-8.5c-0.1-0.3,0-0.6,0.2-0.7
			c2.7-1.6,5.4-3.1,8.2-4.6C283.5,142.7,283.6,142.6,283.8,142.6C283.8,142.6,283.8,142.6,283.8,142.6 M283.8,142.1L283.8,142.1
			L283.8,142.1c-0.4,0-0.6,0.2-0.7,0.4c-2.7,1.5-5.4,3-8,4.5c-0.5,0.3-0.6,0.8-0.4,1.3c1.3,2.7,2.5,5.6,3.5,8.4
			c2.3,6.2,3.4,12.8,4.3,18.9c0.2,1.2,0.7,1.7,1.9,1.7c0,0,0.1,0,0.1,0c0.6,0,1.2,0,1.8,0c1.2,0,2.4,0,3.6,0.1l0,0
			c0.5,0,0.9-0.4,0.9-0.9c0-0.8,0.1-1.6,0.1-2.4c0.2-5.7,0.5-12.2-1.1-17.4c-1.2-3.9-2.8-8.3-4.7-13.2c0,0,0-0.2-0.1-0.6
			C284.9,142.4,284.5,142.1,283.8,142.1L283.8,142.1z"/>
	</g>
	<g>
		<path class="st0" d="M265.6,179.5c-0.1,0-0.2,0-0.3-0.2c-1.1-3.9-2.1-7.9-3.7-11.6c-1.4-3.2-2.8-6.2-4.3-9.1
			c-0.2-0.3-0.1-0.6,0.2-0.8l10.4-6.1c0.3-0.2,0.5-0.1,0.7,0.2c2.2,5.4,4.6,10.9,5.7,16.4c0.6,2.9,1,5.8,1.3,8.7
			c0,0.2-0.1,0.3-0.2,0.3C272.1,177.8,268.9,178.9,265.6,179.5z"/>
		<path class="st1" d="M268.3,151.6c0.2,0,0.3,0.1,0.4,0.3c2.2,5.4,4.6,10.9,5.7,16.4c0.6,2.9,1,5.8,1.3,8.7c0,0.2-0.1,0.3-0.2,0.3
			c-3.4,0.5-6.5,1.5-9.9,2.2c0,0,0,0,0,0c-0.1,0-0.2-0.1-0.2-0.2c-1.1-3.9-2.1-7.9-3.7-11.6c-1.4-3.2-2.8-6.2-4.3-9.1
			c-0.2-0.3-0.1-0.6,0.2-0.8l10.4-6.1C268.1,151.7,268.2,151.6,268.3,151.6 M268.3,151.1L268.3,151.1c-0.2,0-0.4,0.1-0.5,0.2
			l-10.4,6.1c-0.6,0.3-0.7,0.9-0.4,1.5c1.5,2.9,2.9,6,4.3,9.1c1.2,2.8,2.1,6,3,9c0.2,0.8,0.5,1.7,0.7,2.5c0.1,0.3,0.4,0.5,0.7,0.5
			c0.1,0,0.1,0,0.2,0c1.4-0.3,2.7-0.6,4-0.9c1.9-0.5,3.9-1,5.9-1.2c0.4-0.1,0.7-0.4,0.7-0.8c-0.3-2.9-0.7-5.9-1.3-8.8
			c-1-5.1-3.2-10.3-5.3-15.3l-0.5-1.2C268.9,151.2,268.5,151.1,268.3,151.1L268.3,151.1z"/>
	</g>
	<g>
		<path class="st0" d="M203.8,160.6c0-0.2,0.1-0.5,0.3-0.6c4.5-1.7,8.8-3.7,13-5.9c0.1,0,0.2,0,0.2,0.1l8.8,15.4
			c0.1,0.1,0,0.3-0.1,0.3l-14.9,8.9c-0.1,0.1-0.3,0-0.4-0.1c0,0,0,0,0,0c-2.5-5.6-4.7-11.1-6.6-16.7
			C204,161.6,203.9,161.1,203.8,160.6z"/>
		<path class="st1" d="M217.2,154.2c0,0,0.1,0,0.1,0.1l8.8,15.4c0.1,0.1,0,0.3-0.1,0.3l-14.9,8.9c0,0-0.1,0-0.1,0
			c-0.1,0-0.2,0-0.2-0.1c0,0,0,0,0,0c-2.5-5.6-4.7-11.1-6.6-16.7c-0.2-0.5-0.3-1-0.3-1.4c0-0.2,0.1-0.5,0.3-0.6
			C208.6,158.4,212.9,156.4,217.2,154.2C217.2,154.2,217.2,154.2,217.2,154.2 M217.2,153.7L217.2,153.7c-0.1,0-0.2,0-0.3,0.1
			c-4.2,2.2-8.5,4.2-12.9,5.9c-0.4,0.2-0.7,0.6-0.7,1.1c0,0.5,0.2,1,0.4,1.5c1.9,5.6,4.2,11.2,6.7,16.8c0,0,0,0.1,0,0.1
			c0.1,0.2,0.4,0.4,0.7,0.4c0.1,0,0.3,0,0.4-0.1l14.9-8.9c0.4-0.2,0.5-0.6,0.3-1l-8.8-15.4C217.7,153.8,217.5,153.7,217.2,153.7
			L217.2,153.7z"/>
	</g>
	<g>
		<path class="st0" d="M186.3,165.7c-0.1-0.1-0.1-0.3-0.1-0.5c-0.1-0.4,0-0.6,0.2-0.7c3.6-0.6,6.8-1.3,9.8-2.2
			c0.2-0.1,0.3,0,0.4,0.2c1.7,7,4.3,13.7,7.6,20c0.1,0.2,0,0.4-0.1,0.5l-10.6,6.3c-0.2,0.1-0.5,0.1-0.7-0.2c0,0,0,0,0-0.1
			c-2.2-5.4-4.5-11-5.5-16.8C186.9,170.2,186.6,168,186.3,165.7z"/>
		<path class="st1" d="M196.4,162.4c0.1,0,0.2,0.1,0.2,0.2c1.7,7,4.3,13.7,7.6,20c0.1,0.2,0,0.4-0.1,0.5l-10.6,6.3
			c-0.1,0-0.2,0.1-0.2,0.1c-0.2,0-0.3-0.1-0.4-0.2c0,0,0,0,0-0.1c-2.2-5.4-4.5-11-5.5-16.8c-0.4-2.2-0.7-4.4-1-6.7
			c-0.1-0.1-0.1-0.3-0.1-0.5c-0.1-0.4,0-0.6,0.2-0.7c3.6-0.6,6.8-1.3,9.8-2.2C196.3,162.4,196.3,162.4,196.4,162.4 M196.4,161.9
			c-0.1,0-0.2,0-0.3,0c-3,0.9-6.3,1.6-9.8,2.1c-0.2,0-0.4,0.2-0.5,0.3c-0.1,0.2-0.2,0.5-0.1,0.8c0,0.3,0,0.5,0.1,0.7
			c0.3,2.2,0.7,4.4,1,6.6c1,5.9,3.3,11.5,5.6,16.9c0,0,0,0.1,0.1,0.1c0.2,0.3,0.5,0.5,0.8,0.5c0.2,0,0.3,0,0.5-0.1l10.6-6.3
			c0.4-0.2,0.6-0.8,0.3-1.2c-3.4-6.3-5.9-13-7.6-19.9C197,162.1,196.6,161.9,196.4,161.9L196.4,161.9z"/>
	</g>
	<g>
		<path class="st0" d="M245.1,187.7c-0.1,0.1-0.1,0.1-0.2,0.1c-0.2,0-0.3-0.1-0.4-0.2l-9-16c-0.1-0.2-0.1-0.5,0.2-0.6l14.4-8.6
			c0.3-0.2,0.7-0.1,0.9,0.2c0,0,0,0.1,0,0.1c1.1,2.6,2.2,5.2,3.5,7.7c0.7,1.4,1.9,5.1,3.7,11c0,0.1,0,0.2-0.2,0.3
			c-4.4,1.6-8.6,3.5-12.7,5.7C245.2,187.5,245.2,187.6,245.1,187.7z"/>
		<path class="st1" d="M250.3,162.3c0.2,0,0.4,0.1,0.6,0.3c0,0,0,0.1,0,0.1c1.1,2.6,2.2,5.2,3.5,7.7c0.7,1.4,1.9,5.1,3.7,11
			c0,0.1,0,0.2-0.2,0.3c-4.4,1.6-8.6,3.5-12.7,5.7c-0.1,0-0.1,0.1-0.2,0.2c-0.1,0.1-0.1,0.1-0.2,0.1c0,0,0,0,0,0
			c-0.2,0-0.3-0.1-0.4-0.2l-9-16c-0.1-0.2-0.1-0.5,0.2-0.6l14.4-8.6C250.1,162.3,250.2,162.3,250.3,162.3 M250.3,161.8L250.3,161.8
			c-0.2,0-0.4,0.1-0.6,0.2l-14.4,8.6c-0.4,0.3-0.6,0.8-0.3,1.3l9,16c0.2,0.3,0.5,0.5,0.8,0.5c0.2,0,0.4,0,0.6-0.3
			c0,0,0.1-0.1,0.1-0.1c4-2.2,8.3-4.1,12.6-5.7c0.4-0.1,0.6-0.5,0.5-0.9c-1.8-6-3-9.7-3.7-11.1c-1.3-2.5-2.4-5.1-3.5-7.7
			c0-0.1,0-0.1-0.1-0.2C251.1,162,250.7,161.8,250.3,161.8L250.3,161.8z"/>
	</g>
	<g>
		<path class="st0" d="M171.7,180.7c-0.2-0.6-0.2-1.2-0.2-1.8l0-13.5c0-0.3,0.1-0.4,0.4-0.4h6.6c0.2,0,0.4,0.2,0.5,0.4
			c0.9,5.6,1.5,11.5,3.3,16.7c1.3,3.8,2.7,7.5,4.4,11.2c0.1,0.2,0,0.3-0.1,0.4l-9.1,5.1c-0.2,0.1-0.3,0-0.3-0.1
			c-1.8-4.9-3.4-9.8-4.9-14.8C171.8,182.8,171.9,181.7,171.7,180.7z"/>
		<path class="st1" d="M178.4,165c0.2,0,0.4,0.2,0.5,0.4c0.9,5.6,1.5,11.5,3.3,16.7c1.3,3.8,2.7,7.5,4.4,11.2c0.1,0.2,0,0.3-0.1,0.4
			l-9.1,5.1c-0.1,0-0.1,0-0.2,0c-0.1,0-0.2-0.1-0.2-0.2c-1.8-4.9-3.4-9.8-4.9-14.8c-0.3-1-0.2-2-0.4-3c-0.2-0.6-0.2-1.2-0.2-1.8
			l0-13.5c0-0.3,0.1-0.4,0.4-0.4H178.4C178.4,165,178.4,165,178.4,165 M178.4,164.5L178.4,164.5h-6.6c-0.5,0-0.9,0.4-0.9,0.9l0,13.5
			c0,0.6,0.1,1.3,0.2,1.9c0.1,0.5,0.2,0.9,0.2,1.4c0,0.5,0.1,1.1,0.2,1.6c1.4,5,3.1,10,4.9,14.9c0.1,0.3,0.4,0.5,0.7,0.5
			c0.1,0,0.3,0,0.4-0.1l9.1-5.1c0.4-0.2,0.5-0.6,0.3-1c-1.6-3.6-3.1-7.4-4.4-11.1c-1.3-4.1-2-8.6-2.7-13.1c-0.2-1.2-0.4-2.4-0.5-3.5
			C179.3,164.9,178.9,164.5,178.4,164.5L178.4,164.5z"/>
	</g>
	<g>
		<path class="st0" d="M226,199.4c-4.7-5.1-8.6-10.3-12.6-16c-0.1-0.1-0.1-0.2,0.1-0.3l15-8.4c0.2-0.1,0.5-0.1,0.7,0.2l9.2,15.6
			c0.1,0.2,0.1,0.4-0.1,0.5c-4,2.6-7.8,5.3-11.5,8.4C226.5,199.6,226.2,199.6,226,199.4z"/>
		<path class="st1" d="M228.7,174.6c0.2,0,0.3,0.1,0.4,0.2l9.2,15.6c0.1,0.2,0.1,0.4-0.1,0.5c-4,2.6-7.8,5.3-11.5,8.4
			c-0.1,0.1-0.2,0.1-0.3,0.1c-0.1,0-0.3-0.1-0.4-0.2c-4.7-5.1-8.6-10.3-12.6-16c-0.1-0.1-0.1-0.2,0.1-0.3l15-8.4
			C228.5,174.7,228.6,174.6,228.7,174.6 M228.7,174.1c-0.2,0-0.3,0-0.5,0.1l-15,8.4c-0.2,0.1-0.3,0.3-0.4,0.5c0,0.1,0,0.3,0.1,0.6
			c3.4,4.8,7.5,10.5,12.7,16c0.2,0.2,0.5,0.3,0.8,0.3c0.2,0,0.5-0.1,0.7-0.2c3.6-3,7.5-5.8,11.4-8.3c0.4-0.3,0.5-0.8,0.3-1.2
			l-9.2-15.6C229.4,174.3,229.1,174.1,228.7,174.1L228.7,174.1z"/>
	</g>
	<g>
		<path class="st0" d="M281.4,203.6c-0.1,0.1-0.1,0.2-0.3,0.5c-0.2,0.3-0.3,0.4-0.6,0.7c-0.1,0.1-0.2,0.1-0.2,0
			c-0.1,0-0.1-0.1-0.1-0.2c2.1-6.4,3.3-13,3.4-19.7c0-0.1,0.1-0.3,0.3-0.3l4.9-0.2c0.1,0,0.2,0.1,0.2,0.2c0,0,0,0,0,0.1
			C287.4,191.4,285,197.5,281.4,203.6z"/>
		<path class="st1" d="M288.8,184.5c0.1,0,0.2,0.1,0.2,0.2c0,0,0,0,0,0.1c-1.7,6.6-4.1,12.7-7.6,18.8c-0.1,0.1-0.1,0.2-0.3,0.5
			c-0.2,0.3-0.3,0.4-0.6,0.7c0,0-0.1,0.1-0.1,0.1c0,0-0.1,0-0.1,0c-0.1,0-0.1-0.1-0.1-0.2c2.1-6.4,3.3-13,3.4-19.7
			c0-0.1,0.1-0.3,0.3-0.3L288.8,184.5C288.8,184.5,288.8,184.5,288.8,184.5 M288.8,184L288.8,184L288.8,184l-5,0.2
			c-0.4,0-0.7,0.3-0.7,0.7c-0.1,6.7-1.3,13.3-3.4,19.6c-0.1,0.3,0,0.6,0.2,0.7c0.1,0.1,0.2,0.1,0.4,0.1c0.2,0,0.4-0.1,0.5-0.3
			c0.2-0.2,0.3-0.4,0.4-0.5l0.1-0.2l0,0l0,0c0.1-0.1,0.2-0.3,0.2-0.3c0,0,0,0,0-0.1l0,0l0,0c3.5-6.1,6-12.3,7.7-19
			c0-0.1,0-0.1,0-0.2C289.6,184.3,289.2,184,288.8,184L288.8,184z"/>
	</g>
	<g>
		<path class="st0" d="M269.8,186.5c1.9,0,4.2-1,6.1-1.3c0.2,0,0.3,0.1,0.3,0.2c-0.1,7.5-1.2,14.8-3.5,22c-0.1,0.2-0.2,0.3-0.3,0.3
			l-3.7,0.3c-0.2,0-0.3-0.1-0.3-0.3c0.1-7.6-0.3-14.5-1.5-20.9c0-0.2,0.1-0.3,0.2-0.4c0,0,0,0,0.1,0
			C268.2,186.6,269,186.6,269.8,186.5z"/>
		<path class="st1" d="M276.1,185.3c0.1,0,0.2,0.1,0.2,0.3c-0.1,7.5-1.2,14.8-3.5,22c-0.1,0.2-0.2,0.3-0.3,0.3l-3.7,0.3
			c0,0,0,0-0.1,0c-0.2,0-0.3-0.1-0.3-0.3c0.1-7.6-0.3-14.5-1.5-20.9c0-0.2,0.1-0.3,0.2-0.4c0,0,0,0,0.1,0c0,0,0,0,0,0
			c0.4,0,0.7,0,1.1,0c0.5,0,1,0,1.4,0C271.8,186.5,274,185.6,276.1,185.3C276,185.3,276,185.3,276.1,185.3 M276.1,184.8
			c0,0-0.1,0-0.1,0c-0.8,0.1-1.7,0.4-2.6,0.6c-1.2,0.3-2.4,0.7-3.5,0.7c-0.5,0-1,0-1.4,0c-0.4,0-0.7,0-1.1,0c0,0,0,0,0,0
			c-0.1,0-0.1,0-0.1,0c-0.4,0.1-0.7,0.5-0.6,0.9c1.1,6.2,1.6,13,1.5,20.8c0,0.5,0.3,0.8,0.8,0.8c0,0,0.1,0,0.1,0l3.7-0.3
			c0.4,0,0.7-0.3,0.8-0.6c2.2-7.2,3.4-14.6,3.5-22.2C276.8,185.1,276.5,184.8,276.1,184.8L276.1,184.8z"/>
	</g>
	<g>
		<path class="st0" d="M213.9,197.1c2.7,3.3,4.7,5.1,7.1,7.5c0.1,0.1,0.1,0.3,0,0.4l-7,7.4c-0.1,0.1-0.2,0.1-0.4,0
			c-5-3.3-9.3-7.3-13-12c-1.8-2.3-3.6-4.5-5.3-6.8c-0.1-0.1-0.1-0.2,0.1-0.3l11-6.2c0.1-0.1,0.2-0.1,0.3,0.1
			C209.1,190.4,211.4,194,213.9,197.1z"/>
		<path class="st1" d="M206.5,187c0.1,0,0.1,0,0.2,0.1c2.4,3.3,4.7,7,7.2,10c2.7,3.3,4.7,5.1,7.1,7.5c0.1,0.1,0.1,0.3,0,0.4l-7,7.4
			c-0.1,0.1-0.1,0.1-0.2,0.1c-0.1,0-0.1,0-0.2-0.1c-5-3.3-9.3-7.3-13-12c-1.8-2.3-3.6-4.5-5.3-6.8c-0.1-0.1-0.1-0.2,0.1-0.3l11-6.2
			C206.4,187,206.4,187,206.5,187 M206.5,186.5c-0.1,0-0.3,0-0.4,0.1l-11,6.2c-0.3,0.1-0.3,0.3-0.4,0.5c0,0.1,0,0.4,0.2,0.6l4.4,5.6
			l0.9,1.2c3.7,4.7,8.1,8.8,13.1,12.1c0.1,0.1,0.3,0.1,0.4,0.1c0.1,0,0.4,0,0.6-0.3l7-7.4c0.3-0.3,0.3-0.8,0-1c-0.5-0.5-1-1-1.4-1.4
			c-1.8-1.8-3.5-3.5-5.6-6c-1.6-1.9-3.2-4.2-4.7-6.4c-0.8-1.2-1.7-2.4-2.5-3.6C206.9,186.6,206.7,186.5,206.5,186.5L206.5,186.5z"/>
	</g>
	<g>
		<path class="st0" d="M258.3,211c0,0-0.1,0-0.1,0c0,0,0,0,0,0l-9.9-16.9c-0.1-0.1,0-0.3,0.1-0.4c0,0,0,0,0,0
			c3.6-1.9,7.3-3.4,11.2-4.7c0.2,0,0.2,0,0.3,0.2l2,19.7c0,0.5-0.2,0.8-0.6,0.9C260.3,209.9,259.4,210.3,258.3,211z"/>
		<path class="st1" d="M259.7,188.9c0.1,0,0.1,0.1,0.2,0.2l2,19.7c0,0.5-0.2,0.8-0.6,0.9c-0.8,0.2-1.8,0.6-2.9,1.3c0,0,0,0,0,0
			c0,0-0.1,0-0.1,0c0,0,0,0,0,0l-9.9-16.9c-0.1-0.1,0-0.3,0.1-0.4c0,0,0,0,0,0C251.9,191.7,255.7,190.2,259.7,188.9
			C259.6,188.9,259.6,188.9,259.7,188.9 M259.7,188.5c-0.1,0-0.2,0-0.2,0c-3.9,1.2-7.7,2.8-11.3,4.7l0,0l0,0
			c-0.2,0.1-0.3,0.3-0.3,0.5c0,0.2,0,0.4,0.1,0.6l9.9,16.9c0.1,0.2,0.3,0.3,0.5,0.3c0.1,0,0.2,0,0.3-0.1c1-0.6,2-1,2.7-1.2
			c0.7-0.2,1.1-0.7,1-1.4l-2-19.7C260.3,188.6,259.9,188.5,259.7,188.5L259.7,188.5z"/>
	</g>
	<g>
		<path class="st0" d="M179.5,203.2c-0.1-0.2-0.2-0.4-0.5-0.6l9.4-5.4c0.2-0.1,0.3,0,0.4,0.1c2.2,3.1,4.4,5.9,6.5,8.5
			c4.2,5.1,9.4,8.7,14.4,12.9c0.1,0.1,0.2,0.3,0.1,0.4l-3.3,5.8c-0.1,0.2-0.4,0.3-0.6,0.2c-6.2-3.2-12.8-6.6-17.5-11.7
			c-2.9-3.2-5.7-6.4-8.4-9.8C179.9,203.2,179.7,203.2,179.5,203.2z"/>
		<path class="st1" d="M188.6,197.1c0.1,0,0.2,0.1,0.3,0.1c2.2,3.1,4.4,5.9,6.5,8.5c4.2,5.1,9.4,8.7,14.4,12.9
			c0.1,0.1,0.2,0.3,0.1,0.4l-3.3,5.8c-0.1,0.1-0.2,0.2-0.4,0.2c-0.1,0-0.1,0-0.2-0.1c-6.2-3.2-12.8-6.6-17.5-11.7
			c-2.9-3.2-5.7-6.4-8.4-9.8c-0.1-0.2-0.3-0.3-0.5-0.3c0,0,0,0,0,0c-0.1-0.2-0.2-0.4-0.5-0.6l9.4-5.4
			C188.5,197.1,188.5,197.1,188.6,197.1 M188.6,196.6c-0.1,0-0.3,0-0.4,0.1l-9.4,5.5l-0.7,0.4l0.6,0.4c0.3,0.2,0.3,0.3,0.3,0.3
			l0.1,0.3l0.3,0c0,0,0,0,0.1,0.1c2.7,3.4,5.5,6.7,8.4,9.8c4.5,4.9,10.7,8.2,16.7,11.3l1,0.5c0.1,0.1,0.3,0.1,0.4,0.1
			c0.3,0,0.7-0.2,0.8-0.5l3.3-5.8c0.2-0.4,0.1-0.8-0.2-1c-1.2-1-2.4-1.9-3.5-2.8c-3.9-3.1-7.7-6.1-10.8-10c-2.1-2.5-4.3-5.4-6.4-8.4
			C189.1,196.8,188.8,196.6,188.6,196.6L188.6,196.6z"/>
	</g>
	<g>
		<path class="st0" d="M247.5,224.5l-16.4-11.8c-0.2-0.1-0.2-0.3,0-0.4c3.2-2.3,6-4.9,9.2-7c0.3-0.2,0.8-0.1,1,0.2c0,0,0,0,0,0
			l9.2,16.3c0.1,0.2,0.1,0.3-0.1,0.4l-2.7,2.3C247.7,224.5,247.6,224.6,247.5,224.5z"/>
		<path class="st1" d="M240.7,205.1c0.2,0,0.5,0.1,0.6,0.3c0,0,0,0,0,0l9.2,16.3c0.1,0.2,0.1,0.3-0.1,0.4l-2.7,2.3
			c0,0-0.1,0.1-0.2,0.1c-0.1,0-0.1,0-0.1,0l-16.4-11.8c-0.2-0.1-0.2-0.3,0-0.4c3.2-2.3,6-4.9,9.2-7
			C240.5,205.1,240.6,205.1,240.7,205.1 M240.7,204.6c-0.2,0-0.5,0.1-0.6,0.2c-2.1,1.3-4,2.9-5.9,4.4c-1.1,0.9-2.2,1.8-3.4,2.6
			c-0.3,0.2-0.3,0.5-0.3,0.6c0,0.2,0.1,0.4,0.4,0.6l16.4,11.8c0.1,0.1,0.3,0.1,0.4,0.1c0.2,0,0.3-0.1,0.5-0.2l2.7-2.3
			c0.3-0.3,0.4-0.7,0.2-1l-9.2-16.3c0,0,0,0,0-0.1C241.5,204.8,241.1,204.6,240.7,204.6L240.7,204.6z"/>
	</g>
	<g>
		<path class="st0" d="M220.6,217c-0.1-0.1-0.2-0.2-0.1-0.3c0,0,0,0,0,0l5.7-6.6c0.2-0.2,0.5-0.2,0.6-0.1c5.3,4.3,11,8,16.9,11.3
			c0.2,0.1,0.3,0.4,0.2,0.6c0,0,0,0,0,0l-2.3,3.1c-0.1,0.1-0.2,0.2-0.4,0.1c-0.7-0.2-1.4-0.6-2.1-0.7
			C232.7,223,226.5,220.5,220.6,217z"/>
		<path class="st1" d="M226.7,209.9c0.1,0,0.2,0,0.3,0.1c5.3,4.3,11,8,16.9,11.3c0.2,0.1,0.3,0.4,0.2,0.6c0,0,0,0,0,0l-2.3,3.1
			c-0.1,0.1-0.2,0.1-0.3,0.1c0,0-0.1,0-0.1,0c-0.7-0.2-1.4-0.6-2.1-0.7c-6.5-1.6-12.7-4.1-18.6-7.5c-0.1-0.1-0.2-0.2-0.1-0.3
			c0,0,0,0,0,0l5.7-6.6C226.4,210,226.5,209.9,226.7,209.9 M226.7,209.5c-0.3,0-0.5,0.1-0.7,0.3l-5.7,6.6c0,0-0.1,0.1-0.1,0.1
			c-0.2,0.3-0.1,0.8,0.3,1c5.9,3.5,12.2,6,18.8,7.6c0.4,0.1,0.8,0.3,1.2,0.4c0.3,0.1,0.5,0.2,0.8,0.3c0.1,0,0.2,0,0.3,0
			c0.3,0,0.5-0.1,0.7-0.3l2.3-3.1c0,0,0-0.1,0.1-0.1c0.2-0.4,0.1-1-0.4-1.3c-5.9-3.3-11.6-7.1-16.9-11.3
			C227.1,209.5,226.9,209.5,226.7,209.5L226.7,209.5z"/>
	</g>
	<g>
		<path class="st0" d="M246.4,228.6c0-0.1,0-0.1,0.1-0.2c5.6-10.5,15.1-15.8,26.7-15.4c0.1,0,0.2,0.1,0.2,0.2c0,0.1,0,0.1-0.1,0.1
			c-7,7.8-16.5,12.9-26.5,15.6c-0.1,0-0.2,0-0.3,0C246.4,228.9,246.4,228.7,246.4,228.6z"/>
		<path class="st1" d="M271.9,213c0.4,0,0.8,0,1.2,0c0.1,0,0.2,0.1,0.2,0.2c0,0.1,0,0.1-0.1,0.1c-7,7.8-16.5,12.9-26.5,15.6
			c-0.1,0-0.1,0-0.2,0c-0.1,0-0.1,0-0.1,0c-0.1-0.1-0.1-0.2-0.1-0.4c0-0.1,0-0.1,0.1-0.2C251.8,218.2,260.8,213,271.9,213
			 M271.9,212.5L271.9,212.5c-5.6,0-10.7,1.3-15.1,4c-4.4,2.7-8.1,6.6-10.8,11.7l0,0l0,0l0,0c0,0,0,0.1-0.1,0.2l0,0l0,0
			c0,0.4,0.1,0.7,0.2,0.8c0.1,0.1,0.2,0.2,0.5,0.2c0.1,0,0.2,0,0.3,0c10.9-2.9,20.1-8.3,26.8-15.7c0.1-0.1,0.2-0.3,0.2-0.5
			c0-0.4-0.3-0.7-0.7-0.8C272.7,212.5,272.3,212.5,271.9,212.5L271.9,212.5z"/>
	</g>
	<g>
		<path class="st0" d="M213.7,227.9c-0.1,0-0.2-0.2-0.2-0.3c0,0,0,0,0-0.1l2.5-4.2c0.1-0.2,0.4-0.3,0.7-0.2
			c5.8,3.2,11.9,5.5,18.3,6.9c0.1,0,0.2,0.2,0.2,0.3c0,0.1-0.1,0.2-0.2,0.2C227.6,230.7,220.6,229.8,213.7,227.9z"/>
		<path class="st1" d="M216.4,223.1c0.1,0,0.2,0,0.2,0.1c5.8,3.2,11.9,5.5,18.3,6.9c0.1,0,0.2,0.2,0.2,0.3c0,0.1-0.1,0.2-0.2,0.2
			c-0.6,0-1.2,0-1.8,0c-6.6,0-13.1-0.9-19.4-2.6c-0.1,0-0.2-0.2-0.2-0.3c0,0,0,0,0-0.1l2.5-4.2C216.1,223.2,216.2,223.1,216.4,223.1
			 M216.4,222.6L216.4,222.6c-0.3,0-0.7,0.2-0.8,0.5l-2.5,4.2c0,0.1-0.1,0.1-0.1,0.2c-0.1,0.2,0,0.4,0.1,0.6
			c0.1,0.2,0.3,0.3,0.5,0.4c6.4,1.8,12.9,2.7,19.6,2.7c0.6,0,1.2,0,1.8,0l0,0l0,0c0.3,0,0.6-0.2,0.7-0.6c0.1-0.4-0.1-0.8-0.5-0.9
			c-6.4-1.4-12.5-3.7-18.2-6.9C216.7,222.6,216.5,222.6,216.4,222.6L216.4,222.6z"/>
	</g>
	<path class="st0" d="M144.6,250.2l30.4,0c0.3,0,0.5,0.2,0.5,0.5l0,34.7c0,0.6-0.3,0.9-0.9,0.9l-18.1,0c-0.6,0-0.8,0.3-0.8,0.9
		l0,24.6c0,0.3,0.2,0.5,0.5,0.5c0,0,0,0,0,0l7.2-0.1c0.2,0,0.3-0.1,0.3-0.3l-0.1-17.7c0-0.2,0.1-0.3,0.3-0.3l11.1,0.1
		c0.2,0,0.3,0.1,0.3,0.3l0,17.2c0,0.3,0.2,0.5,0.5,0.5c0,0,0,0,0,0l6.2-0.3c0.1,0,0.2-0.1,0.2-0.2l0.2-60.8c0-0.2,0.1-0.3,0.3-0.3
		h13.6c0.1,0,0.2,0.1,0.2,0.2l0,0v61.5c0,0.3,0.2,0.5,0.5,0.5l30.3,0.1c0.4,0,0.7-0.2,0.7-0.7l0.4-7.4c0-0.3-0.2-0.5-0.5-0.6
		c0,0,0,0,0,0l-20.4,0c-0.6,0-0.8-0.3-0.8-0.8v-31.3c0-0.3,0.1-0.4,0.4-0.4l32.4,0c0.3,0,0.5,0.2,0.5,0.5l-0.1,40.5
		c0,0.3,0.3,0.6,0.6,0.6c0,0,0,0,0,0h9c0.5,0,0.7-0.2,0.7-0.7l0.6-61.6c0-0.3,0.2-0.5,0.5-0.5h32.1c0.1,0,0.3,0.1,0.3,0.3v74.4
		c0,0.4-0.3,0.7-0.7,0.8l-9.3,0.3c-0.2,0-0.4-0.2-0.5-0.4c0,0,0,0,0,0c0-16.4-0.1-33,0.1-49.5c0.1-4.3-0.2-8.6,0.1-12.9
		c0-0.3-0.2-0.6-0.6-0.7c0,0,0,0,0,0h-11.2c-0.4,0-0.7,0.3-0.7,0.7l0.2,60.6c0,0.7-0.3,1-1,1l-119.3-0.1c-0.1,0-0.2-0.1-0.2-0.2
		l-0.1-1.4l-0.1-72.7c0-0.2,0.1-0.3,0.3-0.3L144.6,250.2z M164.4,261.6c0-0.2-0.1-0.3-0.3-0.3l0,0l-11.2,0c-0.2,0-0.3,0.1-0.3,0.3
		l0,0l0,11.3c0,0.2,0.1,0.3,0.3,0.3h0l11.2,0c0.2,0,0.3-0.1,0.3-0.3L164.4,261.6z M229.8,282.3c0-0.2-0.2-0.4-0.4-0.4l-11.3,0
		c-0.2,0-0.4,0.2-0.4,0.4l0,11.4c0,0.2,0.2,0.4,0.4,0.4l11.3,0c0.2,0,0.4-0.2,0.4-0.4L229.8,282.3z"/>
	<path class="st0" d="M218.2,261.1c0.1,0.1,0.1,0.2,0,0.3c-0.1,0.3-0.3,0.5-0.6,0.5h-9.9c-0.3,0-0.5-0.2-0.5-0.5l0,0l0-10
		c0-0.2,0.2-0.4,0.4-0.4h10.2c0.2,0,0.3,0.2,0.4,0.3c0.1,3.1,0.1,6.2,0,9.3C218.1,260.8,218.1,261,218.2,261.1z"/>
	<path class="st0" d="M228.5,251.1l10.2,0c0.2,0,0.3,0.2,0.4,0.3l0,10c0,0.2-0.2,0.3-0.3,0.4l-10.2,0c-0.2,0-0.3-0.2-0.4-0.3l0-10
		C228.1,251.2,228.3,251.1,228.5,251.1z"/>
	<path class="st0" d="M325.5,313.6c-3.3,4.7-7.2,8.9-11.8,12.6c-0.2-0.2-0.4-0.2-0.6-0.1c-0.5-0.5-1.3-0.1-1.8-0.1
		c-6.3-0.2-12.5-0.1-18.7,0.1c-0.2,0-0.3-0.1-0.3-0.3c0,0,0,0,0,0l0-32.8c0-0.2,0.1-0.4,0.4-0.4l10.9,0.1c0.1,0,0.2,0.1,0.2,0.2
		l-0.1,21.4c0,0.4,0.2,0.7,0.7,0.7l9.7-0.2c0.2,0,0.4-0.1,0.4-0.4l0-32.1c0-0.2-0.2-0.4-0.4-0.4c0,0,0,0,0,0l-21.3,0.1
		c-0.2,0-0.3-0.1-0.3-0.3l0,0l0.1-29.4c0-0.3,0.2-0.5,0.5-0.5l31.6,0c0.3,0,0.5,0.2,0.5,0.5c0,0,0,0,0,0c-0.1,19.2-0.1,38.2,0,57
		C325.3,310.7,325,312,325.5,313.6z M315,261.7c0-0.2-0.2-0.4-0.4-0.4l-11.2,0c-0.2,0-0.4,0.2-0.4,0.4l0,11.1c0,0.2,0.2,0.4,0.4,0.4
		l11.2,0c0.2,0,0.4-0.2,0.4-0.4L315,261.7z"/>
	<path class="st1" d="M315,261.7c0-0.2-0.2-0.4-0.4-0.4l-11.2,0c-0.2,0-0.4,0.2-0.4,0.4l0,11.1c0,0.2,0.2,0.4,0.4,0.4l11.2,0
		c0.2,0,0.4-0.2,0.4-0.4L315,261.7z M314.3,266.8l0,5.3c0,0.2-0.1,0.3-0.3,0.4c-0.8,0.2-1.6,0.2-2.5,0c-2.6,0.3-5.2,0.3-7.8,0.1
		c-0.2,0-0.3-0.1-0.3-0.3l0-10.2c0-0.2,0.1-0.2,0.2-0.2h10.3c0.2,0,0.2,0.1,0.2,0.3L314.3,266.8z"/>
	<path class="st1" d="M229.4,282l-11.2,0c-0.2,0-0.4,0.2-0.4,0.4l0,11.1c0,0.2,0.2,0.4,0.4,0.4l11.2,0c0.2,0,0.4-0.2,0.4-0.4l0-11.1
		C229.8,282.2,229.6,282,229.4,282z M229.1,287.6l0,5.3c0,0.2-0.1,0.3-0.3,0.4c-0.8,0.2-1.6,0.2-2.5,0c-2.6,0.3-5.2,0.3-7.8,0.1
		c-0.2,0-0.3-0.1-0.3-0.3l0-10.2c0-0.2,0.1-0.2,0.2-0.2h10.3c0.2,0,0.2,0.1,0.2,0.3L229.1,287.6z"/>
	<path class="st1" d="M260.1,63.1c3.9-0.5,6.8-3.2,9.2-6.2c0.1-0.2,0.1-0.3-0.1-0.4l-0.5-0.3c-0.1-0.1-0.3,0-0.4,0.1
		c-2.7,3.5-6.5,5.4-11,4.7c-7-1-9.3-6.6-8.9-13.1c0.3-4.1,1.4-9,4.6-11.9c4.9-4.3,13.1-2.2,15.2,4.1c0.3,0.9,0.6,1.9,0.8,2.8
		c0.1,0.4,0.3,0.6,0.7,0.5c0.2,0,0.3-0.2,0.3-0.4c0.1-3.1,0.3-6.3,0.4-9.4c0-0.3,0-0.4-0.1-0.6c-0.2-0.3-0.5-0.3-0.9,0
		c-0.1,0-0.1,0.1-0.1,0.2c-0.3,0.8-0.8,1.3-1.5,1.6c-0.2,0.1-0.4,0.1-0.5,0c-4.7-2.7-9-4-14.2-1.9C236.9,39.3,241,65.7,260.1,63.1z"
		/>
	<path class="st1" d="M223,55.8c1.3,1.8,0.3,4-1.7,4.6c-3.3,1-6.4-2.2-7.2-5.2c-0.1-0.5-0.4-0.6-1-0.3c-0.1,0.1-0.2,0.2-0.2,0.3
		l0.5,6.9c0,0.1,0,0.2,0.1,0.3c0.2,0.2,0.4,0.2,0.6,0l0.7-0.6c0.1-0.1,0.2-0.1,0.4-0.1c1.6,0.3,3.5,0.7,5,0.6
		c6-0.4,9.7-7.3,3.8-11.2c-1.7-1.2-4.6-1.7-7-3.2c-3-1.9-2.4-5,1.1-5.5c3.8-0.5,4.3,2.3,5.9,5c0.1,0.2,0.3,0.3,0.5,0.3
		c0.3,0,0.5-0.3,0.5-0.5l-0.5-6.5c0-0.1,0-0.1,0-0.2c-0.1-0.2-0.4-0.3-0.6-0.2c-0.2,0.1-0.4,0.3-0.5,0.5c-0.1,0.4-0.5,0.6-0.9,0.5
		c-4.5-1-10.2-0.2-10,5.7C212.5,53.1,220.2,52,223,55.8z"/>
	<path class="st1" d="M197.8,54.6c3,1.1,5,1.8,5.8,2.1c3.5,1.4,3,6-0.8,6.2c-3.3,0.2-5.3-2.1-6.6-4.8c-0.1-0.2-0.3-0.3-0.5-0.3
		c-0.3,0-0.5,0.3-0.4,0.6l1.2,6.8c0,0,0,0.1,0.1,0.1c0.1,0.1,0.3,0.2,0.4,0.1l1.2-0.9c0.1-0.1,0.3-0.1,0.5-0.1
		c3.4,0.8,6.2,0.2,8.5-1.7c2.9-2.4,2.9-6.5,0-8.9c-3.2-2.5-8.7-2-10.5-5c-0.4-0.7-0.4-1.4-0.1-2.1c1.2-2.4,4.9-2.2,6.6-0.6
		c0.8,0.8,1.5,2.1,2.1,3.2c0.1,0.1,0.2,0.2,0.4,0.2c0.3,0,0.5-0.2,0.5-0.5c0.1-1.8-0.8-4.7-1.1-6.6c0-0.1,0-0.2-0.1-0.2
		c-0.1-0.1-0.4-0.1-0.5,0l-0.9,0.9c-0.2,0.2-0.5,0.3-0.8,0.3c-3.2-0.5-6.4-0.1-8.3,2.8C192.3,49.4,194.1,53.2,197.8,54.6z"/>
	<path class="st1" d="M126.6,61.4c1.6-0.1,3.5-1.7,4.7,0.5c2.3,4.3,5.7,11.1,10,20.5c1.1,2.3-0.5,3.2-2.3,4.1c0,0,0,0-0.1,0
		c-0.1,0.1-0.2,0.3-0.1,0.5l0.2,0.3c0.1,0.2,0.3,0.2,0.5,0.1l8.9-4.4c0,0,0,0,0,0c0.2-0.1,0.3-0.3,0.2-0.5l-0.2-0.4c0,0,0,0,0,0
		c-0.1-0.2-0.4-0.2-0.6-0.1c-1,0.7-2.1,1-3.3,0.7c-0.2,0-0.3-0.1-0.4-0.2c-0.4-0.5-0.8-1.1-1.1-1.7c-3.5-7.1-6.4-13-8.6-17.6
		c-0.1-0.2-0.1-0.2,0.1-0.1l20.5,16.8c0,0,0,0,0.1,0c0.2,0.1,0.4,0,0.5-0.1c0.3-0.6,0.4-1.3,0.4-2.1c-0.3-8.3-0.5-16.6-0.7-24.8
		c0-0.2,0-0.2,0.1,0c0.3,0.4,0.4,1.1,0.6,1.4c2.8,5.6,5.5,11.3,8.2,16.9c1.2,2.5-0.6,3.3-2.4,4.3c-0.2,0.1-0.2,0.3-0.1,0.5l0.2,0.3
		c0.1,0.2,0.3,0.2,0.5,0.1l11.1-5.4c0.2-0.1,0.2-0.2,0.2-0.4l-0.2-0.4c-0.1-0.2-0.2-0.3-0.5-0.2c-2.1,1-3.5,1.5-4.8-0.9
		c-2.9-5.8-5.8-11.6-8.5-17.4c-1.3-2.8-3-5.2,0.9-6.7c0.2-0.1,0.3-0.2,0.3-0.4l0-0.5c0-0.1,0-0.1,0-0.2c-0.1-0.2-0.3-0.3-0.5-0.2
		l-7.1,3.5c-0.3,0.2-0.5,0.4-0.5,0.8l0.6,24.5c0,0.2-0.1,0.3-0.2,0.1L134.1,57c-0.2-0.1-0.4-0.2-0.6-0.1l-7.2,3.5
		c-0.2,0.1-0.3,0.3-0.3,0.5C126.1,61.2,126.3,61.4,126.6,61.4z"/>
	<path class="st1" d="M279.9,67.7c5.1,1.9,10.9-1.2,13-6.8s-0.4-11.7-5.5-13.6c-5.1-1.9-10.9,1.2-13,6.8
		C272.4,59.8,274.8,65.8,279.9,67.7z M280.5,50.6c1.7-2.7,5.4-2.9,7.3-0.5c2.7,3.4,1.3,13.7-2.8,15.8c-3.2,1.6-5.8-0.9-6.5-3.9
		C277.7,58,278.4,54.2,280.5,50.6z"/>
	<path class="st1" d="M175.8,56.5c3.5-1-1.6-5.4,3.2-6.8c3.1-0.9,4,1.7,4.7,4.1c0.1,0.4,0,0.8-0.4,1c-3.7,2.4-11.2,7.9-7,13
		c3.4,4.1,7.8,1,9.9-2.5c0-0.1,0.1-0.1,0.2-0.1c0.2-0.1,0.4,0,0.5,0.2c2.5,5.5,8-2,6.5-3.9c-0.1-0.1-0.2-0.1-0.3,0
		c-0.4,0.8-1.2,2.7-2.4,2c-0.2-0.1-0.3-0.3-0.4-0.6c-1-3.7-2.1-7.5-3.1-11.2c-2-7.1-12-4-14,1.2C172.6,54.5,173.7,57.1,175.8,56.5z
		 M184.4,56.3l1.8,6.6c0,0.1,0,0.3-0.1,0.4c-0.9,1.1-1.5,1.8-1.9,2.1c-2.1,1.8-4.7,0.6-5.3-1.9c-0.6-3.1,2.8-5.8,5.1-7.3
		C184.2,56.1,184.3,56.1,184.4,56.3z"/>
	<path class="st1" d="M292.7,69.3c-0.3,0.1-0.4,0.3-0.3,0.7c0,0.1,0.1,0.2,0.2,0.3l8.6,3.9c0,0,0,0,0,0c0.2,0.1,0.4-0.1,0.5-0.3
		l0.2-0.5c0,0,0,0,0,0c0-0.2-0.1-0.3-0.2-0.4c-1.8-0.4-2.2-1.7-1.5-3.4c1.4-3.5,3-6.9,4.6-10.3c0.1-0.1,0.2-0.3,0.3-0.3
		c2.2-1.2,6.9-1.5,7.3,1.8c0.3,2.6-3.5,9.7-4.7,12.2c-0.7,1.4-1.6,2.2-3.1,1.2c0,0-0.1-0.1-0.1-0.1c-0.6-0.1-0.9,0-1,0.4
		c-0.1,0.3,0,0.5,0.3,0.6c2.9,1.3,5.9,2.6,8.9,3.9c0.2,0.1,0.4,0,0.5-0.2c0,0,0.1-0.1,0.1-0.2c0.1-0.3,0-0.6-0.3-0.7
		c-1.8-0.6-2.3-1.9-1.5-3.7c1.5-3.3,3-6.6,4.6-9.9c1-2,9.2-2.2,7.3,3.3c-0.6,1.7-2.1,5.2-4.5,10.3c-0.7,1.5-1.7,2.1-3.2,1.2
		c0,0,0,0,0,0c-0.3-0.2-0.7-0.1-0.9,0.2c-0.2,0.4-0.1,0.7,0.5,0.9c2.8,1.2,5.5,2.4,8.2,3.7c0.2,0.1,0.4,0,0.5-0.1l0.3-0.5
		c0,0,0-0.1,0-0.1c0-0.2-0.1-0.4-0.2-0.4c-1.6-0.4-2.1-1.6-1.4-3.1c1.2-3,2.5-6,3.8-8.9c0.8-1.7,1.2-2.9,1.3-3.6
		c0.4-4.8-3.8-7.5-8-5.9c-0.9,0.3-1.7,0.6-2.6,0.9c-0.1,0.1-0.2,0-0.2-0.2c-0.2-4-2.3-6-6.2-6c-1.5,0-3,0.7-4.5,1.2
		c-0.1,0-0.1,0-0.2,0c-0.1-0.1-0.2-0.2-0.1-0.3l1.3-2.8c0-0.1,0-0.1,0.1-0.2c0-0.3-0.2-0.6-0.5-0.6l-6.8-0.4c-0.3,0-0.4,0.1-0.4,0.4
		l0.1,0.7c0,0.2,0.1,0.3,0.3,0.3c0.8-0.1,1.4,0.2,1.9,0.8c0.1,0.2,0.2,0.4,0.1,0.5c-1.3,3.6-2.8,7.1-4.4,10.6
		c-1,2.2-1.4,4.1-4.1,3.2C293,69.3,292.9,69.3,292.7,69.3z"/>
	<path class="st1" d="M325,84.3c-0.2-0.1-0.3-0.1-0.5,0l-0.3,0.3c0,0,0,0,0,0c-0.1,0.1-0.1,0.3,0.1,0.4l7.9,5.6
		c0.2,0.2,0.5,0.1,0.7,0c0.2-0.2,0.3-0.6,0.1-0.8c-0.1-0.1-0.3-0.2-0.5-0.4c-1.9-1-0.8-2.9,0-4.1c1.9-2.8,3.9-5.7,5.9-8.4
		c1.6-2.1,10-0.6,6.2,5.3c-1.6,2.5-3.3,5-5.1,7.4c-1.3,1.7-2.1,3.2-4.3,1.8c-0.4-0.3-0.8-0.3-1,0c0,0,0,0,0,0
		c-0.2,0.2-0.1,0.5,0.1,0.7l7.9,5.5c0.2,0.1,0.4,0.1,0.5-0.1l0.2-0.4c0.1-0.2,0-0.3-0.1-0.4c-1-0.5-1.5-1.4-1.5-2.5
		c0-0.1,0-0.3,0.1-0.4l6.9-9.9c0.1-0.1,0.2-0.2,0.3-0.2c3-1.1,9.1,0.4,6.5,4.7c-1.4,2.4-3.6,5.6-6.7,9.7c-0.9,1.2-1.9,1.3-3.2,0.4
		c-0.5-0.3-0.9-0.3-1.2,0.2c-0.1,0.2-0.1,0.3,0.1,0.4l7.9,5.6c0.2,0.1,0.4,0.1,0.6,0c0.2-0.2,0.2-0.5,0.1-0.7l-1.4-1.9
		c-0.1-0.1-0.1-0.3-0.1-0.5c1.2-3.2,4.6-7.2,6.6-10c4.7-6.7-1.2-12-7.9-9.5c-0.1,0-0.2,0-0.2,0c-0.2-0.1-0.2-0.2-0.2-0.4
		c0.9-2.5-0.6-5.1-2.7-6.3c-1.9-1-4.6-0.8-6.8-0.3c-0.1,0-0.1,0-0.1,0c-0.1-0.1-0.1-0.2-0.1-0.3l1.9-2.8c0,0,0.1-0.1,0.1-0.1
		c0.1-0.2-0.1-0.5-0.3-0.5l-6.8-1.7c0,0,0,0-0.1,0c-0.2,0-0.4,0.1-0.4,0.3l0,0.6c0,0.2,0.1,0.3,0.3,0.3c1.9,0.2,1.8,1.6,1,2.8
		c-2,3.1-4.3,6.4-6.9,10C327.5,85.2,326.3,85.4,325,84.3z"/>
	<path class="st1" d="M109.9,85.1c0.1,0.2,0.1,0.5-0.1,0.6l-2.6,2c-0.1,0.1-0.2,0.2,0,0.4l0.8,1c0,0,0,0,0,0c0.1,0.1,0.3,0.2,0.5,0
		l2.6-2.1c0.1-0.1,0.2-0.1,0.3,0c2.9,3.7,5.8,7.3,8.6,11.1c1.8,2.4,0.8,3-0.7,4.7c-0.2,0.2-0.2,0.5,0,0.7c0.2,0.2,0.5,0.3,0.8,0.1
		l9.1-7.2c0.2-0.1,0.2-0.3,0.1-0.5l-0.2-0.3c0,0,0,0-0.1-0.1c-0.1-0.1-0.3-0.1-0.4,0c-0.9,1-2,1.5-3.4,1.6c-0.2,0-0.3,0-0.4-0.1
		c-0.9-0.7-1.8-1.7-2.8-2.9c-2.5-3.1-5-6.3-7.4-9.5c-0.1-0.1-0.1-0.2,0-0.3l3.7-2.8c0.2-0.1,0.2-0.3,0-0.5l-0.8-0.9
		c-0.1-0.2-0.3-0.2-0.4,0l-3.6,2.8c-0.1,0.1-0.3,0.1-0.3,0c-1.3-1.5-5-5.6-4.1-7.7c1.1-2.5,3.9-1.3,5.9-1c3.1,0.5,3.1-3.7,0-4
		c-1.7-0.2-3.1,0.2-4.5,1.2C105.1,75.2,106.1,80.7,109.9,85.1C109.9,85.1,109.9,85.1,109.9,85.1z"/>
	<path class="st1" d="M365.9,96.5c-2.2,2.2-4.4,4.5-6.6,6.7c-1.5,1.6-2.5,2.8-2.8,3.6c-1.4,3.6,1.2,6.9,4.8,7.3
		c1.1,0.1,2.3,0.2,3.5,0.2c0.3,0,0.3,0.1,0.1,0.3l-2.3,2.2c-0.4,0.4-0.3,0.6,0.2,0.8l6.2,2.7c0.2,0.1,0.4,0,0.5-0.2l0.2-0.3
		c0.1-0.2,0.1-0.3-0.1-0.4l-1.5-1.3c-0.1-0.1-0.2-0.3-0.1-0.5c0.1-0.5,0.4-0.9,0.6-1.2c3.2-3.5,7-7.3,11.2-11.4
		c0.1-0.1,0.1-0.2,0-0.4l-4.6-4.6c-0.2-0.2-0.3-0.2-0.5,0l-0.4,0.3c-0.2,0.1-0.2,0.3,0,0.4c0.7,0.9,1.5,1.4,1.3,2.8
		c0,0.2-0.1,0.4-0.3,0.5l-8.4,8.5c-0.1,0.1-0.3,0.2-0.4,0.2c-4,0.6-8.9-2.1-4.8-6.4c3.2-3.3,6.4-6.6,9.7-9.8c0.1-0.1,0.1-0.2,0-0.3
		l-4.9-4.8c0,0,0,0,0,0c-0.1-0.1-0.3-0.1-0.4,0.1l-0.4,0.5c-0.1,0.1-0.1,0.3,0.1,0.4C367.3,93.7,367.4,95.1,365.9,96.5z"/>
	<path class="st1" d="M95.6,112c3.9,4.5,10.5,5.3,14.5,1.8c4.1-3.6,4.2-10.1,0.3-14.6c-3.9-4.5-10.5-5.3-14.5-1.8
		C91.8,100.9,91.7,107.5,95.6,112L95.6,112z M95.7,100c1.8-2.4,6.5-2,10.6,1.1c0,0,0,0,0,0c4.1,3,5.9,7.4,4.1,9.8
		c-1.8,2.4-6.5,2-10.6-1.1c0,0,0,0,0,0C95.7,106.9,93.9,102.5,95.7,100z"/>
	<path class="st1" d="M382.3,112.4c0.1,0.1,0.2,0.2,0.3,0.4c0.2,0.6,0.1,1.1-0.3,1.5c-2.8,2.7-6.5,5.6-11.1,8.9
		c-0.1,0.1-0.3,0.1-0.5,0.1c-0.9-0.1-1.5-0.6-1.9-1.4c0,0,0,0,0,0c-0.1-0.1-0.3-0.2-0.4-0.1l-0.5,0.3c-0.2,0.1-0.2,0.3-0.1,0.5
		c2,2.4,4,4.8,5.9,7.3c0.1,0.2,0.3,0.3,0.4,0.3c0.2,0.1,0.4,0,0.6-0.2c0.2-0.3,0.2-0.6-0.1-0.8c-1.4-1.6-0.9-2.7,0.6-4
		c2.7-2.3,5.5-4.6,8.3-6.8c0.1-0.1,0.3-0.2,0.4-0.2c2,0,5.4,1.1,5.8,3.4c0.5,2.8-8.1,8.6-10.3,10.4c-1.4,1.1-2.7-0.1-3.5-1.1
		c-0.1-0.2-0.3-0.2-0.4,0l-0.3,0.4c-0.1,0.1-0.1,0.3,0,0.4l6.1,7.4c0.2,0.2,0.4,0.3,0.7,0.1c0.2-0.1,0.3-0.5,0.2-0.7l-0.8-1.4
		c-0.1-0.1-0.1-0.3-0.1-0.5c0.3-2.1,6.7-6.5,8.5-8c7.2-5.8,3.7-10.8-4-11.8c-0.1,0-0.1,0-0.1-0.1c-0.1-0.1,0-0.2,0-0.3l2.4-1.9
		c0.1,0,0.1-0.1,0.1-0.1c0.1-0.2,0.1-0.5-0.2-0.7l-5.9-3.3c-0.2-0.1-0.5-0.1-0.7,0.1c-0.2,0.2-0.2,0.6,0.1,0.8L382.3,112.4z"/>
	<path class="st1" d="M66.7,137.4l1-0.8c0.1-0.1,0.3-0.2,0.5-0.2c1.5-0.1,2.8-0.1,3.8,0c5.1,0.7,10.2,1.4,15.4,2
		c0.4,0.1,0.7,0.3,1,0.6c0.8,1.2,1.7,2.4,2.5,3.8c2.4,4-3.6,4.1-2.3,7.2c1,2.5,4.4,1.2,5.1-0.7c1-2.6,0.6-5.1-1.1-7.7
		c-4.4-6.5-8.9-12.9-13.4-19.4c-1-1.5-0.2-2.4-0.6-3.7c0-0.1-0.1-0.2-0.2-0.2c-0.2-0.1-0.5-0.1-0.6,0.1l-3.4,5.3
		c-0.1,0.2-0.1,0.4,0,0.6c0.2,0.2,0.5,0.2,0.7,0.1l1.3-1.1c0.1-0.1,0.3-0.1,0.4-0.1c0.5,0.2,0.9,0.5,1.2,0.9
		c2.2,3.2,4.5,6.4,6.7,9.6c0.2,0.3,0.1,0.4-0.2,0.3c-3.7-0.4-7.4-0.8-11.2-1.4c-0.7-0.1-1.3-0.4-1.7-0.7c-0.1-0.1-0.2-0.2-0.2-0.4
		c-0.1-0.6,0.1-1.2,0.5-1.7c0,0,0,0,0,0c0.1-0.2,0.1-0.4-0.1-0.5l-0.3-0.3c-0.2-0.2-0.4-0.1-0.5,0.1l-4.9,7.5
		c-0.1,0.2-0.1,0.5,0,0.7C66.1,137.5,66.5,137.6,66.7,137.4z"/>
	<circle class="st1" cx="408.8" cy="129.7" r="2.4"/>
	<path class="st1" d="M394.4,136.6c-3.3,2.2-6.1,3.9-8.3,5.3c-1.4,0.8-2.8,0.7-3.5-0.8c0-0.1-0.1-0.1-0.1-0.2
		c-0.2-0.2-0.5-0.1-0.7,0.1c-0.2,0.3-0.2,0.6,0,0.9c1.7,2.5,3.3,5.1,5,7.6c0.3,0.4,0.6,0.4,0.9-0.2c0.1-0.1,0.1-0.3,0-0.4
		c-1-1.5-0.6-2.8,1-3.9c4.7-3.1,9.4-6.1,14-9.2c0,0,0.1,0,0.1-0.1c0.1-0.2,0.1-0.4-0.1-0.5c-1.7-1.4-3.6-2.7-5.5-4
		c-0.2-0.1-0.4-0.2-0.5-0.2c-0.2,0-0.3,0.2-0.4,0.4c-0.1,0.2,0,0.4,0.1,0.5C399,134.2,396.1,135.5,394.4,136.6z"/>
	<path class="st1" d="M56.2,141.8c2.3,2.4,3.4,5.2,3.5,8.3c0,0.2,0.1,0.4,0.3,0.5c0.3,0.1,0.6,0,0.8-0.3l1-2c0,0,0,0,0,0
		c0.1-0.2,0.4-0.3,0.6-0.2c4,2.1,8,4.1,12.1,6.2c5.8,2.9,8.7-3.6,4.9-7.6c-0.1-0.1-0.2-0.2-0.4-0.2h-0.4c-0.1,0-0.1,0-0.2,0
		c-0.1,0.1-0.1,0.3-0.1,0.4c0.8,1.2,0.9,2.4,0.1,3.7c-0.1,0.2-0.3,0.3-0.5,0.3c-1,0-2.1-0.3-3.3-0.9c-3.6-1.9-7.2-3.7-10.9-5.6
		c-0.2-0.1-0.2-0.2-0.1-0.4l1.9-3.6c0.1-0.2,0.1-0.3-0.1-0.4l-1.1-0.7c-0.2-0.1-0.3-0.1-0.4,0.1l-1.9,3.8c-0.1,0.2-0.2,0.2-0.4,0.1
		l-5.3-2.8c-0.1,0-0.2-0.1-0.2,0c-0.2,0-0.4,0.3-0.4,0.5c0,0.1,0,0.2,0.1,0.3C56,141.6,56.1,141.7,56.2,141.8z"/>
	<path class="st1" d="M393.6,149.6c-7.5,7.2-0.1,16.7,9.1,13.9c0.4-0.1,0.5-0.4,0.3-0.7c-0.1-0.2-0.3-0.2-0.4-0.2
		c-6.6,0.6-10.2-5.4-5.3-10.4c2.3-2.3,4.9-3.6,8.1-3.7c2.8-0.1,5.1,2.6,4.1,5.3c-0.1,0.2-0.2,0.3-0.3,0.4c-0.9,0.6-2.1,1.4-2.2,2.6
		c-0.2,2,2.1,3.9,3.8,2c4-4.5-0.2-11.1-5.1-12.6C401.3,144.8,396.8,146.5,393.6,149.6z"/>
	<path class="st1" d="M46.3,157.6c0.3,0.1,0.6-0.1,0.7-0.4l0.5-1.7c0-0.1,0.2-0.2,0.3-0.3c0.6-0.2,1.3-0.1,2,0.2
		c6.9,3.1,13.7,6.3,20.5,9.6c1.5,0.7,2.3,1.9,1.3,3.4c-0.1,0.1-0.1,0.3,0.1,0.4l0.4,0.3c0,0,0,0,0.1,0c0.2,0.1,0.4,0,0.5-0.2
		l4.1-8.7c0.1-0.2,0-0.5-0.2-0.7c-0.2-0.2-0.6-0.1-0.7,0.1c-1.7,2.4-2.3,2.2-5,1c-7.8-3.6-15.6-7.2-23.3-10.8
		c-0.1,0-0.2-0.1-0.3-0.1c-0.5,0-0.9,0.3-0.9,0.8l-0.3,6.3C45.9,157.3,46,157.5,46.3,157.6z"/>
	<path class="st1" d="M407,186.2c0.1-0.2,0.1-0.6-0.2-0.7l-1.5-1c-0.2-0.1-0.3-0.3-0.4-0.5c-0.2-0.5,0.1-1,0.5-1.1
		c3.9-1.4,7.8-2.8,11.8-4.2c5.7-2,2.3-10.1-1-12.6c-2.2-1.7-7.5-0.8-5,2.5c1.6,2.1,4.3-1.7,6.1,1.1c2.1,3.4-0.7,5-3.4,6
		c-0.3,0.1-0.6,0-0.7-0.2c-2.1-2.7-5.6-6.9-8.8-7.6c-2.9-0.6-5.8,1.4-6.4,4.2c-0.6,3.1,2.7,5.7,5,7c0,0,0.1,0.1,0.1,0.1
		c0,0.1,0,0.3-0.1,0.3c-2,0.6-2.7,2.5-1.2,4.1c1.1,1.3,2.7,2.1,4.6,2.6C406.6,186.5,406.9,186.4,407,186.2z M403.9,171.7
		c3.1-1.1,6,2.2,7.8,4.4c0,0,0,0.1,0,0.1c0.1,0.2,0,0.3-0.2,0.4l-6.3,2.2c-0.1,0-0.3,0-0.4,0C402.1,177.2,399.5,173.2,403.9,171.7z"
		/>
	<path class="st1" d="M66.5,176.6c0.1-0.2,0.2-0.2,0.4-0.2l2.9,1.1c0.5,0.2,0.7,0,0.7-0.5l-0.3-6.9c0-0.3-0.2-0.4-0.4-0.4l-0.6,0.1
		c-0.3,0-0.4,0.2-0.3,0.4c0.1,0.5,0,1.1-0.2,1.5c-0.1,0.2-0.2,0.3-0.4,0.3c-0.8,0.1-1.5,0.1-2.2-0.1c-4.8-1.6-9.5-3.2-14.3-4.9
		c0,0,0,0,0,0c-0.1,0-0.3,0-0.3,0.2c-0.7,1.9-1.4,3.8-2,5.8c-0.1,0.3-0.1,0.5,0,0.6c0.1,0.2,0.3,0.4,0.6,0.4c0.2,0,0.3-0.1,0.4-0.2
		c0.3-0.9,0.9-1.7,1.8-2.2c0.2-0.1,0.3-0.1,0.5-0.1l11.7,4c0.2,0.1,0.3,0.2,0.4,0.3c2.2,3.7,1.7,8.7-4,6.9
		c-4.3-1.4-8.5-2.9-12.7-4.4c-0.2-0.1-0.3,0-0.4,0.2l-2.2,6.5c0,0.1,0,0.2,0,0.3c0.1,0.2,0.4,0.3,0.6,0.2c1.5-0.7,0.8-3.4,3.6-2.4
		c3.5,1.2,7.1,2.4,10.6,3.6c7.4,2.5,10.1-4.5,6.5-9.9C66.5,176.8,66.5,176.7,66.5,176.6z"/>
	<path class="st1" d="M430.5,187.5c-3.3-0.4-6.1-1.8-8.4-4.3c-0.1-0.1-0.3-0.2-0.5-0.1c-0.3,0.1-0.4,0.3-0.3,0.6l0.5,2.3
		c0,0,0,0,0,0c0.1,0.3-0.1,0.6-0.4,0.7c-4.5,1-9.1,2.1-13.7,3.2c-1.3,0.3-2.2,1-2.9,2.2c-2,3.5,2,6.4,5,6.8c0.1,0,0.2,0,0.3-0.1
		c0.1-0.1,0.1-0.4,0-0.5c-0.7-0.6-2-1.2-2.3-2c-0.5-1.3,0.5-2.4,1.8-2.7c4.3-1,8.7-2,13-3c0.2,0,0.3,0,0.3,0.2l0.9,4.1c0,0,0,0,0,0
		c0,0.1,0.1,0.2,0.3,0.1l1.4-0.4c0.1,0,0.2-0.2,0.2-0.3l-0.9-3.7c0,0,0,0,0,0c-0.1-0.3,0.1-0.6,0.4-0.6l5.6-1.3
		c0.2,0,0.3-0.2,0.3-0.4C431.2,187.8,431,187.6,430.5,187.5z"/>
	<path class="st1" d="M57,192.1c-0.4-0.2-0.7-0.1-0.8,0.2c-0.1,0.2,0,0.4,0.1,0.6c1.2,0.8,2.4,1.9,3,3.2c3.9,9.5-12.2,10.7-15.2,4.4
		c-0.7-1.4-0.5-4.1,1.1-4.9c1.7-0.8,3.1,0.8,4.5-1.6c1.2-2-1-3.9-2.9-3c-5,2.1-6.1,8.2-3.4,12.3c2.6,4,7,5.7,11.7,5.2
		C65.3,207.5,66.1,195.9,57,192.1z"/>
	<path class="st1" d="M408.9,210c-0.3-1.5,0.2-2.5,1.7-2.8c5.6-1.1,11.3-2.3,17.2-3.4c0,0,0.1,0,0.1,0c0.1-0.1,0.2-0.3,0.1-0.4
		l-3.7-5.8c-0.1-0.2-0.2-0.2-0.4-0.3c-0.4,0-0.6,0.2-0.7,0.5c0,0.1,0,0.2,0,0.2c0.3,0.6,0.4,1.2,0.4,1.8c0,0.2-0.1,0.4-0.3,0.5
		c-3.4,1.5-8.1,2-13,2.8c-2,0.4-3.1-0.3-3.3-2.1c0-0.2-0.1-0.3-0.3-0.3l-0.3,0c-0.1,0-0.1,0-0.2,0c-0.2,0.1-0.4,0.3-0.3,0.5
		c0.6,3,1.2,6.1,1.8,9.1c0,0.2,0.1,0.3,0.2,0.4c0.1,0.1,0.3,0.1,0.5,0.1C408.8,210.7,409,210.4,408.9,210z"/>
	<circle class="st1" cx="435.6" cy="200.3" r="2.3"/>
	<path class="st1" d="M346.4,266.1l-3.1-13.3l-3.3-10.8l-3.1-8.6c-3.9-9.7-8.5-19.2-13.9-28.3c-1.6-2.7-3.1-5.2-4.6-7.6
		c-0.7-1-0.8-1-0.4,0.2l1.3,3.5l9,26c1.5,4,2.6,8.1,3.3,12.2l2.5,10.8c0.6,2.5,1.2,6.4,1.7,11.5c1,9.4,0.9,18.2-0.3,26.2
		c-1.4,9-4.5,17.3-9.3,24.8c-0.1,0-0.1,0-0.2,0c-0.1,0-0.2-0.1-0.2-0.2l0.1-54.7l0-2.8l0-3.2c0-0.3-0.3-0.6-0.6-0.6l-3.7-0.1
		l-29.2,0.2c-0.2,0-0.3,0.1-0.3,0.3l0,5.5l0,25.1c0,0.3,0.2,0.5,0.5,0.5l2.3,0.1l5.3,0l13.5-0.1c0.2,0,0.3,0.1,0.3,0.3l0.2,4.2
		l-0.1,11.8v14.9c0,0.2-0.1,0.3-0.3,0.3l-1.6,0l-7.3,0c-0.1,0-0.3-0.1-0.3-0.3v-14.7l0-2.4l-0.2-4.3c0-0.3-0.2-0.4-0.5-0.4h-9.6
		l-2.1,0.1c-0.3,0-0.5,0.2-0.5,0.5l0,33.2c0,0.5,0.2,0.7,0.7,0.7l9,0c2.8,0,9.4,0.6,11.8-0.5c-0.5-0.5-1.3-0.1-1.8-0.1
		c-6.3-0.2-12.5-0.1-18.7,0.1c0,0,0,0,0,0c-0.2,0-0.3-0.1-0.3-0.3l0-32.8c0-0.2,0.1-0.4,0.4-0.4l10.9,0.1c0.1,0,0.2,0.1,0.2,0.2
		l-0.1,21.4c0,0.4,0.2,0.7,0.7,0.7l9.7-0.2c0.2,0,0.4-0.1,0.4-0.4l0-32.1c0,0,0,0,0,0c0-0.2-0.2-0.4-0.4-0.4l-21.3,0.1
		c-0.2,0-0.3-0.1-0.3-0.3l0.1-29.4c0-0.3,0.2-0.5,0.5-0.5l31.6,0c0,0,0,0,0,0c0.3,0,0.5,0.2,0.5,0.6c-0.1,19.2-0.1,38.2,0,57
		c0,1.4-0.2,2.7,0.3,4.2c-3.3,4.7-7.2,8.9-11.8,12.6c-3,2.5-6.3,4.6-9.9,6.5c-16.1,7.9-35,6.9-51.7,1.4l-1.9-0.5l-11-4.1l-8.4-4
		l30.1-0.1c0.4,0,0.6-0.2,0.6-0.6l0.2-61.2c0-0.2,0.2-0.4,0.4-0.4h10c0.3,0,0.5,0.2,0.5,0.5l0,4.5l0,58.1c0,0.2,0.1,0.3,0.3,0.3
		l11.4-0.3l0-68.2l0-4.3l0-3.4c0-0.3-0.3-0.6-0.6-0.6h-33c-0.3,0-0.6,0.3-0.6,0.6l0,3c-0.2,15.2-0.2,25.7-0.2,31.5
		c0.1,8.9,0,18-0.4,27.2c0,0.2-0.1,0.4-0.4,0.4l-3.4,0l-4.6,0c-0.2,0-0.3-0.1-0.3-0.3l-0.1-31.7l0-9.3c0,0,0,0,0,0
		c0-0.3-0.3-0.6-0.6-0.6c-10.8,0.1-21.8,0.1-32.8,0c-1,0-1.4,0.4-1.5,1.1l0.1,32c0,0.7,0.3,1,1,1l20.5-0.2c0.4,0,0.5,0.2,0.5,0.5
		l-0.4,6.5c0,0.2-0.2,0.4-0.4,0.4c-6.4,0-12.9,0-19.4,0c-0.6,0-1.1-0.2-1.6-0.6l-0.8-0.5l-7.3-5c-0.1-0.1-0.3-0.1-0.4-0.1
		c-0.1,0-0.2,0-0.2,0l0-47.8l0-2.8l0-3.4c0.3-1.3,0.5-2.2-1.2-2.2c-4.4,0-8.9,0-13.5-0.1c-0.7,0-1.1,0.3-1.1,1.1l0,3.8l0,38.2
		c0,0.2-0.1,0.2-0.2,0.1l-0.8-0.6l-5.6-4.8l1-0.2c0.2,0,0.3-0.2,0.3-0.4l0.1-33l0-3.4c0,0,0,0,0,0c0-0.3-0.2-0.5-0.5-0.5l-16,0
		l-15.4,0.1c-0.6,0.1-1.1-0.1-1.5-0.6c-11.7-17.1-21.7-34.7-30.1-52.9c-4.1-8.8-8.2-18.7-12.3-29.6l-4.2-12c0-0.1-0.1-0.1-0.1,0
		c0,0-0.1,0.1-0.1,0.1c-0.1,0.1-0.1,0.2-0.1,0.3l2.5,10.8c7.6,35.7,20.7,68.9,41,99.3c0.3,0.4,0.4,1,0.4,1.6c0,5.3,0,10.6,0,15.8
		l0,42.8l4.5,0.2l2.8,0.1l46,0l5.6,4.6l5.6,4.3c27.8,21,65.6,37.5,101.2,30.4c17.5-3.5,31.9-13.8,37.7-31.3
		c7-21.3,7.6-43.1,3.7-65.1L346.4,266.1z M197.5,311.8C197.5,311.8,197.5,311.8,197.5,311.8C197.5,311.8,197.5,311.8,197.5,311.8z
		 M197.6,311.9C197.6,311.9,197.6,311.9,197.6,311.9C197.6,311.9,197.6,311.9,197.6,311.9C197.6,311.9,197.6,311.9,197.6,311.9z
		 M197.4,311.8C197.4,311.8,197.4,311.7,197.4,311.8C197.4,311.7,197.4,311.8,197.4,311.8z M197.4,311.7
		C197.4,311.7,197.4,311.6,197.4,311.7C197.4,311.6,197.4,311.7,197.4,311.7z M176.9,311.3c-0.4,0.1-0.7,0-0.8-0.2
		c-0.1-0.1-0.2-0.4-0.2-0.7c0-0.3,0.1-0.7,0.1-1C176.8,310,177.1,310.6,176.9,311.3z M162.9,311.1
		C162.9,311.1,162.9,311.1,162.9,311.1c0,0.2-0.2,0.4-0.4,0.4h-5.6c-0.4,0-0.6-0.2-0.6-0.6v-23l6.5,7.5L162.9,311.1z M140.8,324.7
		c-0.1,0-0.2-0.1-0.2-0.2l-0.1-1.4l-0.1-72.7c0-0.2,0.1-0.3,0.3-0.3l4,0.1l30.4,0c0.3,0,0.5,0.2,0.5,0.5l0,34.7
		c0,0.6-0.3,0.9-0.9,0.9l-18.1,0c-0.6,0-0.8,0.3-0.8,0.9l0,24.6c0,0,0,0,0,0c0,0.3,0.2,0.5,0.5,0.5l7.2-0.1c0.2,0,0.3-0.1,0.3-0.3
		l-0.1-17.7c0-0.2,0.1-0.3,0.3-0.3l11.1,0.1c0.2,0,0.3,0.1,0.3,0.3l0,17.2c0,0,0,0,0,0c0,0.3,0.2,0.5,0.5,0.5l6.2-0.3
		c0.1,0,0.2-0.1,0.2-0.2l0.2-60.8c0-0.2,0.1-0.3,0.3-0.3h13.6c0.1,0,0.2,0.1,0.2,0.2v61.5c0,0.3,0.2,0.5,0.5,0.5l30.3,0.1
		c0.4,0,0.7-0.2,0.7-0.7l0.4-7.4c0,0,0,0,0,0c0-0.3-0.2-0.5-0.5-0.5l-20.4,0c-0.6,0-0.8-0.3-0.8-0.8v-31.3c0-0.3,0.1-0.4,0.4-0.4
		l32.4,0c0.3,0,0.5,0.2,0.5,0.5l-0.1,40.5c0,0,0,0,0,0c0,0.3,0.3,0.6,0.6,0.6h9c0.5,0,0.7-0.2,0.7-0.7l0.6-61.6
		c0-0.3,0.2-0.5,0.5-0.5h32.1c0.1,0,0.3,0.1,0.3,0.3v74.4c0,0.4-0.3,0.7-0.7,0.8l-9.3,0.3c0,0,0,0,0,0c-0.2,0-0.4-0.2-0.4-0.4
		c0-16.4-0.1-33,0.1-49.5c0.1-4.3-0.2-8.6,0.1-12.9c0,0,0,0,0,0c0-0.3-0.3-0.6-0.6-0.6h-11.2c-0.4,0-0.7,0.3-0.7,0.7l0.2,60.6
		c0,0.7-0.3,1-1,1L140.8,324.7z"/>
	<path class="st1" d="M56.9,211.1c-0.1,0-0.1,0-0.2,0.1c-0.1,0.1-0.1,0.2,0,0.3c0.7,0.7,1.2,1.5,1.3,2.5c0,0.1-0.1,0.3-0.2,0.3
		c-0.6,0.2-1.3,0.2-1.9,0.2c-3-0.3-6-0.5-9-0.8c-2.1-0.2-3.5-0.1-4.3,0.2c-3.2,1.2-3.9,5.8-3.5,8.7c0.3,2.1,2.5,5.6,5,5.3
		c2.7-0.3,2.4-4,0-4c-2.3,0-3.4-1.1-3.4-3.2c0-3.1,3.4-3.3,5.7-3c0.3,0,0.4,0.2,0.5,0.4c0.9,3.3,2.2,8.5,5.1,10.6
		c4.1,3,9.4-0.8,8.1-5.7c-0.2-0.7-0.9-2-2.2-4c0,0,0-0.1,0-0.1c0-0.1,0.1-0.2,0.2-0.2C63.7,218.9,59.7,210.9,56.9,211.1z
		 M54.8,225.4c-1.7,0.3-3.1-0.4-4.2-2c-0.4-0.6-0.7-1.1-0.9-1.8l-1.2-3.4c-0.1-0.2,0-0.3,0.2-0.3l6.7,0.6c0.2,0,0.3,0.1,0.4,0.3
		C57.5,221,58.8,224.6,54.8,225.4z"/>
	<path class="st1" d="M419.3,212.1C419.3,212.1,419.3,212.1,419.3,212.1c-6,0.1-10.8,4.5-10.8,9.9c0,5.4,5,9.8,11,9.7
		c6-0.1,10.8-4.5,10.8-9.9C430.3,216.4,425.3,212,419.3,212.1z M425.5,225.3c-3.1,1.8-8.7,3.2-12.3,1.5c-2.2-1-3.3-3.4-2.2-5.7
		c2.1-4.4,13.9-7.1,16.7-2.6C429.4,221.1,427.9,223.9,425.5,225.3z"/>
	<path class="st1" d="M59.4,243c-0.1-0.1-0.4-0.1-0.6,0c-0.2,0.1-0.4,0.2-0.4,0.5c0,1.7-0.1,3.8-2.5,3.9c-3.5,0.1-7.1,0.2-10.7,0.1
		c-0.2,0-0.3-0.1-0.3-0.3c-0.1-2.8-1.3-8.9,3.4-8.6c0.2,0,0.3,0,0.4-0.1l0.3-0.3c0.1-0.1,0.1-0.2,0.1-0.3c0-0.3-0.2-0.5-0.5-0.5
		l-9.8,0.2c-0.2,0-0.4,0.2-0.5,0.4c-0.1,0.3,0.1,0.6,0.4,0.6c1.6,0.4,3.5,0.5,3.8,2.8c0.3,1.9,0.4,3.9,0.2,5.9
		c0,0.2-0.1,0.3-0.3,0.3l-10.6,0.3c-0.3,0-0.4-0.1-0.4-0.4c-0.1-2.7-0.1-5.4-0.1-8.1c0.1-3.4,2.5-3.2,4.7-4.8
		c0.1-0.1,0.2-0.2,0.2-0.4c0-0.2-0.2-0.4-0.4-0.4l-6.3,0.3c-0.2,0-0.3,0.1-0.3,0.3l0.4,22.1c0,0.2,0.2,0.4,0.4,0.5
		c0.3,0.1,0.5-0.1,0.6-0.4c0.6-2.4-0.1-4.1,3.3-4.2c7.3-0.2,14.7-0.3,22-0.5c2.2,0,2.9,2,2.8,3.7c0,0.2,0,0.3,0.1,0.4
		c0.1,0.1,0.3,0.2,0.5,0.2c0.3,0,0.5-0.3,0.5-0.6c-0.1-4-0.2-8.1-0.3-12.1C59.6,243.2,59.6,243.1,59.4,243z"/>
	<path class="st1" d="M428.6,235.7c-0.1-0.3-0.3-0.3-0.5-0.2l-0.5,0.3c-0.2,0.1-0.2,0.2-0.2,0.4c0.2,0.6,0.2,1.2,0,1.8
		c-0.1,0.1-0.2,0.2-0.3,0.3c-0.4,0.2-0.9,0.3-1.5,0.3c-4.8-0.2-8.8-0.5-12.1-0.8c-1.9-0.2-2.7-1.1-2.4-2.8c0-0.2-0.1-0.3-0.3-0.4
		l-0.5-0.1c-0.2,0-0.3,0.1-0.4,0.3l-0.7,9.6c0,0.2,0,0.3,0.2,0.4c0.3,0.3,0.6,0.2,0.9-0.1c0.1-0.1,0.1-0.2,0.1-0.3
		c0-0.8,0.2-1.5,0.6-2.1c0.1-0.1,0.2-0.2,0.4-0.3c0.5-0.2,1.1-0.2,1.6-0.2c3.8,0.2,7.6,0.5,11.5,0.8c0.2,0,0.3,0.1,0.4,0.2
		c1.4,1.4,2.9,4.4,1.8,6.4c-1.2,2.2-10.4,1-13.8,0.6c-1.9-0.2-3.1-0.8-2.6-3c0-0.2-0.1-0.3-0.2-0.4l-0.6-0.2c0,0,0,0-0.1,0
		c-0.2,0-0.3,0.1-0.3,0.3l-0.7,9.8c0,0.1,0,0.2,0.1,0.3c0.1,0.2,0.4,0.2,0.6,0.1l0.3-0.2c0.1-0.1,0.2-0.2,0.2-0.4
		c0-1.7,1-2.5,2.8-2.4c3.5,0.3,7,0.5,10.5,0.7c8,0.6,9-6.6,4-11.2c-0.1-0.1-0.1-0.1-0.1-0.2c0-0.2,0.1-0.3,0.3-0.3l3.1,0.2
		c0.1,0,0.1,0,0.2,0c0.2-0.1,0.4-0.3,0.3-0.6L428.6,235.7z"/>
	<path class="st1" d="M206.6,261.6c0,0.6,0.3,0.9,0.9,0.9l10.7-0.2c0.3,0,0.5-0.2,0.5-0.5l0-8.1l0.1-2.7c0,0,0,0,0,0
		c0-0.3-0.2-0.5-0.5-0.5l-11,0c-0.5,0-0.7,0.2-0.7,0.7l0.1,6.8L206.6,261.6z M207.2,251.4c0-0.2,0.2-0.4,0.4-0.4h10.2
		c0.2,0,0.3,0.2,0.4,0.3c0.1,3.1,0.1,6.2,0,9.3c0,0.1,0,0.3,0.1,0.4c0.1,0.1,0.1,0.2,0,0.3c-0.1,0.3-0.3,0.5-0.6,0.5h-9.9
		c-0.3,0-0.5-0.2-0.5-0.5L207.2,251.4z"/>
	<path class="st1" d="M227.9,262.4l11.2,0.2c0,0,0,0,0,0c0.2,0,0.4-0.2,0.4-0.4l0-10.8c0-0.3,0-0.5-0.1-0.6
		c-0.1-0.1-0.3-0.2-0.5-0.2c-3.7-0.1-7.3,0-11.1,0c-0.2,0-0.3,0.1-0.3,0.3l0.1,4.6l-0.1,6.6C227.6,262.3,227.7,262.4,227.9,262.4z
		 M228.5,251.1l10.2,0c0.2,0,0.3,0.2,0.4,0.3l0,10c0,0.2-0.2,0.3-0.3,0.4l-10.2,0c-0.2,0-0.3-0.2-0.4-0.3l0-10
		C228.1,251.2,228.3,251.1,228.5,251.1z"/>
	<path class="st1" d="M164.4,272.9l0-11.3c0-0.2-0.1-0.3-0.3-0.3l-11.2,0c-0.2,0-0.3,0.1-0.3,0.3l0,11.3c0,0,0,0,0,0
		c0,0.2,0.1,0.3,0.3,0.3l11.2,0C164.3,273.2,164.4,273,164.4,272.9z M163.9,272.1c0,0.2-0.1,0.4-0.3,0.4c-1,0.3-1.9,0.2-2.6,0
		l-7.8-9.3c-0.1-0.3-0.1-0.6,0-1.1c0-0.2,0.1-0.3,0.3-0.3l10-0.1c0,0,0,0,0,0c0.3,0,0.5,0.2,0.5,0.5L163.9,272.1z"/>
</g>
<g id="EDUCATION">
</g>
<g id="POLITICAL">
</g>
<g id="LETTRES">
</g>
<g id="BUSINESS">
</g>
</svg>
