<?xml version="1.0" encoding="utf-8"?>
<!-- Generator: Adobe Illustrator 27.9.0, SVG Export Plug-In . SVG Version: 6.00 Build 0)  -->
<svg version="1.1" xmlns="http://www.w3.org/2000/svg" xmlns:xlink="http://www.w3.org/1999/xlink" x="0px" y="0px"
	 viewBox="0 0 469 469" style="enable-background:new 0 0 469 469;" xml:space="preserve">
<style type="text/css">
	.st0{fill:#009872;}
	.st1{fill:#F9F9C3;}
	.st2{fill:#246665;}
	.st3{fill:#C99030;}
	.st4{fill:#C19338;}
	.st5{fill:#79003B;}
	.st6{fill:#DB214C;}
	.st7{fill:#FF6766;}
	.st8{fill:#5C7E7F;}
	.st9{fill:#495678;}
	.st10{fill:#0E5D99;}
	.st11{fill:#FFFFFF;}
	.st12{fill:#137CCF;}
	.st13{fill:#B8683D;}
	.st14{fill:#007CC4;}
</style>
<g id="UNDER">
</g>
<g id="MAIN">
</g>
<g id="SCIENCES">
</g>
<g id="HEALTH_00000128469052700009300670000012666611077201334713_">
</g>
<g id="COMMUNICATION">
</g>
<g id="EDUCATION">
	<path class="st8" d="M449.8,234.5c0,118.9-96.4,215.3-215.3,215.3l0,0c-118.9,0-215.3-96.4-215.3-215.3l0,0
		c0-118.9,96.4-215.3,215.3-215.3l0,0C353.4,19.2,449.8,115.6,449.8,234.5L449.8,234.5z"/>
	<g>
		<path class="st1" d="M126.1,373.1c-3.1,3.9-6.2,7.8-9.2,11.7c-3.3,4.3-9.5,8.2-13.8,2.3c-3.7-5.1,5.9-8.3,3.5-0.1
			c-0.2,0.5,0.1,1.1,0.7,1.2c0,0,0.1,0,0.1,0c1.1,0.2,2.6-1.7,3.2-2.5c4.5-5.6,8.9-11.4,13.2-17.1c0.1-0.2,0.2-0.3,0.1-0.5
			c-0.2-1.3-0.8-2.3-2-3c-0.2-0.1-0.2-0.3-0.2-0.5c0-0.3,0.2-0.5,0.5-0.5c0.1,0,0.3,0.1,0.4,0.2c3.2,2.4,6.3,4.9,9.5,7.4
			c0.1,0.1,0.2,0.2,0.1,0.4c-0.1,0.4-0.3,0.5-0.7,0.5c-0.1,0-0.2-0.1-0.3-0.2C129.3,370.4,127.6,371.2,126.1,373.1z"/>
		<path class="st1" d="M357.4,385.7c-1-3.9-2.2-7.7-3.5-11.5c-0.3-0.9-1-1.5-1.9-0.7c-0.3,0.2-0.4,0.4-0.5,0.4
			c-0.3,0.1-0.6,0-0.7-0.4c-0.1-0.2,0-0.4,0.1-0.6l4.8-3.9c0.1-0.1,0.3-0.1,0.4,0l0.4,0.4c0.2,0.2,0.2,0.4,0,0.5
			c-0.7,0.6-1,1.3-0.8,1.9c3,10.1,5.1,17.3,6.5,21.6c1.2,3.7,1.4,8.7-2.7,10.5c-1.8,0.8-4-1.4-2.9-3.2c0.7-1,2.4-1.6,3.6-2.2
			c0.1-0.1,0.3-0.2,0.3-0.4c0.7-1.9-0.5-5.2-1.2-7.1c-0.1-0.2-0.2-0.3-0.3-0.3c-4.7-2.3-9.4-4.5-14.2-6.8c-1.1-0.5-2.1-0.8-3.3-1.1
			c-0.2,0-0.3,0-0.5,0.1l-3.8,2.5c-0.1,0.1-0.2,0.2-0.1,0.4c2.4,3.6,4.7,7.2,7.1,10.8c1.7,2.6,4.3,1.3,4.1-1.4
			c0-0.3,0.2-0.5,0.4-0.5c0.2,0,0.4,0.1,0.5,0.4c1.3,4.5-3.9,9.8-7.3,5c-1.4-1.9-4.1-6-8-12.2c-0.1-0.2-0.2-0.2-0.4-0.1l-2.1,1.4
			c-0.3,0.2-0.6,0.1-0.8-0.2c-0.1-0.2-0.1-0.4,0-0.6c0.9-1.6,1.4-3.3,1.5-5.2c0.1-1.3-0.4-2.7-0.4-4.1c0-0.3,0.2-0.5,0.5-0.5
			c0.2,0,0.4,0.1,0.4,0.2l3.2,5c0.1,0.1,0.2,0.2,0.4,0.1c3.5-2.1,6.7-4.5,9.7-7.2c0.2-0.2,0.5-0.2,0.7,0c0,0,0,0,0,0.1l0.2,0.3
			c0.1,0.2,0.1,0.3-0.1,0.4c-0.6,0.4-0.9,1-1,1.6c0,0.2,0,0.3,0.1,0.5c1.4,1.8,8.4,4.6,11.5,6C357.4,385.9,357.5,385.9,357.4,385.7z
			"/>
		<circle class="st1" cx="136.4" cy="375.9" r="2.3"/>
		<circle class="st1" cx="320.9" cy="383.4" r="2.3"/>
		<path class="st1" d="M122.5,399.3c0.3,0.8,0.8,1.4,1.5,1.8c0.2,0.1,0.2,0.3,0,0.4l-0.4,0.4c-0.1,0.1-0.3,0.1-0.4,0l-7.6-5.5
			c-0.2-0.1-0.2-0.3-0.1-0.4l0.3-0.4c0.1-0.1,0.3-0.2,0.4-0.1c0,0,0,0,0,0c1.3,1.2,2.5,1,3.6-0.5c0.8-1.1,7.7-9.4,7.5-11.5
			c0-0.2-0.1-0.3-0.3-0.4l-1.4-0.7c-0.3-0.1-0.4-0.5-0.3-0.8c0.1-0.2,0.4-0.4,0.6-0.3l6,1.5c0.9,0.2,1.1,0.7,0.5,1.4
			c-3,4-6,8.3-9.2,12.7c-0.4,0.6-0.8,1.2-1,1.8C122.4,399,122.4,399.1,122.5,399.3z"/>
		<path class="st1" d="M139.8,391.8c1.9-0.6,3.3-0.9,4.2-0.8c4.8,0.4,6.8,4.7,4.4,8.8c-3.3,5.5-5.3,8.9-6.1,10.4
			c-0.7,1.3,1.1,2.2,1.6,3.1c0.1,0.2,0.1,0.5-0.2,0.6c-0.1,0.1-0.3,0.1-0.5,0l-8.1-4.9c-0.1-0.1-0.2-0.2-0.2-0.4
			c0-0.4,0.2-0.6,0.4-0.6c0.1,0,0.3,0,0.5,0.2c1.4,0.9,2.6,0.6,3.5-1c1.7-2.6,3.3-5.3,4.9-8c3-5.2-1.3-7.3-5.6-5.7
			c-0.2,0.1-0.3,0.2-0.4,0.3c-3.1,4.9-5.1,8.2-5.9,9.9c-0.8,1.5-0.3,2.6,1.3,3.1c0.2,0.1,0.3,0.3,0.2,0.4c0,0,0,0,0,0.1l-0.2,0.4
			c-0.1,0.2-0.3,0.3-0.5,0.1l-8-4.8c-0.2-0.1-0.2-0.3-0.1-0.5c0,0,0,0,0-0.1l0.3-0.4c0.1-0.1,0.3-0.2,0.4,0c1.2,1,2.3,0.9,3.1-0.3
			c1.2-1.7,3.2-5,5.9-9.8c0.6-1,0.9-1.8,1.1-2.6c0-0.2,0-0.4-0.2-0.5l-1.7-0.8c-0.1-0.1-0.2-0.2-0.2-0.3l0-0.5
			c0-0.2,0.2-0.4,0.4-0.3l6.6,1.1c0.3,0.1,0.5,0.3,0.4,0.6c0,0.1,0,0.1-0.1,0.2l-1.6,2.8c0,0.1,0,0.2,0.1,0.2
			C139.7,391.8,139.7,391.8,139.8,391.8z"/>
		<path class="st1" d="M322,395.5c-0.2-0.1-0.2-0.3-0.2-0.4c0,0,0,0,0-0.1l4.3-5.5c0.1-0.2,0.4-0.2,0.6-0.1c0,0,0.1,0.1,0.1,0.1
			c3,5,6,10,8.9,14.9c0.5,0.8,1.3,1,2.5,0.8c0.2,0,0.3-0.1,0.4-0.2c0.1-0.1,0.3-0.2,0.5-0.2c0.3-0.1,0.6,0.1,0.6,0.4
			c0,0.2-0.1,0.4-0.3,0.6l-7.8,4.7c-0.2,0.1-0.3,0.1-0.5-0.1L331,410c-0.1-0.1-0.1-0.3,0.1-0.4c0,0,0,0,0,0c2.2-1,1.6-2.6,0.6-4.3
			c-2-3.4-4.1-7.8-6.8-10.6c-0.1-0.1-0.3-0.2-0.4-0.1c-0.6,0.2-1.2,0.5-1.7,1c-0.1,0.1-0.3,0.2-0.5,0.1L322,395.5z"/>
		<path class="st1" d="M311.6,407.4c-5.2-4-1.8-10.3,3.8-11c1.2-0.1,1.8-0.7,2-1.8c0-0.2,0.2-0.3,0.4-0.2c0.1,0,0.2,0.1,0.2,0.2
			l3,5.7c0.1,0.2,0.1,0.4-0.1,0.6c-0.2,0.2-0.3,0.3-0.5,0.3c-0.1,0-0.3-0.1-0.4-0.2c-2.6-2.5-4.9-4.3-8-1.1c-2,1.9-0.1,4.2,2.2,4.3
			c1.4,0.1,3.4,0.1,6.2,0.2c5,0,8.2,4.3,5.7,8.8c-1.6,2.8-4.8,3.8-8,4.5c-0.2,0-0.3,0.1-0.4,0.3l-0.4,0.8c-0.1,0.2-0.3,0.2-0.5,0.2
			c-0.1,0-0.1-0.1-0.2-0.2c-1-2-2.1-3.9-3.1-5.9c-0.1-0.2-0.1-0.4-0.1-0.6c0.1-0.2,0.4-0.3,0.7-0.2c0,0,0.1,0.1,0.1,0.1
			c2,2.3,4.9,3.8,7.9,2.5c2.8-1.2,2.6-5-0.4-5.8C319.1,408,313.7,409,311.6,407.4z"/>
		<path class="st1" d="M155.7,416.9c-1.6,0.4-3.4,0.9-4.8,0.7c-2.6-0.3-4.8-2.5-4.5-5.3c0.8-6.6,8.7-5.6,13.8-5.4
			c0.2,0,0.3-0.1,0.4-0.2c0.8-1.5,1.6-3.8,0.5-5.2c-0.9-1.2-2.6-1.9-3.9-1.2c-1.4,0.8-1.3,2.3-2.3,3.1c-1.2,1-3.1-0.1-3.1-1.6
			c-0.1-1.6,2.1-3.1,3.4-3.5c4.1-1.2,12.1,2.5,9.8,7.9c-1.6,3.8-3.2,7.7-4.9,11.5c-0.2,0.4,0,0.9,0.4,1c0.2,0.1,0.4,0.1,0.5,0
			l2.1-0.6c0.2-0.1,0.3,0,0.2,0.2c-0.4,2.7-9.1,4.4-7.4-1.2C156,416.9,155.9,416.8,155.7,416.9z M150.5,413c0.2,3,4,2.9,6.1,2
			c0.1-0.1,0.2-0.2,0.3-0.3l2.6-5.8c0.1-0.2,0-0.3-0.2-0.3C156.4,408.3,150.2,408,150.5,413z"/>
		<path class="st1" d="M301.1,405.7c0,0.1,0.1,0.1,0.2,0.1c0.1,0,0.1-0.1,0.1-0.1c0.3-2.7,2.7-7.4,6-4.6c0.6,0.5,0.8,1.1,0.7,1.8
			c-0.4,2.7-2.6,1.7-4.3,1.5c-0.3,0-0.6,0.1-0.8,0.4c-1.1,2.2-1,3.5-0.1,5.9c0.7,1.8,1.4,3.5,2.2,5.3c1.1,2.6,1.6,4.7,4.9,3.5
			c0.1,0,0.2,0,0.3,0.1l0.3,0.3c0.1,0.2,0.1,0.4-0.1,0.6c0,0-0.1,0-0.1,0.1l-9.3,3.8c-0.3,0.1-0.4,0-0.4-0.3l0-0.6
			c0-0.2,0.1-0.3,0.2-0.3c2.2-0.6,2-2.2,1.3-4c-1.5-3.7-3-7.4-4.5-11c-0.3-0.6-1-0.9-1.7-0.7c0,0,0,0-0.1,0l-1.1,0.6
			c-0.3,0.1-0.6,0-0.7-0.3c-0.1-0.2-0.1-0.5,0.1-0.6l5-4.7c0.1-0.1,0.4-0.1,0.5,0c0,0,0.1,0.1,0.1,0.1L301.1,405.7z"/>
		<path class="st1" d="M197.3,403.3c-0.1-0.2-0.1-0.4,0-0.7c0.1-0.2,0.2-0.2,0.3-0.2L210,404c0.3,0,0.4,0.3,0.4,0.5
			c0,0.1,0,0.1-0.1,0.2l-0.1,0.3c-0.1,0.2-0.2,0.3-0.4,0.2c-2.2-0.3-3.7-0.2-4.1,2.2c-0.8,4.9-1.4,9.8-1.8,14.7
			c-0.1,1.6-0.1,3.2,0,4.8c0.5,5,6.1,6.3,10.3,5.3c3-0.8,4.8-2.7,5.4-5.8c0.8-4.8,1.5-9.6,2-14.5c0.3-3,1-5.5-2.8-5.7
			c-0.2,0-0.4-0.1-0.4-0.3c-0.4-0.7-0.3-1,0.3-0.9c3.3,0.4,6.6,0.8,9.9,1.3c0.2,0,0.4,0.2,0.3,0.4c0,0,0,0,0,0.1
			c-0.1,0.5-0.5,0.7-1.1,0.6c-2.1-0.4-3.4,0.5-3.6,2.6c-0.9,7.8-1.6,13.1-2.1,15.9c-1.2,7.1-6.9,9.7-13.5,8.5
			c-4.4-0.8-8.1-3-9.1-7.6c-0.3-1.3-0.2-3.7,0.2-7.1c0.4-3.5,0.8-7,1.2-10.4c0.2-1.7,0.2-3.2,0.1-4.4c0-0.2-0.1-0.3-0.3-0.4
			C199.9,404.1,197.5,403.6,197.3,403.3z"/>
		<circle class="st1" cx="251.5" cy="405.7" r="2.3"/>
		<path class="st1" d="M174.3,408.4c1.3-0.6,2.6-1.1,4-1.5c3.4-0.9,6.5,1.6,6.5,5c0,1-0.5,2.8-1.4,5.4c-1.4,4-2.3,6.8-2.7,8.3
			c-0.6,2.1,1.2,1.8,2,2.6c0.2,0.2,0.2,0.6,0,0.8c-0.2,0.1-0.4,0.2-0.6,0.1l-8.8-3.1c-0.1-0.1-0.2-0.2-0.2-0.4l0.1-0.4
			c0.1-0.2,0.2-0.3,0.4-0.3c2.4,0.5,2.8,0.5,3.7-1.8c1.8-4.8,3-8.3,3.5-10.5c1.1-4.5-4.8-4.3-7.2-2.5c-0.1,0.1-0.2,0.2-0.3,0.4
			c-1.3,3.6-2.6,7.2-3.7,10.9c-0.2,0.8-0.1,1.5,0.4,2.1c0,0,0,0,0.1,0l1.6,0.7c0.3,0.1,0.4,0.4,0.3,0.7c-0.1,0.3-0.4,0.4-0.7,0.3
			l-9.1-3.1c-0.2-0.1-0.3-0.2-0.3-0.4c0-0.4,0.2-0.6,0.5-0.6c0.1,0,0.3,0,0.6,0.1c1.3,0.4,2.2-0.1,2.7-1.5c1.6-4.1,3-8.2,4.2-12.4
			c0.2-0.6-0.2-1.2-0.8-1.4c-0.1,0-0.2,0-0.3,0c-0.5,0-0.9-0.1-1.2-0.2c-0.3-0.1-0.4-0.4-0.2-0.7c0.1-0.2,0.2-0.3,0.4-0.3l6.6-0.4
			c0.4,0,0.7,0.3,0.7,0.6c0,0.1,0,0.2,0,0.3l-1,2.8C174,408.4,174.1,408.5,174.3,408.4z"/>
		<path class="st1" d="M294.9,426.1c-10.8,9.6-22.8-14.3-8.2-19c4.3-1.4,8.4,1.7,9.7,5.7c0.1,0.2,0,0.3-0.2,0.3l-12.7,3.7
			c-0.1,0-0.2,0.1-0.2,0.3c0.7,2.8,2.1,4.8,4.1,5.9c4.5,2.5,9.1-0.1,9.1-5.3c0-0.2,0.1-0.3,0.3-0.3c0,0,0,0,0.1,0
			c0.6,0.2,1,0.6,0.9,1.4C297.7,421.6,297,424.2,294.9,426.1z M283.1,415.2l7.9-2.3c0.1,0,0.1-0.1,0.1-0.2c0,0,0,0,0,0l0-0.1
			c-0.7-2.4-3.1-3.8-5.4-3.2l0,0c-2.3,0.7-3.5,3.2-2.8,5.6c0,0,0,0,0,0l0,0.1C282.9,415.2,283,415.3,283.1,415.2z"/>
		<path class="st1" d="M265.8,414c-1.9,0.5-2.2,1.5-1.2,3.2c2,3.2,4.1,6.3,6.3,9.5c0.1,0.2,0.2,0.2,0.3-0.1c0.9-4,1.7-8.1,2.4-12.2
			c0.2-1,0-1.8-1.3-1.6c-0.4,0.1-0.6,0.1-0.8,0c-0.3-0.1-0.5-0.3-0.4-0.6c0-0.1,0.1-0.2,0.2-0.3c0.1-0.1,0.4-0.2,0.7-0.3
			c1.8-0.3,3.5-0.7,5.3-1.1c0.3-0.1,0.5,0.1,0.6,0.3c0.1,0.2,0.1,0.4,0,0.5c-0.4,0.7-1.8,0.7-2.1,2c-1.3,6.4-2.6,12.8-3.9,19.2
			c-0.1,0.4-0.5,0.6-0.8,0.6c-0.2,0-0.3-0.1-0.5-0.3c-3.5-5.1-6.9-10.3-10.4-15.5c-0.7-1.1-1.8-1.6-3.2-1.6c-0.5,0-0.7-0.2-0.7-0.7
			c0-0.2,0.2-0.4,0.4-0.5c2.9-0.6,5.7-1.1,8.6-1.7c0.3-0.1,0.6,0.1,0.7,0.3c0.1,0.2,0.1,0.5-0.2,0.6
			C265.9,413.9,265.9,414,265.8,414z"/>
		<path class="st1" d="M249.3,417.2l-1.5,0.4c-0.1,0-0.3,0-0.3-0.1l-0.3-0.4c-0.1-0.2-0.1-0.4,0.1-0.5c0,0,0,0,0,0l6-3
			c0.3-0.1,0.6,0,0.8,0.3c0,0.1,0.1,0.1,0.1,0.2c0.5,5.6,1,11.2,1.5,16.9c0.1,1.6,1.1,2.2,2.8,1.9c0.2,0,0.3,0,0.4,0.2l0.2,0.6
			c0.1,0.2,0,0.3-0.2,0.4c0,0,0,0-0.1,0l-9.5,0.9c-0.3,0-0.4-0.1-0.4-0.3l0-0.6c0-0.2,0.1-0.3,0.3-0.3c1.7,0,2.5-0.8,2.4-2.5
			c-0.2-4.2-0.6-8.3-1.1-12.4c-0.1-0.6-0.4-1.2-0.8-1.6C249.6,417.2,249.5,417.1,249.3,417.2z"/>
		<path class="st1" d="M227.1,418.9c-0.7-0.3-1.6,0.3-2.1,0.1c-0.2-0.1-0.3-0.3-0.3-0.6c0-0.2,0.2-0.5,0.4-0.6l5.8-2.7
			c0.3-0.1,0.6,0,0.7,0.3c0,0.1,0,0.1,0,0.2l0.3,3c0,0.1,0.1,0.2,0.2,0.1c0,0,0.1,0,0.1-0.1c1.4-1.6,3.1-3.3,5.2-3.7
			c3.9-0.8,6.2,2.4,6.4,5.9c0.2,3.2,0.4,6.4,0.6,9.6c0.1,2,0.1,3.8,2.8,3.6c0.3,0,0.6,0.2,0.6,0.5c0,0.3-0.1,0.5-0.4,0.6
			c-0.2,0.1-0.5,0.1-0.9,0.1c-2.9,0.1-5.8,0.2-8.7,0.5c-0.2,0-0.3-0.1-0.3-0.3c0,0,0,0,0,0l0-0.6c0-0.3,0.1-0.4,0.4-0.4
			c1.8,0.1,2.7-0.8,2.7-2.9c-0.1-3-0.3-6.6-0.7-10.7c-0.4-4.9-5.1-3-7.2-0.8c-0.8,0.8-0.7,1.7-0.6,2.8c0.3,4.3,0,8.6,1,11.2
			c0.1,0.2,0.2,0.3,0.4,0.3c0.7,0.2,1.4,0.3,2.1,0.2c0.2,0,0.4,0.1,0.5,0.3l0.1,0.5c0.1,0.3,0,0.4-0.3,0.4l-9.6,0.6
			c-0.1,0-0.2-0.1-0.2-0.2l-0.1-0.6c0-0.2,0.1-0.3,0.2-0.3c0,0,0,0,0.1,0c1.8,0,2.6-0.9,2.6-2.7c-0.1-4.2-0.4-8.4-0.8-12.6
			C227.8,419.4,227.5,419,227.1,418.9z"/>
	</g>
	<path class="st1" d="M395.8,234.5c0,89.1-72.2,161.3-161.3,161.3l0,0c-89.1,0-161.3-72.2-161.3-161.3l0,0
		c0-89.1,72.2-161.3,161.3-161.3l0,0C323.6,73.2,395.8,145.4,395.8,234.5L395.8,234.5z"/>
	<path class="st9" d="M391.6,234.5c0,86.7-70.3,157.1-157.1,157.1l0,0c-86.7,0-157.1-70.3-157.1-157.1
		c0-86.7,70.3-157.1,157.1-157.1C321.3,77.4,391.6,147.8,391.6,234.5L391.6,234.5z"/>
	<g>
		<path class="st1" d="M221.7,39.4l4.7-0.2c0.2,0,0.3,0.1,0.3,0.3l0,1.2c0,0.2-0.1,0.3-0.3,0.3l-4.4,0.4c-0.2,0-0.2,0.1-0.2,0.3
			c0.3,6.3,0.6,11.2,1,14.7c0.3,2.3,2.6,2.1,4.4,1.9c0.3,0,0.4,0.1,0.4,0.4l-0.1,0.5c0,0.2-0.1,0.3-0.3,0.3l-11.6,0.8
			c-0.1,0-0.2-0.1-0.3-0.2c0,0,0,0,0,0v-0.6c0-0.2,0.2-0.3,0.3-0.4c3.7,0,3.1-2.6,2.9-5.6c-0.2-3.8-0.5-7.6-0.8-11.4
			c0-0.1-0.1-0.3-0.3-0.3l-3.3,0.1c-0.2,0-0.4-0.1-0.4-0.3v-1.2c0-0.2,0.1-0.3,0.3-0.3l3.2-0.2c0.2,0,0.3-0.1,0.3-0.3c0,0,0,0,0,0
			c-0.5-5.2,1.1-9.5,6.2-10.9c3-0.8,5.7,0.1,7.3,2.7c0.1,0.1,0.1,0.3,0.1,0.5c-0.3,1.1-1.3,2.4-2.5,1.9c-1.8-0.7-2.1-2.9-4.2-3.3
			c-4.4-1-3.1,6.6-3,8.8C221.4,39.3,221.5,39.4,221.7,39.4z"/>
		<path class="st1" d="M257.8,44.1c2.7,0.4,3.9-1,4.3-3.4c0-0.3,0.3-0.5,0.6-0.4c0.1,0,0.2,0.1,0.2,0.1c0.3,0.2,0.4,0.6,0.3,1.2
			c-0.4,2.9-0.8,5.8-1.1,8.7c0,0.2-0.1,0.3-0.2,0.4c-0.5,0.4-0.8,0.3-0.9-0.3c-0.3-1.8-0.2-3.6-2.4-4.2c-1.2-0.3-3.7-0.7-7.7-1
			c-0.2,0-0.2,0.1-0.3,0.2c-0.5,3.3-0.9,6.6-1.2,9.9c-0.1,1.3-0.4,2.4,1.3,2.6c2.3,0.3,4.6,0.6,6.9,0.9c3.9,0.5,5.6-2.1,7.8-4.8
			c0.2-0.2,0.5-0.3,0.7-0.1c0.2,0.2,0.2,0.4,0.1,0.6l-3.2,6.6c-0.1,0.2-0.2,0.2-0.4,0.2l-22.2-2.7c-0.3,0-0.5-0.3-0.4-0.6
			c0-0.2,0.1-0.3,0.3-0.4c1.7-0.6,3.9,0.7,4.3-2.1c1-7.1,1.9-14.2,2.7-21.4c0.1-1.3,0-2.3-0.3-3.1c-0.1-0.2-0.2-0.3-0.4-0.3
			l-2.9-0.7c-0.2-0.1-0.4-0.3-0.3-0.5c0,0,0,0,0,0c0.1-0.3,0.4-0.5,0.8-0.4c7.3,0.9,14.7,1.8,22,2.7c0.2,0,0.3,0.1,0.3,0.3l-0.6,6.3
			c0,0.2-0.1,0.3-0.3,0.3c-0.4,0.1-0.6-0.1-0.7-0.5c-0.5-2.7-0.8-4.6-4-5.1c-2.9-0.4-5.8-0.8-8.6-1.1c-0.2,0-0.4,0.1-0.4,0.3
			L251,42.9c0,0.2,0.1,0.3,0.2,0.3C253.4,43.7,255.6,43.8,257.8,44.1z"/>
		<path class="st1" d="M281.5,64.3c-6.9,3.7-12.6-3.1-11.2-9.7c1.4-6.9,10.1-14.3,16.4-7.3c0.1,0.1,0.2,0.1,0.3-0.1
			c0.8-2.1,1.4-4.2,1.9-6.4c0.3-1.5-0.4-2.2-1.9-2c-0.2,0-0.5-0.1-0.6-0.3c-0.1-0.3,0-0.6,0.2-0.7c0.1-0.1,0.3-0.1,0.6-0.2
			c1.9-0.1,3.9-0.3,6.1-0.5c0.4,0,0.7,0.2,0.7,0.6c0,0.1,0,0.2,0,0.3c-2.5,8.1-5,16.3-7.4,24.7c-0.3,0.9-0.8,2.6,0.9,2.6
			c0.5,0,0.9,0.1,1.3,0.4c0.2,0.2,0.2,0.5,0,0.7c-0.1,0.1-0.2,0.2-0.3,0.2l-6.3,0.6c-0.9,0.1-1.2-0.3-0.9-1.1l0.5-1.4
			c0-0.1,0-0.2-0.1-0.2C281.6,64.3,281.6,64.3,281.5,64.3z M280.9,46.5c-5.1,0.8-7.3,9.3-5.7,13.4c1.2,2.9,4.2,4.3,7.1,2.4
			c0.1-0.1,0.2-0.2,0.3-0.3c0.9-3,1.8-6,2.7-9C286.2,49.9,284.5,45.9,280.9,46.5z"/>
		<path class="st1" d="M201.9,62.9c-5.4,0.3-10-4.2-10.4-10.1c-0.4-5.9,3.6-11,9-11.3c0,0,0,0,0,0c5.4-0.3,10,4.2,10.4,10.1
			C211.2,57.5,207.2,62.5,201.9,62.9C201.9,62.9,201.9,62.9,201.9,62.9z M201.9,43.9c-3.7-1.6-6.4,1-6.5,4.7
			c-0.1,3.8,0.9,7.1,2.9,10c2.4,3.4,7.7,3,8.4-1.5C207.2,53.6,205.7,45.5,201.9,43.9z"/>
		<path class="st1" d="M170.2,64.9c0.1-3.8,0.2-7.6,0.4-11.4c0-0.7-0.2-1.4-0.6-1.9c-0.1-0.1-0.3-0.2-0.4-0.2
			c-0.4,0.1-0.9,0.3-1.3,0.2c-0.3-0.1-0.4-0.3-0.4-0.6c0-0.2,0.1-0.3,0.2-0.3c1.8-0.7,3.7-1.4,5.5-2c0.2-0.1,0.4-0.1,0.5,0
			c0.2,0.1,0.3,0.3,0.3,0.5c0,0.2,0,0.4-0.2,0.5c-1,0.6-1.3,1.4-1.4,2.6c-0.3,7.1-0.6,14.2-0.9,21.2c-0.1,2.3-0.3,3.9-0.6,4.8
			c-0.8,2.4-4.4,6.4-7,3.9c-1.5-1.4-0.6-3.2,1.1-3.8c0.5-0.2,1.5-0.2,2.9-0.2c0.2,0,0.3-0.1,0.4-0.2c1.5-1.4,1.2-5.2,1.3-7.2
			c0-0.2,0-0.3-0.2-0.4c-3.9-4.1-8-8-12.1-11.8c-1.1-1-2.3-1.6-3.7-1.6c-0.5,0-0.7-0.2-0.7-0.6c0-0.2,0.1-0.3,0.3-0.4l8.4-3.1
			c0.3-0.1,0.6,0,0.7,0.3c0.1,0.2,0,0.5-0.2,0.7l-1.3,0.8c-0.2,0.1-0.3,0.3-0.3,0.5c-0.1,0.7,0.3,1.5,1.1,2.3
			c2.6,2.7,5.2,5.3,7.9,7.8C170.1,65.2,170.2,65.2,170.2,64.9z"/>
		<path class="st1" d="M302.9,70.4c-2.8,1.2-4.4,1.9-6.7,1.3c-3.6-1.1-4.2-4.5-3-7.9c1.1-3.1,2.3-6.3,3.5-9.4c0.7-1.8,0.9-3.4-1.3-4
			c-0.5-0.2-0.7-0.5-0.5-0.9c0.1-0.2,0.3-0.3,0.6-0.2l6.2,2.4c0.2,0.1,0.2,0.2,0.2,0.3c-1.5,3.7-2.9,7.4-4.3,11.2
			c-0.8,2.3-1.5,3.4-0.7,5.3c0.1,0.1,0.2,0.3,0.3,0.4c2.2,1.3,4.3,1.2,6.5-0.1c0.1-0.1,0.2-0.2,0.3-0.3c1.4-3.3,4.6-10.2,4.2-12.5
			c0-0.2-0.1-0.3-0.3-0.4l-1.6-0.9c-0.3-0.2-0.3-0.5-0.2-0.7c0.1-0.2,0.4-0.3,0.6-0.2l6.1,2.3c0.1,0,0.2,0.2,0.1,0.3c0,0,0,0,0,0
			c-1.9,4.8-3.7,9.5-5.5,14.4c-0.2,0.7-0.3,1.3-0.1,1.9c0,0.2,0.2,0.3,0.3,0.3l1.8,0.4c0.1,0,0.2,0.1,0.2,0.3l-0.1,0.5
			c0,0.2-0.2,0.3-0.4,0.3l-6.5,0.1c-0.3,0-0.6-0.3-0.6-0.6c0-0.1,0-0.2,0-0.2l1.1-2.8c0-0.1,0-0.2-0.1-0.2
			C303,70.3,303,70.3,302.9,70.4z"/>
		<path class="st1" d="M146.9,59.8l3.5-1.9c0.1-0.1,0.3,0,0.4,0.1l0.6,1.1c0.1,0.2,0.1,0.3-0.1,0.4l-3.6,1.9
			c-0.1,0.1-0.1,0.2-0.1,0.3c0,0,0,0,0,0c2,3.9,4.1,7.7,6.2,11.5c1.8,3.3,3.6,1.2,4.2-1.3c0.1-0.2,0.3-0.4,0.5-0.3
			c0.2,0,0.3,0.2,0.3,0.3c1.1,5.3-5.2,9.4-8.3,3.6c-2.1-4-4.2-7.9-6.3-11.9c-0.1-0.2-0.3-0.2-0.5-0.2c0,0,0,0,0,0l-2.3,1.2
			c-0.2,0.1-0.5,0-0.6-0.2c-0.1-0.1-0.1-0.3,0-0.4c1.7-2.8,2.4-5.9,1.9-9.2c-0.1-0.3,0.1-0.6,0.4-0.6c0.2,0,0.5,0.1,0.6,0.3l2.7,5.1
			C146.6,59.9,146.7,59.9,146.9,59.8z"/>
		<path class="st1" d="M127.6,61.8c-1.1,0.1-1.2,0.8-2,1.1c-0.4,0.1-0.6,0-0.7-0.3c0-0.1,0-0.2,0-0.3l4-5.5c0.1-0.2,0.4-0.2,0.6-0.1
			c0,0,0.1,0.1,0.1,0.1c4.7,7.6,9.4,15.1,14,22.4c1,1.7,2.3,2.9,4.1,1.3c0.2-0.2,0.4-0.1,0.6,0c0.2,0.2,0.3,0.5,0.2,0.7
			c-0.1,0.1-0.2,0.3-0.4,0.4c-2.6,1.6-5.2,3.2-7.8,4.9c-0.2,0.1-0.4,0.1-0.4-0.2l-0.1-0.6c0-0.1,0-0.3,0.1-0.3
			c0.6-0.3,1.1-0.9,1.3-1.5c0.1-0.2,0.1-0.3,0-0.5c-0.3-0.9-0.7-1.8-1.2-2.5c-3.5-5.7-7.1-11.3-10.7-16.9c-0.6-0.9-1.1-1.5-1.5-2
			C128,61.9,127.8,61.8,127.6,61.8z"/>
		<path class="st1" d="M315.1,80.2c-7.9-8.4,6.2-24.9,15.5-14.7c1.3,1.4,2.8,5.3,0.4,6.5c-0.6,0.3-1.3,0.2-2-0.2
			c-3.3-1.9,1.3-4.8-1.9-6.9c-5.5-3.6-9.7,4.9-9.7,9.3c0,5.7,6.1,7.2,9.9,3.8c0.1-0.1,0.2-0.2,0.4-0.2h0.3c0.2,0,0.4,0.2,0.4,0.4
			c0,0.1,0,0.2-0.1,0.2C325.2,82.5,319.1,84.5,315.1,80.2z"/>
		<path class="st1" d="M337.6,90.5c-3.4,0.9-9.1-0.4-8.8-4.8c0.5-7.7,10.2-5.3,14.6-4c0.4,0.1,0.7,0,0.9-0.3
			c1.5-2.3,2.7-4.8-0.5-6.5c-3.7-1.9-4,5-7,1.8c-1.6-1.8,1.1-3.7,2.6-4.2c4.2-1.2,12.5,4.5,9.2,9.4c-2.3,3.4-4.6,6.8-6.8,10.1
			c-0.3,0.4-0.3,0.9,0,1.3c0.1,0.2,0.4,0.3,0.8,0.2c0.6,0,1.3-0.1,1.9-0.2c0.2,0,0.3,0.1,0.2,0.3c-0.8,2-4.7,1.8-6.1,1.2
			c-2-1-1.4-2.5-0.7-4.1c0-0.1,0-0.2-0.1-0.2C337.7,90.5,337.6,90.5,337.6,90.5z M337.3,82.3c-5.7-0.2-6,8.4,1.4,6.7
			c0.2,0,0.3-0.1,0.4-0.3l3.6-5.1c0.1-0.1,0.1-0.3-0.1-0.4c0,0-0.1,0-0.1,0C340.9,82.7,339.1,82.4,337.3,82.3z"/>
		<path class="st1" d="M131.2,89.4c-0.1-0.1-0.3-0.1-0.4,0c-0.1,0.1-0.1,0.1-0.1,0.2c0.2,5.7-5.5,10.9-10.1,5.2
			c-1.9-2.4-4.3-5.4-7.1-9.2c-1.2-1.5-2.4-1.4-3.8-0.3c-0.4,0.3-0.7,0.2-0.9-0.3c-0.1-0.1,0-0.3,0.1-0.4l5.3-4.1
			c0.2-0.1,0.3-0.1,0.4,0.1c2.5,3.4,5.1,6.7,7.6,10.1c0.9,1.2,2,2.6,3.5,2.7c2.7,0.1,3.8-3.2,4-5.5c0-0.2,0-0.3-0.1-0.4
			c-2.1-2.9-4.3-5.8-6.5-8.6c-1-1.3-2.2-2.2-3.6-0.8c-0.2,0.2-0.6,0.3-0.9,0.1c-0.4-0.3-0.4-0.6,0-0.9c1.7-1.3,3.3-2.5,4.9-3.8
			c0.1-0.1,0.3-0.1,0.4,0c2.8,3.8,5.7,7.5,8.5,11.3c0.7,0.9,1.4,1.6,2.2,2c0.1,0.1,0.3,0.1,0.4,0c0.8-0.4,0.9-1,1.4-1.3
			c0.3-0.2,0.5-0.1,0.7,0.2c0.1,0.2,0.1,0.4,0,0.5l-3.3,5.6c-0.2,0.3-0.5,0.3-0.7,0.2c-0.1,0-0.1-0.1-0.1-0.1L131.2,89.4z"/>
		<path class="st1" d="M355.8,85.4l-1.9-1.5c-0.3-0.2-0.3-0.6-0.1-0.8c0.1-0.2,0.3-0.2,0.6-0.2c3.1,0.5,6,0,8.6-1.7
			c0.3-0.2,0.8-0.1,1,0.2c0,0,0,0,0,0.1c0,0,0,0.1,0,0.3c0,0.1-0.1,0.2-0.1,0.2c-1.2,1.5-2.4,3-3.6,4.5c-0.1,0.1-0.1,0.3,0,0.4
			c0,0,0,0,0,0l3.1,2.5c0.2,0.1,0.2,0.3,0.1,0.4l-0.7,1c-0.1,0.2-0.3,0.2-0.4,0l-3.2-2.7c-0.1-0.1-0.2-0.1-0.3,0
			c-2.8,3.4-5.5,6.8-8.2,10.2c-0.8,1-1.3,2.4,0,3.3c1.3,0.9,1.8-0.2,2.7,0.1c0.2,0.1,0.4,0.2,0.5,0.4c0.1,0.1,0,0.3-0.1,0.4
			c-2.5,1.8-6.2,1.5-7.6-1.3c-1-1.9,0-3.5,1.4-5.2c2.7-3.4,5.5-6.8,8.2-10.2C355.9,85.6,355.9,85.5,355.8,85.4z"/>
		<circle class="st1" cx="376.6" cy="90.3" r="2.3"/>
		<path class="st1" d="M115,96.1c3.2,4.2,2.6,10-1.9,12.8c-8.6,5.3-21.2-9.3-12-17.7c2.2-2,7.2-3.3,8.6,0.3c0.1,0.1,0.1,0.3,0,0.4
			c-0.5,1.3-1.4,2-2.8,2.1c-0.2,0-0.3,0-0.5-0.1c-1.2-0.8-2.5-2.2-4-1.3c-2.4,1.3-2.9,3.6-1.9,6.1c1.4,3.5,3.9,5.7,7.6,6.6
			c5.6,1.3,8-4.1,6.1-8.6c-0.2-0.4,0-0.7,0.4-0.7C114.8,95.9,114.9,96,115,96.1z"/>
		<path class="st1" d="M353.5,106.3c1.9,1.7,2.6,0.9,4.3-0.6c3.1-2.7,5.8-5.4,8.3-8.1c0.4-0.4,0.5-0.8,0.5-1.4
			c0-0.2-0.1-0.3-0.2-0.4l-1.2-1c-0.2-0.2-0.3-0.6,0-0.8c0.2-0.2,0.4-0.2,0.6-0.1l5.9,2.7c0.3,0.1,0.4,0.5,0.3,0.8
			c0,0.1-0.1,0.1-0.1,0.2c-4,3.7-8,7.6-12,11.7c-1.3,1.3-1.2,2.5,0.2,3.5c0.1,0.1,0.2,0.3,0.1,0.4l-0.4,0.6c-0.1,0.2-0.2,0.2-0.4,0
			c-2.1-2.2-4.2-4.3-6.3-6.5c-0.2-0.2-0.3-0.3-0.3-0.5c-0.1-0.3,0-0.5,0.4-0.6C353.2,106.2,353.4,106.2,353.5,106.3z"/>
		<path class="st1" d="M86.6,109.5c-1.2,0.6-2.6,2.4-1.9,3.9c0.6,1.3,3.5,2.4,2.1,4.2c-1.3,1.7-3,0.9-3.9-0.6
			c-3-4.9,4.9-13.9,9-10.5c3.4,2.8,6.9,5.6,10.3,8.4c0.3,0.3,0.8,0.2,1-0.1c0.1-0.1,0.2-0.3,0.2-0.5v-2.2c0-0.2,0.2-0.4,0.4-0.4
			c0.2,0,0.3,0.1,0.4,0.2c1,2.2,1.1,4.1,0.2,5.8c-0.8,1.5-2.5,2.2-3.8,0.8c-0.1-0.2-0.4-0.2-0.5,0c-0.1,0.1-0.1,0.2-0.1,0.3
			c0.4,2.1,0,3.9-1,5.5c-2.4,3.7-7,3-8.9-0.6c-1.6-2.9,0.6-9,1.8-11.9c0.1-0.2,0-0.4-0.1-0.5C90.5,110.1,88.4,108.6,86.6,109.5z
			 M98.7,117.1l-5.1-4.4c-0.2-0.1-0.3-0.1-0.4,0.1c-1,2.7-2.6,7.3,0.5,9.2c4,2.5,5-2,5.2-4.6C98.8,117.3,98.8,117.2,98.7,117.1z"/>
		<path class="st1" d="M384,110.4c3,4.5,1.4,10.8-3.5,14v0c-4.9,3.3-11.3,2.4-14.3-2.1c-3-4.5-1.4-10.8,3.5-14v0
			C374.6,105,381,106,384,110.4z M368.9,122.9c2.2,2.1,6.7,0.8,10.1-2.8c0,0,0,0,0,0c3.4-3.6,4.5-8.2,2.3-10.3c0,0,0,0,0,0
			c-2.2-2.1-6.7-0.8-10.1,2.8c0,0,0,0,0,0C367.8,116.3,366.7,120.9,368.9,122.9C368.9,122.9,368.9,122.9,368.9,122.9z"/>
		<path class="st1" d="M74.1,134.6c2.6,1.8,5.3,3.6,8,5.4c2.5,1.6,3.6,0.8,5-1.4c0.1-0.2,0.3-0.2,0.5-0.1l0.3,0.3
			c0.1,0.1,0.2,0.3,0,0.5l-6.8,10.1c-0.1,0.2-0.2,0.2-0.4,0.1l-0.6-0.3c-0.1-0.1-0.2-0.2-0.1-0.3c0,0,0,0,0-0.1c3.2-3-0.4-5-2.5-6.5
			c-5.2-3.6-10.5-7.1-15.8-10.6c-2.3-1.5-3.2,0.2-4.5,1.7c-0.2,0.2-0.5,0.3-0.7,0.1c-0.2-0.2-0.3-0.5-0.1-0.7l0,0l12.1-18
			c0.1-0.1,0.2-0.1,0.3-0.1l5.2,3.2c0.1,0.1,0.2,0.3,0.2,0.4c-0.2,0.5-0.6,0.6-1.1,0.4c-5.1-2-7.6,3.6-10.3,7.9
			c-0.1,0.1-0.1,0.3,0.1,0.4l8.9,6c0.1,0.1,0.2,0.1,0.3-0.1c1.2-1.8,3.6-4.7,3.6-6.8c0-0.2,0-0.3-0.2-0.5l-1.7-2.1
			c-0.1-0.1-0.1-0.3,0-0.4l0.2-0.3c0.1-0.2,0.3-0.2,0.5-0.1l8,5.4c0.1,0.1,0.2,0.2,0.1,0.4l-0.3,0.5c-0.1,0.1-0.3,0.2-0.4,0.1
			c0,0,0,0,0,0c-3.9-3.2-6.3,2.5-7.9,4.9C73.9,134.3,73.9,134.5,74.1,134.6z"/>
		<path class="st1" d="M392,128.6c7.4,1.1,10.5,6.8,3.3,11.7c-2.7,1.8-5.4,3.6-8,5.5c-1.4,0.9-1.6,2.1-0.8,3.3
			c0.1,0.2,0.2,0.4,0.2,0.5c0,0.2-0.1,0.4-0.3,0.5c-0.2,0.1-0.5,0-0.6-0.2c-1.8-2.5-3.5-5.1-5.2-7.7c-0.3-0.4-0.1-0.7,0.5-0.9
			c0.1,0,0.2,0,0.3,0.1c1,1.2,1.7,2.4,3.5,1.2c2.9-1.9,5.7-3.8,8.5-5.8c4.9-3.5,0.9-6.9-3.1-7.2c-0.2,0-0.3,0-0.4,0.1
			c-2.6,1.8-5.2,3.5-7.9,5.3c-1.9,1.3-3.7,2.3-1.7,4.6c0.1,0.2,0.1,0.4,0,0.6c0,0,0,0,0,0l-0.3,0.2c-0.1,0.1-0.3,0.1-0.5-0.1
			c0,0,0,0,0,0l-5.4-8c-0.1-0.1-0.1-0.3,0.1-0.4c0,0,0,0,0.1,0l0.4-0.2c0.2-0.1,0.3,0,0.5,0.1c1.1,1.5,2.3,1.7,3.8,0.7
			c3-2.1,6.1-4.1,9.1-6.2c0.7-0.5,1.3-1.2,1.8-1.9c0.1-0.2,0.1-0.3,0-0.5l-1.1-1.4c-0.2-0.2-0.2-0.6,0.1-0.7c0.2-0.1,0.4-0.2,0.6,0
			l5.6,3.9c0.2,0.1,0.2,0.4,0.1,0.6c0,0-0.1,0.1-0.1,0.1l-2.7,1.9C391.8,128.5,391.8,128.6,392,128.6z"/>
	</g>
	<g>
		<path class="st8" d="M160.4,265.4l13.4-0.1c0.3,0,0.6,0.3,0.6,0.6l0.2,35c0,0.2-0.1,0.3-0.3,0.3h-19c-0.1,0-0.3,0.1-0.3,0.3
			c0,0,0,0,0,0l0,24.6c0,0.4,0.2,0.6,0.6,0.6l6.5,0.1c0.5,0,0.8-0.3,0.8-0.8l-0.2-16.7c0-0.4,0.3-0.7,0.7-0.7c0,0,0,0,0,0l10.6,0.1
			c0.1,0,0.1,0.1,0.1,0.1v16.9c0,0.4,0.3,0.7,0.7,0.7c0,0,0,0,0,0l5.2-0.1c0.7,0,1.2-0.6,1.2-1.3c0,0,0-0.1,0-0.1
			c-0.3-2.7,0-5.8-0.1-8.1c-0.3-10.8-0.2-25.6-0.1-36.1c0.1-5-0.1-10,0-15c0-0.2,0.1-0.3,0.3-0.3l13.2,0c0.4,0,0.6,0.2,0.6,0.6
			l0.1,60.7c0,0.2,0.1,0.2,0.3,0.2l30.6-0.1c0.2,0,0.3-0.1,0.3-0.3c0.1-2.7,0.1-5.3,0-7.9c0-0.2-0.2-0.2-0.5-0.2h-20.5
			c-0.2,0-0.3-0.1-0.3-0.3l-0.1-31.7c0-0.2,0.1-0.3,0.3-0.3c9.2-0.5,16.4,0,28.3-0.2c0.6,0,2,0.1,4.2,0.2c0.2,0,0.3,0.1,0.3,0.3
			l-0.2,40.3c0,0.4,0.3,0.7,0.7,0.7c0,0,0,0,0,0l9.2-0.1c0.3,0,0.5-0.2,0.5-0.5c0,0,0,0,0,0c-0.1-16.2,0-32.5,0.3-48.7
			c0.1-4.2,0.1-8.5,0-12.7c0-0.2,0.1-0.2,0.2-0.2l24.4,0l7.6,0.1c0.2,0,0.3,0.1,0.3,0.3l0,73.6c0,0.2-0.2,0.5-0.4,0.5l-9,0.5
			c-0.5,0-0.8-0.2-0.8-0.7l0.1-61.5c0-0.4-0.3-0.7-0.7-0.7c0,0,0,0,0,0l-10.8,0.1c-0.5,0-0.8,0.3-0.8,0.8l0.1,60.5
			c0,0.2-0.1,0.3-0.3,0.3l-17-0.1l-100.7-0.1c-0.6,0-0.9-0.3-0.9-0.9l-0.2-59l-0.1-13.5c0-0.2,0.1-0.3,0.3-0.3L160.4,265.4z
			 M163.6,276.8c0-0.2-0.2-0.4-0.4-0.4l0,0l-11,0c-0.2,0-0.4,0.2-0.4,0.4v0l0,11.1c0,0.2,0.2,0.4,0.4,0.4l0,0l11,0
			c0.2,0,0.4-0.2,0.4-0.4v0L163.6,276.8z M228.1,297.2c0-0.2-0.2-0.4-0.4-0.4h0l-11.2,0c-0.2,0-0.4,0.2-0.4,0.4v0l0,11.2
			c0,0.2,0.2,0.4,0.4,0.4h0l11.2,0c0.2,0,0.4-0.2,0.4-0.4v0L228.1,297.2z"/>
		<path class="st8" d="M205.9,266.4l10.4,0c0.1,0,0.1,0.1,0.1,0.1l0,10.5c0,0.1-0.1,0.1-0.1,0.1l-10.4,0c-0.1,0-0.1-0.1-0.1-0.1
			l0-10.5C205.8,266.5,205.9,266.4,205.9,266.4z"/>
		<path class="st8" d="M226.6,266.4l10.2,0c0.1,0,0.2,0.1,0.2,0.2l0,10.3c0,0.1-0.1,0.2-0.2,0.2l-10.2,0c-0.1,0-0.2-0.1-0.2-0.2
			l0-10.3C226.4,266.5,226.5,266.4,226.6,266.4z"/>
		<path class="st8" d="M307.5,267.1l14.6,0c0.2,0,0.3,0.1,0.3,0.3l0,3.2c-0.7,23.8,0,46.3-0.2,69.3c0,0.4-0.2,0.6-0.6,0.6l-31.6,0
			c-0.3,0-0.4-0.1-0.4-0.4l0-32.4c0-0.2,0.1-0.3,0.3-0.3l10.8,0.2c0.2,0,0.4,0.2,0.4,0.4l0,21.3c0,0.2,0.1,0.3,0.3,0.3l9.9-0.2
			c0.2,0,0.3-0.1,0.3-0.3l0.2-31.5c0-0.4-0.2-0.6-0.6-0.7c-1.4-0.3-3.1,0-4.3-0.1c-5.6-0.1-11.2,0-16.8,0.2c-0.1,0-0.2-0.1-0.2-0.2
			c0,0,0,0,0,0l0.1-29.1c0-0.3,0.3-0.6,0.6-0.6L307.5,267.1z M312,276.8c0-0.2-0.2-0.4-0.4-0.4h-10.9c-0.2,0-0.4,0.2-0.4,0.4l0,0v11
			c0,0.2,0.2,0.4,0.4,0.4l0,0h10.9c0.2,0,0.4-0.2,0.4-0.4V276.8z"/>
		<g>
			<path class="st1" d="M173.6,238.6c0,0,0.1,0,0.1,0c0.5-0.4,0.8-0.8,1-1.3c-0.1-0.6-0.2-1.2-0.2-1.7c0.1-7.6-0.3-15.5-0.3-22.7
				c0-11.5-0.1-23.1-0.4-34.6c-0.3-13.2-0.2-26.5-0.1-39.7c0-0.6-0.3-1.5,0-2.3c0.1-0.1,0.1-0.3,0.3-0.4
				c14.9-10.3,32.1-8.2,46.2,2.2c1.1,0.8,2.3,1.7,3.4,2.4c0.6,0.4,0.9,1,1.4,1.5c2.6,2.1,4.9,4.4,7,7c0.5,0.5,0.9,0.8,1.4,0.8
				c-0.8-1.1-2.5-2.8-4.9-5.3c-15.5-15.5-36.2-22.6-56.1-9.6c-0.1,0.1-0.2,0.2-0.2,0.4l1.1,103.3
				C173.4,238.5,173.5,238.6,173.6,238.6z"/>
			<path class="st1" d="M176.2,136.7c14.3-9.1,30.6-7.8,43.9,2.3c0,0,0.1,0,0.2,0l0.2-0.1c0.1-0.1,0.2-0.2,0-0.3
				c-0.2-0.2-0.3-0.5-0.5-0.6c-6.2-4.1-13.5-7.6-20.9-8.4c-8.9-0.9-17.2,1.2-24.8,6.3c-0.1,0.1-0.2,0.2-0.2,0.4l1.2,100.4
				c0.4,0.1,0.7-0.2,0.9-0.7c-0.1-19.2-0.3-38.4-0.7-57.6c-0.2-13.4-0.1-26.8-0.2-40.2C175.3,137.6,175.6,137.1,176.2,136.7z"/>
			<path class="st1" d="M210.4,134c-11.5-5-23.9-3.5-34.3,3.1c-0.3,0.2-0.5,0.5-0.5,0.9c0,5.3,0.2,10.7,0.4,16.1
				c0.4,7.9,0.2,15.7,0.3,23.5c0.2,15.3,0.3,30.7,0.3,46c0,2.3,0.1,6.1,0.4,11.5c3.1-2.5,6.2-4.6,9.4-6.2c8.8-5.1,18.1-5.7,28.1-2
				c2.9,0.9,5.7,2,8.5,3.3c0.5,0.2,1.3,0.3,1.8,0.1c2.9-0.7,5.7-1.2,8.6-1.3c0.2,0,0.4-0.2,0.4-0.4l0-77
				C227.2,143.9,219.8,138.2,210.4,134z"/>
			<path class="st1" d="M248.2,137.5c-3.2,2.3-6.5,5.2-10,8.8c-1.5,1.5-2.6,2.9-3.3,4.2c-0.1,0.1,0,0.3,0.1,0.5c0.2,0,0.4,0,0.4-0.1
				c0.2-0.8,0.6-1,1.3-0.7c-2.3,2.1-1.4,5.6-1.4,8.2c0,23.5,0,47,0,70.6c0,0.1,0.1,0.3,0.3,0.3c3.2,0.2,6.4,0.7,9.5,1.5
				c0.2,0,0.3,0,0.5,0c3.8-1.8,7.6-3.3,11.6-4.4c8.9-2.8,17.4-1.9,25.4,2.7c3.4,1.8,6.6,3.9,9.6,6.3c0.1-0.4,0.2-0.9,0.2-1.5
				c-0.2-8.1,0.2-16.9,0.2-24.9c0.1-23.7,0.3-47.3,0.7-70.9c0-0.3-0.1-0.5-0.4-0.7c-16.4-10.7-34.2-6.4-48.5,5.3
				c1.3-1.5,2.9-2.8,4.9-3.9c0,0,0,0,0,0c5.2-3.8,11-6.3,17.2-7.5c8.8-1.7,20,0.4,27.2,6.1c0.1,0.1,0.2,0.2,0.2,0.4
				c0,10.2,0.1,20.3-0.1,30.5c-0.3,10.7-0.4,21.4-0.4,32c0,11.7-0.4,23.4-0.5,35.1c-0.1,0.7,0.2,1.2,0.8,1.5c0.2,0,0.3-0.1,0.3-0.2
				c0-13.5,0-27.1,0.2-40.6c0.3-17,0.3-34,0.7-51c0.1-2.8,0.1-5.5,0-8.3c0-0.7-0.3-0.8-0.8-1.1c-6.4-4-13.3-6.1-20.6-6.2
				c-1.9,0-4.1,0.4-6.1,0.7c-6.5,0.9-13.4,4.6-18.8,8.4c0,0,0,0,0,0c-0.4,0.1-0.7,0.2-1,0.5c-0.1,0.1-0.1,0.1-0.1-0.1
				c0-0.1,0-0.1,0.1-0.1c0.3-0.3,0.7-0.5,1.1-0.7c0,0,0,0,0,0c14.1-10.4,30.5-12.5,45.8-2.9c0.3,0.2,0.6,0.5,1,0.8
				c0.1,0.1,0.2,0.3,0.2,0.4c0,9.1,0,18.2,0,27.2c0,3.3-0.4,7.5-0.4,11.1c0.1,16.5,0,27.7-0.2,33.5c-0.3,11.1-0.1,19.6-0.4,29.4
				c0.2,0.4,0.5,0.6,0.9,0.8c0.2,0.1,0.2,0,0.2-0.2l1.1-100.2l0-3c0-0.2-0.1-0.3-0.2-0.4C280.5,123.9,263.2,127.1,248.2,137.5"/>
			<path class="st1" d="M350.2,191.7c-1.7-12.4-5.1-24.1-10.4-35.1c-0.3-0.5-0.3-0.5-0.1,0.1c11.2,39.7-0.4,81.4-30.2,109.7
				c-0.1,0.1-0.3,0.2-0.4,0.2h-1.6h-17.4c-0.2,0-0.4,0.2-0.4,0.4l0,4.3l0,9.7c0,0.2-0.1,0.3-0.2,0.4l-2.4,1.3l-5.2,2.7l-0.1-14.5
				l0-5.2c0-0.4-0.2-0.6-0.6-0.6l-8.5,0l-1.6,0c-0.2,0-0.3-0.1-0.3-0.3c-1.4-14.7-8.7-25.2-22-31.4c-9.6-3.9-19.2-3.8-28.8,0.2
				c-14.1,6.4-22.5,20.3-21.5,35.8c0.5,5.4,2.1,10.6,4.8,15.4c0.7,1.2,1.1,2.3,1.2,3.1c0.2,1.4,0,2.7-0.4,4l-4-1.4l-4.2-1.4l0-20.9
				l0-2.8c0-0.3-0.2-0.5-0.5-0.5h-14.6c-0.2,0-0.3,0.1-0.3,0.3l-0.2,16.6l-4.8-2.9c-0.2-0.2-0.4-0.5-0.4-0.9c0-4.3,0-8.5,0-12.6
				c0,0,0,0,0,0c0-0.3-0.2-0.5-0.5-0.5l-14.5,0.2c-1.2,0-1.9-0.1-2.8-1c-27.8-27.9-38.7-68.3-28.2-106.4c0.3-1.2,0.2-1.2-0.3-0.1
				c-17.8,37.7-13.4,81.8,10.2,116c0.1,0.1,0.1,0.3,0.1,0.4l0.1,5.1l0.1,59.8c0,0.6,0.3,0.9,0.9,0.9l8,0l93.4-0.1l17.4-0.1
				c0.2,0,0.3-0.1,0.3-0.3l0.1-18.9l7.8-1.9l2.9-0.9c0,0,0.1,0,0.1,0c0.2,0,0.3,0.1,0.3,0.3l0,4.4l0,18.3c0,0.2,0.1,0.3,0.3,0.3
				l5.5-0.2l4.3-0.2l0.9,0c0.2,0,0.3-0.1,0.3-0.3l0.2-26.9l5.8-2.8l1.3-0.7c0.2-0.1,0.3,0,0.3,0.2l0.1,30.5
				c-0.1,0.1,0.1,0.2,0.3,0.3c0.1,0,0.3,0.1,0.5,0.1c3,0,5.9,0,8.9,0l23.3,0c0.5,0,0.7-0.2,0.7-0.7l0.1-57.9l6.4-8l0.6-0.9l1.4-1.9
				C347.3,247.3,353.6,220.7,350.2,191.7z M247.6,326.8c0,0.1-0.1,0.3-0.3,0.3H239c-0.2,0-0.3-0.1-0.4-0.3c-0.2-1.2-0.2-2.4,0.1-3.6
				l6-0.3l2.8-0.3L247.6,326.8z M226.6,266.4l10.2,0c0.1,0,0.2,0.1,0.2,0.2l0,10.3c0,0.1-0.1,0.2-0.2,0.2l-10.2,0
				c-0.1,0-0.2-0.1-0.2-0.2l0-10.3C226.4,266.5,226.5,266.4,226.6,266.4z M205.9,266.4l10.4,0c0.1,0,0.1,0.1,0.1,0.1l0,10.5
				c0,0.1-0.1,0.1-0.1,0.1l-10.4,0c-0.1,0-0.1-0.1-0.1-0.1l0-10.5C205.8,266.5,205.9,266.4,205.9,266.4z M195.8,316.7l3.3,1.1
				l4.3,1.3l8.9,2.1l8.4,1.3l4.8,0.5c0.1,0,0.2,0.1,0.2,0.3v2.4c0,0.5-0.4,0.9-0.9,0.9h-28.5c-0.3,0-0.6-0.3-0.6-0.6L195.8,316.7z
				 M180.4,310.3l0,15c0,0.3-0.2,0.5-0.5,0.5l-4.8,0.1c-0.2,0-0.3-0.1-0.3-0.2l-0.2-17.2c0-0.2-0.1-0.3-0.3-0.3h-11.8
				c-0.2,0-0.3,0.1-0.4,0.3l-0.2,17.6c0,0.1-0.1,0.2-0.2,0.2l-5.9-0.1c-0.2,0-0.4-0.2-0.4-0.5v-23.4c0,0,0,0,0,0
				c0-0.2,0.2-0.4,0.5-0.4l11.8,0.1l2.8,2c3.1,2.2,6.3,4.1,9.7,5.8C180.4,310,180.4,310.1,180.4,310.3z M270.4,289.7
				c0,0.2-0.1,0.4-0.3,0.4l-3,1l-5.5,1.6c-0.1,0-0.3,0-0.4-0.1c-0.8-0.6-0.5-1.3,0.1-1.9c3.3-3.5,5.7-7.6,7.2-12.2
				c0.6-0.4,1.2-0.5,1.7-0.2c0.1,0.1,0.2,0.2,0.2,0.3V289.7z M281.1,339.5c0,0.2-0.2,0.5-0.4,0.5l-9,0.5c-0.5,0-0.8-0.2-0.8-0.7
				l0.1-61.5c0,0,0,0,0,0c0-0.4-0.3-0.7-0.7-0.6l-10.8,0.1c-0.5,0-0.8,0.3-0.8,0.8l0.1,60.5c0,0.2-0.1,0.3-0.3,0.3l-17-0.1
				l-100.7-0.1c-0.6,0-0.9-0.3-0.9-0.9l-0.2-59l-0.1-13.5c0-0.2,0.1-0.3,0.3-0.3l20.5,0l13.4-0.1c0.3,0,0.6,0.3,0.6,0.6l0.2,35
				c0,0.2-0.1,0.3-0.3,0.3h-19c-0.1,0-0.3,0.1-0.3,0.3l0,24.6c0,0.4,0.2,0.6,0.6,0.6l6.5,0.1c0.5,0,0.8-0.3,0.8-0.8l-0.2-16.7
				c0,0,0,0,0,0c0-0.4,0.3-0.7,0.7-0.7l10.6,0.1c0.1,0,0.1,0.1,0.1,0.1v16.9c0,0,0,0,0,0c0,0.4,0.3,0.7,0.7,0.6l5.2-0.1
				c0,0,0.1,0,0.1,0c0.7-0.1,1.2-0.7,1.1-1.4c-0.3-2.7,0-5.8-0.1-8.1c-0.3-10.8-0.2-25.6-0.1-36.1c0.1-5-0.1-10,0-15
				c0-0.2,0.1-0.3,0.3-0.3l13.2,0c0.4,0,0.6,0.2,0.6,0.6l0.1,60.7c0,0.2,0.1,0.2,0.3,0.2l30.6-0.1c0.2,0,0.3-0.1,0.3-0.3
				c0.1-2.7,0.1-5.3,0-7.9c0-0.2-0.2-0.2-0.5-0.2h-20.5c-0.2,0-0.3-0.1-0.3-0.3l-0.1-31.7c0-0.2,0.1-0.3,0.3-0.3
				c9.2-0.5,16.4,0,28.3-0.2c0.6,0,2,0.1,4.2,0.2c0.2,0,0.3,0.1,0.3,0.3l-0.2,40.3c0,0,0,0,0,0c0,0.4,0.3,0.7,0.7,0.7l9.2-0.1h0
				c0.3,0,0.5-0.2,0.5-0.5c-0.1-16.2,0-32.5,0.3-48.7c0.1-4.2,0.1-8.5,0-12.7c0-0.2,0.1-0.2,0.2-0.2l24.4,0l7.6,0.1
				c0.2,0,0.3,0.1,0.3,0.3L281.1,339.5z M322.2,339.8c0,0.4-0.2,0.6-0.6,0.6l-31.6,0c-0.3,0-0.4-0.1-0.4-0.4l0-32.4
				c0-0.2,0.1-0.3,0.3-0.3l10.8,0.2c0.2,0,0.4,0.2,0.4,0.4l0,21.3c0,0.2,0.1,0.3,0.3,0.3l9.9-0.2c0.2,0,0.3-0.1,0.3-0.3l0.2-31.5
				c0-0.4-0.2-0.6-0.6-0.7c-1.4-0.3-3.1,0-4.3-0.1c-5.6-0.1-11.2,0-16.8,0.2c0,0,0,0,0,0c-0.1,0-0.2-0.1-0.2-0.2l0.1-29.1
				c0-0.3,0.3-0.6,0.6-0.6l16.8,0l14.6,0c0.2,0,0.3,0.1,0.3,0.3l0,3.2C321.7,294.4,322.5,316.9,322.2,339.8z M300.6,302.7l6.8-5
				c1-0.3,2.2-0.3,3.5-0.1c0.2,0,0.3,0.1,0.3,0.3l0,30.7c0,0.2-0.2,0.4-0.4,0.4h-8.5c-0.3,0-0.6-0.3-0.6-0.6l0-20.9
				c0-0.2-0.2-0.4-0.4-0.4l-6.7-0.1c-0.3,0-0.3-0.1-0.1-0.2L300.6,302.7z"/>
			<path class="st1" d="M222.7,231.2C222.7,231.2,222.7,231.1,222.7,231.2c0.1-0.2,0.1-0.3,0-0.4c-2.7-1.4-5.6-2.5-8.6-3.4
				c-7.4-2.1-13-2.9-19.7-1c-0.1,0-0.1,0.1-0.1,0.2c0,0.1,0.1,0.2,0.2,0.1c10.3-2.6,18.2,1.1,27.7,4.6
				C222.4,231.3,222.6,231.3,222.7,231.2z"/>
			<path class="st1" d="M273,226.4c0.1,0,0.1,0,0.2,0c0.1,0,0.1-0.1,0.1-0.1c0.1-0.2,0-0.3-0.2-0.3c-1.7,0-3.2-0.7-4.8-0.7
				c-3.8,0-7.5,0.5-11.1,1.6c-3.8,0.9-7.4,2.3-10.8,3.9c-0.1,0.1-0.2,0.2-0.1,0.3c0.1,0.1,0.2,0.2,0.3,0.1l11.5-3.9
				C263,225.7,268,225.4,273,226.4z"/>
			<path class="st1" d="M248,231.8c0.7,0.2,1.2,0.3,1.5,0.1c5.1-2.2,10-3.6,14.7-4.3c9.6-1.5,17.8,2,26,7.2c0,0,0.1,0,0.1,0
				c0,0,0.1,0,0.1-0.1c0,0,0-0.1,0-0.1c-2.6-2.1-4.5-3.3-7.8-5.1l-0.8,0.1c-0.2,0-0.3,0-0.5-0.1c-7.7-3.4-14.9-3.5-23.1-1.6
				c-3.5,0.9-6.9,2.1-10.2,3.7C247.8,231.7,247.8,231.7,248,231.8z"/>
			<path class="st1" d="M196.4,226.9c-3.6,0.4-6.6,1.9-10,3c-3,1.3-5.6,2.9-7.8,4.8c-0.5,0.5-0.5,0.5,0.1,0.1
				c8.3-5.4,16.7-8.6,26.8-7.1c3.8,0.5,8.4,1.9,13.7,4.1c0.6,0.2,1.3,0.2,2.2-0.1C213.4,228,205.4,226,196.4,226.9z"/>
			<path class="st1" d="M163.6,287.9l0-11.1c0-0.2-0.2-0.4-0.4-0.4l-11,0h0c-0.2,0-0.4,0.2-0.4,0.4l0,11.1c0,0.2,0.2,0.4,0.4,0.4
				l11,0C163.4,288.3,163.6,288.2,163.6,287.9z"/>
			<path class="st1" d="M311.6,276.4h-10.9c-0.2,0-0.4,0.2-0.4,0.4v11c0,0.2,0.2,0.4,0.4,0.4h10.9c0.2,0,0.4-0.2,0.4-0.4v-11
				C312,276.6,311.8,276.4,311.6,276.4z"/>
			<path class="st1" d="M227.8,296.9l-11.2,0c-0.2,0-0.4,0.2-0.4,0.4l0,11.2c0,0.2,0.2,0.4,0.4,0.4l11.2,0c0,0,0,0,0,0
				c0.2,0,0.4-0.2,0.4-0.4l0-11.2C228.1,297,228,296.9,227.8,296.9z"/>
		</g>
	</g>
</g>
<g id="POLITICAL">
</g>
<g id="LETTRES">
</g>
<g id="BUSINESS">
</g>
</svg>
