<?xml version="1.0" encoding="utf-8"?>
<!-- Generator: Adobe Illustrator 27.9.0, SVG Export Plug-In . SVG Version: 6.00 Build 0)  -->
<svg version="1.1" xmlns="http://www.w3.org/2000/svg" xmlns:xlink="http://www.w3.org/1999/xlink" x="0px" y="0px"
	 viewBox="0 0 469 469" style="enable-background:new 0 0 469 469;" xml:space="preserve">
<style type="text/css">
	.st0{fill:#009872;}
	.st1{fill:#F9F9C3;}
	.st2{fill:#246665;}
	.st3{fill:#C99030;}
	.st4{fill:#C19338;}
	.st5{fill:#79003B;}
	.st6{fill:#DB214C;}
	.st7{fill:#FF6766;}
	.st8{fill:#5C7E7F;}
	.st9{fill:#495678;}
	.st10{fill:#0E5D99;}
	.st11{fill:#FFFFFF;}
	.st12{fill:#137CCF;}
	.st13{fill:#B8683D;}
	.st14{fill:#007CC4;}
</style>
<g id="UNDER">
	<path class="st0" d="M449.8,234.5c0,118.9-96.4,215.3-215.3,215.3l0,0c-118.9,0-215.3-96.4-215.3-215.3l0,0
		c0-118.9,96.4-215.3,215.3-215.3l0,0C353.4,19.2,449.8,115.6,449.8,234.5L449.8,234.5z"/>
	<path class="st1" d="M395.8,234.5c0,89.1-72.2,161.3-161.3,161.3l0,0c-89.1,0-161.3-72.2-161.3-161.3l0,0
		c0-89.1,72.2-161.3,161.3-161.3l0,0C323.6,73.2,395.8,145.4,395.8,234.5L395.8,234.5z"/>
	<g>
		<path class="st1" d="M126.1,373.1c-3.1,3.9-6.2,7.8-9.2,11.7c-3.3,4.3-9.5,8.2-13.8,2.3c-3.7-5.1,5.9-8.3,3.5-0.1
			c-0.2,0.5,0.1,1.1,0.7,1.2c0,0,0.1,0,0.1,0c1.1,0.2,2.6-1.7,3.2-2.5c4.5-5.6,8.9-11.4,13.2-17.1c0.1-0.2,0.2-0.3,0.1-0.5
			c-0.2-1.3-0.8-2.3-2-3c-0.2-0.1-0.2-0.3-0.2-0.5c0-0.3,0.2-0.5,0.5-0.5c0.1,0,0.3,0.1,0.4,0.2c3.2,2.4,6.3,4.9,9.5,7.4
			c0.1,0.1,0.2,0.2,0.1,0.4c-0.1,0.4-0.3,0.5-0.7,0.5c-0.1,0-0.2-0.1-0.3-0.2C129.3,370.4,127.6,371.2,126.1,373.1z"/>
		<path class="st1" d="M357.4,385.7c-1-3.9-2.2-7.7-3.5-11.5c-0.3-0.9-1-1.5-1.9-0.7c-0.3,0.2-0.4,0.4-0.5,0.4
			c-0.3,0.1-0.6,0-0.7-0.4c-0.1-0.2,0-0.4,0.1-0.6l4.8-3.9c0.1-0.1,0.3-0.1,0.4,0l0.4,0.4c0.2,0.2,0.2,0.4,0,0.5
			c-0.7,0.6-1,1.3-0.8,1.9c3,10.1,5.1,17.3,6.5,21.6c1.2,3.7,1.4,8.7-2.7,10.5c-1.8,0.8-4-1.4-2.9-3.2c0.7-1,2.4-1.6,3.6-2.2
			c0.1-0.1,0.3-0.2,0.3-0.4c0.7-1.9-0.5-5.2-1.2-7.1c-0.1-0.2-0.2-0.3-0.3-0.3c-4.7-2.3-9.4-4.5-14.2-6.8c-1.1-0.5-2.1-0.8-3.3-1.1
			c-0.2,0-0.3,0-0.5,0.1l-3.8,2.5c-0.1,0.1-0.2,0.2-0.1,0.4c2.4,3.6,4.7,7.2,7.1,10.8c1.7,2.6,4.3,1.3,4.1-1.4
			c0-0.3,0.2-0.5,0.4-0.5c0.2,0,0.4,0.1,0.5,0.4c1.3,4.5-3.9,9.8-7.3,5c-1.4-1.9-4.1-6-8-12.2c-0.1-0.2-0.2-0.2-0.4-0.1l-2.1,1.4
			c-0.3,0.2-0.6,0.1-0.8-0.2c-0.1-0.2-0.1-0.4,0-0.6c0.9-1.6,1.4-3.3,1.5-5.2c0.1-1.3-0.4-2.7-0.4-4.1c0-0.3,0.2-0.5,0.5-0.5
			c0.2,0,0.4,0.1,0.4,0.2l3.2,5c0.1,0.1,0.2,0.2,0.4,0.1c3.5-2.1,6.7-4.5,9.7-7.2c0.2-0.2,0.5-0.2,0.7,0c0,0,0,0,0,0.1l0.2,0.3
			c0.1,0.2,0.1,0.3-0.1,0.4c-0.6,0.4-0.9,1-1,1.6c0,0.2,0,0.3,0.1,0.5c1.4,1.8,8.4,4.6,11.5,6C357.4,385.9,357.5,385.9,357.4,385.7z
			"/>
		<circle class="st1" cx="136.4" cy="375.9" r="2.3"/>
		<circle class="st1" cx="320.9" cy="383.4" r="2.3"/>
		<path class="st1" d="M122.5,399.3c0.3,0.8,0.8,1.4,1.5,1.8c0.2,0.1,0.2,0.3,0,0.4l-0.4,0.4c-0.1,0.1-0.3,0.1-0.4,0l-7.6-5.5
			c-0.2-0.1-0.2-0.3-0.1-0.4l0.3-0.4c0.1-0.1,0.3-0.2,0.4-0.1c0,0,0,0,0,0c1.3,1.2,2.5,1,3.6-0.5c0.8-1.1,7.7-9.4,7.5-11.5
			c0-0.2-0.1-0.3-0.3-0.4l-1.4-0.7c-0.3-0.1-0.4-0.5-0.3-0.8c0.1-0.2,0.4-0.4,0.6-0.3l6,1.5c0.9,0.2,1.1,0.7,0.5,1.4
			c-3,4-6,8.3-9.2,12.7c-0.4,0.6-0.8,1.2-1,1.8C122.4,399,122.4,399.1,122.5,399.3z"/>
		<path class="st1" d="M139.8,391.8c1.9-0.6,3.3-0.9,4.2-0.8c4.8,0.4,6.8,4.7,4.4,8.8c-3.3,5.5-5.3,8.9-6.1,10.4
			c-0.7,1.3,1.1,2.2,1.6,3.1c0.1,0.2,0.1,0.5-0.2,0.6c-0.1,0.1-0.3,0.1-0.5,0l-8.1-4.9c-0.1-0.1-0.2-0.2-0.2-0.4
			c0-0.4,0.2-0.6,0.4-0.6c0.1,0,0.3,0,0.5,0.2c1.4,0.9,2.6,0.6,3.5-1c1.7-2.6,3.3-5.3,4.9-8c3-5.2-1.3-7.3-5.6-5.7
			c-0.2,0.1-0.3,0.2-0.4,0.3c-3.1,4.9-5.1,8.2-5.9,9.9c-0.8,1.5-0.3,2.6,1.3,3.1c0.2,0.1,0.3,0.3,0.2,0.4c0,0,0,0,0,0.1l-0.2,0.4
			c-0.1,0.2-0.3,0.3-0.5,0.1l-8-4.8c-0.2-0.1-0.2-0.3-0.1-0.5c0,0,0,0,0-0.1l0.3-0.4c0.1-0.1,0.3-0.2,0.4,0c1.2,1,2.3,0.9,3.1-0.3
			c1.2-1.7,3.2-5,5.9-9.8c0.6-1,0.9-1.8,1.1-2.6c0-0.2,0-0.4-0.2-0.5l-1.7-0.8c-0.1-0.1-0.2-0.2-0.2-0.3l0-0.5
			c0-0.2,0.2-0.4,0.4-0.3l6.6,1.1c0.3,0.1,0.5,0.3,0.4,0.6c0,0.1,0,0.1-0.1,0.2l-1.6,2.8c0,0.1,0,0.2,0.1,0.2
			C139.7,391.8,139.7,391.8,139.8,391.8z"/>
		<path class="st1" d="M322,395.5c-0.2-0.1-0.2-0.3-0.2-0.4c0,0,0,0,0-0.1l4.3-5.5c0.1-0.2,0.4-0.2,0.6-0.1c0,0,0.1,0.1,0.1,0.1
			c3,5,6,10,8.9,14.9c0.5,0.8,1.3,1,2.5,0.8c0.2,0,0.3-0.1,0.4-0.2c0.1-0.1,0.3-0.2,0.5-0.2c0.3-0.1,0.6,0.1,0.6,0.4
			c0,0.2-0.1,0.4-0.3,0.6l-7.8,4.7c-0.2,0.1-0.3,0.1-0.5-0.1L331,410c-0.1-0.1-0.1-0.3,0.1-0.4c0,0,0,0,0,0c2.2-1,1.6-2.6,0.6-4.3
			c-2-3.4-4.1-7.8-6.8-10.6c-0.1-0.1-0.3-0.2-0.4-0.1c-0.6,0.2-1.2,0.5-1.7,1c-0.1,0.1-0.3,0.2-0.5,0.1L322,395.5z"/>
		<path class="st1" d="M311.6,407.4c-5.2-4-1.8-10.3,3.8-11c1.2-0.1,1.8-0.7,2-1.8c0-0.2,0.2-0.3,0.4-0.2c0.1,0,0.2,0.1,0.2,0.2
			l3,5.7c0.1,0.2,0.1,0.4-0.1,0.6c-0.2,0.2-0.3,0.3-0.5,0.3c-0.1,0-0.3-0.1-0.4-0.2c-2.6-2.5-4.9-4.3-8-1.1c-2,1.9-0.1,4.2,2.2,4.3
			c1.4,0.1,3.4,0.1,6.2,0.2c5,0,8.2,4.3,5.7,8.8c-1.6,2.8-4.8,3.8-8,4.5c-0.2,0-0.3,0.1-0.4,0.3l-0.4,0.8c-0.1,0.2-0.3,0.2-0.5,0.2
			c-0.1,0-0.1-0.1-0.2-0.2c-1-2-2.1-3.9-3.1-5.9c-0.1-0.2-0.1-0.4-0.1-0.6c0.1-0.2,0.4-0.3,0.7-0.2c0,0,0.1,0.1,0.1,0.1
			c2,2.3,4.9,3.8,7.9,2.5c2.8-1.2,2.6-5-0.4-5.8C319.1,408,313.7,409,311.6,407.4z"/>
		<path class="st1" d="M155.7,416.9c-1.6,0.4-3.4,0.9-4.8,0.7c-2.6-0.3-4.8-2.5-4.5-5.3c0.8-6.6,8.7-5.6,13.8-5.4
			c0.2,0,0.3-0.1,0.4-0.2c0.8-1.5,1.6-3.8,0.5-5.2c-0.9-1.2-2.6-1.9-3.9-1.2c-1.4,0.8-1.3,2.3-2.3,3.1c-1.2,1-3.1-0.1-3.1-1.6
			c-0.1-1.6,2.1-3.1,3.4-3.5c4.1-1.2,12.1,2.5,9.8,7.9c-1.6,3.8-3.2,7.7-4.9,11.5c-0.2,0.4,0,0.9,0.4,1c0.2,0.1,0.4,0.1,0.5,0
			l2.1-0.6c0.2-0.1,0.3,0,0.2,0.2c-0.4,2.7-9.1,4.4-7.4-1.2C156,416.9,155.9,416.8,155.7,416.9z M150.5,413c0.2,3,4,2.9,6.1,2
			c0.1-0.1,0.2-0.2,0.3-0.3l2.6-5.8c0.1-0.2,0-0.3-0.2-0.3C156.4,408.3,150.2,408,150.5,413z"/>
		<path class="st1" d="M301.1,405.7c0,0.1,0.1,0.1,0.2,0.1c0.1,0,0.1-0.1,0.1-0.1c0.3-2.7,2.7-7.4,6-4.6c0.6,0.5,0.8,1.1,0.7,1.8
			c-0.4,2.7-2.6,1.7-4.3,1.5c-0.3,0-0.6,0.1-0.8,0.4c-1.1,2.2-1,3.5-0.1,5.9c0.7,1.8,1.4,3.5,2.2,5.3c1.1,2.6,1.6,4.7,4.9,3.5
			c0.1,0,0.2,0,0.3,0.1l0.3,0.3c0.1,0.2,0.1,0.4-0.1,0.6c0,0-0.1,0-0.1,0.1l-9.3,3.8c-0.3,0.1-0.4,0-0.4-0.3l0-0.6
			c0-0.2,0.1-0.3,0.2-0.3c2.2-0.6,2-2.2,1.3-4c-1.5-3.7-3-7.4-4.5-11c-0.3-0.6-1-0.9-1.7-0.7c0,0,0,0-0.1,0l-1.1,0.6
			c-0.3,0.1-0.6,0-0.7-0.3c-0.1-0.2-0.1-0.5,0.1-0.6l5-4.7c0.1-0.1,0.4-0.1,0.5,0c0,0,0.1,0.1,0.1,0.1L301.1,405.7z"/>
		<path class="st1" d="M197.3,403.3c-0.1-0.2-0.1-0.4,0-0.7c0.1-0.2,0.2-0.2,0.3-0.2L210,404c0.3,0,0.4,0.3,0.4,0.5
			c0,0.1,0,0.1-0.1,0.2l-0.1,0.3c-0.1,0.2-0.2,0.3-0.4,0.2c-2.2-0.3-3.7-0.2-4.1,2.2c-0.8,4.9-1.4,9.8-1.8,14.7
			c-0.1,1.6-0.1,3.2,0,4.8c0.5,5,6.1,6.3,10.3,5.3c3-0.8,4.8-2.7,5.4-5.8c0.8-4.8,1.5-9.6,2-14.5c0.3-3,1-5.5-2.8-5.7
			c-0.2,0-0.4-0.1-0.4-0.3c-0.4-0.7-0.3-1,0.3-0.9c3.3,0.4,6.6,0.8,9.9,1.3c0.2,0,0.4,0.2,0.3,0.4c0,0,0,0,0,0.1
			c-0.1,0.5-0.5,0.7-1.1,0.6c-2.1-0.4-3.4,0.5-3.6,2.6c-0.9,7.8-1.6,13.1-2.1,15.9c-1.2,7.1-6.9,9.7-13.5,8.5
			c-4.4-0.8-8.1-3-9.1-7.6c-0.3-1.3-0.2-3.7,0.2-7.1c0.4-3.5,0.8-7,1.2-10.4c0.2-1.7,0.2-3.2,0.1-4.4c0-0.2-0.1-0.3-0.3-0.4
			C199.9,404.1,197.5,403.6,197.3,403.3z"/>
		<circle class="st1" cx="251.5" cy="405.7" r="2.3"/>
		<path class="st1" d="M174.3,408.4c1.3-0.6,2.6-1.1,4-1.5c3.4-0.9,6.5,1.6,6.5,5c0,1-0.5,2.8-1.4,5.4c-1.4,4-2.3,6.8-2.7,8.3
			c-0.6,2.1,1.2,1.8,2,2.6c0.2,0.2,0.2,0.6,0,0.8c-0.2,0.1-0.4,0.2-0.6,0.1l-8.8-3.1c-0.1-0.1-0.2-0.2-0.2-0.4l0.1-0.4
			c0.1-0.2,0.2-0.3,0.4-0.3c2.4,0.5,2.8,0.5,3.7-1.8c1.8-4.8,3-8.3,3.5-10.5c1.1-4.5-4.8-4.3-7.2-2.5c-0.1,0.1-0.2,0.2-0.3,0.4
			c-1.3,3.6-2.6,7.2-3.7,10.9c-0.2,0.8-0.1,1.5,0.4,2.1c0,0,0,0,0.1,0l1.6,0.7c0.3,0.1,0.4,0.4,0.3,0.7c-0.1,0.3-0.4,0.4-0.7,0.3
			l-9.1-3.1c-0.2-0.1-0.3-0.2-0.3-0.4c0-0.4,0.2-0.6,0.5-0.6c0.1,0,0.3,0,0.6,0.1c1.3,0.4,2.2-0.1,2.7-1.5c1.6-4.1,3-8.2,4.2-12.4
			c0.2-0.6-0.2-1.2-0.8-1.4c-0.1,0-0.2,0-0.3,0c-0.5,0-0.9-0.1-1.2-0.2c-0.3-0.1-0.4-0.4-0.2-0.7c0.1-0.2,0.2-0.3,0.4-0.3l6.6-0.4
			c0.4,0,0.7,0.3,0.7,0.6c0,0.1,0,0.2,0,0.3l-1,2.8C174,408.4,174.1,408.5,174.3,408.4z"/>
		<path class="st1" d="M294.9,426.1c-10.8,9.6-22.8-14.3-8.2-19c4.3-1.4,8.4,1.7,9.7,5.7c0.1,0.2,0,0.3-0.2,0.3l-12.7,3.7
			c-0.1,0-0.2,0.1-0.2,0.3c0.7,2.8,2.1,4.8,4.1,5.9c4.5,2.5,9.1-0.1,9.1-5.3c0-0.2,0.1-0.3,0.3-0.3c0,0,0,0,0.1,0
			c0.6,0.2,1,0.6,0.9,1.4C297.7,421.6,297,424.2,294.9,426.1z M283.1,415.2l7.9-2.3c0.1,0,0.1-0.1,0.1-0.2c0,0,0,0,0,0l0-0.1
			c-0.7-2.4-3.1-3.8-5.4-3.2l0,0c-2.3,0.7-3.5,3.2-2.8,5.6c0,0,0,0,0,0l0,0.1C282.9,415.2,283,415.3,283.1,415.2z"/>
		<path class="st1" d="M265.8,414c-1.9,0.5-2.2,1.5-1.2,3.2c2,3.2,4.1,6.3,6.3,9.5c0.1,0.2,0.2,0.2,0.3-0.1c0.9-4,1.7-8.1,2.4-12.2
			c0.2-1,0-1.8-1.3-1.6c-0.4,0.1-0.6,0.1-0.8,0c-0.3-0.1-0.5-0.3-0.4-0.6c0-0.1,0.1-0.2,0.2-0.3c0.1-0.1,0.4-0.2,0.7-0.3
			c1.8-0.3,3.5-0.7,5.3-1.1c0.3-0.1,0.5,0.1,0.6,0.3c0.1,0.2,0.1,0.4,0,0.5c-0.4,0.7-1.8,0.7-2.1,2c-1.3,6.4-2.6,12.8-3.9,19.2
			c-0.1,0.4-0.5,0.6-0.8,0.6c-0.2,0-0.3-0.1-0.5-0.3c-3.5-5.1-6.9-10.3-10.4-15.5c-0.7-1.1-1.8-1.6-3.2-1.6c-0.5,0-0.7-0.2-0.7-0.7
			c0-0.2,0.2-0.4,0.4-0.5c2.9-0.6,5.7-1.1,8.6-1.7c0.3-0.1,0.6,0.1,0.7,0.3c0.1,0.2,0.1,0.5-0.2,0.6
			C265.9,413.9,265.9,414,265.8,414z"/>
		<path class="st1" d="M249.3,417.2l-1.5,0.4c-0.1,0-0.3,0-0.3-0.1l-0.3-0.4c-0.1-0.2-0.1-0.4,0.1-0.5c0,0,0,0,0,0l6-3
			c0.3-0.1,0.6,0,0.8,0.3c0,0.1,0.1,0.1,0.1,0.2c0.5,5.6,1,11.2,1.5,16.9c0.1,1.6,1.1,2.2,2.8,1.9c0.2,0,0.3,0,0.4,0.2l0.2,0.6
			c0.1,0.2,0,0.3-0.2,0.4c0,0,0,0-0.1,0l-9.5,0.9c-0.3,0-0.4-0.1-0.4-0.3l0-0.6c0-0.2,0.1-0.3,0.3-0.3c1.7,0,2.5-0.8,2.4-2.5
			c-0.2-4.2-0.6-8.3-1.1-12.4c-0.1-0.6-0.4-1.2-0.8-1.6C249.6,417.2,249.5,417.1,249.3,417.2z"/>
		<path class="st1" d="M227.1,418.9c-0.7-0.3-1.6,0.3-2.1,0.1c-0.2-0.1-0.3-0.3-0.3-0.6c0-0.2,0.2-0.5,0.4-0.6l5.8-2.7
			c0.3-0.1,0.6,0,0.7,0.3c0,0.1,0,0.1,0,0.2l0.3,3c0,0.1,0.1,0.2,0.2,0.1c0,0,0.1,0,0.1-0.1c1.4-1.6,3.1-3.3,5.2-3.7
			c3.9-0.8,6.2,2.4,6.4,5.9c0.2,3.2,0.4,6.4,0.6,9.6c0.1,2,0.1,3.8,2.8,3.6c0.3,0,0.6,0.2,0.6,0.5c0,0.3-0.1,0.5-0.4,0.6
			c-0.2,0.1-0.5,0.1-0.9,0.1c-2.9,0.1-5.8,0.2-8.7,0.5c-0.2,0-0.3-0.1-0.3-0.3c0,0,0,0,0,0l0-0.6c0-0.3,0.1-0.4,0.4-0.4
			c1.8,0.1,2.7-0.8,2.7-2.9c-0.1-3-0.3-6.6-0.7-10.7c-0.4-4.9-5.1-3-7.2-0.8c-0.8,0.8-0.7,1.7-0.6,2.8c0.3,4.3,0,8.6,1,11.2
			c0.1,0.2,0.2,0.3,0.4,0.3c0.7,0.2,1.4,0.3,2.1,0.2c0.2,0,0.4,0.1,0.5,0.3l0.1,0.5c0.1,0.3,0,0.4-0.3,0.4l-9.6,0.6
			c-0.1,0-0.2-0.1-0.2-0.2l-0.1-0.6c0-0.2,0.1-0.3,0.2-0.3c0,0,0,0,0.1,0c1.8,0,2.6-0.9,2.6-2.7c-0.1-4.2-0.4-8.4-0.8-12.6
			C227.8,419.4,227.5,419,227.1,418.9z"/>
	</g>
</g>
<g id="MAIN">
</g>
<g id="SCIENCES">
</g>
<g id="HEALTH_00000128469052700009300670000012666611077201334713_">
</g>
<g id="COMMUNICATION">
</g>
<g id="EDUCATION">
</g>
<g id="POLITICAL">
</g>
<g id="LETTRES">
	<path class="st13" d="M391.6,234.5c0,86.7-70.3,157.1-157.1,157.1l0,0c-86.7,0-157.1-70.3-157.1-157.1
		c0-86.7,70.3-157.1,157.1-157.1C321.3,77.4,391.6,147.8,391.6,234.5L391.6,234.5z"/>
	<g>
		<path class="st1" d="M237.4,43.2c-1.2-3.4-2.2-7.5,0.5-10.6c2.4-2.7,7.4-3.9,10.4-1c2,2,2.4,4.2,1,6.7c-1.3,2.3-4.4,3.8-6.7,4.8
			c-0.2,0.1-0.2,0.2-0.1,0.3l4.6,8.4c0.1,0.2,0.2,0.2,0.4,0.1c1.7-1.5,5.3-6.4,3.6-8.5c-0.4-0.5-1.4-0.7-1.4-1.6
			c0-0.2,0.1-0.4,0.4-0.3l8.9,0.7c0.1,0,0.3,0.1,0.3,0.3c0.1,0.6-0.3,0.9-0.9,0.9c-1.9,0.1-2.9,1-4,2.6c-1.8,2.7-3.7,5.2-5.7,7.7
			c-0.1,0.1-0.1,0.2,0,0.4c1.9,3,7.8,7,9.8,1.5c0.1-0.2,0.2-0.3,0.4-0.2c0,0,0,0,0.1,0c0.5,0.3,0.7,0.8,0.4,1.4
			c-2.9,7.5-10.2,5.6-14,0.5c-0.1-0.1-0.3-0.2-0.4-0.1c-0.4,0.3-1.1,0.7-1.9,1.3c-4.9,3.4-15.5,3.1-15.1-5.2
			c0.2-4.7,5.4-8.3,9.4-9.8C237.5,43.6,237.5,43.4,237.4,43.2z M240.7,34.7c-0.6,1.8,0.4,4.7,1,6.4c0.1,0.3,0.3,0.4,0.5,0.3
			c2.3-0.9,3.9-2.4,4.9-4.5C248.9,32.8,242.4,29.5,240.7,34.7z M243.8,55.8l-5.5-10.2c0-0.1-0.1-0.1-0.1,0c0,0,0,0,0,0l-1.6,0.9
			c-3.3,1.8-4.7,5.5-3.2,8.3l0.2,0.3c1.5,2.8,5.4,3.6,8.7,1.8l1.6-0.9C243.8,55.9,243.8,55.8,243.8,55.8
			C243.8,55.8,243.8,55.8,243.8,55.8z"/>
		<path class="st1" d="M285,53.4c-1,3.1-2.1,6.2-3.1,9.4c-0.7,2.2,0.9,3.4,2.8,3.8c0.2,0,0.3,0.2,0.3,0.4c0,0,0,0.1,0,0.1l-0.2,0.4
			c-0.1,0.2-0.2,0.2-0.4,0.2l-11.5-4c-0.2-0.1-0.4-0.3-0.4-0.5c0-0.4,0.2-0.5,0.7-0.5c3.1,0.6,3.7,0.8,4.9-2.4
			c2.3-6.6,4.6-13.2,6.8-19.8c0.8-2.3-1-3.3-2.8-3.9c-0.2,0-0.2-0.2-0.2-0.3c0.1-0.6,0.3-0.8,0.8-0.7c3.9,1.3,7.7,2.6,11.6,4
			c0.1,0,0.2,0.2,0.2,0.3c0,0.3-0.1,0.6-0.4,0.7c-1.3,0.6-3.5-1.9-4.6,0.9c-1.2,3.1-2.3,6.3-3.3,9.5c0,0.2,0,0.3,0.2,0.3l12.2,4.2
			c0.1,0,0.1,0,0.2-0.1c0,0,0,0,0,0c1.1-3,2.1-6.1,3.1-9.2c0.8-2.4-0.8-3.1-2.6-3.9c-0.2-0.1-0.3-0.2-0.3-0.5
			c0.1-0.4,0.3-0.6,0.6-0.5c3.9,1.3,7.8,2.6,11.6,3.9c0.3,0.1,0.4,0.3,0.3,0.6c-0.1,0.4-0.3,0.6-0.6,0.5c-1.6-0.5-3.8-0.9-4.6,1.2
			c-3.7,10.4-6.2,17.6-7.4,21.7c-0.5,1.6,1.6,2.8,3,3.1c0.2,0.1,0.3,0.2,0.2,0.4l-0.3,0.6c-0.1,0.2-0.2,0.2-0.4,0.2l-11.7-4.1
			c-0.2-0.1-0.3-0.3-0.3-0.5c0-0.1,0.1-0.1,0.1-0.2l0.2-0.2c0.1-0.1,0.3-0.2,0.4-0.1c3.5,1,3.8,0.4,5-2.7c1-2.7,1.9-5.4,2.8-8.1
			c0.1-0.2,0-0.3-0.2-0.4c0,0,0,0,0,0l-12-4.1C285.2,53.1,285.1,53.1,285,53.4z"/>
		<path class="st1" d="M201.5,60.2c1.6,1.5,4.9,2.2,6.7,0.7c1.4-1.2,1.1-3.4-0.4-4.5c-1.8-1.3-4.8-2-7-2.8c-5.9-2.1-5-9.5,0.6-11.1
			c0.8-0.2,2.4-0.2,4.8,0c0.1,0,0.3,0,0.4-0.2l0.7-0.9c0.2-0.2,0.5-0.2,0.7-0.1c0.1,0.1,0.1,0.2,0.2,0.3c0.4,2.1,0.8,4.2,1.1,6.2
			c0,0.3,0,0.5-0.1,0.6c-0.2,0.2-0.6,0.1-0.8-0.1c0,0,0,0,0,0c-0.8-1.2-1.5-2.8-2.7-3.6c-3.7-2.4-9.1,1.8-4.6,4.4
			c3.9,2.3,10.4,1.7,11.2,7.3c0.9,6-6.2,7.7-10.6,6.9c-0.2,0-0.4,0-0.5,0.1l-1,0.8c-0.2,0.1-0.4,0.1-0.5,0c0,0-0.1-0.1-0.1-0.2
			l-1.2-6.8c0-0.2,0.1-0.5,0.4-0.5c0,0,0.1,0,0.1,0c0,0,0.1,0,0.1,0c0.2,0,0.3,0.1,0.3,0.2C200.1,58.4,200.8,59.5,201.5,60.2z"/>
		<path class="st1" d="M180.4,56.3c0.9,3.8,4.3,7.3,8.4,6.7c3.7-0.5,4.2-2.9,5-6c0-0.2,0.2-0.2,0.3-0.2c0.5,0.1,0.8,0.5,0.8,1.2
			c-0.1,5.8-4.5,10.9-10.7,8.9c-8.4-2.7-10.3-17.8-0.6-20.7c4.6-1.3,8.5,1.3,9.8,5.8c0.1,0.2,0,0.3-0.2,0.4l-12.6,3.4
			C180.4,55.9,180.3,56.1,180.4,56.3z M180.4,54.2l7.6-2.1c0.2-0.1,0.3-0.3,0.2-0.4l0-0.1c-0.7-2.4-3-3.8-5.3-3.1l-0.1,0
			c-2.3,0.6-3.6,3.1-2.9,5.4l0,0.1C180,54.2,180.2,54.3,180.4,54.2z"/>
		<path class="st1" d="M165.5,55.8c0,0.1,0.1,0.1,0.1,0.1c0,0,0.1,0,0.1-0.1c0.4-1.7,1-3.1,1.8-4.1c2.9-3.4,7.1,1.2,4.1,3
			c-0.9,0.6-2.2,0.1-3.2-0.2c-0.3-0.1-0.7,0.1-0.9,0.4c-1,1.8-1.2,3.3-0.4,5.3c1,2.7,2.1,5.4,3.3,8.1c0.6,1.5,1.9,2,3.4,1.5
			c0.5-0.2,0.8-0.1,1,0.3c0.1,0.3,0,0.6-0.3,0.7c0,0,0,0,0,0l-9.1,3.6c-0.2,0.1-0.3,0-0.4-0.2l-0.3-0.7c0-0.1,0-0.2,0.1-0.3
			c0,0,0,0,0,0c2.4-0.5,2.3-2,1.6-4c-1.4-3.9-2.9-7.6-4.5-11.3c-0.2-0.6-0.9-0.8-1.4-0.6c0,0,0,0,0,0l-1.6,0.7
			c-0.2,0.1-0.5,0-0.6-0.2c-0.1-0.2,0-0.4,0.1-0.5l5.2-4.9c0.2-0.1,0.4-0.1,0.5,0c0,0,0.1,0.1,0.1,0.1L165.5,55.8z"/>
		<path class="st1" d="M149.1,61.7l-2.1,1c-0.3,0.1-0.6,0-0.7-0.2c-0.1-0.2-0.1-0.4,0-0.6c1.9-2.7,2.7-5.7,2.3-9.1
			c0-0.2,0.1-0.3,0.2-0.4c0.4-0.2,0.6-0.1,0.8,0.4c0.8,1.8,1.6,3.5,2.4,5.2c0.1,0.2,0.3,0.2,0.4,0.2c0,0,0,0,0,0l3.5-1.6
			c0.2-0.1,0.4,0,0.5,0.1l0.6,1.1c0.1,0.1,0,0.3-0.1,0.4c0,0,0,0,0,0l-3.9,1.7c-0.1,0.1-0.2,0.2-0.1,0.3c1.7,4,3.5,8,5.3,11.9
			c0.6,1.2,1.4,2.2,2.8,1.6c1-0.4,1.2-1.6,1.5-2.6c0.1-0.2,0.3-0.4,0.6-0.3c0.2,0.1,0.3,0.2,0.3,0.4c0.7,6-6.1,9-8.9,2.4
			c-1.7-4-3.4-7.9-5.2-11.8C149.4,61.7,149.2,61.7,149.1,61.7C149.1,61.7,149.1,61.7,149.1,61.7z"/>
		<path class="st1" d="M316.7,77.8c-1.8,0.6-3.4,1.2-5.4,1c-2.7-0.3-4.7-2.5-4.6-5.2c0-1,0.5-2.4,1.3-4.3c1.5-3.3,3.7-6.8,4.7-10.3
			c0-0.2,0-0.3-0.1-0.5c-0.5-0.7-1.2-1.3-2-1.7c-0.2-0.1-0.2-0.2-0.1-0.4l0.2-0.5c0.1-0.2,0.2-0.2,0.4-0.1l6.1,3
			c0.1,0.1,0.2,0.2,0.1,0.3c-2,4-3.9,8-5.8,12c-2.6,5.5,2.4,6.3,6.2,4.9c0.1-0.1,0.3-0.2,0.3-0.3l5.3-10.9c0.3-0.6,0.1-1.3-0.4-1.7
			l-1.3-0.9c-0.3-0.2-0.3-0.6-0.2-0.8c0.2-0.2,0.5-0.3,0.8-0.2l5.7,2.8c0.1,0.1,0.2,0.2,0.1,0.3c-3.3,6.5-5.7,11.3-7,14.6
			c-0.6,1.5,0.8,1.8,1.9,2c0.2,0,0.2,0.1,0.3,0.3c0.1,0.3,0,0.6-0.2,0.8c-0.1,0.1-0.4,0.2-0.6,0.2c-2.1-0.1-4.2-0.3-6.3-0.5
			c-0.3,0-0.6-0.3-0.5-0.7c0-0.1,0-0.1,0.1-0.2l1.3-2.7C317,77.8,317,77.7,316.7,77.8z"/>
		<path class="st1" d="M136.2,68.5l-2.1,1.3c-0.3,0.2-0.6,0.1-0.8-0.2c-0.1-0.2-0.1-0.4,0-0.6c1.6-2.5,2.1-5.3,1.6-8.4
			c-0.1-0.4,0-0.9,0.2-1.2c0.1-0.2,0.3-0.3,0.5-0.2c0.1,0,0.1,0.1,0.2,0.1l3.1,5.2c0.1,0.2,0.2,0.2,0.4,0.1l3.6-2.1
			c0.2-0.1,0.3-0.1,0.4,0.1l0.6,1.2c0.1,0.2,0,0.3-0.1,0.4l-3.6,2c-0.1,0.1-0.2,0.2-0.1,0.3c2.2,3.8,4.4,7.7,6.6,11.5
			c0.8,1.4,1.9,1.7,3.3,1c0.1-0.1,0.2-0.2,0.2-0.3l0.6-2.1c0.1-0.2,0.3-0.4,0.5-0.3c0.2,0,0.3,0.2,0.3,0.3c1.2,4.8-4.6,9.4-7.7,4.3
			c-2.5-4.1-4.9-8.2-7.2-12.4C136.5,68.5,136.4,68.4,136.2,68.5z"/>
		<path class="st1" d="M338.2,73.7c4.2-0.4,7.6-0.9,9.6,3.6c0.3,0.8,0.3,1.8-0.2,3c-0.1,0.2,0,0.3,0.2,0.3c2.7-0.3,5-0.9,7.4,0.7
			c2.8,1.9,3.1,5.1,1.3,7.8c-1.9,2.9-3.9,5.8-5.9,8.6c-1,1.4-2,3.3,0.2,4.4c0.2,0.1,0.3,0.3,0.2,0.5c0,0,0,0,0,0l-0.3,0.5
			c-0.1,0.2-0.3,0.2-0.5,0.1c0,0,0,0,0,0l-8-5.6c-0.2-0.1-0.2-0.3,0-0.4l0.4-0.4c0.2-0.2,0.4-0.2,0.6,0c1.3,1.2,2.5,1,3.6-0.4
			c2.3-3,7.4-9.6,6.9-11.7c-0.6-2.6-4.7-2.9-6.8-2.2c-0.1,0-0.3,0.1-0.4,0.3c-2.2,3.1-4.3,6.1-6.4,9.2c-1.3,1.9-0.1,2.4,1,3.7
			c0.2,0.2,0.2,0.6,0,0.8c-0.2,0.2-0.5,0.2-0.7,0l-8-5.6c-0.2-0.2-0.2-0.3,0-0.5l0.6-0.5c0.1-0.1,0.3-0.1,0.4,0
			c1.5,1.6,2.6,0.9,3.8-0.6c2.3-3.1,4.3-6,6-8.7c3.1-5-4.9-6.8-6.4-4.8c-2.2,3-4.4,6.1-6.5,9.2c-0.6,0.9-0.7,1.7-0.5,2.5
			c0,0.1,0.1,0.2,0.2,0.3l1.3,0.8c0.2,0.1,0.2,0.3,0.1,0.5c-0.3,0.6-0.9,0.4-1.4,0.1c-2.4-1.7-4.9-3.5-7.4-5.2
			c-0.1-0.1-0.2-0.3-0.1-0.4c0,0,0.1-0.1,0.1-0.1l0.6-0.3c0.1-0.1,0.3,0,0.4,0.1c1.4,1.3,2.4,0.6,3.4-0.7c2.6-3.4,5-6.9,7.3-10.5
			c0.3-0.5,0.2-1.2-0.4-1.6c0,0-0.1-0.1-0.1-0.1l-1-0.5c-0.3-0.1-0.5-0.5-0.3-0.8c0.1-0.3,0.4-0.4,0.7-0.4l6.1,1.4
			c0.8,0.2,1,0.6,0.5,1.3l-1.6,2.3C338,73.7,338.1,73.7,338.2,73.7z"/>
		<path class="st1" d="M137.5,80.1c0.1,0.1,0.2,0.2,0.3,0.3c2.1,4.8,0.3,10.9-5.3,12.2c-9.2,2.1-17.7-12.6-9.4-18.9
			c3.9-2.9,8.7-2.2,11.4,2c0.1,0.1,0.1,0.2-0.1,0.3l-10.7,7.6c-0.1,0.1-0.2,0.2-0.1,0.4c4.1,6.2,15,5.9,12.8-3.6
			c0-0.2,0-0.3,0.2-0.4C136.9,79.8,137.2,79.9,137.5,80.1z M123.1,82.2l6.3-4.5c0.2-0.2,0.3-0.5,0.1-0.7c0,0,0,0,0,0l0-0.1
			c-1.4-2-4.1-2.4-6.1-1c0,0,0,0,0,0l-0.1,0.1c-1.9,1.4-2.4,4.1-0.9,6.1c0,0,0,0,0,0l0,0.1C122.6,82.3,122.9,82.3,123.1,82.2z"/>
		<path class="st1" d="M110.1,105.3c0.7,0.8,1.8,1,2.7,0.3c2-1.5,4-3.2,5.8-5c2.3-2.3,2.1-5.1,1.2-8c-0.1-0.4-0.1-0.6-0.1-0.8
			c0.1-0.3,0.3-0.4,0.6-0.5c0.2,0,0.3,0,0.3,0.2l3.1,7.4c0.1,0.2,0,0.3-0.1,0.5L106.2,114c-0.1,0.1-0.3,0.1-0.4,0c0,0,0,0,0-0.1
			l-0.2-0.3c-0.1-0.1-0.1-0.3,0.1-0.4c1.3-1.3,2.7-2.8,1.1-4.7c-5.7-7-10.5-12.7-14.3-17c-1.5-1.7-3.2-0.8-4.5,0.4
			c-0.2,0.2-0.3,0.2-0.5,0l-0.3-0.3c-0.2-0.2-0.2-0.3,0-0.5l10-8.4c0.1-0.1,0.3-0.1,0.4,0l0.3,0.3c0.1,0.1,0.2,0.3,0,0.4
			c-1.6,1.7-3.5,3.4-1.5,5.8C102.3,96.2,106.9,101.5,110.1,105.3z"/>
		<path class="st1" d="M360.6,110.9c-2.5-0.4-5-0.2-6.8-2.8c-1.3-1.8-1.3-3.6-0.1-5.4c3.2-4.8,9.8-2,14.4,0.1c0.2,0.1,0.3,0.1,0.4,0
			c2.8-2.1,3.6-6.8-1-7.3c-0.2,0-0.4,0-0.6,0.2l-2.6,2.1c-0.1,0.1-0.2,0.1-0.3,0.1c-2.6,0.1-3-3.2-1.1-4.1c4.1-2,7.2,0.3,9.7,3.3
			c2.1,2.6,2,5-0.2,7.4c-2.4,2.5-4.8,5-7.1,7.6c-0.6,0.7-0.8,1.3-0.7,1.8c0.1,0.2,0.2,0.4,0.5,0.4l2.3,0.1c0.1,0,0.2,0.1,0.2,0.2
			c0,0,0,0,0,0c-1.1,2.8-10.3,0.8-6.6-3.4c0.1-0.1,0.1-0.3,0-0.3C360.7,110.9,360.7,110.9,360.6,110.9z M361.6,102.6
			c-2.6-0.3-5.5,2-4.4,4.6c0.7,1.7,3.2,2.1,4.9,2.2c0.2,0,0.4-0.1,0.5-0.2l4.3-4.7c0.1-0.1,0.1-0.3-0.1-0.3
			C365.2,103.4,363.5,102.9,361.6,102.6z"/>
		<path class="st1" d="M78.6,120.1l-2.1,2.6c-0.1,0.2-0.3,0.2-0.4,0l-1-0.8c-0.2-0.1-0.2-0.3,0-0.4l2.1-2.6c0.1-0.2,0.1-0.3-0.1-0.4
			c-5.1-3.4-7.5-10.1-1.8-14.5c1.4-1.1,2.7-1.5,4-1.3c1.5,0.3,2.4,2.3,1.1,3.5c-1.7,1.5-4.5-0.5-6.1,1.6c-2.2,2.8,3.3,6.3,5.2,7.6
			c0.2,0.1,0.3,0.1,0.4-0.1l2.8-3.5c0.1-0.1,0.2-0.1,0.4-0.1l1,0.7c0.2,0.1,0.2,0.3,0.1,0.5l-2.8,3.6c-0.1,0.1-0.1,0.2,0,0.3
			c5.3,4.3,9.3,7.4,11.9,9.1c1.9,1.3,3.4-1,4.4-2.2c0.1-0.2,0.4-0.2,0.5,0c0.1,0.1,0.1,0.2,0.1,0.2c0,0.3-0.1,0.6-0.3,0.9
			c-2.2,3-4.5,6-6.8,8.9c-0.1,0.2-0.3,0.2-0.4,0.1l-0.5-0.4c-0.2-0.1-0.2-0.3,0-0.4c1.5-1.7,1.3-3.3-0.6-4.9
			c-3.5-2.8-7-5.6-10.6-8.3C78.8,120,78.7,120,78.6,120.1z"/>
		<path class="st1" d="M382.2,112.8c7.5,0.1,11,6,4.3,11.3c-2.5,2-5,4-7.4,6.1c-1.2,1.1-1.7,2.2-0.6,3.5c0.2,0.2,0.2,0.4,0.1,0.7
			c-0.1,0.3-0.3,0.4-0.6,0.3c-0.1,0-0.3-0.1-0.4-0.3c-1.9-2.4-3.8-4.8-5.8-7.1c-0.1-0.1-0.1-0.3,0-0.4l0.4-0.4
			c0.1-0.1,0.3-0.1,0.4,0c0,0,0,0,0,0c1,1.2,2.1,2.1,3.5,1c2.5-1.9,4.9-3.9,7.3-5.8c2-1.6,4.1-3.9,1.8-6.1c-1.1-1.1-2.7-1.6-4.7-1.6
			c-0.1,0-0.3,0-0.4,0.1c-2.8,2.2-5.6,4.4-8.3,6.7c-1.5,1.2-2.2,2.7-0.3,4.1c0.2,0.1,0.2,0.3,0,0.4l-0.4,0.5c-0.2,0.2-0.3,0.2-0.5,0
			l-6.1-7.5c-0.1-0.1-0.1-0.3,0-0.4c0.2-0.3,0.5-0.4,0.8-0.3c1.3,0.3,1.1,2.4,3.6,0.6c3.3-2.5,6.5-5.1,9.6-7.8c1.1-1,1-2.4-0.5-2.9
			c-0.2-0.1-0.3-0.2-0.2-0.4c0,0,0,0,0,0c0.2-0.5,0.6-0.7,1.1-0.4c2.1,0.9,4.1,2.1,5.9,3.5c0.1,0.1,0.1,0.2,0,0.3c0,0,0,0,0,0
			l-2.6,2.1C381.8,112.7,381.9,112.8,382.2,112.8z"/>
		<path class="st1" d="M83.8,146.1c-3.3,4.2-9.8,4.6-14.5,1c0,0,0,0,0,0c-4.7-3.7-5.7-10.1-2.4-14.3s9.8-4.6,14.5-1c0,0,0,0,0,0
			C86.1,135.4,87.2,141.8,83.8,146.1z M83.7,141.8c0.9-4.9-7.8-8.4-11.3-8.8c-5-0.5-7.3,4.4-3.8,7.9C71.7,144,82.4,149.4,83.7,141.8
			z"/>
		<path class="st1" d="M385.9,148.2c-0.3,0.1-0.6-0.1-0.6-0.4c-0.1-0.2,0.1-0.5,0.3-0.6l8.4-4.3c0.2-0.1,0.4-0.1,0.6,0
			c0.3,0.2,0.4,0.4,0.3,0.7c0,0.2-0.2,0.3-0.4,0.5c-1.8,1.2-3,2.6-3.6,4.2c-3.1,8.9,9,15.2,9.9,5.1c0.3-2.9,0.4-5.8,0.6-8.7
			c0.5-12.3,15.3-11.3,16.5-0.1c0.1,0.9,0.3,1.8,0.5,2.8c0.1,0.4,0.5,0.7,0.9,0.7l1.2,0c0.3,0,0.5,0.3,0.5,0.6
			c0,0.2-0.1,0.4-0.3,0.5l-8.7,4.4c-0.2,0.1-0.3,0.1-0.5,0c-0.2-0.2-0.3-0.4-0.3-0.6c0-0.2,0.2-0.3,0.4-0.5
			c3.5-2.7,5.2-5.9,3.5-10.3c-1-2.4-3.8-4.1-6.3-2.8c-2.3,1.2-2.5,5.1-2.5,7.5c-0.1,4.4-0.3,7.4-0.7,9.1c-0.8,3.5-4.5,6.2-8.1,6
			c-6.8-0.5-8.7-7.1-9.6-12.6C387.7,148.3,387,147.9,385.9,148.2z"/>
		<path class="st1" d="M64.5,170.7c-2.5-2.4-4.9-4.8-7.4-7.2c-0.6-0.6-1.4-1.1-2.2-1.5c-0.3-0.1-0.6,0-0.8,0.2l-0.7,1.1
			c-0.2,0.3-0.5,0.3-0.8,0.2c-0.2-0.2-0.3-0.4-0.2-0.7l2.4-5.7c0.1-0.3,0.4-0.4,0.7-0.3c0.2,0.1,0.3,0.3,0.3,0.5
			c0.1,2.4,0.8,2.9,2.6,4.6c5.1,4.9,10.1,9.8,15.1,14.8c2.2,2.1,3,4.6,2.6,7.3c-0.3,1.7-2.6,3.6-4.3,2.2c-3.3-2.7,3.5-4.3,0.5-7.8
			c-1.1-1.3-2.3-2.5-3.5-3.6c-0.1-0.1-0.3-0.2-0.4-0.1c-5.1,0.3-10.2,0.6-15.3,0.9c-1.5,0.1-4.5,0.3-5.1,1.9
			c-0.1,0.1-0.2,0.2-0.4,0.2l-0.7-0.2c-0.2-0.1-0.3-0.2-0.2-0.4l3.4-8.2c0.1-0.3,0.4-0.4,0.7-0.3c0.2,0.1,0.4,0.3,0.3,0.6l-0.2,1.3
			c-0.1,0.7,0.4,1.4,1.1,1.4c0.1,0,0.2,0,0.2,0l12.1-0.8C64.6,171,64.6,170.9,64.5,170.7z"/>
		<path class="st1" d="M409.1,181.5c-6.4,1.3-12.9-3.9-10.4-10.7c3-7.9,16.7-9.9,20.3-0.8c1.2,3,0.9,6.6-2.1,8.4
			c-1.6,0.9-3.2-1.2-2.9-2.7c0.4-2.3,3.7-1.8,3.4-4.4c-0.7-6.7-9.8-3.8-12.8-0.9c-3.1,3-3.1,7.3,1,9.4c1,0.5,2.4,0.7,3.5,0.8
			c0.3,0,0.5,0.3,0.4,0.6C409.5,181.3,409.3,181.5,409.1,181.5z"/>
		<path class="st1" d="M45.2,183.7l1.2-3.9c0.1-0.2,0.2-0.3,0.5-0.2L48,180c0.2,0.1,0.2,0.2,0.2,0.4l-1.2,3.8
			c-0.1,0.2,0,0.3,0.2,0.4c6.9,2.2,11.4,3.5,13.4,4c2.3,0.6,2.5-2.5,1.2-3.8c-0.1-0.1-0.2-0.3-0.1-0.5l0.2-0.5
			c0.1-0.1,0.2-0.2,0.4-0.2c0,0,0.1,0,0.1,0.1c2,2.4,4.2,5.3,1.1,8c-1.5,1.3-3.3,1-5.1,0.4c-4.1-1.3-8.1-2.5-12.1-3.7
			c-0.3-0.1-0.6,0.1-0.7,0.4l-0.7,2.2c-0.1,0.3-0.4,0.4-0.6,0.3c-0.2-0.1-0.3-0.2-0.3-0.4c-0.6-3.1-2.2-5.5-4.8-7.4
			c-0.5-0.3-0.6-0.7-0.5-1.1c0.1-0.2,0.3-0.4,0.5-0.3l5.6,1.7C45,184,45.2,183.9,45.2,183.7C45.2,183.7,45.2,183.7,45.2,183.7z"/>
		<circle class="st1" cx="431.8" cy="183.6" r="2.3"/>
		<path class="st1" d="M403.9,186.7c0.4,2.5,2.1,2.2,4,1.7c3.8-1,7.5-2.1,11.2-3.3c0.5-0.2,0.9-0.5,1.1-0.9c0.1-0.1,0.1-0.3,0-0.4
			l-0.6-1.4c-0.1-0.3,0-0.6,0.3-0.7c0.2-0.1,0.5,0,0.7,0.2l4.1,5.3c0.1,0.2,0.1,0.4-0.1,0.6c0,0-0.1,0.1-0.1,0.1
			c-5.5,1.6-11,3.1-16.5,4.8c-0.6,0.2-1.2,0.5-1.6,1c-0.1,0.1-0.2,0.3-0.1,0.5l0.2,1.7c0,0.3-0.2,0.6-0.5,0.6
			c-0.3,0-0.5-0.1-0.6-0.4l-2.6-9c-0.1-0.2,0-0.4,0.3-0.4l0.5-0.1C403.7,186.4,403.8,186.5,403.9,186.7
			C403.9,186.7,403.9,186.7,403.9,186.7z"/>
		<path class="st1" d="M34.3,195.8c8.2,1.6,16.5,3.2,24.7,4.8c0.6,0.1,1.1-0.1,1.6-0.7c0.1-0.1,0.1-0.2,0.1-0.3l0.5-1.7
			c0.1-0.3,0.4-0.4,0.7-0.2c0.3,0.2,0.4,0.5,0.4,0.9l-1.8,9.2c0,0.1-0.2,0.2-0.3,0.2c0,0-0.1,0-0.1,0l-0.5-0.3
			c-0.2-0.1-0.2-0.3-0.2-0.4c0.5-2.6-1.3-2.6-3.4-3c-7-1.5-14.2-2.8-21.5-4.1c-0.6-0.1-1.1,0.3-1.2,0.9c0,0,0,0.1,0,0.1l0,1.3
			c0,0.3-0.3,0.6-0.6,0.6c-0.3,0-0.5-0.2-0.6-0.5l-1.2-6.4c-0.1-0.6,0.1-0.8,0.7-0.7C32.3,195.4,33.2,195.6,34.3,195.8z"/>
		<path class="st1" d="M418.1,199.9c-3.5,0.9-6.6,2.6-7.3,6.5c-0.7,3.8,1.8,6.1,5.4,6.7c0.3,0.1,0.6,0.4,0.5,0.7
			c-0.1,0.3-0.3,0.5-0.6,0.5c-4,0-8.4-2.3-9.3-6.4c-2.4-10.4,13.7-14.9,19.4-7.6c4,5,1.3,11.7-4.9,13c-0.2,0-0.3,0-0.3-0.2l-2.5-13
			C418.4,200,418.3,199.9,418.1,199.9C418.1,199.9,418.1,199.9,418.1,199.9z M420,199.9l1.8,8c0,0.1,0.2,0.2,0.3,0.2c0,0,0,0,0,0
			l0,0c2.5-0.6,4.1-2.9,3.6-5.2l0-0.1c-0.5-2.3-2.9-3.8-5.4-3.2c0,0,0,0,0,0l0,0C420,199.7,420,199.8,420,199.9
			C420,199.9,420,199.9,420,199.9z"/>
		<path class="st1" d="M56.2,216.6c1.1,1.3,2.4,2.6,2.9,4.2c1.5,5-2.5,7.3-7,7c-3.6-0.3-7.2-0.5-10.7-0.8c-1.9-0.1-2.1,1.2-2.3,2.7
			c0,0.2-0.2,0.4-0.5,0.4c-0.5,0-0.7-0.2-0.7-0.5c0.2-2.2,0.4-4.4,0.6-6.5c0-0.2,0.2-0.4,0.4-0.4c0,0,0,0,0,0
			c4.3,0.4,8.4,0.8,12.4,1.1c1.5,0.1,3.4,0.3,4.5-0.9c1.4-1.5,0-6.7-2.2-6.9c-3.6-0.3-7.2-0.6-10.8-0.9c-0.7-0.1-1.3,0-2,0.3
			c-0.1,0.1-0.2,0.2-0.3,0.3l-0.6,2c-0.1,0.3-0.4,0.5-0.7,0.4c-0.3-0.1-0.5-0.3-0.4-0.6l0.5-6.4c0-0.2,0.1-0.3,0.3-0.3
			c4.5,0.4,9.1,0.8,13.6,1.1c1,0.1,1.9,0.1,3,0c0.5,0,0.9-0.5,0.9-1c0,0,0,0,0,0l-0.1-1.5c0-0.3,0.2-0.6,0.5-0.6
			c0.3,0,0.5,0.2,0.6,0.4l1.9,6.3c0.2,0.7,0,1-0.7,0.9l-3-0.3c-0.1,0-0.2,0.1-0.2,0.2C56.1,216.5,56.1,216.6,56.2,216.6z"/>
		<path class="st1" d="M426.3,223.5c1.4,1.2,2.3,2.2,2.8,2.8c3.9,5.9-1.5,9-6.6,9c-3.3,0-6.6,0.2-9.8,0.5c-1.7,0.2-1.6,1.5-1.7,2.7
			c0,0.1,0,0.1-0.1,0.2l-0.3,0.2c-0.2,0.1-0.5,0.1-0.6-0.2c0-0.1-0.1-0.1-0.1-0.2l-0.4-9.6c0-0.2,0.1-0.3,0.3-0.3h0.7
			c0.2,0,0.3,0.1,0.3,0.4c-0.3,3.1,1.6,2.7,4,2.7c4.5,0,8-0.2,10.6-0.6c1-0.2,1.7-0.9,2-2.2c0.4-1.8-1.2-3.8-2.7-5.3
			c-0.1-0.1-0.2-0.2-0.4-0.2c-3.9,0.2-7.7,0.4-11.6,0.4c-0.5,0-1.1,0.3-1.7,0.8c-0.1,0.1-0.2,0.2-0.2,0.4l-0.2,1.9
			c0,0.1-0.1,0.2-0.2,0.2l-0.5,0.1c-0.2,0-0.4-0.1-0.4-0.3c0-2.9,0.1-6.2-0.3-9.1c-0.1-0.4,0-0.7,0.3-0.9c0.2-0.2,0.6-0.2,0.8,0
			c0.1,0.1,0.2,0.3,0.1,0.5c-0.2,1.8,1.2,2.3,2.8,2.3c3.9,0,7.9-0.2,11.8-0.4c1.2-0.1,2.3-0.6,1.7-2c-0.1-0.3-0.2-0.5-0.1-0.7
			c0.1-0.3,0.3-0.5,0.7-0.5c0.2,0,0.4,0.1,0.5,0.3l2.6,5.9c0.3,0.6,0.1,0.9-0.6,0.9l-3.3,0.1C426.2,223.3,426.2,223.4,426.3,223.5z"
			/>
		<path class="st1" d="M50.5,234c-0.2-0.1-0.3-0.3-0.2-0.5c0,0,0,0,0,0l0.1-0.2c0.1-0.2,0.2-0.2,0.4-0.2c7.4,1.1,11.9,9.4,5,14.8
			c-6.1,4.7-16.4,2.3-17.9-5.9c-0.3-1.8-0.2-3.4,0.4-4.7c0.6-1.5,3.6-4.7,5.4-3.2c2,1.6,0.7,4.1-1.6,4.4c-2.5,0.3-3,2.6-2.1,4.7
			c2.8,6.2,18,3.1,15.1-5C54.3,235.9,52.4,234.8,50.5,234z"/>
		<path class="st1" d="M416.3,257.7c-6.2-0.9-10.1-8.4-5.8-13.4c4.5-5.3,14-4.4,17.9,1.2c1.7,2.4,2.1,6.6,0.4,9.3
			c-0.9,1.5-3.5,4.2-5.4,2.5c-1.3-1.1-0.8-3,0.5-4c0.1-0.1,0.3-0.2,0.4-0.2c1.7-0.1,3.2-0.1,3.7-2c1.6-6.6-8-7.1-11.9-5.4
			c-5.8,2.5-4.6,8.6,0.5,10.9c0.3,0.1,0.4,0.4,0.3,0.7C416.8,257.6,416.5,257.7,416.3,257.7z"/>
		<path class="st1" d="M57.4,258.9c1.4,1.6,3.5,3.4,3.6,5.7c0.2,4-4.2,6.7-7.6,4.8c-2.8-1.5-5.3-6.3-6.7-9.3
			c-0.1-0.2-0.2-0.3-0.4-0.2c-3.1,0-5.8,1.2-4.8,4.9c0.7,2.8,3.5,0.9,5,1.8c2.6,1.7-0.3,4.7-2.5,3.6c-2.5-1.2-3.9-3.2-4.3-6.1
			c-0.4-3.4,0-7.4,4.2-7.9c4-0.5,8-0.9,12.1-1.4c0.6-0.1,0.9-0.4,0.8-0.9c-0.1-0.8-1.3-1.5-1.8-2c-0.2-0.1-0.2-0.3,0-0.3
			c2-0.8,5.1,2.7,5.1,4.5c0,1.8-1.1,1.9-2.5,2.4C57.3,258.6,57.2,258.7,57.4,258.9z M54.2,266c1.7,0.2,2.9-0.6,3.7-2.5
			c0.1-0.1,0.1-0.3,0-0.4c-0.3-1.6-1.1-3-2.4-4.1c-0.1-0.1-0.3-0.1-0.4-0.1l-6.6,0.7c-0.1,0-0.1,0.1-0.1,0.2c0,0,0,0,0,0
			C49.4,262.4,51.3,265.6,54.2,266z"/>
		<path class="st1" d="M419.4,265.8c-3.5-0.4-7.4,0.2-9.2,3.5c-1.7,3.1-0.6,6.5,2.6,8c0.2,0.1,0.3,0.3,0.2,0.4
			c-0.1,0.4-0.3,0.6-0.6,0.6c-0.2,0-0.4,0-0.7-0.2c-3.2-1.7-6.1-4.7-5.8-8.5c0.8-11.1,18.7-9.9,21-0.6c1.5,6.1-3,11.1-9.2,10.2
			c-0.2,0-0.3-0.2-0.3-0.4l2.2-12.9C419.6,265.9,419.6,265.8,419.4,265.8z M421.2,266.5l-1.3,8.2c0,0.1,0,0.1,0.1,0.2l0.2,0
			c2.4,0.4,4.7-1.2,5.1-3.5l0,0c0.4-2.3-1.3-4.6-3.7-5c0,0,0,0,0,0l-0.2,0C421.3,266.4,421.2,266.4,421.2,266.5z"/>
		<path class="st1" d="M49,289.9c-0.3-1.5-0.8-3.3-1.5-5.6c-0.7-2.2-2.7-1.8-4.3-1.7c-0.3,0-0.6-0.2-0.6-0.6c0-0.3,0.2-0.5,0.4-0.6
			l9.3-2.5c0.2-0.1,0.5,0.1,0.5,0.3c0,0,0,0,0,0l0.1,0.4c0,0.2-0.1,0.3-0.2,0.4c-1.6,0.4-3.3,1.4-3,3.4c0.4,2,0.9,4,1.5,5.9
			c0.1,0.2,0.2,0.2,0.3,0.2c3.1-0.8,6.2-1.6,9.2-2.4c2.5-0.6,3.3-2.2,2.3-4.7c-0.1-0.3,0-0.6,0.3-0.7c0,0,0.1,0,0.1,0
			c0.4-0.1,0.7,0.2,0.8,0.7c1,3.9,2,7.8,3.1,11.6c0.1,0.2,0,0.3-0.2,0.4l-0.5,0.1c-0.2,0-0.3-0.1-0.4-0.3c-0.2-1-0.7-2-1.4-2.8
			c-0.1-0.1-0.3-0.2-0.4-0.2c-1-0.1-2.1,0.1-3.2,0.4c-8.4,2.2-15.2,4-20.4,5.5c-2,0.6-1.5,3-1.3,4.6c0,0.2-0.1,0.3-0.3,0.3h-0.4
			c-0.1,0-0.2-0.1-0.3-0.2l-5.7-21c0-0.2,0-0.3,0.2-0.3l5.9-1.8c0.3-0.1,0.6,0.1,0.7,0.4c0.1,0.2,0,0.5-0.2,0.6
			c-3,1.6-3.6,3.7-2.8,7c0.5,2.1,1,4.1,1.6,6.1c0.1,0.2,0.2,0.3,0.4,0.2l10.1-2.7C49,290.3,49,290.1,49,289.9z"/>
		<path class="st1" d="M405.3,294.6c-5.8-2.3-4.2-8.5-1.7-12.6c0.1-0.2,0.1-0.3,0.1-0.5l-0.3-1.3c0-0.1,0.1-0.3,0.2-0.3
			c0,0,0.1,0,0.1,0c2.2,0.6,4.4,1.2,6.6,1.8c0.2,0.1,0.4,0.2,0.5,0.3c0.1,0.2,0,0.5-0.2,0.6c-0.1,0-0.1,0-0.2,0.1
			c-3,0.3-5.6,0.6-7,3.5c-1.9,4,2.1,6.5,5.1,3.5c1.8-1.8,5.2-6,7.9-6.1c3.9-0.2,7,3.4,6.1,7.2c-0.3,1.4-1.3,3-2.1,4.4
			c-0.1,0.2-0.1,0.4,0.1,0.6c0.4,0.3,0.5,0.7,0.4,1.2c0,0.2-0.2,0.3-0.4,0.2l-6.3-1.7c-0.3-0.1-0.5-0.4-0.4-0.6
			c0.1-0.2,0.3-0.4,0.5-0.4c1.9-0.1,4.3-0.2,5.5-1.8c1.3-1.7,1.8-5.7-1.5-5.7c-1,0-1.9,0.4-2.6,1.2
			C413,291.5,409.7,296.4,405.3,294.6z"/>
	</g>
	<g>
		<g>
			<path class="st0" d="M271.3,176.7c6.9-8.8,0.1-20.8-11.1-18.8c-4,1.1-6.7,3.3-8.1,6.8C247.3,177,262.4,185.9,271.3,176.7z"/>
			<path class="st0" d="M143.4,303.6c0.1,0.1,0.3,0.2,0.4,0.1l15.2-10.1c-0.2-0.4-0.3-0.5-0.2-0.3l-0.1-5c0-0.2,0.1-0.3,0.3-0.3
				l7.2,0c0.2,0,0.4-0.1,0.5-0.2l11.2-9.4c0.1-0.1,0.2-0.3,0.2-0.4l0-25.5c0-0.3-0.2-0.5-0.5-0.5h-33.9c-0.2,0-0.3,0.1-0.3,0.3l0,51
				C143.4,303.5,143.4,303.6,143.4,303.6z M155.3,263.6c0-0.2,0.2-0.4,0.4-0.4h11.1c0.2,0,0.4,0.2,0.4,0.4v11c0,0.2-0.2,0.4-0.4,0.4
				h-11.1c-0.2,0-0.4-0.2-0.4-0.4V263.6z"/>
			<path class="st0" d="M284.9,322.3c0.1-3.5-0.1-7.7,0-10.6c0.1-19.8,0.1-39.5,0.1-59.2c0-0.2-0.1-0.3-0.3-0.3l-32.1,0
				c-0.2,0-0.3,0.1-0.3,0.3l-0.4,61.6c0,0.2-0.1,0.3-0.3,0.3l-2.9,0h-6.2c-0.5,0-0.8-0.3-0.8-0.8l0.2-40.2c0-0.1-0.1-0.2-0.2-0.2
				l-32.4-0.1c-0.4,0-0.6,0.2-0.6,0.6l0,31.7c0,0.2,0.1,0.2,0.2,0.2h21c0.2,0,0.4,0.1,0.4,0.4l-0.2,7.6c0,0.2-0.1,0.3-0.3,0.3h-30.4
				c-0.1,0-0.3-0.1-0.3-0.3l0.1-42.2c0-0.1,0-0.1-0.1-0.1c0,0-0.1,0-0.1-0.1c-4.5,3.7-9.1,7.3-13.9,10.7c-0.1,0.1-0.2,0.2-0.2,0.4
				v30.6c0,0.1-0.1,0.2-0.2,0.2l-6.4,0.2c-0.2,0-0.3-0.1-0.3-0.3l0-17.3c0-0.1-0.1-0.3-0.2-0.3h-10.9c0,0,0,0,0,0
				c-0.3,0-0.6,0.3-0.6,0.6l0,17.2c0,0.2-0.1,0.3-0.3,0.3l-7.1,0c-0.2,0-0.3-0.1-0.3-0.3l0-15.9c0,0,0-0.1,0-0.1
				c0-0.1-0.2-0.1-0.2-0.1c-3.5,1.6-7.1,3.2-10.7,4.6c-1.4,0.6-2.5,1.6-3.8,2.4c-0.4,0.2-0.6,0.6-0.6,1.1l0,12.1l0,5.1
				c0,0.1,0,0.2-0.1,0.2c-0.1,0.1-0.1,0.2-0.1,0.4c0,0.2,0.1,0.3,0.2,0.3c4.2,1.5,8.4,2.5,12.8,3.2c0.5-0.4,1.4-0.5,2.6-0.3
				c28.5,0,57,0,85.4,0c4.1,0,8.9,0.2,13.4,0.2l4.8-0.4c0.2,0,0.2-0.1,0.2-0.3l-0.1-5.6l0.1-55.3c0-0.2,0.1-0.3,0.3-0.3l11.3,0
				c0.2,0,0.4,0.1,0.4,0.4l0,59.4c0,0.2,0.1,0.3,0.3,0.2l10.5-1.7c0-0.2,0-0.3,0-0.4C285,322.4,284.9,322.3,284.9,322.3z
				 M220.3,295.4C220.3,295.4,220.3,295.4,220.3,295.4c-0.2,0-0.3-0.1-0.3-0.3l0-11.1v0c0-0.2,0.1-0.3,0.3-0.3l11,0c0,0,0,0,0,0
				c0.2,0,0.3,0.1,0.3,0.3l0,11.1c0,0.2-0.1,0.3-0.3,0.3L220.3,295.4z"/>
			<path class="st0" d="M285.2,322.4c0,0,0.1,0,0.1,0C285.3,322.3,285.3,322.3,285.2,322.4z"/>
			<path class="st0" d="M199,256.6c0.1-0.2,0.2-0.3,0.1-0.3l-0.1-3.9c0-0.2-0.1-0.3-0.3-0.3h-13.7c-0.2,0-0.3,0.1-0.3,0.3l0,19.6
				C189.9,267.1,194.6,262,199,256.6z"/>
			<path class="st0" d="M209.4,262.3v1.1c0,0.3,0.2,0.5,0.5,0.5l9.8,0c0.2,0,0.4-0.2,0.4-0.4l0.1-9.8c0-0.3-0.2-0.5-0.5-0.6
				l-2.1-0.2c-0.1,0-0.1,0-0.3-0.1l-8.2,9C209.3,261.8,209.4,262,209.4,262.3z"/>
			<path class="st0" d="M230.4,263.7l10.1,0c0.2,0,0.3-0.1,0.3-0.3l0-10.1c0-0.2-0.1-0.3-0.3-0.3l-10.1,0c-0.2,0-0.3,0.1-0.3,0.3
				l0,10.1C230.1,263.6,230.2,263.7,230.4,263.7z"/>
			<path class="st0" d="M326.2,309.1c-0.2-0.7-0.3-1.4-0.3-2.1c0-17.6,0.1-35.2,0.2-52.8c0-0.2-0.2-0.4-0.4-0.4l-31.5-0.2
				c0,0,0,0,0,0c-0.2,0-0.4,0.2-0.4,0.4l0,29.4c0,0.2,0.1,0.3,0.3,0.3l20.9,0c0.3,0,0.5,0.2,0.5,0.5c0.1,10.2,0,20.4-0.1,30.6
				c0,0,0,0,0,0c0,0,0.1,0.1,0.1,0.1c3.9-1.4,7.5-3.3,10.9-5.5C326.3,309,326.3,308.9,326.2,309.1z M315.7,274.8
				c0,0.1-0.1,0.1-0.1,0.1l-11.5,0c-0.1,0-0.1-0.1-0.1-0.1l0-11.4c0-0.1,0.1-0.1,0.1-0.1l11.5,0c0.1,0,0.1,0.1,0.1,0.1L315.7,274.8z
				"/>
			<path class="st0" d="M305,315.9c-0.2-7.1-0.2-14.3-0.2-21.5c0-0.2-0.2-0.3-0.3-0.3l-10.6,0c-0.4,0-0.6,0.2-0.6,0.6
				c0.2,8.7,0.3,17.2,0.1,25.8c0,0.1-0.2,0.2-0.5,0.1l0.2,0.7c6-1.2,12.1-2.8,18.1-4.8l-5.9-0.3C305.1,316.2,305,316.1,305,315.9z"
				/>
		</g>
		<g>
			<path class="st1" d="M327.4,281c0,0-0.1,0-0.1,0c-0.1,0-0.1,0.1,0,0.2c8.9,9,11.8,20.3-0.9,28.2c-3.4,2.2-7,4.1-10.9,5.5
				c0,0-0.1-0.1-0.1-0.1c0,0,0,0,0,0c0.1-10.2,0.1-20.4,0.1-30.6c0-0.3-0.2-0.5-0.5-0.5l-20.9,0c-0.2,0-0.3-0.1-0.3-0.3l0-29.4
				c0,0,0,0,0,0c0-0.2,0.2-0.4,0.4-0.4l31.5,0.2c0.2,0,0.4,0.2,0.4,0.4c-0.1,17.5-0.2,35.1-0.2,52.8c0,0.7,0.1,1.4,0.3,2.1
				c0.3-0.3,0.4-0.7,0.4-1.2c-0.2-2.8,0.1-6,0-8.7c-0.2-7.5,0-15.2-0.1-22.5c-0.1-6.7-0.1-13.5,0-20.4l0-2.6c0-0.2-0.1-0.3-0.3-0.3
				l-22.8,0l-10,0c-0.2,0-0.2,0.1-0.2,0.3l0,7.4c0,0,0,0.1,0,0.1c-0.1,0.1-0.2,0.1-0.3,0.1l-7.5-4.3l-0.1-4.6c0-0.4-0.2-0.6-0.6-0.6
				c-2.2,0.1-6.9,0.5-8.8-0.6c-5-2.9-9.9-5.7-14.9-8.6c-0.1-0.1-0.2-0.2-0.1-0.4c1.3-4.2,2.7-8.4,4.2-12.5
				c12.6-35.8,35.6-67.9,68-88.1l5.4-2.9c1.1-0.6,1-0.7-0.1-0.2c0,0-0.4,0.2-1,0.5c-34,14.4-67.6,39.4-81.4,75
				c-1.5,3.8-2.7,8.1-3.9,12.2l-2.5,9.6c0,0.2-0.1,0.2-0.3,0.1l-15.5-8.8c-0.2-0.1-0.2-0.2-0.1-0.4c9-21.9,11.6-46.2,10.9-69.7
				c0-0.1,0.1-0.2,0.2-0.1l4,1.6l4.2,1.8c0.1,0,0.1,0,0.2,0c0.1-0.1,0.1-0.2,0-0.2c-2.6-2.4-5.4-4.5-8.4-6.4
				c-0.1-0.1-0.2-0.2-0.2-0.4c-0.4-11.4-1.6-23.1-3.5-35.4l-1.1-6.7c-0.2-1-0.3-1-0.3,0c0,2.6,0.1,5.4,0.2,8.3
				c0.1,10.4-0.3,20.7-1.4,30.8c0,0.2-0.1,0.2-0.2,0c-0.2-0.3-0.4-0.5-0.5-0.5c-18.6-8.3-38.5-10.3-58.1-4.9
				c-7.8,2.2-19.8,6.5-22.9,14.8c-0.6,1.7-0.9,3.8-0.7,6.2c0.8,13.5,8.6,24.9,18.3,33.9c13,12.1,27.3,21.1,43,29.3c0,0,0,0,0,0
				c0.1,0.1,0.2,0.2,0.1,0.3c-5,9.4-10.9,18.3-17.8,26.7c-0.2-1.3-0.2-2.6,0-3.9c0-0.1-0.1-0.3-0.3-0.4l-14.7-0.2c0,0,0,0,0,0
				c-0.2,0-0.4,0.2-0.4,0.4v8.4l0,11.5c0,0.1,0,0.2,0.1,0.2l0.2,0.2l-5.6,5.3c-0.1,0.1-0.2,0.1-0.2-0.1v-21.4l0.1-4.1c0,0,0,0,0,0
				c0-0.2-0.1-0.3-0.3-0.3l-35.2,0.1c-0.2,0-0.3,0.1-0.3,0.3l0,52c0,0.2-0.1,0.3-0.2,0.4c-6.2,3.4-12,7.4-17.5,11.8
				c-4.9,4-7.1,10.3-3.5,15.8c4.1,6.5,16,9.7,23.2,11c12.4,2.3,25.5,3.3,37.9,3.4c22.4,0.3,45-0.6,67.7-2.9c0.2,0,0.3,0.1,0.3,0.2
				l3.6,14.8c0,0.1,0.1,0.1,0.1,0.1c0.1,0,0.2,0,0.2-0.1c1.4-5.1,0.9-10,0.6-15.2c0-0.2,0.1-0.3,0.2-0.3c17.2-1.5,34-4.9,50.5-10.1
				l15.8-5.6c1.5,0.4,3,0.4,4.4,0.3c0.2,0,0.3-0.1,0.3-0.3c0.2-0.7,0.2-1.3-0.1-1.9c0-0.1-0.1-0.1-0.1-0.2l8-4.3
				c4.5-2.5,8.4-5.6,11.5-9.2C356.9,297.8,337.7,285.9,327.4,281z M258.6,249.9C258.6,249.9,258.7,249.9,258.6,249.9
				c0-0.1,0.1-0.1,0.2-0.1l3.2,1.4c0,0,0.1,0.1,0.1,0.1c0,0.1-0.1,0.2-0.1,0.2l-3.5,0.2c0,0,0,0,0,0c-0.1,0-0.1-0.1-0.1-0.2
				L258.6,249.9z M177.5,177.8c-3.5-6.1-7.7-14.4-0.6-19.8c3.3-2.5,7.4-4,11.8-5.4c16.3-5.2,32.9-3.1,49,1.9c0.1,0,0.2,0.1,0.2,0.3
				c-2.4,22.2-7.5,43.9-15.9,64.6c-0.1,0.2-0.2,0.3-0.4,0.1C204.6,208.5,187.9,195.7,177.5,177.8z M209.1,261.7l8.2-9
				c4.4-5.5,8.4-11.2,12-17.3c0.1-0.1,0.2-0.2,0.3-0.1l17.8,8.8c0.2,0.1,0.2,0.2,0.2,0.4c-0.5,2.2-1,5.2-1.8,9.1
				c-1.4,7.8-2.3,15.2-2.7,22.4l-0.1,3.2c-0.4,11.4,0.3,22.8,1.9,34.3c0,0,0,0,0,0c0,0.2-0.1,0.3-0.3,0.3l-1.8,0
				c-0.2,0-0.4-0.1-0.4-0.4l0-34l-0.1-6.6c0-0.2-0.1-0.3-0.3-0.3l-33.2,0c-0.2,0-0.4,0.1-0.4,0.4l-0.1,32.3c0,0.5,0.2,0.7,0.7,0.7
				l20.6,0c0,0,0,0,0,0c0.2,0,0.3,0.1,0.3,0.3l-0.3,6.7c0,0.2-0.1,0.2-0.2,0.2l-29.1,0.1c-0.4,0.1-0.6,0-0.6-0.2
				c-0.3-14.1,0-28-0.2-42.2L209.1,261.7z M184.8,252.4c0-0.2,0.1-0.3,0.3-0.3h13.7c0.2,0,0.3,0.1,0.3,0.3l0.1,3.9
				c0.1,0,0,0.2-0.1,0.3c-4.3,5.3-9.1,10.5-14.2,15.4L184.8,252.4z M183.9,282.6c0.2-0.1,0.2-0.1,0.2,0.1l0,29.3
				c0,0.3-0.1,0.4-0.4,0.4l-5,0.2c-0.2,0-0.4-0.1-0.4-0.3l0-17c0-0.2-0.1-0.4-0.4-0.4l-11.9,0c-0.2,0-0.3,0.1-0.3,0.3v17.4
				c0,0.2-0.2,0.4-0.4,0.4h-6.2c-0.2,0-0.3-0.1-0.3-0.3l0-15.6c0-0.2,0.1-0.3,0.3-0.4l15.6-8.3l3.5,0.1c0.2,0,0.2-0.1,0.2-0.2l0-1.6
				c0.1,0,0.1-0.1-0.2-0.4L183.9,282.6z M143.7,252.1h33.9c0.3,0,0.5,0.2,0.5,0.5l0,25.5c0,0.2-0.1,0.3-0.2,0.4l-11.2,9.4
				c-0.1,0.1-0.3,0.2-0.5,0.2l-7.2,0c-0.2,0-0.3,0.1-0.3,0.3l0.1,5l0.1-4.4c0-0.3,0.3-0.5,0.6-0.5h6c0.1,0,0.1,0,0.1,0.1
				c0.1,0.1,0,0.2,0,0.2l-6.5,4.9l-15.2,10.1c0,0-0.1,0-0.2,0c-0.2,0-0.3-0.1-0.3-0.3l0-51C143.3,252.2,143.5,252.1,143.7,252.1z
				 M143,322.8c0,0.1-0.2,0.2-0.3,0.1c-2.7-0.8-6.9-2.9-7.5-6c-0.9-4.1,4.3-9.7,7.4-11.9c0,0,0.1,0,0.1,0c0.1,0,0.2,0.1,0.2,0.2
				L143,322.8C143,322.8,143,322.8,143,322.8z M274,324.6l-10.8,1.4c0,0,0,0,0,0c-0.1,0-0.2-0.1-0.2-0.2l0-60.6
				c0-0.2,0.1-0.3,0.3-0.3h10.5c0.2,0,0.3,0.1,0.3,0.3l0,6l0,48.3l0.1,4.7C274.3,324.4,274.2,324.5,274,324.6z M312.5,315.9
				c-0.2-0.3-0.4-0.4-0.7-0.4c-2.1,0.1-4.2,0.2-6.4,0.1l-0.1-0.2c-0.1-0.1-0.1-0.3-0.1-0.4l0.1-16.6l0-4.6c0-0.2-0.1-0.2-0.2-0.2
				l-12,0.1c-0.1,0-0.2,0.1-0.2,0.2l0,21.3l0,5.4c0.3,0,0.5,0,0.5-0.1c0.2-8.5,0.1-17.1-0.1-25.8c0-0.4,0.2-0.6,0.6-0.6l10.6,0
				c0.2,0,0.3,0.2,0.3,0.3c-0.1,7.2,0,14.3,0.2,21.5c0,0.2,0.1,0.3,0.3,0.3l5.9,0.3c-6,2-12.1,3.6-18.1,4.8l-7.8,1.5l-10.5,1.7
				c-0.2,0-0.3-0.1-0.3-0.2l0-59.4c0-0.2-0.1-0.4-0.4-0.4l-11.3,0c-0.2,0-0.3,0.1-0.3,0.3l-0.1,55.3l0.1,5.6c0,0.2-0.1,0.2-0.2,0.3
				l-4.8,0.4c-4.5,0-9.3-0.2-13.4-0.2c-28.5,0-57,0-85.4,0c-0.2,0.1-0.4,0.1-0.7,0.1c-0.1,0-0.1,0,0,0.1c0,0,0.1,0.1,0.2,0.1
				c5.2,0.1,7.8,0.2,8,0.2c2.6-0.1,5.2-0.1,7.8-0.1c23.8,0,47.6-0.3,71.4,0.1c2.2,0,4.4,0.2,6.6,0.4c-29.5,2.9-60.1,4.2-89.6,0.5
				c-2.4-0.3-4.4-0.6-6.1-1.1c-4.3-0.7-8.6-1.7-12.8-3.2c-0.2-0.1-0.2-0.2-0.2-0.3c0-0.1,0-0.3,0.1-0.4c0-0.1,0.1-0.2,0.1-0.2l0-5.1
				l0-12.1c0-0.5,0.2-0.8,0.6-1.1c1.2-0.8,2.3-1.8,3.8-2.4c3.6-1.5,7.2-3,10.7-4.6c0,0,0.1,0,0.1,0c0.1,0,0.2,0.1,0.2,0.2l0,15.9
				c0,0.2,0.1,0.3,0.3,0.3l7.1,0c0.2,0,0.3-0.1,0.3-0.3l0-17.2c0,0,0,0,0,0c0-0.3,0.3-0.6,0.6-0.6h10.9c0.1,0,0.2,0.1,0.2,0.3
				l0,17.3c0,0.2,0.1,0.3,0.3,0.3l6.4-0.2c0.1,0,0.2-0.1,0.2-0.2v-30.6c0-0.1,0.1-0.3,0.2-0.4c4.8-3.4,9.4-6.9,13.9-10.7
				c0,0,0.1,0,0.1,0.1c0,0,0.1,0.1,0.1,0.1l-0.1,42.2c0,0.1,0.1,0.3,0.3,0.3h30.4c0.2,0,0.3-0.1,0.3-0.3l0.2-7.6
				c0-0.3-0.1-0.4-0.4-0.4h-21c-0.2,0-0.2-0.1-0.2-0.2l0-31.7c0-0.4,0.2-0.6,0.6-0.6l32.4,0.1c0.1,0,0.2,0.1,0.2,0.2l-0.2,40.2
				c0,0.5,0.3,0.8,0.8,0.8h6.2l2.9,0c0.2,0,0.3-0.1,0.3-0.3l0.4-61.6c0-0.2,0.1-0.3,0.3-0.3l32.1,0c0.2,0,0.3,0.1,0.3,0.3
				c0,19.7,0,39.4-0.1,59.2c0,2.9,0.2,7.1,0,10.6c0,0.1,0.1,0.1,0.4,0.1v-60.5c2.3,1.5,4.8,2.8,7.5,3.8c0.4,0.2,0.5,0.6,0.4,1.3
				l0,16.9c0,0.2,0.1,0.3,0.3,0.3l21,0.1c0.2,0,0.4,0.2,0.4,0.4l0,28.8l0.2,1.6L312.5,315.9z"/>
			<path class="st1" d="M229.7,264.3l11.5,0c0.1,0,0.2-0.1,0.2-0.2l0-11.4c0-0.1-0.1-0.2-0.2-0.2l-11.5,0c-0.1,0-0.2,0.1-0.2,0.2
				l0,11.4C229.6,264.2,229.7,264.3,229.7,264.3z M230.4,253l10.1,0c0,0,0,0,0,0c0.2,0,0.3,0.1,0.3,0.3l0,10.1c0,0,0,0,0,0
				c0,0.2-0.1,0.3-0.3,0.3l-10.1,0c-0.2,0-0.3-0.1-0.3-0.3l0-10.1C230.1,253.2,230.2,253,230.4,253z"/>
			<path class="st1" d="M220.4,264.3c0.1,0,0.2-0.1,0.2-0.2l0-11.1c0-0.1-0.1-0.2-0.2-0.2l-3,0l2.1,0.2c0.3,0,0.5,0.3,0.5,0.6
				l-0.1,9.8c0,0.2-0.2,0.4-0.4,0.4l-9.8,0c-0.3,0-0.5-0.1-0.5-0.5v-1.1c-0.2-0.1-0.3,0-0.4,0.1c0,0.1-0.1,0.2-0.1,0.4
				c0,0.5,0,0.9,0,1.4L220.4,264.3z"/>
			<path class="st1" d="M304.1,263.2c-0.1,0-0.1,0.1-0.1,0.1l0,11.4c0,0.1,0.1,0.1,0.1,0.1l11.5,0c0.1,0,0.1-0.1,0.1-0.1l0-11.4
				c0-0.1-0.1-0.1-0.1-0.1L304.1,263.2z M312.3,274.4l-7.6,0.1c-0.2,0-0.3-0.1-0.3-0.3l0-3.2l5.8,2.8l2.1,0.5
				C312.4,274.3,312.4,274.3,312.3,274.4C312.4,274.4,312.4,274.4,312.3,274.4z M315.1,274.1l-4.2-2.5l-6.3-3.5l0-4.1
				c0-0.2,0.1-0.3,0.3-0.3l10.4-0.1c0.1,0,0.2,0.1,0.2,0.2l0,10.1C315.3,274.1,315.2,274.2,315.1,274.1z"/>
			<path class="st1" d="M155.7,274.9h11.1c0.2,0,0.4-0.2,0.4-0.4v-11c0-0.2-0.2-0.4-0.4-0.4h-11.1c-0.2,0-0.4,0.2-0.4,0.4v11
				C155.3,274.8,155.5,274.9,155.7,274.9z M155.8,263.9c0-0.1,0.1-0.2,0.2-0.2h10.4c0.1,0,0.2,0.1,0.2,0.2v10.4
				c0,0.1-0.1,0.2-0.2,0.2h-10.4c-0.1,0-0.2-0.1-0.2-0.2V263.9z"/>
			<path class="st1" d="M231.6,284c0-0.2-0.1-0.3-0.3-0.3l-11,0c-0.2,0-0.3,0.1-0.3,0.3l0,11.1c0,0,0,0,0,0c0,0.2,0.1,0.3,0.3,0.3
				l11,0c0,0,0,0,0,0c0.2,0,0.3-0.1,0.3-0.3L231.6,284C231.6,284,231.6,284,231.6,284z M231,295l-10.5,0c-0.1,0-0.2-0.1-0.2-0.2
				l0-10.5c0-0.1,0.1-0.2,0.2-0.2l10.5,0c0.1,0,0.2,0.1,0.2,0.2l0,10.5C231.2,294.9,231.1,295,231,295z"/>
		</g>
	</g>
</g>
<g id="BUSINESS">
</g>
</svg>
