<?xml version="1.0" encoding="utf-8"?>
<!-- Generator: Adobe Illustrator 27.9.0, SVG Export Plug-In . SVG Version: 6.00 Build 0)  -->
<svg version="1.1" id="Layer_1" xmlns="http://www.w3.org/2000/svg" xmlns:xlink="http://www.w3.org/1999/xlink" x="0px" y="0px"
	 viewBox="0 0 469 469" style="enable-background:new 0 0 469 469;" xml:space="preserve">
<style type="text/css">
	.st0{fill:#009872;}
	.st1{fill:#F9F9C3;}
	.st2{fill:#246665;}
	.st3{fill:#C99030;}
	.st4{fill:#C19338;}
</style>
<g>
	<path class="st0" d="M449.8,234.5c0,118.9-96.4,215.3-215.3,215.3l0,0c-118.9,0-215.3-96.4-215.3-215.3l0,0
		c0-118.9,96.4-215.3,215.3-215.3l0,0C353.4,19.2,449.8,115.6,449.8,234.5L449.8,234.5z"/>
	<path class="st1" d="M395.8,234.5c0,89.1-72.2,161.3-161.3,161.3l0,0c-89.1,0-161.3-72.2-161.3-161.3l0,0
		c0-89.1,72.2-161.3,161.3-161.3l0,0C323.6,73.2,395.8,145.4,395.8,234.5L395.8,234.5z"/>
	<path class="st2" d="M391.6,234.5c0,86.7-70.3,157.1-157.1,157.1l0,0c-86.7,0-157.1-70.3-157.1-157.1
		c0-86.7,70.3-157.1,157.1-157.1C321.3,77.4,391.6,147.8,391.6,234.5L391.6,234.5z"/>
	<path class="st0" d="M235.7,83.7c42.6,11.3,80.7,39.1,95.1,81.9c2.5,7.4,3.8,15.3,3.9,23.8c0.4,51.2,0.9,102.5,1.4,154.1
		c0,0.8-0.6,1.4-1.4,1.4l0,0c-8.8-0.1-17.3-0.1-25.5-0.1c-58.6-0.1-117.2-0.1-175.8,0.2c-0.3,0-0.5-0.2-0.5-0.5l0,0
		c-0.3-52.3,1.2-104.8,1.9-157.1c0.1-7.1,0.4-12.4,2.6-19.2c14.1-43.8,52.3-72,94.8-84.5C233.4,83.4,234.5,83.4,235.7,83.7z"/>
	<g>
		<path class="st1" d="M223.2,48.4c-0.8-4.7-1.9-9.2-3.3-13.7c-0.1-0.3-0.3-0.5-0.7-0.8l-1.3-1c-0.1-0.1-0.1-0.5,0.1-0.9l2.6-5.6
			c0.3-0.6,0.5-0.7,0.7-0.2l0.8,1.7c0.1,0.3,0.3,0.5,0.6,0.7l5.7,3.1c0.2,0.1,0.3,0.4,0.2,0.6l0,0l-2.9,4.4c-0.2,0.3-0.3,0.7-0.3,1
			c0.5,5.4,2.4,10,0.4,16.1c-0.1,0.3-0.4,0.5-0.7,0.5c-12.4,0.9-24.7,2.9-36.8,5.8c-0.6,0.1-1.3-0.4-1.8-1.3l-0.9-1.9
			c-0.1-0.2-0.5-0.3-1-0.2c-2.6,0.9-5.1,1.3-7.2,3.3c-2.2,2.2-3.7,4.5-6.7,5.7c-11.4,4.9-22.5,10.5-33.1,16.9
			c-0.8,0.5-1.7,0.5-2.3,0.2c-1.8-1-2.3-0.5-1.4,1.7c0.1,0.3,0.1,0.6-0.2,0.8c-10.1,7.1-19.5,15.1-28.1,23.9c-0.2,0.2-0.5,0.2-0.7,0
			c-5.6-4.4-11.1-8.8-16.7-13.2c-2.9-2.3-3.6-4.3-3-7.8c0-0.1,0.2-0.2,0.3-0.2c0,0,0.1,0,0.1,0.1l16.8,13.2c1,0.8,2,0.7,3-0.3
			c7.8-7.6,16.3-14.4,25.3-20.4c0.3-0.2,0.4-0.6,0.3-0.9l0,0c-1.7-2.4-2.1-5-1.2-7.9c0.2-0.8,0.5-0.8,1-0.1L134,77
			c0.3,0.5,0.9,0.6,1.4,0.4l0,0c10.8-6.9,22.3-12.6,34.4-17c1.9-0.7,3.4-2.1,4.9-3.4c0.5-0.5,0.4-0.7-0.3-0.7
			c-4.4,0-7.2-0.8-10.4,2.8c-0.1,0.2-0.3,0.2-0.4,0.1l0,0l-0.1-0.1c-0.1-0.1-0.1-0.2-0.1-0.3c1.7-9.1,5.3-9.5,14.4-8.2
			c1.8,0.2,5.2-0.1,10.5-1c0.3,0,0.5,0.1,0.5,0.4v0.1v3.5c0,0.3,0.3,0.5,0.6,0.5h0.1c10.8-2.8,21.8-4.4,33-5
			C222.9,48.9,223.2,48.7,223.2,48.4L223.2,48.4z"/>
		<path class="st1" d="M239.9,51.9c-0.9,2.3-1.4,2.2-1.7-0.2c-0.5-4.9-1.1-10.3-1.7-16.4c-0.4-3.4,1.4-5.8,3.5-8.2
			c0.4-0.5,0.7-0.4,0.7,0.2C241,35.3,242.8,44.2,239.9,51.9z"/>
		<path class="st1" d="M267.8,30.8c0.2,0.1,0.4,0.3,0.5,0.6c0.1,0.2,0,0.5-0.3,0.8l-2.6,1.9c-0.4,0.3-0.7,0.3-0.9,0.2l-2.1-1.7
			c-0.4-0.3-0.8-0.5-0.9-0.4l-2,1c-0.4,0.2-0.8,0.2-1,0.1l-2.4-2.1c-0.2-0.1-0.2-0.5,0.1-0.9c1.7-2.8,3.4-2.8,5.2-0.3
			c0.1,0.2,0.5,0.2,0.7,0l0,0c1.8-1.5,3.4-1.5,4.9,0.3C267.2,30.4,267.5,30.6,267.8,30.8z"/>
		<path class="st1" d="M124.9,65.1c0.3,0.1,0.4,0.5,0.4,0.9c-0.1,3.9-2.1,5.2-5.9,3.8c-0.3-0.1-0.5-0.4-0.5-0.6
			C118.6,64.6,120.6,63.2,124.9,65.1z"/>
		<path class="st1" d="M181.3,69.7c0.3,0.1,0.4,0.4,0.4,0.8c-0.6,4-2.8,4.9-6.5,2.8c-0.2-0.1-0.3-0.5-0.1-0.8l1.5-3
			c0.2-0.4,0.5-0.6,0.8-0.5L181.3,69.7z"/>
		<path class="st1" d="M386.7,123c-0.2-3.2-1.2-5.9-3.3-8.1c-0.8-0.9-0.7-1.4,0.4-1.4c6.3-0.1,7.8,0.6,8.7,7.2
			c0.7,4.9,1.8,9.6,3.4,14.3c0.1,0.3,0,0.6-0.2,0.7h-0.1l-5.1-0.1c-0.2,0-0.5-0.3-0.7-0.6c-1.1-2-2.3-3.9-3.6-5.7
			c-2.7-3.9-6.9-4.1-9.9-7.6c-6.9-8.1-14.2-15.8-22-23c-0.2-0.2-0.2-0.4-0.1-0.6c4.3-5.9,8.6-11.8,12.9-17.7c2-2.7,4-3.4,7.2-2.7
			c0.1,0,0.2,0.2,0.2,0.4c0,0,0,0.1-0.1,0.1L362,95.6c-0.5,0.7-0.3,1.6,0.3,2.3c7.1,6.6,13.6,13.8,19.5,21.5
			c1.4,1.8,2.9,3.1,4.4,3.8c0.1,0.1,0.3,0,0.4-0.1C386.7,123,386.7,123,386.7,123z"/>
		<path class="st1" d="M356.2,77.9c-5.8-2.7-11.2-2.2-16.1,1.7c-0.3,0.2-0.6,0.2-0.9,0.1c-1.6-0.9-3.9-2.4-6.9-4.4
			c-4.8-3.3-11.8-7-21-11c0,0,0,0-0.2-0.2c-0.1-0.2-0.1-0.4,0-0.5c8.3-7.3-5.3-16.1-11.2-7.6c-0.1,0-0.1,0.1-0.1,0.1
			c-0.1,0.2,0,0.5,0.2,0.6c2.1,0.8,3.6,2.2,4.6,4.2c0.2,0.4,0,0.5-0.6,0.3c-11-4.4-22.3-7.8-33.9-10.1c-0.4-0.1-0.7-0.4-0.7-0.7
			l-0.6-15.3c0-0.3-0.2-0.4-0.4-0.2c-1.8,1.4-2.9,3.1-3.3,5.2c-0.1,0.3-0.3,0.5-0.7,0.7l-6.6,2.9c-0.2,0.1-0.5,0.4-0.7,0.8l-3,6
			c-0.1,0-0.1,0.1-0.1,0.1c-0.2,0.5,0.1,1,0.5,1.1l7.2,2.4c0.5,0.2,0.9,0.2,1.1,0l2-2.5c0.6-0.7,0.9-1,0.9-0.9l0.6,3.8
			c0.2,0.9,0.5,1.6,0.8,1.7c3.3,1.4,7.2,2,10,2.7c8.4,2.1,16.7,4.7,24.9,7.8c0.4,0.2,0.8,0.2,0.9,0c1.6-2.3,2.4-2,2.4,0.9
			c0,0.4,0.3,0.7,0.6,0.8c10.2,4.5,19.9,9.7,29.3,15.7c0.3,0.2,0.7,0.2,1,0.1l3.7-1.6c0.3-0.1,0.6,0,0.8,0.2l5.5,8
			c0.2,0.3,0.5,0.4,0.8,0.4c7.3-1.3,8.3-6.3,9.6-12.6C356.7,78.3,356.5,78,356.2,77.9z M266,48.6L266,48.6c-1.8-0.2-3.5-0.6-5.1-1.3
			c-1.1-0.4-1-0.7,0.1-0.8c1.9-0.2,3.4-1.1,4.4-2.8c0.6-1,0.9-0.9,1,0.2l0.1,4.2C266.5,48.4,266.3,48.6,266,48.6z M350.2,83.4
			c0,0.3-0.2,0.5-0.5,0.5c-0.2,0-0.3-0.1-0.4-0.2l-2.4-3.4c-0.1-0.2-0.1-0.5,0.1-0.7c0.3-0.1,0.4-0.1,0.5-0.1l2.5,0.8
			c0.2,0.1,0.3,0.3,0.3,0.5L350.2,83.4z"/>
		<path class="st1" d="M86.9,127.9c1.2,0.5,2.4,0.3,3.4-0.5c3.9-3,6.3-6.9,7.2-11.8c0.3-1.5-0.3-2.5-1.6-2.8l-7.6-2.2
			c-0.5-0.1-0.9-0.3-1-0.3l-1.9-4.8c-0.1-0.2,0.1-0.4,0.4-0.4c0.1,0,0.2,0,0.2,0c7.3,0.5,16.8,6.3,15.5,14.7
			c-2.3,14.9-16.1,20.6-21.7,2.9c-0.7-2.1,1.1-1.6,1.5-0.2C82.4,125.1,84.2,126.9,86.9,127.9z"/>
		<path class="st1" d="M78,112.4c-3.3,2.1-4.9,1.1-4.6-2.9c0-0.3,0.1-0.5,0.2-0.6c3.6-2.3,5.3-1.5,5,2.4
			C78.6,111.8,78.4,112.2,78,112.4z"/>
		<path class="st1" d="M373.8,128.9c0.9,0,3.8,0.3,4.7,0.7c0.2,0.1,0.4,0.4,0.5,0.8l0.8,4.7c0,0.2-0.1,0.4-0.3,0.4h-0.1l-4.9-0.8
			c-0.3,0-0.5-0.3-0.5-0.6l-0.5-4.7C373.4,129.2,373.5,128.9,373.8,128.9L373.8,128.9z"/>
		<path class="st1" d="M430.9,223.4l-1.2-1.2c-0.2-0.2-0.5-0.4-0.9-0.3l-10.8,0.7c-1.4,0.1-1.8,0.8-1.1,2.1
			c1.4,2.9,7.9,1.6,10.6,1.4c1.7-0.1,2.9-0.7,3.5-1.7c0.8,2.6,1,5.3,0.6,8.1c-0.1,0.4-0.2,0.5-0.4,0.3l-1.2-1.1
			c-0.2-0.2-0.5-0.3-0.8-0.3l-11.5,0.6c-0.6,0-1,0.2-1.1,0.4l-0.9,1.6c-0.4,0.8-0.7,0.7-0.7-0.3l-0.3-6c0-0.3,0.2-0.6,0.5-0.8
			l0.5-0.3c0.2-0.1,0.2-0.5,0-0.8c0,0,0,0,0-0.1c-4.4-5.9,0-8.4,5.2-8.7c3-0.2,7.1,0.5,9.6-1.8c0.2-0.2,0.4-0.2,0.4,0.1
			C431.1,216.5,431.9,223.3,430.9,223.4z"/>
		<path class="st1" d="M39.9,225.2c-2,1.8-0.2,3.6,1.9,3.7c5.8,0.3,11.6,0.4,17.4,0.5c0.4,0,0.8-0.1,1-0.3c0.5-0.7,0.8-1.6,1-2.5
			c0.1-0.4,0.2-0.7,0.3-0.8l0.2-0.1c0.2,0,0.3,0,0.4,0l0,0l-0.2,12.5c0,0.6-0.2,0.8-0.5,0.4c-0.1-0.1-0.3-0.3-0.4-0.4
			c-1.7-2-2.6-2.9-2.7-2.9c-4.8-0.1-9.6-0.3-14.4-0.6c-12.9-0.9-4.3-20,1.3-12.6c0.2,0.3,0.3,0.7,0.3,0.9c-0.6,2.8-2.1,3.5-4.7,2
			C40.5,225,40.1,225.1,39.9,225.2z"/>
		<path class="st1" d="M53.1,241.2l0.7-1.3c0.4-0.8,0.7-0.5,0.8,0.7l0.4,6c0,0.2-0.2,0.4-0.5,0.4l0,0c-4.5,0.2-8.9,0.5-13.3,0.8
			c-1.3,0.1-1.9,0.7-2.3,1.8c-0.1,0.3-0.3,0.4-0.5,0.4l0,0c-0.4-0.2-0.9-9.2-0.2-9.4c0.2,0,0.5,0.2,0.7,0.5
			c1.1,2.4,11.3,0.8,13.7,0.4C52.8,241.6,53,241.5,53.1,241.2z"/>
		<circle class="st1" cx="60" cy="244.2" r="2.7"/>
		<path class="st1" d="M430.9,243.2c0.7-0.9,1-1.9,0.9-3.1c-0.2-1.8-0.8-2.9-1.7-3.3c-0.6-0.2-0.9,0.1-0.9,0.8
			c0,0.6-0.5,1.1-0.9,1.1c-2.3-0.1-4.8-0.1-7.3-0.2c-10.4-0.3-7.8,13.4-1.6,13.2c0.4,0,0.7-0.2,0.9-0.4c1.3-1.9,1.1-3.4-0.9-4.5
			c0,0-0.4,0.1-1,0.2c-2.6,0.7-3.2-0.3-2-2.9c0.1-0.3,0.4-0.6,0.7-0.6l3.3,0.1c0.2,0,0.4,0.3,0.6,0.8c1.1,3,3.6,8.9,7.3,8.3
			c4.4-0.8,3-5,1.9-7.9C430,244.5,430.3,243.8,430.9,243.2z M426.9,247.5c-0.1,0-0.3,0-0.4-0.1c-1.7-0.5-2.9-1.5-3.7-3
			c-0.1-0.2,0-0.4,0.3-0.5c0.1,0,0.2,0,0.2,0h3.4c0.5,0,0.9,0.2,0.9,0.4l0.4,2.4C428,247.2,427.6,247.5,426.9,247.5z"/>
		<path class="st1" d="M55.9,260c-0.3-0.4-0.5-0.8-0.8-1.3c-0.1-0.3-0.1-0.6,0.1-0.7l0.5-0.5c0.2-0.2,0.3-0.6,0.2-0.9
			c-0.2-0.8-0.7-5.5-1-5.7c-0.1-0.1-0.4,0.1-0.5,0.3c-1.5,2.8-10.1,3.1-13.1,3.4c-0.4,0-0.8,0-1-0.2l-1.3-1
			c-0.5-0.4-0.7-0.3-0.6,0.4l2.4,17c0.1,0.8,0.3,0.9,0.7,0.2l0.8-1.5c0.2-0.2,0.4-0.3,0.8-0.4C47.1,268.5,61.6,268.5,55.9,260z
			 M52.3,262.5l-9.7,1.4c-1.1,0.2-2.1-0.6-2.2-1.7V262c-0.1-1.1,0.6-2,1.7-2.2l9.7-1.4c1.1-0.2,2.1,0.6,2.2,1.7v0.2
			C54.2,261.4,53.4,262.4,52.3,262.5z"/>
		<path class="st1" d="M430.5,257.8C430.4,257.7,430.4,257.7,430.5,257.8c-0.3-0.3-0.6-0.2-0.8,0c-2.8,2.9-10.9-2.1-15.3,0.3
			c-2.4,1.3-2.8,3.6-1.1,6.9c0.1,0,0.1,0.1,0.1,0.4c0.2,0.3,0.1,0.7-0.1,0.7l-0.9,0.1c-0.2,0-0.4,0.3-0.5,0.8
			c-0.1,0.8-1.1,5.7-0.5,6c0.2,0.1,0.5-0.1,0.7-0.4c0.4-0.8,0.9-1.1,1.9-1c3.6,0.5,12.2,1.2,12.7,3.3c0.1,0.3,0.4,0.6,0.6,0.6
			C427.6,275.6,431.1,258.7,430.5,257.8z M428.2,266.2v0.2c-0.2,1-1.2,1.7-2.2,1.6l-9.6-1.6c-1-0.2-1.7-1.2-1.6-2.2V264
			c0.2-1,1.2-1.7,2.2-1.6l9.6,1.6C427.6,264.2,428.3,265.2,428.2,266.2z"/>
		<circle class="st1" cx="404.2" cy="277.5" r="2.7"/>
		<path class="st1" d="M422.6,285l-11.3-2.9c-0.4-0.1-0.7-0.1-0.8,0l-1.9,1.2c-0.5,0.3-0.7,0.1-0.5-0.6l1.5-5.3
			c0.2-0.6,0.8-1,1.5-0.8l13,3.3c0.3,0.1,0.6,0,0.8-0.3c0.4-0.5,0.9-0.8,1.4-1c0.4-0.1,0.6,0,0.5,0.4l-1.9,7.1
			c-0.2,0.6-0.3,1.1-0.3,1.1c-0.9,0-1.3-0.6-1.3-1.8C423.2,285.3,423,285.1,422.6,285z"/>
		<path class="st1" d="M57.2,274c-4.8-3.1-6.7,3.6-2.6,4.3c0.1,0,0.4-0.2,0.8-0.4l1.7-1.1c0.4-0.1,0.8,0,1,0.4
			c1.3,2.4,0.6,3.7-2.1,4c-0.9,0.1-1.7-0.1-2.2-0.6l-4.7-4.8c-1.3-1.3-2.9-1.4-4.8-0.4c-4.9,2.6,0.5,6,1.3,8.5
			c0.1,0.2,0,0.5-0.1,1.1c-2.3,2,0.3,5.4,2.4,6.1c0.6,0.2,0.8,0,0.7-0.4l-0.4-1.3c-0.1-0.3,0.1-0.6,0.5-0.7c3-0.8,6-1.6,8.9-2.4
			C63.6,284.6,60.8,276.4,57.2,274z M50.5,282.7c-1.2,0.1-3.1,1.1-3.7-1c-0.5-1.3,0-2,1.4-2C49.8,279.7,55.3,282.4,50.5,282.7z"/>
		<path class="st1" d="M418.2,301.5c2.2-2.2,0.1-3.6-1.9-4.3c-5.3-1.9-10.7-3.7-16-5.4c-0.5-0.2-0.9-0.1-1.1,0.1l-1.3,1.7
			c-0.3,0.4-0.6,0.8-0.7,0.8h-0.4c-0.1,0-0.2-0.2-0.2-0.5v-0.1l3.9-11.3c0.1-0.4,0.4-0.6,0.6-0.6l0.5,0.1c0.1,0,0.1,0.3-0.1,0.7v0.1
			c-0.7,1.7,0,2.9,1.7,3.5c8,2.6,12.9,4.3,14.6,5.2c6.1,2.9,3.6,11.4-1.7,13.8c-2.2,1-3.5,0.5-4.1-1.4c-0.8-2.6,0.2-3.9,2.9-3.9
			c0.4,0,0.7,0.1,0.9,0.4l1.4,1.4C417.6,301.8,418,301.8,418.2,301.5L418.2,301.5z"/>
		<path class="st1" d="M64.7,297c-0.3-0.3-0.5-0.6-0.4-0.8l0.5-0.8c0.1-0.3,0.1-0.7,0-1l-1.9-4.9c-0.3-0.9-0.7-0.8-1,0.1l-0.4,1.3
			c-0.1,0.2-0.3,0.5-0.7,0.6c-2.1,0.9-10.9,5-12.6,3.5c-0.3-0.2-0.6-0.4-0.8-0.3c-0.8,0.3,5.8,17.3,6.2,17.3c0.1,0,0.3-0.3,0.4-0.6
			l0.4-1.3c0-0.2,0.3-0.5,0.6-0.6C58.5,308.1,74.8,303.8,64.7,297z M62.6,300.9l-9.2,3.4c-1,0.4-2.1-0.1-2.5-1.1v-0.1
			c-0.4-1,0.1-2.1,1.1-2.5l9.2-3.4c1-0.4,2.1,0.1,2.5,1.1v0.1C64.1,299.4,63.6,300.5,62.6,300.9z"/>
		<path class="st1" d="M389.2,309.6c0.4-0.8,0.7-0.7,1,0.1c0.7,2,1.4,4.2,2.2,6.4c2,5.7-4.7-1.6-4.8-1.8c-0.3-0.3-0.4-0.6-0.3-0.9
			L389.2,309.6z"/>
		<path class="st1" d="M83,321.8l-14.3,8.7c-1.2,0.7-1.7,1.9-1.4,3.4c2.1,11.5,16.5,0,20.8-3c0.3-0.2,0.5-0.5,0.5-0.7
			c0.1-0.6,0.1-1.2-0.1-1.8c-0.1-0.3-0.2-0.6-0.2-0.9c0.3-2.1,4.2,5.4,4.5,5.8c0.6,1-0.2,1.3-0.8,0.6c-1.9-2.2-3.4-0.9-5.3,0.2
			c-3.1,1.9-6.2,3.7-9.3,5.5c-9.6,5.7-18.8-9.5-10.9-14.8c4.3-2.9,8.7-5.6,13.1-8.3c0.5-0.3,0.8-0.6,0.7-0.8l-0.5-2.2
			c-0.1-0.3-0.1-0.6,0.1-0.7c0.7-0.5,6,8.9,6.7,9.9c0.2,0.4,0.5,1.1-0.2,1.1c-0.1,0-0.4-0.2-0.8-0.6l-1.5-1.5
			C83.8,321.6,83.4,321.6,83,321.8z"/>
		<path class="st1" d="M409.3,317.4c-0.2-0.3-0.5-0.5-0.8-0.5c-0.3,0-0.4,0.3-0.2,0.8c2.1,5.6-2.6,7.2-6.7,5.4
			c-0.4-0.2-0.6-0.6-0.4-0.7l3.5-6.7v-0.1c0.2-0.5,0-1-0.4-1.2c-10.7-4.3-14.4,7.6-5.8,12.9C406.2,332,414.7,325.5,409.3,317.4z
			 M398.9,321.8c-1.2-0.6-2.2-1.5-2.9-2.6c-1.3-1.9-0.9-2.8,1.2-2.5c1.2,0.2,2.5,0.5,3.6,1c0.4,0.1,0.6,0.5,0.5,0.7l-1.6,3.2
			C399.6,321.9,399.2,322,398.9,321.8z"/>
		<path class="st1" d="M401.4,335.2c0.1-0.3,0-0.8-0.1-1.6c-0.3-1.5,0.7-1.1,1.1-0.4c2.3,4.5-2.1,9-6.5,6.2
			c-2.6-1.6-5.1-3.2-7.6-4.7c-0.4-0.2-0.8-0.3-1-0.2l-1.2,1.1c-0.4,0.4-0.6,0.3-0.7-0.2c-0.3-3.4-1.2-6.5-2.7-9.5
			c-0.4-0.9-0.3-1.1,0.6-0.6l4.2,2.6c0.4,0.3,0.8,0.3,0.9,0.2l1.4-2.1c0.4-0.5,0.8-0.9,0.9-0.9l0,0l1.3,1.2c0.1,0.1-0.2,0.5-0.5,1.1
			l-1,1.5c-0.2,0.3-0.1,0.7,0.2,0.9l0,0l9.5,5.8c0.4,0.2,0.9,0.1,1.1-0.4C401.3,335.4,401.4,335.3,401.4,335.2z"/>
		<circle class="st1" cx="376.9" cy="336.5" r="2.8"/>
		<path class="st1" d="M395.6,345.6c0.4-0.1,0.9-0.2,1.3-0.1c0.2,0,0.4,0.2,0.4,0.4v0.1l-4.8,6.7c-0.6,0.8-0.9,0.7-0.9-0.3v-1.5
			c0-0.3-0.2-0.7-0.5-0.9l-9.6-6.8c-0.2-0.1-0.6-0.2-1.2,0l-1.2,0.3c-0.8,0.2-0.9-0.1-0.5-0.7l3.5-4.8c0.3-0.4,1-0.3,1.6,0.2l11,7.8
			C394.7,345.9,395.1,345.8,395.6,345.6z"/>
		<path class="st1" d="M373.3,357.2c-3.1-3.6-2.7-6.7,1.3-9.2c0.4-0.2,0.6-0.5,0.7-0.6l0.4-1.6c0-0.2,0.3-0.3,0.6-0.2
			c0.1,0,0.1,0.1,0.2,0.1l3.7,2.8c0.3,0.2,0.5,0.6,0.4,0.8c-0.1,0.3-0.4,0.3-0.9,0.1c-2.1-0.8-3.9-0.4-5.4,1.1
			c-0.3,0.2-0.4,0.6-0.4,0.9c0,2.6,8.2-0.4,10.3,0.1c5.5,1.2,5.1,8.6,0.2,10.9c-0.2,0.1-0.3,0.4-0.4,0.7l-0.3,1.2
			c-0.1,0.2-0.4,0.3-0.7,0.1c-0.1,0-0.2-0.1-0.2-0.1c-0.4-0.4-4.9-3.5-4-3.8c0.2-0.1,0.5-0.1,0.8,0c3.1,1.1,9.5-1.4,4.9-3.7
			c-0.3-0.1-0.6-0.2-1-0.1l-5.8,1.4C375.6,358.6,374.2,358.3,373.3,357.2z"/>
		<path class="st1" d="M92.5,346.5c-0.3-0.1-0.4-0.4-0.4-0.7c0.2-2.1-2.3-4.4-3.6-5.8c-0.5-0.5-0.8-0.5-0.8-0.1l-0.1,1.3
			c-0.1,0.5-0.1,1-0.2,1l-9.4,7.6c-0.2,0.2-0.5,0.2-1,0.1c-3.5-0.8-1,1.5-0.5,2.2c1.2,1.7,2.5,3.2,3.9,4.7c0.4-0.3,0.5-0.8,0.4-1.4
			c-0.1-0.3,0-0.6,0.2-0.8c0.4-0.4,1.1-1.1,1.9-1.8c1.8-1.7,4.2-3.8,6.1-4.7c0,0,0,0,0,0c0.1-0.1,0.3-0.1,0.4-0.2
			c0.1,0,0.1-0.1,0.2-0.1c0.1,0,0.2-0.1,0.3-0.1c0.1,0,0.1,0,0.2-0.1c0.1,0,0.3,0,0.4,0c0,0,0,0,0,0c0,0,0,0,0,0c0,0,0.1,0,0.1,0
			c2.6,0.2,2.1,2.2,0.7,3.5c-0.8,0.7-1.6,1.4-2.4,2c-2.4,1.9-5.2,3.3-8.2,4.2l5.3,6.5c0.2,0.3,0.4,0.3,0.4-0.1
			c0.1-1.3,0.5-2.2,1-2.6C91.1,358.4,103.6,350.5,92.5,346.5z"/>
		<circle class="st1" cx="107.8" cy="354.8" r="2.8"/>
		<path class="st1" d="M101.1,355.3l4.1,4.2c0.4,0.4,0.3,1-0.1,1.5l0,0l-9.9,9.4c-0.2,0.2-0.3,0.5-0.2,0.8l0.3,1.8
			c0.1,0.8-0.2,0.8-1-0.1l-5.5-5.8c-0.4-0.4-0.4-0.7,0.2-0.7h1.8c0.3,0,0.6-0.1,0.9-0.3c2.4-2.1,9.2-7.2,8.9-10.5
			C100.5,355,100.7,354.9,101.1,355.3z"/>
		<path class="st1" d="M365.1,361.9c-0.2-1.6,0.1-3,0.8-4.4c1-1.9,2.2-2.2,3.4-0.8c2.2,2.4,1.7,3.9-1.5,4.4c-1.3,0.2-1.6,1-0.9,2.3
			c1.6,2.8,3.7,5.2,6.2,7.3c0.5,0.4,0.9,0.6,1,0.6l1.9-0.4c0.5-0.1,0.6,0.1,0.3,0.5c-0.6,0.8-5.9,6.7-6.5,6.1
			c-0.1-0.1-0.1-0.4,0-0.7c0.7-2.3-6.8-8.6-8.5-10.3c-0.2-0.2-0.6-0.4-0.9-0.4h-1.8c-0.5,0-0.6-0.2-0.1-0.7l4-4.2
			c0.3-0.3,0.7-0.4,0.9-0.2l0,0l1.1,1.1C365,362.7,365.2,362.6,365.1,361.9z"/>
		<path class="st1" d="M116.6,372.9l-0.3-1.8c-0.1-0.7,0.1-0.9,0.7-0.4l3.6,3.1c0.7,0.6,0.7,0.9,0.1,0.9l-2.3,0.1
			c-0.6,0-0.9,0.1-1,0.1l-14.2,6.6c-0.8,0.4-1,0.1-0.8-0.7l4.9-15c0.1-0.3,0.2-0.7,0.2-1v-2.2c0-0.4,0.2-0.4,0.7,0
			c0.8,0.7,6.4,5.3,6,6c-0.1,0.1-0.2,0.2-0.4,0.1l-1.5-0.1c-0.2,0-0.5,0.4-0.7,0.9l-2.3,6.7c-0.2,0.7-0.1,0.9,0.6,0.6l6.4-3.3
			C116.4,373.5,116.7,373.2,116.6,372.9z"/>
		<path class="st1" d="M363.6,377.1c-0.2,0.2-0.3,0.5-0.3,0.9c-0.1,3.7-2.2,4.8-6.5,3.3c-2-0.7-2.2-1.7-0.7-3l5.1-4.3
			c0.1-0.1,0.1-0.1,0.1-0.1c0.2-0.3,0.2-0.7-0.1-0.9c-5.1-4.3-9-4-11.7,0.7c-4.3,7.6,8.5,19.5,14.6,9.6c0.4-0.7,0.6-1.5,0.6-2.3
			C364.6,377.8,364.2,376.5,363.6,377.1z M355.6,373.8c0.7,0.5,0.9,1.4,0.5,2.2C352.3,382.3,348.1,368.5,355.6,373.8z"/>
		<path class="st1" d="M344.1,389.4l-1.8-7.4c-0.1-0.3-0.4-0.6-0.8-0.5l-1.5,0.1c-1,0.1-1.1-0.2-0.2-0.8l3.8-2.7
			c0.3-0.2,0.5-0.1,0.6,0.4c0.1,1.2-0.2,2.3,0,3.4c1,4.9,1.9,9.8,2.8,14.7c0.2,1-0.2,1.2-1.1,0.6l-13.7-8.5c-0.1-0.1-0.4-0.1-1-0.2
			l-1.3-0.1c-0.5,0-0.4-0.3,0.2-0.7c1.9-1.4,7-5.2,7.3-4.6c0,0.1,0,0.4-0.1,0.8l-0.3,1.2c-0.1,0.3,0.2,0.6,0.6,0.9l6.2,3.8
			C344.1,389.9,344.3,389.9,344.1,389.4z"/>
		<path class="st1" d="M115.5,385.2c-2.6,6.7,4.1,12.1,10.4,8.9c0.3-0.2,0.4-0.4,0.4-0.7l-0.1-0.4c0-0.1,0-0.1,0-0.1
			c-0.1-0.1-0.5-0.2-0.9,0c-4.9,2.1-6.6-4-3.8-7.4c0.2-0.2,0.5-0.2,0.8,0l6,4.5c0.3,0.2,0.6,0.1,0.8-0.1
			C137.3,379.5,120.4,372.6,115.5,385.2z M126.4,385.5c-0.2,0.3-0.7,0.3-1,0.1l-2.4-1.7c-0.2-0.2-0.3-0.5-0.2-0.7
			c1-1.8,2.5-2.7,4.5-2.8c0.4,0,0.7,0.3,0.7,0.7C128.1,382.8,127.6,384.3,126.4,385.5z"/>
		<circle class="st1" cx="322.1" cy="385.9" r="2.7"/>
		<path class="st1" d="M141.1,391c1.7-0.7,3.4-0.7,5.1-0.1c0.3,0.1,0.6,0.3,0.7,0.6c0.8,1.8,0.3,3.1-1.6,3.9
			c-0.6,0.2-1.1,0.3-1.2,0.1l-1.9-2.3c-0.3-0.3-0.5-0.5-0.5-0.5c-2.4,0-9.1,8-6.8,10.6c0.2,0.2,0.3,0.5,0.2,0.7
			c-0.3,0.5-8.5-4.4-8.2-4.8c0.1-0.2,0.4-0.3,0.7-0.3c2.6,0.2,6.6-8.1,7.9-10.3c0.4-0.6,0.6-1.2,0.6-1.3l-0.6-2.1
			c-0.1-0.4,0.2-0.4,1,0l4.9,2.9c0.3,0.2,0.5,0.5,0.4,0.7l0,0l-1.1,1.7C140.1,391.3,140.3,391.4,141.1,391z"/>
		<path class="st1" d="M323.1,393.5l-1.9-0.3c-0.8-0.1-0.9-0.4-0.1-0.8l5.4-3.1c0.3-0.2,0.7,0,0.9,0.4l6.7,11.6
			c0.2,0.4,0.5,0.6,0.6,0.7l1.8,0.2c0.3,0,0.5,0.2,0.5,0.4l0,0c-0.1,0.5-4.3,2.7-6.9,4.2c-0.4,0.3-0.8,0.4-0.9,0.3
			c-0.6-0.5-0.5-1,0.3-1.6c0.4-0.3,0.5-0.8,0.2-1.2l-6-10.2C323.6,393.8,323.3,393.6,323.1,393.5z"/>
		<circle class="st1" cx="168.6" cy="396.4" r="2.8"/>
		<path class="st1" d="M149.6,410.2c1.1-0.6,1.4-1.4,0.8-2.5c-1.9-3.5-5.8-9.7-0.2-12.4c4.4-2.1,5.1,2,8.6,2.5
			c0.3,0,0.5,0.2,0.5,0.4v0.1l-1.9,4.6c-0.4,0.9-0.6,1-0.7,0.2l-0.4-3.1c-0.1-0.6-0.3-1.1-0.7-1.6c-1.4-1.6-2.4-2-3-1.1
			c-0.5,0.7-0.5,1.6-0.1,2.2c1.9,2.6,3,5.5,3.2,8.7c0,0.3-0.1,0.6-0.4,1c-2.9,3.9-6.3,4.2-10.1,0.9c-0.3-0.3-0.6-0.4-0.8-0.5
			l-1.4-0.3c-0.2-0.1-0.3-0.4-0.2-0.7c0,0,0-0.1,0.1-0.1c0.4-0.6,2.1-5.1,2.7-4.7c0.1,0.1,0.2,0.3,0.2,0.6
			C145.7,405.9,146.9,411.7,149.6,410.2z"/>
		<path class="st1" d="M297.5,418.9c3.5-3.4-1.2-14.3-2.9-19.2c-0.2-0.6-0.7-1-1.2-1.1l-2.8-0.2c-1.1-0.1-0.9-0.3,0.6-0.8
			c2.3-0.7,4.7-1.4,7-2c2.4-0.7-1.2,2.2-1.5,2.7c-0.1,0.3-0.2,0.6-0.1,0.9c1.3,4.2,4.9,13,4.3,17.1c-0.9,6-10.2,9.3-15,6
			c-3.4-2.3-6-13.8-7.3-17.9c-0.1-0.5-0.4-0.8-0.7-0.8l-2.3-0.2c-0.4,0-0.6-0.1-0.7-0.3l-0.1-0.2c0,0,0.1-0.1,0.2-0.2l0,0
			c1-0.3,12.1-4.3,12-3.2c0,0.3-0.3,0.5-0.6,0.6c-1.7,0.4-2.3,1.4-1.8,3.1c1.2,3.8,3.6,14.5,6.5,16.8
			C293.1,421.5,295.2,421.1,297.5,418.9z"/>
		<path class="st1" d="M325.8,408.6l-1.7-0.5c-0.3,0-0.5-0.3-0.7-0.7c-1.6-3.3-3.5-9.4-6.6-11.1c-2.6-1.4-4.9-0.4-6.8,2.9
			c0,0.1,0,0.1,0,0.1c-0.1,0.1-0.3,0.1-0.5,0c-1.2-1.1-5.6,1.6-6.6,2.1c-0.4,0.3-0.5,0.5-0.1,0.6l1.7,0.5c0.3,0.1,0.6,0.3,0.6,0.5
			l5,10.5c0.1,0.4,0.1,0.7,0,1l-0.6,1.2c-0.4,0.9-0.1,1.1,0.8,0.7l15.3-7.2C326.2,409,326.3,408.7,325.8,408.6z M317.8,412.2
			l-0.1,0.1c-1,0.5-2.1,0-2.6-0.9l-4.2-9c-0.5-1,0-2.1,0.9-2.6l0.1-0.1c1-0.5,2.1,0,2.6,0.9l4.2,9
			C319.2,410.6,318.7,411.7,317.8,412.2z"/>
		<path class="st1" d="M164.6,418.3c-0.2,0.2-8.8-2.8-8.3-3.5c0.1-0.2,0.4-0.3,0.9-0.4c1.9-0.2,5.1-9.7,5.9-11.8
			c0.3-0.7,0.1-1.5-0.7-2.2c-0.2-0.2-0.4-0.5-0.2-0.7c0.5-0.5,5.6,1.9,6.3,2.2c0.3,0.1,0.5,0.5,0.4,0.7l-5.1,12.5
			c-0.2,0.4-0.2,0.8-0.1,1l0.9,1.6C164.7,417.9,164.7,418.2,164.6,418.3z"/>
		<path class="st1" d="M178.2,408.5c-1.1,3-2.1,6-3.1,9c-1.6,5,2.8,1.3,3.1,2.2c0.1,0.2,0,0.6-0.3,0.9c-2.6,2.5-7.5,1.6-8.1-2
			c-0.4-2.8,2.2-8.6,3.2-11.5c0.1-0.4,0-0.8-0.4-1c-0.9-0.5-2.3-1.2-0.3-1.8c2.7-0.9,5.2-2.3,7.4-4.2c0.3-0.3,0.7-0.4,0.9-0.3
			c0.6,0.2-1.1,4.9-1.3,5.6c-0.1,0.3,0.1,0.5,0.3,0.6c3.9,1.5,8,2.6,12.2,3.3c1.1,0.2,1.2,0.5,0.4,0.8l-1.5,0.7
			c-0.3,0.1-0.5,0.4-0.4,0.7l1.2,7.8c0.1,0.8,0.4,0.8,0.8,0.2l4.1-6.2c0.1-0.2,0.1-0.5-0.1-0.8c-1.3-1.5-1.5-2.2-0.7-2.1
			c1.6,0.3,3.2,0.7,4.8,1.1c0.7,0.2,0.8,0.4,0.3,0.6l-1.8,1c-0.3,0.2-0.5,0.4-0.8,0.7c-2.5,3.6-10.6,16.9-13.9,18.4
			c-1.9,0.9-6-0.8-5.1-3.6c0.9-2.8,4.3-2.6,4.2,1.3c0,1.5,0.4,1.6,1.1,0.6l2.9-3.9c0.1-0.2,0.2-0.6,0.1-1
			c-0.8-5.2-2.1-16.2-4.3-17.7c-0.2-0.1-0.5-0.1-0.6,0.2l0,0c-0.9,1.4-2.4,0-3.6-0.1C178.6,408,178.3,408.2,178.2,408.5z"/>
	</g>
	<g>
		<path class="st3" d="M315.4,310.4l-15.1,0.1c-0.6,0-1.1,0.3-1.1,0.5v4.1c0,0.2,0.4,0.3,0.9,0.3h8.8c0.5,0,0.8,0.2,0.8,0.5
			l-0.1,3.1c0,0.2-0.4,0.4-0.9,0.4h-15c-0.3,0-0.5-0.2-0.5-0.5V266c0-1.8-0.5-4.2,0.2-6.5l-0.4-55.3c0-0.9,0.2-1.8,0.6-2.6
			c12.1-26.9,6.8-56.3-12.9-78.3c-28.1-21.3-62.2-20.5-90.9-1.5c-12.9,13.3-19.7,29.1-20.3,47.4c-0.2,6.6,1.1,13.7,1.2,20.7
			c0.1,21,0,42-0.3,63v71.7c0,0.3,0.2,0.5,0.5,0.5h44.2c0.4,0,0.7-0.3,0.7-0.7l-0.1-43.1V237c0.1-0.3,0.3-0.6,0.5-0.5l3,0.8
			c0.2,0.1,0.4,0.5,0.4,1l-0.2,43.8v42.4c0,0.3,0.2,0.6,0.5,0.6h4.5c0.4,0,0.7-0.3,0.7-0.7v-41.3l-0.2-43.9c0-0.3,0.2-0.4,0.4-0.4
			c25.5,2.6,45.9-6,61.2-25.8c0.3-0.5,0.5-0.4,0.5,0.1l-0.2,52.2c0.5,19.8,0,39.5,0.3,59.3c0,0.3,0.2,0.5,0.5,0.5h27.8
			c0.3,0,0.5-0.2,0.5-0.4v-13.8C315.9,310.6,315.7,310.4,315.4,310.4z M210.7,279.9v38.9c0,0.6-0.2,1.1-0.3,1.1h-3.6
			c-0.2,0-0.4-0.4-0.4-1l-0.3-7.8c0-0.3-0.2-0.6-0.5-0.6l-15-0.2c-0.4,0-0.7,0.2-0.7,0.5l0.2,4.6c0,0.3,0.3,0.5,0.8,0.5h6.8
			c0.6,0,1,0.3,1,0.7l-0.1,2.8c0,0.2-0.3,0.4-0.7,0.4h-9.2c-0.3,0-0.5-0.2-0.5-0.5l-0.1-8.3c0-0.4-0.2-0.7-0.5-0.7H181
			c-0.3,0-0.6,0.3-0.6,0.7v7.8c0,0.4-0.1,0.7-0.3,0.7c-1.3,0.5-2.5,0.4-3.7-0.2c-0.2-0.1-0.3-0.5-0.3-1l-0.1-59.2l-0.2-58.4
			c0-0.5,0.1-0.5,0.3,0c7.3,15.4,18.8,26.7,34.3,33.7c0.3,0.1,0.5,0.4,0.5,0.8L210.7,279.9z"/>
		<path class="st4" d="M154.4,299.7l5.9,0.1c0.5,0,0.9,0.4,0.9,0.9l-0.1,5.8c0,0.5-0.4,0.9-0.9,0.9l-5.9-0.1c-0.5,0-0.9-0.4-0.9-0.9
			l0.1-5.8C153.5,300,153.9,299.6,154.4,299.7z"/>
		<path class="st4" d="M181.1,299.6h5.9c0.5,0,0.9,0.4,0.9,0.9v5.9c0,0.5-0.4,0.9-0.9,0.9h-5.9c-0.5,0-0.9-0.4-0.9-0.9v-5.9
			C180.2,300,180.6,299.6,181.1,299.6z"/>
		<path class="st4" d="M230.4,299.6l14.3,0.1c0.3,0,0.6,0.3,0.6,0.6l-0.1,6.3c0,0.3-0.3,0.6-0.6,0.6l-14.3-0.1
			c-0.3,0-0.6-0.3-0.6-0.6l0.1-6.3C229.8,299.9,230.1,299.6,230.4,299.6z"/>
		<path class="st4" d="M160.2,319.2v-8.1c0-0.4,0.3-0.7,0.7-0.7l0,0l3.6,0.1c0.4,0,0.7,0.3,0.7,0.7v13.3c0,0.4-0.3,0.7-0.7,0.7l0,0
			h-14.2c-0.4,0-0.7-0.3-0.7-0.7l0,0l0.2-13.3c0-0.4,0.3-0.7,0.7-0.7h4c0.4,0,0.7,0.3,0.7,0.7l0.1,8.1c0,0.4,0.3,0.7,0.7,0.7h3.5
			C159.9,319.9,160.2,319.6,160.2,319.2z"/>
		<path class="st4" d="M284.9,310.9c0-0.3-0.3-0.5-0.7-0.5h-14.5c-0.6,0-1,0.5-1,1.2v7.8c0,0.3-0.4,0.5-0.8,0.5h-12
			c-0.4,0-0.7-0.2-0.7-0.5v-2.9c0.1-0.3,0.4-0.6,0.7-0.6h8.5c0.4,0,0.8-0.2,0.9-0.4c0.4-1.6,0.4-3.1,0.1-4.7c0-0.2-0.4-0.4-0.8-0.4
			h-14.2c-0.6,0-1,0.5-1,1.2v7.5c0,0.4-0.2,0.7-0.4,0.7l-2.8-0.2c-0.3,0-0.5-0.4-0.5-0.8V311c0-0.4-0.4-0.7-1-0.7l-13.9,0.1
			c-0.6,0-1.1,0.4-1.1,0.9v13.2c0,0.3,0.2,0.6,0.5,0.6h54.2c0.5,0,0.8-0.2,0.8-0.4L284.9,310.9z M240.2,319c0,0.6-0.5,1-1,1l-3-0.1
			c-0.6,0-1-0.5-1-1v-2c0-0.6,0.5-1,1-1l3,0.1c0.6,0,1,0.5,1,1V319z M280.2,319.2c0,0.5-0.4,0.9-0.9,0.8l-3.3-0.1
			c-0.5,0-0.9-0.4-0.8-0.9v-2.3c0-0.4,0.4-0.8,0.9-0.8l3.3,0.1c0.5,0,0.9,0.4,0.8,0.9V319.2z"/>
		<path class="st4" d="M195.1,329.7l5.8-0.1c0.5,0,1,0.4,1,1l0.1,5.7c0,0.5-0.4,1-1,1l-5.8,0.1c-0.5,0-1-0.4-1-1l-0.1-5.7
			C194.1,330.2,194.6,329.7,195.1,329.7z"/>
		<path class="st4" d="M304.4,329.6l6,0.1c0.5,0,0.9,0.4,0.9,0.9l-0.1,6c0,0.5-0.4,0.9-0.9,0.9l-6-0.1c-0.5,0-0.9-0.4-0.9-0.9l0.1-6
			C303.5,330,303.9,329.6,304.4,329.6z"/>
		<g>
			<path class="st1" d="M207.5,147.3l26.8,26.8c0.2,0.2,0.4,0.2,0.6,0l26.8-26.7c0.2-0.2,0.2-0.4,0-0.6L234.9,120
				c-0.2-0.2-0.4-0.2-0.6,0l-26.8,26.8C207.3,146.9,207.3,147.2,207.5,147.3z"/>
			<path class="st1" d="M169.5,169.2c0.6-18.3,7.4-34.1,20.3-47.4c-45.3,29.6-52.3,89.5-19.4,131.1c0.3-21,0.4-42,0.3-63
				C170.7,183,169.3,175.9,169.5,169.2z"/>
			<path class="st1" d="M291.4,131.5c-3.4-3.3-7-6-10.7-8.2c19.6,21.9,25,51.4,12.9,78.3c-0.4,0.9-0.6,1.7-0.6,2.6l0.4,55.3
				C328.8,223.1,328,166.8,291.4,131.5z"/>
			<path class="st1" d="M210.4,234.4c-15.5-7-27-18.3-34.3-33.7c-0.2-0.5-0.3-0.5-0.3,0l0.2,58.4c10,9.6,21.6,16.5,34.7,20.8
				l0.2-44.7C210.9,234.8,210.7,234.5,210.4,234.4z"/>
			<path class="st1" d="M286.7,213.1c-15.4,19.8-35.8,28.4-61.2,25.8c-0.2,0-0.4,0.2-0.4,0.4l0.2,43.9c23.1,2.2,43.6-3.8,61.7-17.8
				l0.2-52.2C287.2,212.7,287,212.7,286.7,213.1z"/>
			<path class="st1" d="M219.2,237.4l-3-0.8h-0.1c-0.2,0-0.4,0.3-0.4,0.6v44.2l3.7,0.8l0.2-43.8
				C219.6,237.9,219.4,237.5,219.2,237.4z"/>
		</g>
		<path class="st0" d="M221.6,182.4h3.5c0.3,0,0.6,0.3,0.6,0.6l0.1,4c0,0.3-0.3,0.6-0.6,0.6h-3.5c-0.3,0-0.6-0.3-0.6-0.6l-0.1-4
			C220.9,182.7,221.2,182.4,221.6,182.4z"/>
		<path class="st0" d="M231,182.4l2.6-0.1c0.6,0,1,0.4,1.1,1l0.1,3.2c0,0.6-0.4,1-1,1.1l-2.6,0.1c-0.6,0-1-0.4-1.1-1l-0.1-3.2
			C230,182.9,230.4,182.5,231,182.4z"/>
		<path class="st0" d="M272.6,182.3h-13.7c-0.4,0-0.7,0.3-0.7,0.7v12.7c0,0.4,0.3,0.7,0.7,0.7h9.1c0.4,0,0.7,0.3,0.7,0.7v13.3
			c0,0.4-0.3,0.7-0.6,0.6l-3.9,0.1c-0.4,0-0.7-0.3-0.7-0.7v-8.8c0-0.4-0.3-0.7-0.7-0.7l-3.4-0.1c-0.4,0-0.7,0.3-0.7,0.7v13.7
			c0,0.4,0.3,0.7,0.7,0.7l13.2-0.1c0.4,0,0.7-0.3,0.7-0.7V183C273.3,182.6,273,182.3,272.6,182.3z M268.6,188.6v2.7
			c0,0.6-0.5,1.2-1.2,1.1h-2.9c-0.6,0-1.2-0.5-1.1-1.2v-2.7c0.1-0.6,0.6-1.1,1.2-1.1h2.9C268.1,187.4,268.7,187.9,268.6,188.6z"/>
		<path class="st0" d="M253.4,182.3h-13c-0.3,0-0.5,0.4-0.5,0.8v26.2c0,0.5-0.1,0.9-0.3,0.9h-3.7c-0.3,0-0.5-0.4-0.5-0.9v-16.7
			c0-0.3-0.2-0.6-0.5-0.6h-14c-0.4,0-0.7,0.2-0.7,0.4V206c0,0.4,0.3,0.7,0.6,0.7h8.7c0.1,0,0.1,0,0.1,0c0.4,0,0.7,0.2,0.7,0.5
			l-0.2,2.5c-0.1,0.3-0.4,0.5-0.9,0.5H217c-0.4,0-0.8-0.2-1-0.3v-26.6c0-0.4-0.2-0.7-0.5-0.7h-5.2c-0.3,0-0.5,0.2-0.5,0.5v26
			c0,0.5-0.2,1-0.4,1l-2,0.1c-0.2,0-0.3-0.5-0.3-1.1l-0.1-7.5c0-0.3-0.3-0.5-0.6-0.5l-4.5,0.2c-0.2,0.1-0.4,0.3-0.5,0.7
			c-0.4,2.6,1.3,10.5-3.5,8c-0.3-0.1-0.5-0.4-0.5-0.8v-9.5c0-0.6,0.4-1,1-1h8.2c0.3,0,0.5-0.4,0.5-0.8v-14.5c0-0.3-0.2-0.6-0.5-0.6
			l-14.8-0.2c-0.4,0-0.8,0.5-0.8,1.1l0.1,31.2c0.1,0.6,0.5,1.2,1.1,1.2H244c0.3,0,0.5-0.2,0.5-0.5l-0.1-26.2c0-0.4,0.1-0.8,0.4-0.9
			c1.6-0.5,3.2-0.5,4.8-0.1c0.2,0.1,0.3,0.4,0.3,0.8v26.2c0,0.5,0.2,0.9,0.4,0.9l3.6-0.2c0.3-0.1,0.5-0.3,0.5-0.7v-32.1
			C254.4,182.7,253.9,182.3,253.4,182.3z M196.2,191.3v-2.9c0-0.5,0.5-1,1.1-1h2.9c0.6,0,1,0.5,1,1.1v2.9c0,0.6-0.5,1-1.1,1h-2.9
			C196.6,192.4,196.2,191.9,196.2,191.3z M229.9,201.4l-3.4,0.1c-0.5,0-0.9-0.4-1-0.9l-0.1-3.1c0-0.6,0.4-1,0.9-1l3.4-0.1
			c0.5,0,0.9,0.4,1,0.9l0.1,3.1C230.8,200.9,230.4,201.3,229.9,201.4z"/>
	</g>
</g>
</svg>
