<?xml version="1.0" encoding="utf-8"?>
<!-- Generator: Adobe Illustrator 27.9.0, SVG Export Plug-In . SVG Version: 6.00 Build 0)  -->
<svg version="1.1" xmlns="http://www.w3.org/2000/svg" xmlns:xlink="http://www.w3.org/1999/xlink" x="0px" y="0px"
	 viewBox="0 0 469 469" style="enable-background:new 0 0 469 469;" xml:space="preserve">
<style type="text/css">
	.st0{fill:#009872;}
	.st1{fill:#F9F9C3;}
	.st2{fill:#246665;}
	.st3{fill:#C99030;}
	.st4{fill:#C19338;}
	.st5{fill:#79003B;}
	.st6{fill:#DB214C;}
	.st7{fill:#FF6766;}
	.st8{fill:#5C7E7F;}
	.st9{fill:#495678;}
	.st10{fill:#0E5D99;}
	.st11{fill:#FFFFFF;}
	.st12{fill:#137CCF;}
	.st13{fill:#B8683D;}
	.st14{fill:#007CC4;}
</style>
<g id="UNDER">
</g>
<g id="MAIN">
</g>
<g id="SCIENCES">
</g>
<g id="HEALTH_00000128469052700009300670000012666611077201334713_">
</g>
<g id="COMMUNICATION">
</g>
<g id="EDUCATION">
</g>
<g id="POLITICAL">
	<path class="st10" d="M449.8,234.5c0,118.9-96.4,215.3-215.3,215.3l0,0c-118.9,0-215.3-96.4-215.3-215.3l0,0
		c0-118.9,96.4-215.3,215.3-215.3l0,0C353.4,19.2,449.8,115.6,449.8,234.5L449.8,234.5z"/>
	<path class="st11" d="M395.8,234.5c0,89.1-72.2,161.3-161.3,161.3l0,0c-89.1,0-161.3-72.2-161.3-161.3l0,0
		c0-89.1,72.2-161.3,161.3-161.3l0,0C323.6,73.2,395.8,145.4,395.8,234.5L395.8,234.5z"/>
	<path class="st12" d="M391.6,234.5c0,86.7-70.3,157.1-157.1,157.1l0,0c-86.7,0-157.1-70.3-157.1-157.1
		c0-86.7,70.3-157.1,157.1-157.1C321.3,77.4,391.6,147.8,391.6,234.5L391.6,234.5z"/>
	<g>
		<path class="st11" d="M126.1,373.1c-3.1,3.9-6.2,7.8-9.2,11.7c-3.3,4.3-9.5,8.2-13.8,2.3c-3.7-5.1,5.9-8.3,3.5-0.1
			c-0.2,0.5,0.1,1.1,0.7,1.2c0,0,0.1,0,0.1,0c1.1,0.2,2.6-1.7,3.2-2.5c4.5-5.6,8.9-11.4,13.2-17.1c0.1-0.2,0.2-0.3,0.1-0.5
			c-0.2-1.3-0.8-2.3-2-3c-0.2-0.1-0.2-0.3-0.2-0.5c0-0.3,0.2-0.5,0.5-0.5c0.1,0,0.3,0.1,0.4,0.2c3.2,2.4,6.3,4.9,9.5,7.4
			c0.1,0.1,0.2,0.2,0.1,0.4c-0.1,0.4-0.3,0.5-0.7,0.5c-0.1,0-0.2-0.1-0.3-0.2C129.3,370.4,127.6,371.2,126.1,373.1z"/>
		<path class="st11" d="M357.4,385.7c-1-3.9-2.2-7.7-3.5-11.5c-0.3-0.9-1-1.5-1.9-0.7c-0.3,0.2-0.4,0.4-0.5,0.4
			c-0.3,0.1-0.6,0-0.7-0.4c-0.1-0.2,0-0.4,0.1-0.6l4.8-3.9c0.1-0.1,0.3-0.1,0.4,0l0.4,0.4c0.2,0.2,0.2,0.4,0,0.5
			c-0.7,0.6-1,1.3-0.8,1.9c3,10.1,5.1,17.3,6.5,21.6c1.2,3.7,1.4,8.7-2.7,10.5c-1.8,0.8-4-1.4-2.9-3.2c0.7-1,2.4-1.6,3.6-2.2
			c0.1-0.1,0.3-0.2,0.3-0.4c0.7-1.9-0.5-5.2-1.2-7.1c-0.1-0.2-0.2-0.3-0.3-0.3c-4.7-2.3-9.4-4.5-14.2-6.8c-1.1-0.5-2.1-0.8-3.3-1.1
			c-0.2,0-0.3,0-0.5,0.1l-3.8,2.5c-0.1,0.1-0.2,0.2-0.1,0.4c2.4,3.6,4.7,7.2,7.1,10.8c1.7,2.6,4.3,1.3,4.1-1.4
			c0-0.3,0.2-0.5,0.4-0.5c0.2,0,0.4,0.1,0.5,0.4c1.3,4.5-3.9,9.8-7.3,5c-1.4-1.9-4.1-6-8-12.2c-0.1-0.2-0.2-0.2-0.4-0.1l-2.1,1.4
			c-0.3,0.2-0.6,0.1-0.8-0.2c-0.1-0.2-0.1-0.4,0-0.6c0.9-1.6,1.4-3.3,1.5-5.2c0.1-1.3-0.4-2.7-0.4-4.1c0-0.3,0.2-0.5,0.5-0.5
			c0.2,0,0.4,0.1,0.4,0.2l3.2,5c0.1,0.1,0.2,0.2,0.4,0.1c3.5-2.1,6.7-4.5,9.7-7.2c0.2-0.2,0.5-0.2,0.7,0c0,0,0,0,0,0.1l0.2,0.3
			c0.1,0.2,0.1,0.3-0.1,0.4c-0.6,0.4-0.9,1-1,1.6c0,0.2,0,0.3,0.1,0.5c1.4,1.8,8.4,4.6,11.5,6C357.4,385.9,357.5,385.9,357.4,385.7z
			"/>
		<circle class="st11" cx="136.4" cy="375.9" r="2.3"/>
		<circle class="st11" cx="320.9" cy="383.4" r="2.3"/>
		<path class="st11" d="M122.5,399.3c0.3,0.8,0.8,1.4,1.5,1.8c0.2,0.1,0.2,0.3,0,0.4l-0.4,0.4c-0.1,0.1-0.3,0.1-0.4,0l-7.6-5.5
			c-0.2-0.1-0.2-0.3-0.1-0.4l0.3-0.4c0.1-0.1,0.3-0.2,0.4-0.1c0,0,0,0,0,0c1.3,1.2,2.5,1,3.6-0.5c0.8-1.1,7.7-9.4,7.5-11.5
			c0-0.2-0.1-0.3-0.3-0.4l-1.4-0.7c-0.3-0.1-0.4-0.5-0.3-0.8c0.1-0.2,0.4-0.4,0.6-0.3l6,1.5c0.9,0.2,1.1,0.7,0.5,1.4
			c-3,4-6,8.3-9.2,12.7c-0.4,0.6-0.8,1.2-1,1.8C122.4,399,122.4,399.1,122.5,399.3z"/>
		<path class="st11" d="M139.8,391.8c1.9-0.6,3.3-0.9,4.2-0.8c4.8,0.4,6.8,4.7,4.4,8.8c-3.3,5.5-5.3,8.9-6.1,10.4
			c-0.7,1.3,1.1,2.2,1.6,3.1c0.1,0.2,0.1,0.5-0.2,0.6c-0.1,0.1-0.3,0.1-0.5,0l-8.1-4.9c-0.1-0.1-0.2-0.2-0.2-0.4
			c0-0.4,0.2-0.6,0.4-0.6c0.1,0,0.3,0,0.5,0.2c1.4,0.9,2.6,0.6,3.5-1c1.7-2.6,3.3-5.3,4.9-8c3-5.2-1.3-7.3-5.6-5.7
			c-0.2,0.1-0.3,0.2-0.4,0.3c-3.1,4.9-5.1,8.2-5.9,9.9c-0.8,1.5-0.3,2.6,1.3,3.1c0.2,0.1,0.3,0.3,0.2,0.4c0,0,0,0,0,0.1l-0.2,0.4
			c-0.1,0.2-0.3,0.3-0.5,0.1l-8-4.8c-0.2-0.1-0.2-0.3-0.1-0.5c0,0,0,0,0-0.1l0.3-0.4c0.1-0.1,0.3-0.2,0.4,0c1.2,1,2.3,0.9,3.1-0.3
			c1.2-1.7,3.2-5,5.9-9.8c0.6-1,0.9-1.8,1.1-2.6c0-0.2,0-0.4-0.2-0.5l-1.7-0.8c-0.1-0.1-0.2-0.2-0.2-0.3l0-0.5
			c0-0.2,0.2-0.4,0.4-0.3l6.6,1.1c0.3,0.1,0.5,0.3,0.4,0.6c0,0.1,0,0.1-0.1,0.2l-1.6,2.8c0,0.1,0,0.2,0.1,0.2
			C139.7,391.8,139.7,391.8,139.8,391.8z"/>
		<path class="st11" d="M322,395.5c-0.2-0.1-0.2-0.3-0.2-0.4c0,0,0,0,0-0.1l4.3-5.5c0.1-0.2,0.4-0.2,0.6-0.1c0,0,0.1,0.1,0.1,0.1
			c3,5,6,10,8.9,14.9c0.5,0.8,1.3,1,2.5,0.8c0.2,0,0.3-0.1,0.4-0.2c0.1-0.1,0.3-0.2,0.5-0.2c0.3-0.1,0.6,0.1,0.6,0.4
			c0,0.2-0.1,0.4-0.3,0.6l-7.8,4.7c-0.2,0.1-0.3,0.1-0.5-0.1L331,410c-0.1-0.1-0.1-0.3,0.1-0.4c0,0,0,0,0,0c2.2-1,1.6-2.6,0.6-4.3
			c-2-3.4-4.1-7.8-6.8-10.6c-0.1-0.1-0.3-0.2-0.4-0.1c-0.6,0.2-1.2,0.5-1.7,1c-0.1,0.1-0.3,0.2-0.5,0.1L322,395.5z"/>
		<path class="st11" d="M311.6,407.4c-5.2-4-1.8-10.3,3.8-11c1.2-0.1,1.8-0.7,2-1.8c0-0.2,0.2-0.3,0.4-0.2c0.1,0,0.2,0.1,0.2,0.2
			l3,5.7c0.1,0.2,0.1,0.4-0.1,0.6c-0.2,0.2-0.3,0.3-0.5,0.3c-0.1,0-0.3-0.1-0.4-0.2c-2.6-2.5-4.9-4.3-8-1.1c-2,1.9-0.1,4.2,2.2,4.3
			c1.4,0.1,3.4,0.1,6.2,0.2c5,0,8.2,4.3,5.7,8.8c-1.6,2.8-4.8,3.8-8,4.5c-0.2,0-0.3,0.1-0.4,0.3l-0.4,0.8c-0.1,0.2-0.3,0.2-0.5,0.2
			c-0.1,0-0.1-0.1-0.2-0.2c-1-2-2.1-3.9-3.1-5.9c-0.1-0.2-0.1-0.4-0.1-0.6c0.1-0.2,0.4-0.3,0.7-0.2c0,0,0.1,0.1,0.1,0.1
			c2,2.3,4.9,3.8,7.9,2.5c2.8-1.2,2.6-5-0.4-5.8C319.1,408,313.7,409,311.6,407.4z"/>
		<path class="st11" d="M155.7,416.9c-1.6,0.4-3.4,0.9-4.8,0.7c-2.6-0.3-4.8-2.5-4.5-5.3c0.8-6.6,8.7-5.6,13.8-5.4
			c0.2,0,0.3-0.1,0.4-0.2c0.8-1.5,1.6-3.8,0.5-5.2c-0.9-1.2-2.6-1.9-3.9-1.2c-1.4,0.8-1.3,2.3-2.3,3.1c-1.2,1-3.1-0.1-3.1-1.6
			c-0.1-1.6,2.1-3.1,3.4-3.5c4.1-1.2,12.1,2.5,9.8,7.9c-1.6,3.8-3.2,7.7-4.9,11.5c-0.2,0.4,0,0.9,0.4,1c0.2,0.1,0.4,0.1,0.5,0
			l2.1-0.6c0.2-0.1,0.3,0,0.2,0.2c-0.4,2.7-9.1,4.4-7.4-1.2C156,416.9,155.9,416.8,155.7,416.9z M150.5,413c0.2,3,4,2.9,6.1,2
			c0.1-0.1,0.2-0.2,0.3-0.3l2.6-5.8c0.1-0.2,0-0.3-0.2-0.3C156.4,408.3,150.2,408,150.5,413z"/>
		<path class="st11" d="M301.1,405.7c0,0.1,0.1,0.1,0.2,0.1c0.1,0,0.1-0.1,0.1-0.1c0.3-2.7,2.7-7.4,6-4.6c0.6,0.5,0.8,1.1,0.7,1.8
			c-0.4,2.7-2.6,1.7-4.3,1.5c-0.3,0-0.6,0.1-0.8,0.4c-1.1,2.2-1,3.5-0.1,5.9c0.7,1.8,1.4,3.5,2.2,5.3c1.1,2.6,1.6,4.7,4.9,3.5
			c0.1,0,0.2,0,0.3,0.1l0.3,0.3c0.1,0.2,0.1,0.4-0.1,0.6c0,0-0.1,0-0.1,0.1l-9.3,3.8c-0.3,0.1-0.4,0-0.4-0.3l0-0.6
			c0-0.2,0.1-0.3,0.2-0.3c2.2-0.6,2-2.2,1.3-4c-1.5-3.7-3-7.4-4.5-11c-0.3-0.6-1-0.9-1.7-0.7c0,0,0,0-0.1,0l-1.1,0.6
			c-0.3,0.1-0.6,0-0.7-0.3c-0.1-0.2-0.1-0.5,0.1-0.6l5-4.7c0.1-0.1,0.4-0.1,0.5,0c0,0,0.1,0.1,0.1,0.1L301.1,405.7z"/>
		<path class="st11" d="M197.3,403.3c-0.1-0.2-0.1-0.4,0-0.7c0.1-0.2,0.2-0.2,0.3-0.2L210,404c0.3,0,0.4,0.3,0.4,0.5
			c0,0.1,0,0.1-0.1,0.2l-0.1,0.3c-0.1,0.2-0.2,0.3-0.4,0.2c-2.2-0.3-3.7-0.2-4.1,2.2c-0.8,4.9-1.4,9.8-1.8,14.7
			c-0.1,1.6-0.1,3.2,0,4.8c0.5,5,6.1,6.3,10.3,5.3c3-0.8,4.8-2.7,5.4-5.8c0.8-4.8,1.5-9.6,2-14.5c0.3-3,1-5.5-2.8-5.7
			c-0.2,0-0.4-0.1-0.4-0.3c-0.4-0.7-0.3-1,0.3-0.9c3.3,0.4,6.6,0.8,9.9,1.3c0.2,0,0.4,0.2,0.3,0.4c0,0,0,0,0,0.1
			c-0.1,0.5-0.5,0.7-1.1,0.6c-2.1-0.4-3.4,0.5-3.6,2.6c-0.9,7.8-1.6,13.1-2.1,15.9c-1.2,7.1-6.9,9.7-13.5,8.5
			c-4.4-0.8-8.1-3-9.1-7.6c-0.3-1.3-0.2-3.7,0.2-7.1c0.4-3.5,0.8-7,1.2-10.4c0.2-1.7,0.2-3.2,0.1-4.4c0-0.2-0.1-0.3-0.3-0.4
			C199.9,404.1,197.5,403.6,197.3,403.3z"/>
		<circle class="st11" cx="251.5" cy="405.7" r="2.3"/>
		<path class="st11" d="M174.3,408.4c1.3-0.6,2.6-1.1,4-1.5c3.4-0.9,6.5,1.6,6.5,5c0,1-0.5,2.8-1.4,5.4c-1.4,4-2.3,6.8-2.7,8.3
			c-0.6,2.1,1.2,1.8,2,2.6c0.2,0.2,0.2,0.6,0,0.8c-0.2,0.1-0.4,0.2-0.6,0.1l-8.8-3.1c-0.1-0.1-0.2-0.2-0.2-0.4l0.1-0.4
			c0.1-0.2,0.2-0.3,0.4-0.3c2.4,0.5,2.8,0.5,3.7-1.8c1.8-4.8,3-8.3,3.5-10.5c1.1-4.5-4.8-4.3-7.2-2.5c-0.1,0.1-0.2,0.2-0.3,0.4
			c-1.3,3.6-2.6,7.2-3.7,10.9c-0.2,0.8-0.1,1.5,0.4,2.1c0,0,0,0,0.1,0l1.6,0.7c0.3,0.1,0.4,0.4,0.3,0.7c-0.1,0.3-0.4,0.4-0.7,0.3
			l-9.1-3.1c-0.2-0.1-0.3-0.2-0.3-0.4c0-0.4,0.2-0.6,0.5-0.6c0.1,0,0.3,0,0.6,0.1c1.3,0.4,2.2-0.1,2.7-1.5c1.6-4.1,3-8.2,4.2-12.4
			c0.2-0.6-0.2-1.2-0.8-1.4c-0.1,0-0.2,0-0.3,0c-0.5,0-0.9-0.1-1.2-0.2c-0.3-0.1-0.4-0.4-0.2-0.7c0.1-0.2,0.2-0.3,0.4-0.3l6.6-0.4
			c0.4,0,0.7,0.3,0.7,0.6c0,0.1,0,0.2,0,0.3l-1,2.8C174,408.4,174.1,408.5,174.3,408.4z"/>
		<path class="st11" d="M294.9,426.1c-10.8,9.6-22.8-14.3-8.2-19c4.3-1.4,8.4,1.7,9.7,5.7c0.1,0.2,0,0.3-0.2,0.3l-12.7,3.7
			c-0.1,0-0.2,0.1-0.2,0.3c0.7,2.8,2.1,4.8,4.1,5.9c4.5,2.5,9.1-0.1,9.1-5.3c0-0.2,0.1-0.3,0.3-0.3c0,0,0,0,0.1,0
			c0.6,0.2,1,0.6,0.9,1.4C297.7,421.6,297,424.2,294.9,426.1z M283.1,415.2l7.9-2.3c0.1,0,0.1-0.1,0.1-0.2c0,0,0,0,0,0l0-0.1
			c-0.7-2.4-3.1-3.8-5.4-3.2l0,0c-2.3,0.7-3.5,3.2-2.8,5.6c0,0,0,0,0,0l0,0.1C282.9,415.2,283,415.3,283.1,415.2z"/>
		<path class="st11" d="M265.8,414c-1.9,0.5-2.2,1.5-1.2,3.2c2,3.2,4.1,6.3,6.3,9.5c0.1,0.2,0.2,0.2,0.3-0.1c0.9-4,1.7-8.1,2.4-12.2
			c0.2-1,0-1.8-1.3-1.6c-0.4,0.1-0.6,0.1-0.8,0c-0.3-0.1-0.5-0.3-0.4-0.6c0-0.1,0.1-0.2,0.2-0.3c0.1-0.1,0.4-0.2,0.7-0.3
			c1.8-0.3,3.5-0.7,5.3-1.1c0.3-0.1,0.5,0.1,0.6,0.3c0.1,0.2,0.1,0.4,0,0.5c-0.4,0.7-1.8,0.7-2.1,2c-1.3,6.4-2.6,12.8-3.9,19.2
			c-0.1,0.4-0.5,0.6-0.8,0.6c-0.2,0-0.3-0.1-0.5-0.3c-3.5-5.1-6.9-10.3-10.4-15.5c-0.7-1.1-1.8-1.6-3.2-1.6c-0.5,0-0.7-0.2-0.7-0.7
			c0-0.2,0.2-0.4,0.4-0.5c2.9-0.6,5.7-1.1,8.6-1.7c0.3-0.1,0.6,0.1,0.7,0.3c0.1,0.2,0.1,0.5-0.2,0.6
			C265.9,413.9,265.9,414,265.8,414z"/>
		<path class="st11" d="M249.3,417.2l-1.5,0.4c-0.1,0-0.3,0-0.3-0.1l-0.3-0.4c-0.1-0.2-0.1-0.4,0.1-0.5c0,0,0,0,0,0l6-3
			c0.3-0.1,0.6,0,0.8,0.3c0,0.1,0.1,0.1,0.1,0.2c0.5,5.6,1,11.2,1.5,16.9c0.1,1.6,1.1,2.2,2.8,1.9c0.2,0,0.3,0,0.4,0.2l0.2,0.6
			c0.1,0.2,0,0.3-0.2,0.4c0,0,0,0-0.1,0l-9.5,0.9c-0.3,0-0.4-0.1-0.4-0.3l0-0.6c0-0.2,0.1-0.3,0.3-0.3c1.7,0,2.5-0.8,2.4-2.5
			c-0.2-4.2-0.6-8.3-1.1-12.4c-0.1-0.6-0.4-1.2-0.8-1.6C249.6,417.2,249.5,417.1,249.3,417.2z"/>
		<path class="st11" d="M227.1,418.9c-0.7-0.3-1.6,0.3-2.1,0.1c-0.2-0.1-0.3-0.3-0.3-0.6c0-0.2,0.2-0.5,0.4-0.6l5.8-2.7
			c0.3-0.1,0.6,0,0.7,0.3c0,0.1,0,0.1,0,0.2l0.3,3c0,0.1,0.1,0.2,0.2,0.1c0,0,0.1,0,0.1-0.1c1.4-1.6,3.1-3.3,5.2-3.7
			c3.9-0.8,6.2,2.4,6.4,5.9c0.2,3.2,0.4,6.4,0.6,9.6c0.1,2,0.1,3.8,2.8,3.6c0.3,0,0.6,0.2,0.6,0.5c0,0.3-0.1,0.5-0.4,0.6
			c-0.2,0.1-0.5,0.1-0.9,0.1c-2.9,0.1-5.8,0.2-8.7,0.5c-0.2,0-0.3-0.1-0.3-0.3c0,0,0,0,0,0l0-0.6c0-0.3,0.1-0.4,0.4-0.4
			c1.8,0.1,2.7-0.8,2.7-2.9c-0.1-3-0.3-6.6-0.7-10.7c-0.4-4.9-5.1-3-7.2-0.8c-0.8,0.8-0.7,1.7-0.6,2.8c0.3,4.3,0,8.6,1,11.2
			c0.1,0.2,0.2,0.3,0.4,0.3c0.7,0.2,1.4,0.3,2.1,0.2c0.2,0,0.4,0.1,0.5,0.3l0.1,0.5c0.1,0.3,0,0.4-0.3,0.4l-9.6,0.6
			c-0.1,0-0.2-0.1-0.2-0.2l-0.1-0.6c0-0.2,0.1-0.3,0.2-0.3c0,0,0,0,0.1,0c1.8,0,2.6-0.9,2.6-2.7c-0.1-4.2-0.4-8.4-0.8-12.6
			C227.8,419.4,227.5,419,227.1,418.9z"/>
	</g>
	<g>
		<path class="st11" d="M227.5,32c-0.6-0.3-1.2-0.3-1.7,0c-0.2,0.1-0.4,0.1-0.5-0.1l-0.2-0.2c-0.1-0.1-0.1-0.3,0-0.4
			c0,0,0.1,0,0.1,0l6.1-2.5c0.4-0.2,0.6,0,0.6,0.4c0,8.9,0.1,18,0.2,27.1c0,1.9,1,2.8,2.9,2.7c0.2,0,0.4,0.1,0.4,0.3
			c0,0.1-0.1,0.3-0.2,0.3c-1.3,0.7-7.6,0.2-9.4,0.2c-0.4,0-0.5-0.2-0.3-0.5c0-0.1,0.1-0.1,0.3-0.2c1.2-0.6,2.5-0.2,2.6-2.2
			c0.1-4.8,0.1-12.7-0.2-23.5c0-0.2-0.1-0.5-0.2-0.7c-0.1-0.1-0.1-0.2-0.1-0.4C227.8,32.2,227.6,32.1,227.5,32z"/>
		<circle class="st11" cx="242.8" cy="31.2" r="2.2"/>
		<circle class="st11" cx="272" cy="34.4" r="2.2"/>
		<path class="st11" d="M258.6,41.1l3.9,0.6c0.3,0,0.4,0.2,0.4,0.5c0,0.8-0.3,1.1-1.1,1c-1.1-0.2-2.3-0.4-3.4-0.5
			c-0.2,0-0.3,0.1-0.3,0.2c-0.7,4.5-1.3,9-1.8,13.5c-0.3,3,2.8,3.2,4.2,1.2c0.1-0.2,0.3-0.2,0.5-0.1c0.1,0.1,0.2,0.3,0.1,0.4
			c-2.2,4.5-9.3,4.5-8.5-1.6c0.6-4.7,1.2-9.3,1.9-13.9c0-0.2-0.1-0.3-0.3-0.3c0,0,0,0,0,0l-2.4-0.3c-0.2,0-0.4-0.2-0.4-0.5
			c0-0.2,0.1-0.3,0.3-0.3c3-1.2,5.2-3.3,6.6-6.2c0.1-0.2,0.3-0.3,0.6-0.2c0.2,0.1,0.3,0.3,0.2,0.4l-0.8,5.9
			C258.3,41,258.4,41.1,258.6,41.1z"/>
		<path class="st11" d="M189.4,36.8c6.2,2.4,6.6,11.3,0.5,14.3c-2.2,1.1-4.5,1.6-6.9,1.7c-0.2,0-0.3,0.2-0.3,0.3c0,0,0,0,0,0.1
			c0.8,3,1.7,6,2.7,9c0.8,2.4,2.3,3,4.6,1.9c0.1-0.1,0.3,0,0.4,0.1c0,0,0,0.1,0,0.1l0,0.3c0,0.2-0.1,0.3-0.2,0.4
			c-3.7,1.1-7.5,2.2-11.2,3.3c-0.4,0.1-0.7,0-0.7-0.3c0-0.2,0.1-0.4,0.3-0.5c2.6-0.5,3.5-2,2.7-4.6c-1.8-6-3.6-11.9-5.4-17.9
			c-0.9-3-1.4-5.7-5.2-4.1c-0.1,0.1-0.3,0-0.4-0.1l-0.2-0.3c-0.1-0.2-0.1-0.4,0.2-0.4c4.3-1.2,8.5-2.5,12.8-3.7
			C184.8,36,187.7,36.1,189.4,36.8z M179,40.8l3,10.2c0.2,0.6,0.9,1,1.5,0.8l1.9-0.6c3.1-0.9,4.9-4.4,3.9-7.7l-0.2-0.6
			c-1-3.3-4.3-5.2-7.5-4.3c0,0,0,0,0,0l-1.9,0.6C179.2,39.4,178.8,40.1,179,40.8z"/>
		<path class="st11" d="M240.8,56c0-3.9,0-7.9,0-11.8c0-0.8-0.3-1.4-0.7-1.8c-0.1-0.1-0.3-0.2-0.5-0.2l-1.6,0.2
			c-0.2,0-0.4-0.1-0.5-0.4c0-0.2,0.1-0.4,0.3-0.4l6-2.3c0.3-0.1,0.6,0,0.7,0.3c0,0.1,0,0.1,0,0.2c-0.1,5.7-0.1,11.4,0.1,17.2
			c0,1.4,0.8,2.1,2.3,2c0.3,0,0.5,0.2,0.5,0.4c0,0.1-0.1,0.3-0.2,0.4c-0.2,0.1-0.4,0.1-0.6,0.1c-1.9-0.6-6.2-0.1-8.3-0.1
			c-0.1,0-0.3,0-0.4-0.1c-0.2-0.1-0.3-0.3-0.2-0.4c0.1-0.2,0.2-0.2,0.4-0.2C239.9,59.1,240.8,58.1,240.8,56z"/>
		<path class="st11" d="M211.9,61.7c-5.3,0.3-9.8-4.2-10.1-10.1c0,0,0,0,0,0c-0.3-5.8,3.7-10.8,9-11.1l0,0
			c5.3-0.3,9.8,4.2,10.1,10.1c0,0,0,0,0,0C221.2,56.5,217.1,61.4,211.9,61.7L211.9,61.7z M206.7,43.9c-2.8,3.3-0.6,10.1,1.5,13.3
			c1.8,2.8,5.6,4,7.8,1.1c2.6-3.4,0.4-13.4-3.4-15.5C210.3,41.6,208.3,42,206.7,43.9z"/>
		<path class="st11" d="M267.8,47.6c0.3-1.8,0.1-3.3-2.2-3c-0.5,0.1-0.6-0.1-0.4-0.6c0-0.1,0.1-0.1,0.1-0.1l6.3-1.3
			c0.2,0,0.5,0.1,0.5,0.4c0,0.1,0,0.1,0,0.2c-0.8,4.8-1.7,9.6-2.5,14.5c-0.4,2.4-1.1,4.4,1.7,5c0.2,0,0.3,0.1,0.3,0.2
			c0.1,0.1,0.1,0.3,0,0.5c-0.1,0.2-0.2,0.2-0.3,0.2l-9-1.6c-0.2,0-0.3-0.2-0.3-0.4c0-0.2,0.2-0.3,0.3-0.3l2.1-0.1
			c0.1,0,0.2-0.1,0.3-0.2c0.5-0.6,0.9-1.6,1.1-2.7C266.7,54.7,267.3,51.2,267.8,47.6z"/>
		<path class="st11" d="M150.6,58.1c-3.4-4.8-1.3-13,5.1-13.5c1.6-0.1,5.4,0.2,4.5,2.9c-1.1,3-4.8-1.1-7-0.4c-4,1.2-0.4,7.4,0.7,9.7
			c0.1,0.2,0.2,0.2,0.4,0.1l4.1-1.9c0.2-0.1,0.4,0,0.5,0.2c0,0,0,0,0,0l0.3,0.8c0.1,0.2,0,0.4-0.2,0.5l-4.1,1.9
			c-0.2,0.1-0.2,0.2-0.1,0.4c1.7,3.9,3.5,7.8,5.4,11.6c1.2,2.5,2.6,4.6,5.4,2.3c0.2-0.2,0.5-0.1,0.6,0.1c0,0,0,0,0,0.1
			c0.2,0.4,0.1,0.6-0.3,0.8c-3.2,1.4-6.5,2.9-9.7,4.4c-0.2,0.1-0.4,0.1-0.6,0.1c-0.2-0.1-0.3-0.2-0.3-0.4c0-0.2,0-0.3,0.2-0.4
			c3.4-1.1,2.1-3.8,1-6.1c-1.6-3.5-3.3-7.1-5-11c-0.1-0.3-0.3-0.3-0.6-0.2l-2.8,1.3c-0.2,0.1-0.4,0-0.4-0.2l-0.4-0.8
			c-0.1-0.2,0-0.3,0.2-0.4l3-1.4C150.6,58.6,150.7,58.3,150.6,58.1C150.6,58.1,150.6,58.1,150.6,58.1z"/>
		<path class="st11" d="M279.4,65.4c-7.3-7,0.7-22.3,11.4-17.6c1.7,0.8,2.9,2.1,3.5,4c0.5,1.7-0.1,3.5-2.3,3.1
			c-3.2-0.6-0.6-4.1-2.2-5.6c-1.8-1.7-4.9-1.2-6.4,0.5c-3,3.4-4.2,10.2-0.5,13.5c3.3,2.9,6.5,0.7,9.1-1.9c0.1-0.1,0.3-0.1,0.5,0
			c0.1,0.1,0.1,0.2,0.1,0.4C290.3,66.8,283.9,69.7,279.4,65.4z"/>
		<path class="st11" d="M314.8,77.4c0.5-0.4,0.8-0.8,0.9-1.1c3.6-6.6,7.1-13.5,10.6-20.4c0.7-1.4-0.1-2.4-1.6-2.4
			c-0.2,0-0.3-0.1-0.3-0.3v-0.3c0-0.2,0.1-0.3,0.3-0.3l6.2,0.6c0.3,0,0.6,0.3,0.5,0.7c0,0.1,0,0.2-0.1,0.2
			c-4,7.7-8.1,15.4-12.1,23.2c-0.9,1.7-1.3,3.5,1,4.2c0.2,0.1,0.3,0.2,0.2,0.4l-0.1,0.3c-0.1,0.2-0.2,0.2-0.3,0.1l-8.5-4.4
			c-0.5-0.3-0.5-0.5,0.1-0.5c0.4,0,0.8,0,1.1,0.2c0.2,0.1,0.3,0.2,0.4,0.2C313.8,78,314.3,77.8,314.8,77.4z"/>
		<path class="st11" d="M299.9,55.4c1.8-2.1,4.1-2.8,6.9-1.9c2.6,0.7,5.9,2.2,6,5.2c0,0.8-0.3,2-1,3.9c-1.2,3.1-2.3,6.2-3.5,9.3
			c-0.2,0.6-0.1,1.1,0.4,1.7c0.1,0.2,0.3,0.2,0.5,0.1l2-0.7c0.1,0,0.3,0,0.4,0.2c0,0.1,0,0.2-0.1,0.3c-1.1,1.1-2.3,1.7-3.8,1.9
			c-2.4,0.4-4-0.8-3.2-3.5c0-0.1,0-0.3-0.2-0.3c-0.1,0-0.1,0-0.2,0c-1.6,0.5-3.3,1.1-4.9,1c-6.3-0.3-6.1-8.6-0.6-10
			c2.7-0.7,5.8-0.9,9.2-0.7c0.2,0,0.3-0.1,0.4-0.2c1-1.8,1.7-4.5-0.1-6.1c-1-0.9-3.2-1.5-4.4-0.2c-0.8,0.8-0.7,2.2-1.6,2.9
			C300.4,59.7,298.5,57.1,299.9,55.4z M301.7,63.6c-2.5,0.7-4.1,3.4-2.7,5.7c1.3,2.1,4,1.4,5.9,0.8c0.2-0.1,0.3-0.2,0.3-0.3l2.5-6.6
			c0-0.1,0-0.2-0.1-0.2C305.2,63,303.2,63.2,301.7,63.6z"/>
		<path class="st11" d="M143.9,85.9c-4.7,2.5-10.7,0.3-13.4-4.9c0,0,0,0,0,0c-2.7-5.2-1.2-11.4,3.5-13.8c4.7-2.5,10.7-0.3,13.4,4.9
			c0,0,0,0,0,0C150.1,77.2,148.5,83.4,143.9,85.9z M145.7,82.4c3-4.6-6.1-16.1-11.9-13.3C125.8,73,140.5,90.3,145.7,82.4z"/>
		<path class="st11" d="M346.1,81.9c-4.4-10.9,8.4-16.4,14.3-7.3c0.6,0.9,1.2,1.9,1.9,2.9c0.3,0.4,0.8,0.5,1.2,0.3l1.2-0.5
			c0.2-0.1,0.4,0,0.5,0.2c0.1,0.1,0,0.3,0,0.4l-6,7.6c-0.1,0.2-0.3,0.2-0.5,0.1c0,0-0.1-0.1-0.1-0.1c0-0.1-0.1-0.2-0.1-0.3
			c0-0.1,0-0.2,0.1-0.4c2.5-4.2,2-8-1.5-11.3c-0.7-0.6-1.5-1-2.7-1.1c-3.5-0.3-5.8,2.3-4.7,5.9c0.6,1.9,1.8,5,3.7,9.5
			c1.4,3.3,1.3,6.2-0.4,8.6c-5,7.1-13.9,1.9-16.8-3.9c-0.7-1.4-1.7-1.7-3-0.8c-0.2,0.1-0.4,0.1-0.5-0.1c-0.1-0.1-0.1-0.3,0-0.4
			l6-7.6c0.1-0.2,0.3-0.2,0.5-0.1c0.2,0.1,0.2,0.3,0.1,0.5l0,0c-1.3,2.5-2.3,5.1-1.1,8c1.6,3.9,8,8.5,11,3.1
			C350.9,91.9,347.4,85,346.1,81.9z"/>
		<path class="st11" d="M107,98.1c2.4,3.2,7.3,5.3,10.9,2.8c2.5-1.8,3.1-4.5,2.1-7.3c-0.1-0.2,0-0.4,0.2-0.5c0.1,0,0.3,0,0.4,0.1
			c1.3,1.1,1.6,4.7,1.4,6.2c-0.6,5-5.4,7.7-10.1,6.5c-6.5-1.7-11.7-10.9-6.9-16.7c3.3-4,8.4-4.3,12.1-0.4c0.2,0.2,0.2,0.3,0,0.5
			l-9.9,8.4C106.9,97.9,106.9,98,107,98.1z M106.3,96.7l6.5-5.5c0.1-0.1,0.1-0.2,0-0.3l-0.1-0.1c-1.7-2-4.7-2.4-6.5-0.8c0,0,0,0,0,0
			l0,0c-1.9,1.6-2,4.6-0.3,6.6l0.1,0.1C106,96.8,106.2,96.8,106.3,96.7z"/>
		<path class="st11" d="M354.7,107.4c-1.2-7.4,8.1-15.1,15.3-11.6c3.1,1.5,5.2,4.3,4.8,8c-0.2,1.5-0.9,2.4-2.2,2.6
			c-0.1,0-0.2,0-0.3,0c-1.1-0.4-1.7-1.2-1.9-2.3c0-0.2,0-0.3,0.1-0.5c0.9-1.7,2.7-3,1-5.1c-5.3-6.6-17.7,7-10.5,12.4
			c1.9,1.4,4.3,1.4,6.5,0.6c0.1,0,0.2,0,0.3,0c0.1,0,0.2,0,0.3,0c0.2,0,0.3,0.1,0.3,0.3c0,0.1-0.1,0.2-0.1,0.2
			C363.2,115.3,355.7,114,354.7,107.4z"/>
		<path class="st11" d="M93.8,100.7l2.9-2.9c0.1-0.2,0.3-0.2,0.4,0l0.6,0.6c0.1,0.1,0.1,0.3,0,0.4l-2.8,2.9c-0.1,0.1-0.1,0.3,0,0.4
			c3.1,3,6.1,5.9,9.2,8.8c2.6,2.5,4.5,1.2,4.3-2.2c0-0.2,0.1-0.3,0.3-0.3c0.1,0,0.2,0,0.3,0.1c1.8,3.1-0.2,8.8-4.6,7
			c-0.6-0.2-1.3-0.8-2.3-1.7c-3.2-3-6.4-6-9.5-9.1c-0.1-0.1-0.3-0.1-0.4,0c-0.7,0.5-1.3,1.7-2.1,2c-0.2,0.1-0.3,0-0.4-0.2
			c0-0.1,0-0.1,0-0.2c0.8-3.2,0.4-6.2-1-9.1c-0.1-0.2-0.1-0.4-0.1-0.6c0-0.2,0.2-0.3,0.4-0.2c0.1,0,0.1,0,0.1,0.1l4.3,4.2
			C93.5,100.8,93.6,100.8,93.8,100.7z"/>
		<circle class="st11" cx="390.5" cy="105.5" r="2.2"/>
		<path class="st11" d="M379.2,111.9c1.2-1.1,1.1-2.2-0.5-3.1c-0.1-0.1-0.1-0.1-0.1-0.2c0-0.1,0-0.1,0-0.2c0-0.2,0.1-0.3,0.2-0.3
			c0.1,0,0.1,0,0.2,0l5.6,3.3c0.3,0.1,0.4,0.5,0.2,0.7c0,0.1-0.1,0.1-0.1,0.2c-3.9,3.1-7.9,6.2-11.9,9.3c-1.4,1-3.4,2.7-1.6,4.5
			c0.1,0.1,0.2,0.3,0.1,0.4l-0.2,0.3c-0.1,0.2-0.3,0.2-0.4,0l-5.7-7.3c-0.1-0.2-0.1-0.3,0.1-0.4l0.3-0.1c0.1,0,0.2,0,0.3,0.1
			c1,1.5,2.2,1.7,3.6,0.6C374.3,116,377.6,113.4,379.2,111.9z"/>
		<path class="st11" d="M95.9,123.9c0.5,2.4,0.7,5.6-1.1,7.5c-3.1,3.4-6.2,1.2-9.3-1.1c-2.9-2.2-5.3-4-7.2-5.6
			c-1.8-1.4-2.6-0.4-3.9,0.8c-0.1,0.1-0.2,0.1-0.3,0.1c-0.4-0.1-0.5-0.2-0.3-0.5c1.3-1.7,2.6-3.4,3.9-5.1c0.1-0.1,0.3-0.1,0.4,0
			c0,0,0,0,0,0c3.6,2.9,7.3,5.8,11,8.6c4.5,3.4,6.3-2.6,5.6-5.8c0-0.2-0.1-0.3-0.2-0.4c-1.6-1.3-4.6-3.6-9.1-7.1
			c-2.3-1.8-2.4,0.6-4,0.9c-0.2,0-0.3-0.1-0.4-0.2c0-0.1,0-0.2,0.1-0.3l3.9-5c0.1-0.1,0.2-0.1,0.4,0l12.8,9.9
			c0.1,0.1,0.2,0.1,0.3,0.1c1.2,0,1.9-0.5,2.1-1.7c0-0.1,0.1-0.2,0.3-0.2l0.3,0c0.1,0,0.3,0.1,0.3,0.3c0,0,0,0.1,0,0.1l-1.9,6.4
			c-0.1,0.2-0.3,0.3-0.5,0.2c0,0-0.1,0-0.1-0.1l-2.8-2.1c-0.1-0.1-0.2,0-0.3,0C95.9,123.8,95.9,123.8,95.9,123.9z"/>
		<path class="st11" d="M376.2,129.9c2.3-6.6,12-11.4,17.6-5.6c3.7,3.7,3.3,9.1-1.2,12.1c-0.1,0.1-0.2,0.1-0.3-0.1l-7.2-11
			c-0.1-0.2-0.2-0.2-0.4-0.1c-6.6,3.9-6.8,15.2,3.1,13.4c0.2,0,0.2,0,0.3,0.2c0,0.4-0.1,0.6-0.5,0.7
			C380.9,141.9,373.6,137.3,376.2,129.9z M386.1,124.8l4.6,7c0.1,0.2,0.3,0.2,0.5,0.1l0.1,0c2.3-1.5,3-4.4,1.6-6.4l-0.1-0.1
			c-1.4-2.1-4.3-2.6-6.5-1.1c0,0,0,0,0,0l-0.1,0C386.1,124.5,386,124.7,386.1,124.8z"/>
		<path class="st11" d="M69.9,132.5l2-3.5c0.1-0.2,0.3-0.2,0.4-0.1l0.7,0.4c0.2,0.1,0.3,0.3,0.1,0.5l-2,3.5
			c-0.1,0.1-0.1,0.3,0.1,0.3c5.5,3.2,9.6,5.6,12.4,7c0.5,0.3,1.1,0.2,1.7-0.2c1.8-1.2,0.7-2.3,0.5-3.8c0-0.2,0.1-0.3,0.3-0.3
			c0.1,0,0.2,0,0.3,0.1c3.1,4.2,0.7,10.5-5,7.3c-3.9-2.2-7.8-4.5-11.7-6.7c-0.2-0.1-0.5-0.1-0.7,0.2l-1.3,2.2
			c-0.1,0.1-0.2,0.2-0.4,0.1c-0.1,0-0.1-0.1-0.1-0.2c0-3.3-1.1-6.1-3.2-8.6c-0.1-0.1-0.2-0.3-0.2-0.4v-0.3c0-0.1,0.1-0.2,0.2-0.2
			c0,0,0.1,0,0.1,0l5.3,3C69.6,132.7,69.8,132.7,69.9,132.5C69.9,132.5,69.9,132.5,69.9,132.5z"/>
		<path class="st11" d="M400.8,143c3.4,0.7,8.2,3,6.7,7.5c-0.5,1.5-1.5,2.7-2.9,3.5c-3.4,1.9-6.7,3.7-10.1,5.6
			c-1.4,0.8-1.9,2-0.9,3.3c0.1,0.2,0.1,0.4-0.1,0.6c-0.2,0.2-0.4,0.1-0.5-0.1c-1.5-2.7-3-5.4-4.5-8.1c-0.1-0.1,0-0.2,0-0.3
			c0.2-0.3,0.5-0.2,0.8,0.2c0,0,0,0.1,0.1,0.1c0.8,1.9,2.2,1.6,3.8,0.8c3.2-1.6,6.2-3.4,9.3-5.2c4.7-2.9,0-6.5-3-7.3
			c-0.1,0-0.3,0-0.4,0c-4.7,2.4-8.3,4.4-10.8,5.9c-1.4,0.9-0.5,2.3-0.2,3.5c0.1,0.2,0,0.4-0.2,0.5c-0.2,0.1-0.4,0-0.4-0.2l-4.5-8.3
			c0-0.1,0-0.2,0.1-0.2c0,0,0.1,0,0.1,0c0.1,0,0.1,0,0.2,0c0.2-0.1,0.4,0,0.5,0.2c0.7,1.4,2,1.7,3.7,0.8c4.4-2.2,8.1-4.2,11-6.1
			c0.5-0.3,0.7-0.8,0.6-1.4c0-0.1,0-0.2-0.1-0.3l-0.9-1.3c-0.1-0.2-0.1-0.4,0.1-0.5c0.1-0.1,0.3-0.1,0.4,0l5.1,4.3
			c0.2,0.1,0.2,0.4,0.1,0.6c0,0-0.1,0.1-0.1,0.1l-3,1.6c-0.1,0.1-0.1,0.2-0.1,0.3C400.7,142.9,400.8,143,400.8,143z"/>
		<circle class="st11" cx="55.3" cy="140.4" r="2.2"/>
		<path class="st11" d="M65.9,148.2c-1.4-0.6-2.6-0.4-2.7,1.4c0,0.2-0.1,0.3-0.3,0.4l-0.2,0.1c-0.3,0.1-0.4,0-0.4-0.3l0.7-6.7
			c0-0.2,0.2-0.3,0.4-0.3c0,0,0.1,0,0.1,0c4.9,2.6,9.8,5.1,14.8,7.7c1.6,0.8,2.8,0.5,3.6-0.9c0.1-0.1,0.2-0.2,0.2-0.3
			c0.1-0.1,0.3-0.1,0.4-0.1c0.2,0.1,0.3,0.3,0.2,0.4c0,0,0,0,0,0c-1.4,2.7-2.9,5.4-4.4,8.1c-0.1,0.2-0.2,0.3-0.4,0.2
			c-0.2-0.2-0.2-0.4-0.1-0.7c1-1.5,0.3-2.6-1.2-3.5C73.3,151.7,69.7,149.9,65.9,148.2z"/>
		<path class="st11" d="M57.5,161.2c-0.2-0.1-0.4,0-0.5,0.2l-0.9,2.4c-0.1,0.2-0.3,0.3-0.4,0.2c-0.1,0-0.2-0.2-0.2-0.3
			c-0.4-3.2-1.9-5.9-4.4-8c-0.1-0.1-0.3-0.2-0.3-0.4c-0.1-0.2,0-0.4,0.1-0.4c0.1,0,0.2,0,0.3,0l5.6,2.2c0.1,0,0.3,0,0.3-0.1
			c0,0,0,0,0,0l1.4-3.8c0.1-0.2,0.2-0.3,0.4-0.2l0.8,0.3c0.2,0.1,0.3,0.2,0.2,0.5l-1.5,3.7c-0.1,0.2,0,0.3,0.2,0.4l13.4,5
			c0.2,0.1,0.4,0.1,0.6,0c3.2-1,1.2-2.8,0.9-4.5c0-0.1,0.1-0.3,0.2-0.3c0.1,0,0.1,0,0.2,0.1c4,3.3,2.4,10.2-3.6,8
			C66.1,164.5,61.8,162.9,57.5,161.2z"/>
		<path class="st11" d="M405.9,179.1c-5.2,0.7-11.1-3-10.2-8.7c1.7-10.3,19.5-12.4,21.1-0.2c0.3,2.3-0.5,4.1-2.4,5.5
			c-2,1.5-3.7-1.3-2.8-2.9c0.6-1,2.2-1.4,3.2-2.6c0.1-0.1,0.2-0.3,0.2-0.4c0.1-7.8-9.7-5.2-13.2-2c-4.7,4.2-1.7,10.4,4.2,10.5
			c0.2,0,0.3,0.1,0.3,0.3c0,0.2,0,0.3-0.1,0.4C406.2,179,406.1,179,405.9,179.1z"/>
		<path class="st11" d="M52.5,179.3c-3.7-3.1-2-7,0.5-10.1c0.1-0.1,0.2-0.3,0.2-0.4c0-0.4-0.1-0.8-0.4-1c-0.2-0.1-0.2-0.4,0-0.6
			c0.1-0.1,0.3-0.2,0.4-0.1l5.8,2.2c0.2,0.1,0.3,0.2,0.2,0.4c0,0.1-0.2,0.2-0.3,0.2c-3.5,0.1-6.9,0.2-7.2,4.8
			c-0.2,2.9,3.4,3.5,5.1,1.9c1.6-1.5,3.3-2.9,4.9-4.3c3.6-3,8.2-1.9,9.3,2.6c0.8,3.1-0.7,5.8-2.5,8.3c-0.5,0.6-0.5,1.2-0.2,1.9
			c0.1,0.2,0,0.3-0.2,0.4c-0.1,0-0.1,0-0.2,0c-1.9-0.8-3.9-1.5-5.9-2.3c-0.3-0.1-0.4-0.2-0.4-0.2c-0.1-0.4,0.1-0.6,0.5-0.5
			c9.6,0.9,9.5-9.9,3.7-8C61.4,175.7,58.1,183.9,52.5,179.3z"/>
		<path class="st11" d="M412.7,184.6c-2.8,0.5-4.9,1.8-6.3,4c-1.8,2.7-1.7,6.1,0.8,8.2c1,0.8,2.5,1.2,3.8,1.5c0.2,0,0.3,0.2,0.2,0.4
			c0,0.1-0.2,0.2-0.3,0.3c-4.4,0.3-8.7-2-9.5-6.5c-1.6-8.6,10.1-13,16.4-9.6c6.3,3.4,6.1,13-1.5,14.9c-0.2,0-0.3-0.1-0.4-0.2
			l-3-12.8C412.9,184.6,412.8,184.5,412.7,184.6z M414.1,184.6l2,8.3c0,0.2,0.2,0.3,0.4,0.2c0,0,0,0,0,0l0.1,0
			c2.6-0.6,4.3-3.1,3.7-5.6l0,0c-0.6-2.4-3.2-3.9-5.8-3.3l-0.1,0C414.2,184.3,414.1,184.5,414.1,184.6
			C414.1,184.6,414.1,184.6,414.1,184.6z"/>
		<path class="st11" d="M48,199.3c0.1,0,0.3-0.1,0.3-0.2c0-0.1,0-0.2-0.1-0.2c-2.7-3.1-4.7-9.5,1.1-10.7c1-0.2,2.6-0.1,4.9,0.2
			c2.8,0.4,5.6,0.9,8.4,1.4c1.7,0.3,3.2,0.2,3.5-1.9c0.1-0.4,0.3-0.6,0.6-0.5c0.2,0,0.3,0.2,0.3,0.3c0,0,0,0,0,0l-1.5,9.2
			c0,0.1-0.1,0.2-0.2,0.2c0,0-0.1,0-0.1,0c-0.3,0.1-0.4,0.1-0.4-0.2c0.1-1.6,0.1-3.1-1.9-3.4c-2.8-0.5-12.3-2.9-14.3-1
			c-1.4,1.4-0.7,6.6,1.8,7.1c3.5,0.7,7,1.3,10.5,1.9c1.8,0.3,3-0.1,3.3-2c0-0.3,0.1-0.4,0.2-0.5c0.1-0.1,0.3-0.1,0.4-0.1
			c0.2,0,0.2,0.1,0.2,0.3l-1.6,9.4c0,0.2-0.2,0.3-0.4,0.3c-0.2,0-0.3-0.2-0.3-0.3l0-1.7c0,0,0-0.1,0-0.1c-0.8-1.3-1.9-1.4-3.4-1.7
			c-4.8-1-8.7-1.6-11.6-1.9c-1.8-0.2-1.3,1.7-1.6,2.7c-0.1,0.2-0.3,0.3-0.5,0.2c-0.1,0-0.2-0.1-0.2-0.3l-1.3-6.2
			c-0.1-0.6,0.1-0.8,0.7-0.7L48,199.3z"/>
		<path class="st11" d="M407.1,215.7c-3-2.6-2.8-6-2.3-9.5c0-0.2,0-0.4-0.2-0.5l-0.6-0.6c-0.1-0.1-0.2-0.4,0-0.5
			c0.1-0.1,0.1-0.1,0.2-0.1l6.5-0.9c0.2,0,0.3,0.1,0.3,0.3c0,0,0,0,0,0c0,0.1,0,0.1,0,0.2c0,0.1-0.1,0.1-0.2,0.2
			c-2.9,1.3-5.3,3.3-5.1,6.7c0.1,2.3,2.5,3.9,4.6,2.8c2.1-1,3.1-5.3,4.1-7.9c1.5-3.7,5.9-4.7,8.8-2.2c2.3,1.9,2.3,4.9,1.8,7.6
			c-0.1,0.7,0.1,1.2,0.7,1.4c0.2,0.1,0.4,0.3,0.3,0.6c0,0.2-0.2,0.3-0.4,0.3l-6.1,0.8c-0.2,0-0.3-0.1-0.3-0.3c0-0.1,0.1-0.2,0.2-0.3
			c3-1.4,5.7-3.3,4.3-7.1c-1.3-3.8-5-1.8-5.9,1c-0.6,1.8-1.3,3.7-2,5.5C414.6,216.8,410.3,218.5,407.1,215.7z"/>
		<path class="st11" d="M40.9,216.9c-2.9-0.2-7.5-1.6-7.2,3.2c0,0.2-0.1,0.3-0.3,0.3h-0.3c-0.2,0-0.3-0.1-0.3-0.3l1-12
			c0-0.2,0.1-0.3,0.3-0.3l0.3,0c0.2,0,0.3,0.1,0.3,0.3c0,0,0,0,0,0c-0.6,2.5,0.4,3.9,3,4.1c11.1,1,18.4,1.6,21.8,1.8
			c2.3,0.2,2.7-2.1,3-3.8c0-0.2,0.2-0.3,0.4-0.2l0.2,0.1c0.1,0,0.2,0.1,0.2,0.2l-1,12c0,0.2-0.1,0.3-0.3,0.3l-0.2,0.1
			c-0.2,0.1-0.3,0-0.3-0.2c0-2.1,0.2-4.1-2.6-4.3C52.8,217.8,46.9,217.3,40.9,216.9z"/>
	</g>
	<g>
		<path class="st11" d="M289,243.7c-0.7-1.4-0.6-2.3,0.4-3.4c0.1-0.1,0.1-0.3,0-0.5l-1.2-1.3c-0.1-0.1-0.1-0.3-0.1-0.4
			c0.7-2.5,1.8-4.7,3.5-6.5c0.6-0.7,1.1-1.4,1.4-2.1c2.5-5.6,7.1-12.3,5.4-18.8c0,0,0,0,0-0.1c-0.1-0.3-0.5-0.5-0.8-0.4
			c-1.5,0.6-2.9,1.4-4.1,2.3c-1.7,1.3-2.8-0.9-2.7-2.3c0-0.2-0.1-0.3-0.2-0.4c-1.1-0.6-2-1.4-2.6-2.5c-0.1-0.1-0.2-0.2-0.4-0.1
			c-2.4,0.9-2.3-4.1-4.8-4.9c-0.2-0.1-0.3-0.2-0.3-0.3c-1.9-4.7-4.8-8.3-7.9-12.4c-0.5-0.6-0.8-1.3-1-2c0-0.1,0-0.2,0.1-0.3
			c0.1-0.1,0.3-0.1,0.4,0c0.6,0.6,1.2,0.8,2,0.7c0.2,0,0.3,0,0.4,0.2c3.1,3.4,5.9,7.1,8.3,11c0.5,0.8,1.7,1.3,2.3,2.1
			c1.5,2.1,2.7,4.4,3.6,6.8c0.4,1.1,1,1.2,1.8,0.5c1.7-1.5,4.4-3.2,5.6-5.3c2.3-4,4.6-6.3,3.3-11.3c0-0.2-0.1-0.3-0.3-0.4
			c-1.4-0.9-2.9-1.4-3.7-3c-0.1-0.1-0.1-0.2-0.2-0.3c-0.1-0.1-0.2-0.1-0.4,0c-0.1,0-0.2,0.2-0.2,0.3c0.1,1.5-0.6,2.4-2.2,2.6
			c-0.1,0-0.2-0.1-0.3-0.2c-0.2-1.1-0.8-1.8-1.8-2.1c-0.2,0-0.3-0.1-0.4-0.3l-3.7-3.6c-0.3-0.3-0.4-0.6-0.1-1c0.6-1,1.1-0.8,1.8-0.1
			c1.8,1.8,4,3.4,6.7,2.4c0.2-0.1,0.3,0,0.5,0.1c2.4,2.5,5.1,0.6,7.5-0.6c0.2-0.1,0.3-0.1,0.4,0.1l2.3,2.3c0.1,0.1,0.3,0.2,0.4,0.2
			c1,0.2,1.5,0.9,1.7,1.9c0,0,0,0.1,0,0.1c0.1,0.2,0.3,0.3,0.5,0.2c0.4-0.2,0.7-0.5,0.7-1c0-0.1,0.1-0.3,0.2-0.3
			c0.2-0.1,0.4,0,0.5,0.2l8.1,16.7c0.1,0.1,0.2,0.2,0.3,0.2c0.3,0.1,0.5,0,0.6-0.3c0.4-1-0.3-3.3-0.3-4.5c0-1.7-0.5-3.5-1.5-5.5
			c-0.1-0.2-0.1-0.3,0-0.5c1-2.4,0.5-6.2,0.5-8.8c0-0.1,0-0.3-0.1-0.4c-0.8-1,0.2-2.1,0.6-3.1c0,0,0-0.1,0-0.1
			c0.1-0.1,0.2-0.1,0.3,0c1.7,1.8,3.1,3.8,4.1,6c0.1,0.2,0.3,0.2,0.4,0.2c0.8-0.2,0.8-0.9,0.5-1.6c-8.7-25.6-25.1-43.9-49.1-56.3
			c-0.2-0.1-0.3,0-0.4,0.1c-0.4,0.5-0.9,0.8-1.5,0.8c-0.2,0-0.4-0.1-0.5-0.2c-0.8-0.6-1.4-0.4-1.8,0.4c-0.1,0.1-0.2,0.2-0.3,0.2
			l-2.2,0.6c-0.2,0-0.3,0-0.4-0.1l-0.6-0.9c-0.1-0.1-0.2-0.2-0.4-0.3c-1.9-0.6-3.1,0-3.7,1.7c-0.1,0.2,0,0.3,0.1,0.5l1.7,2.2
			c0.1,0.1,0.1,0.2,0,0.3l-0.4,0.6c-0.1,0.1-0.1,0.2,0,0.4c0.6,0.8,1.4,1.1,2.3,0.9c0.2-0.1,0.4,0,0.5,0.2l1.1,2.2c0,0,0,0.1,0,0.2
			c0,0.2-0.1,0.3-0.3,0.3l-0.9-0.1c-0.2,0-0.3-0.1-0.3-0.3c0.1-1.1-0.4-1.7-1.6-1.8c-0.2,0-0.4-0.1-0.5-0.3
			c-0.6-0.9-1.5-1.5-2.6-1.7c-0.2,0-0.4,0.1-0.5,0.2c-0.1,0.2,0,0.5,0.2,0.6l2.7,1.5c0.1,0.1,0.2,0.2,0.1,0.3c0,0.2-0.2,0.3-0.4,0.2
			c-0.5-0.2-1-0.4-1.6-0.6c-0.5-0.2-0.7,0-0.8,0.6c0,0.2-0.1,0.3-0.3,0.3c-1,0.3-2,0.5-2.8,1.1c-1.3,1.1-2,2.4-2.2,4.1
			c0,0.1,0,0.1-0.1,0.2c-0.1,0.3-0.5,0.4-0.8,0.2c-1.1-0.6-2.1-1.4-2.9-2.4c-0.1-0.1-0.1-0.2,0-0.3c0.1-0.1,0.2-0.2,0.4-0.1
			c0.8,0.4,2,1.3,2.3-0.3c0.1-0.2,0-0.4-0.3-0.5c-1.9-0.5-3.7-0.9-5.4-1.3c-1.2-0.2-2.4,0.1-3.7,0.2c-0.2,0-0.3,0.1-0.4,0.2
			c-1.9,2-1.1,4.5-3.4,6.4c-1.5,1.2-1.7,2.6-0.7,4.2c0.1,0.1,0.2,0.2,0.4,0.2c0.6-0.1,1-0.4,1.4-0.9c0.1-0.1,0.2-0.2,0.3,0
			c1,1.2,1.4,2.6,2.5,3.6c0,0,0,0,0,0c0.2,0.2,0.6,0.1,0.7-0.1c0.6-0.8,0.7-1.7,0.3-2.6c-0.1-0.2-0.1-0.3,0-0.5l0.6-0.9
			c0.1-0.1,0.1-0.3-0.1-0.4c-0.8-0.7-1.2-1.5-1.3-2.6c0-0.2,0.1-0.4,0.2-0.5c0.7-0.5,1-1.2,0.8-2.1c0,0,0,0,0-0.1
			c0-0.4,0.2-0.7,0.6-0.7c0.7-0.1,1.2,0.2,1.6,0.8c0.1,0.1,0.1,0.3,0,0.5c-1.2,1.6-1,3,0.6,4.1c0.2,0.1,0.3,0.2,0.5,0.1
			c0.9-0.1,2.3-0.7,3.2-0.2c0.2,0.1,0.2,0.2,0.1,0.4c-1,1.2-2.1-0.1-2.8,0.8c-0.1,0.1-0.1,0.3,0,0.4l1.5,1.4
			c0.1,0.1,0.1,0.2,0.1,0.4c-0.1,0.2-0.3,0.2-0.4,0.2l-1.1-0.5c-0.2-0.1-0.3,0-0.3,0.2v2.9c0,0.2-0.1,0.3-0.3,0.3
			c-1.2,0-2.2,0.3-3.2,0.9c-0.1,0.1-0.3,0.1-0.5-0.1c-0.4-0.4-0.8-0.4-1.3,0c-0.1,0.1-0.4,0.2-0.6,0.2c-0.6-0.1-0.9-0.5-0.9-1.1
			c0-0.2,0.1-0.2,0.2-0.2h0.9c0.2,0,0.3-0.1,0.2-0.3c-0.2-0.9-1.5-0.3-1.6-1.6c0-0.1-0.1-0.2-0.2-0.3c-0.2-0.1-0.4,0-0.4,0.1
			c-0.5,1-0.4,2,0.3,2.8c0.1,0.1,0.2,0.3,0.2,0.5c0,0.4-0.3,0.7-0.8,0.7c-1.6,0-2.4,0.7-2.5,2.3c0,0.2-0.1,0.3-0.3,0.3l-0.9,0.3
			c-0.1,0-0.3,0.1-0.3,0.3c-0.5,0.8-1.1,1.4-2,1.8c-0.2,0.1-0.3,0.2-0.4,0.4c-0.4,0.6-0.9,0.9-1.7,0.9c-0.1,0-0.2,0-0.2,0.1
			c-0.1,0.1-0.1,0.3,0,0.3c1.2,1,3.2,4.3,1.6,5.6c-1.6,1.3-7-0.8-6.5,2.5c0.2,1.5,0,2.7-0.7,3.7c-0.1,0.1-0.1,0.3,0,0.5
			c1.6,1.9,2.8,2.4,2.6,5.2c0,0.1-0.1,0.3-0.2,0.4l-4,4c-0.1,0.1-0.2,0.3-0.2,0.4c-0.2,2.4-1.4,3.9-3.8,4.5c-0.2,0-0.3,0.1-0.4,0.3
			c-1.1,1.9-2.4,3.8-3.7,5.6c-0.1,0.1-0.2,0.3-0.2,0.5l-0.2,1c0,0.1-0.1,0.2-0.1,0.3c-1.1,0.9-1.2,2-0.3,3.2
			c0.1,0.1,0.1,0.3,0.1,0.5c-0.4,1.4-0.2,2.8-0.6,4c-0.9,2.9-1.7,4.5-0.7,7.6c0.1,0.2,0.2,0.3,0.3,0.4c0.9,0.5,1.5,1.2,1.8,2.2
			c0,0.2,0.1,0.3,0.2,0.4c1.9,1.9,2,4.5,4.8,6.3c1.2,0.8,2.4,3.6,4,2.6c1.6-1,3-1.4,4.6-0.6c0.3,0.1,0.6,0.1,0.9-0.2
			c0.1-0.1,0.3-0.1,0.4-0.1c0.8,0,1.4,0,1.6-0.2c2.4-1.2,4.7-1.8,6.7-1.9c0.2,0,0.5,0.1,0.6,0.3l1.6,2.3c0.1,0.1,0.2,0.2,0.3,0.2
			c1,0,3.3-0.2,4.2,0.2c1.9,1,0.7,6.3,0,8.1c-0.1,0.2,0,0.3,0,0.5c0.8,1.3,1.1,2.2,2.3,3.3c1.4,1.3,2.1,2.9,2.2,4.8
			c0,0.2,0.1,0.3,0.2,0.4c0.8,1,0.9,2.1,0.4,3.4c0.1,0,0.1,0.1-0.1,0.2c-0.1,0.1-0.2,0.1-0.3,0.1c-2.1-0.1-4.2-0.1-6.4-0.1
			c-0.2,0-0.4,0-0.5,0.1c-0.3,0.1-0.2,0.4,0.1,0.7l-0.3,18.8l-0.2,42.5c0,0,0,0,0,0c0,0.1-0.1,0.2-0.2,0.2l-9.5-0.2
			c-0.1,0-0.2-0.1-0.2-0.2l-0.1-41.1l-14.1,0l-18.4,0c-0.4,0-0.7,0.3-0.7,0.7v31.6c0,0.2,0.2,0.4,0.4,0.4l20.9,0.1
			c0.2,0,0.2,0.1,0.2,0.2l-0.2,7.6c0,0.2-0.1,0.3-0.3,0.3l-30.2,0c-0.2,0-0.2-0.1-0.2-0.2c0-19.1,0-38.2,0-57.3
			c0-1.3-0.1-2.6-0.2-3.9l-0.7,0.1l-2.3-0.5c2.5-2.2,3-4.8,1.4-7.8c-0.1-0.1-0.2-0.2-0.3-0.3c-2.7-0.6-2.8-3.3-5.1-4
			c-1.6-0.5-2.7-1.1-4.5-1c-0.2,0-0.3-0.1-0.4-0.2c-0.2-0.3-0.2-0.6-0.2-0.9c0-0.2,0-0.3-0.1-0.4c-1.2-1.5-3.1-2.9-4.4-1
			c-0.1,0.1-0.2,0.2-0.4,0.3c-0.4,0.1-0.8,0-1.2-0.2c-0.1-0.1-0.2-0.2-0.1-0.3c0-0.2,0.2-0.3,0.4-0.2c1,0.2,1.6-0.2,1.8-1.1
			c0-0.2,0-0.4-0.1-0.5c-0.7-0.7-1.3-0.8-2-0.2c-0.2,0.2-0.3,0.5-0.1,0.8c0.1,0.2,0,0.3-0.1,0.4c-0.5,0.4-1,0.4-1.5,0.1c0,0,0,0,0,0
			c-0.1-0.1-0.1-0.3,0-0.4c0.7-0.9,1.8-1.7,2.2-2.6c0.4-1.2-0.3-3.7-0.4-5.1c0-0.1,0-0.2-0.1-0.2l-1.7-2.4c-0.1-0.1-0.2-0.2-0.4-0.3
			l-2.9-1c-0.1,0-0.2-0.1-0.3-0.2l-1.1-1.3c-0.1-0.1-0.2-0.3-0.2-0.5c-0.1-1.5-0.8-2.5-2.2-3.2c-0.2-0.1-0.3-0.3-0.2-0.5
			c0.7-3.3-2.6-1.8-3.6-3c-0.9-1.1-1.9-2.2-3-3.2c0,0,0,0-0.1-0.1c-0.2-0.1-0.3,0-0.4,0.2l-1.3,2.7c0,0-0.1,0.1-0.1,0
			c-0.1,0-0.1,0-0.2-0.1c-0.1,0-0.2-0.1-0.1-0.3l1.2-3c0,0,0-0.1,0-0.1c0-0.1-0.1-0.3-0.3-0.3c-2.3,0-3.9,2.3-5.7,3.4
			c-0.3,0.2-0.5,0.5-0.5,0.8c0,2.2-0.2,4.4-0.7,6.6c0,0.2-0.1,0.3-0.2,0.4c-2.2,2.1-3,4.6-2.5,7.6c0,0.2,0,0.3,0,0.5
			c-0.7,1.9-0.8,3.5,0,5.5c1.1,2.6,1.8,4.5,2.1,5.8c1,4.1,2,8,5.1,11.1l-10.4,0c-0.5,0.2-1.1,0.2-1.7,0c-0.2,0-0.3-0.1-0.2-0.3
			l0.1-2.2l1.1-3.6c-2.4,2-4.5,4-6.3,6.1c-0.4,0.2-0.7,0.7-1,1.4c-4.1,5.1-5.9,11.4-4.2,17.6c0.8,2.8,1.6,4.8,1,8.1
			c-3.5-5.2-5.2-9.9-8.3-17.1c-0.4-0.9-0.7-2.2-1.3-3.3c-0.1-0.1-0.1-0.3-0.1-0.4c0-0.5-0.2-0.8-0.6-1l0-0.6
			c-1.4-6.4-3.2-11.5-4.2-19l0-1c0-0.2,0-0.3,0.1-0.4c1.1-1.5,2-2.7,3.7-3.7c2.2-1.2,4-2.5,5.4-3.9c3.1-3,3.6-6.5,4.6-11.1
			c0.2-0.9,1.1-2.5,2.8-4.7c0.2-0.2,0.1-0.3-0.1-0.2c-4.9,1.6-8.9,4.3-12,8.2c-2.2,2.7-3,5.6-3.3,9c-0.2,2.1-1.1,3.8-1.7,5.8
			c-0.3,0.9-0.1,1.4,0,2.3l3.2,16c-1.3-2.1-2.3-4.3-3.3-6.5c-3.3-7.9-12.6-10.6-20.4-10.8c-0.1,0-0.1,0-0.2,0.1c0,0.1,0,0.2,0.1,0.2
			c2.4,1.5,3.8,3.1,5.3,5.8c1.1,2.1,2.1,4.5,3.7,6.2c3,3.2,6.1,4.1,10.5,5.1c2.3,0.5,3.8,1.6,5.2,3.3c0.2,0,0.4,0.2,0.4,0.3
			c3.2,9.7,7.7,18.9,13.6,27.5c0,0,0-0.1,0-0.1c0.2-0.2,0.2-0.4,0.1-0.5c-0.9-1.2-1.6-2.5-2-3.6c0.5-2,1.1-3.6,1.9-4.9l0.4-0.3
			l0,9.9l-0.1,14.8l0.2,25.9l118.9,0.1c0.2,0,0.3-0.1,0.3-0.3l-0.1-46.1c0.3,0,0.5,0.1,0.7,0.5c0.2,0.6-0.2,2.3-0.1,3.2
			c0,0.1,0.1,0.2,0.2,0.3c1.5,0.5,4.5-0.7,6.1-1l1.5-0.4c1.1-0.4,2.1-1,3.1-1.8l0.1,2.6c0.2,0.3,0.3,0.7,0.3,1.1c0,0.2,0,0.5,0,0.7
			l0.2,41.9c0,0.2,0.1,0.2,0.2,0.2l4.1-0.1l2.8,0.1l3-0.3c0.2,0,0.3-0.1,0.3-0.3l0-11.2c0.1-1.8,0-3.4,0.2-5.2
			c0.4-4.1,0-9.2,0.1-12.1c0.1-11.2,0.1-22.5,0-33.7c0-0.5,0.2-0.8,0.4-1.2c2-2,4-3.9,6.2-5.8c0.7-0.6,1-1.4,0.9-2.5
			c0.2-0.5,0.2-0.9,0-1.1C290.2,247.4,289.9,245.5,289,243.7z M279.1,162.3c0.8,0.2,1.3,0.6,1.6,1.4c0,0.1,0,0.2-0.1,0.4l-0.9,1.2
			c-0.1,0.2-0.1,0.3,0.1,0.4l5,3c0.1,0.1,0.2,0.2,0.2,0.3c-0.2,1.7,1.6,2.6,2.4,4c0.7,1.2-0.3,2.4-1.6,1.9c-3.3-1.2-2.3-3.8-4.3-5.3
			c-1.5-1-3-2.4-4.1-3.8c-0.1-0.1-0.2-0.3-0.1-0.4C277.2,164.2,277.4,162,279.1,162.3z M176.6,254.6
			C176.5,254.6,176.5,254.6,176.6,254.6c-0.1,0-0.1,0-0.1,0C176.5,254.6,176.5,254.6,176.6,254.6z M176.3,254.6
			C176.3,254.6,176.3,254.6,176.3,254.6C176.3,254.6,176.3,254.6,176.3,254.6z M176.2,254.5C176.1,254.5,176.1,254.5,176.2,254.5
			C176.1,254.5,176.1,254.5,176.2,254.5z M176.1,254.4C176,254.4,176,254.3,176.1,254.4C176,254.3,176,254.4,176.1,254.4z
			 M152.6,270.6l0-11.6c0,0,0,0,0,0c0,0,0.1-0.1,0.1,0l0.5,0.3c0,0,0,0,0,0h10.5c0,0,0,0,0.1,0l0.2-0.2c0,0,0,0,0.1,0
			c0,0,0.1,0,0.1,0.1l0,11.6c0,0,0,0.1-0.1,0.1L152.6,270.6C152.6,270.7,152.6,270.6,152.6,270.6z M181.7,308.2
			c0,0.2-0.1,0.3-0.2,0.3l-6,0.2c-0.2,0-0.2-0.1-0.2-0.2l0-17.3c0-0.1-0.1-0.2-0.2-0.2l-11.4,0c-0.2,0-0.3,0.1-0.3,0.3l0,17.5
			c0,0.2-0.1,0.2-0.2,0.2h-6.9c-0.1,0-0.2-0.1-0.2-0.2l0.1-24.6c0-0.2,0.1-0.2,0.2-0.2h19c0.2,0,0.3-0.1,0.2-0.3l-0.1-0.9l3.1,3.4
			c0.6,1.1,1.4,2.1,2.5,2.9c0.2,0.1,0.3,0.1,0.3-0.1c0.2-1.2,0.1-2.1-0.3-3.3c-0.1-0.4-0.2-1-0.2-1.7c-0.2-0.8-0.8-1.6-1.8-2.3
			c0,0-0.1-0.1-0.1-0.1c0-0.1,0-0.2,0.1-0.2l0.7-0.2c0.2,0,0.3-0.2,0.3-0.4c-0.1-0.5-0.3-0.9-0.7-1.2c-0.1-0.1-0.1-0.2-0.1-0.2
			c0-0.1,0.2-0.1,0.3-0.1c0.9,0.4,1.5,0.4,1.5,0c0.5-1.8-0.1-3.2-1.6-4.2c-0.1-0.1-0.2-0.2-0.1-0.3c0,0,0-0.1,0-0.1c0,0,0,0,0,0
			c0,0,0.1,0,0.1,0c0.7,0.5,1.4,0.7,2.1,0.5L181.7,308.2z M228.4,291.2l-11.2,0.1c0,0,0,0,0,0c-0.1,0-0.1-0.1-0.1-0.1l-0.1-11.3
			c0-0.1,0.1-0.1,0.1-0.1l11.2-0.1c0.1,0,0.1,0.1,0.1,0.1l0.1,11.3C228.6,291.1,228.5,291.2,228.4,291.2z M260,260.3
			c0,0-0.1,0-0.1,0C259.9,260.3,259.9,260.3,260,260.3z M259.8,260.4C259.7,260.4,259.7,260.4,259.8,260.4
			C259.7,260.4,259.7,260.4,259.8,260.4z M263.5,165.9c0-0.1,0.1-0.2,0.3-0.3c1.2-0.3,2,0.1,2.6,1c0.1,0.2,0.3,0.3,0.5,0.4
			c0.6,0.2,0.9,0.1,1.1-0.3c0.1-0.2,0-0.3-0.1-0.4l-0.7-0.7c-0.1-0.1-0.1-0.3,0-0.4c0.5-0.5,1.1-0.8,1.8-0.8c0.2,0,0.3,0.1,0.3,0.2
			l0.4,1c0.1,0.1,0.1,0.2,0.3,0.3l5.3,3.3c0.2,0.1,0.3,0.3,0.2,0.5c0,1.1-0.6,1.6-1.8,1.4c-1.7-0.2-3.5-0.3-5.2-0.4
			c-0.2,0-0.3,0.1-0.4,0.2c-1.1,1.5-2.5,1.7-4.2,0.5C262.6,170.6,263.1,167.3,263.5,165.9z M256.4,186.5c-2-1.1-4-1.9-6.2-2.4
			c-0.6-0.1-1.5-0.8-1.1-1.6c0.9-1.7-0.3-4.1-2.2-2.9c-0.1,0.1-0.3,0.1-0.4,0.1c-2.7-0.1-6.2,0.2-8.4,1.9c-1,0.8-2.2,0.8-3.5,0.1
			c-0.2-0.1-0.2-0.2-0.2-0.4c0.1-1.4,0.8-2,2.2-1.8c0.2,0,0.3-0.1,0.3-0.2c0.2-0.6,0.6-1,1.3-1.1c0.2,0,0.3-0.2,0.3-0.4l-0.2-2.1
			c0-0.2,0.1-0.4,0.2-0.5l3.2-2.7c0.1-0.1,0.1-0.2,0.1-0.4c-0.3-0.7-0.2-1.2,0.4-1.5c0.7-0.4,1.7,0,2.5,0.2c0.2,0,0.4,0,0.5-0.2
			l1-1.4c0.1-0.1,0.2-0.1,0.3-0.1c2,0.5,2.2,2.2,3.9,3.1c1.6,0.9,2.5,1.8,3.7,3c0.1,0.1,0.2,0.3,0.2,0.5c0,0.3,0.2,0.5,0.4,0.7
			c0.1,0.1,0.2,0.1,0.3,0c0.1-0.1,0.1-0.3,0.1-0.5c0-0.2-0.1-0.3-0.2-0.4l-0.3-0.3c0,0,0-0.1-0.1-0.1c-0.1-0.2,0-0.3,0.2-0.4
			l0.7-0.3c0.1,0,0.2-0.1,0.2-0.2c0.1-0.2,0-0.4-0.2-0.4c-2.1-0.8-3.9-2.1-5.2-3.9c-0.3-0.4-1.1-1-1-1.7c0-0.1,0.1-0.3,0.2-0.3
			c0.3-0.3,0.7-0.3,1,0c1.7,1.6,3.6,2.9,5.5,3.9c0.7,0.3,1.1,1,1.2,1.8c0,0.2,0.1,0.3,0.2,0.4c1.2,1.2,2.1,2.6,2.8,4.1
			c0.1,0.2,0.3,0.3,0.5,0.4c0.3,0.1,0.7-0.2,0.7-0.5c0.2-1.2-0.1-2.2-1-3c-0.1-0.1-0.1-0.3-0.1-0.4c0.2-0.4,0.6-0.8,1-1.1
			c0.1-0.1,0.1-0.1,0.2-0.2c0.1-0.2,0.3-0.3,0.5-0.3c0.1,0,0.2,0.1,0.3,0.2c0.2,0.2,0.5,0.3,0.7,0.3c0.2,0,0.3,0,0.4-0.2
			c0.3-0.3,0.6-0.5,1.1-0.6c0.1,0,0.2,0,0.2,0.1c0.1,0.1,0,0.2-0.1,0.3l-0.9,0.7c-0.2,0.1-0.2,0.3-0.2,0.5c0.7,2.6,1.9,2.4,3.8,3.7
			c0.1,0.1,0.3,0.1,0.5,0.1l1.1-0.4c0.1,0,0.3,0,0.4,0c1,0.5,2.1,0.5,3.2,0c0,0,0,0,0,0c0.6-0.2,1.3,0.1,1.6,0.8
			c0.6,1.8,0.7,3.7,0.3,5.7c-0.1,0.3-0.2,0.4-0.5,0.5c-1.4,0.2-2.1,0.4-3.7,1c-2.1,0.8-5.4-0.4-7.8-1.2c-1.4-0.5-2.2,1.7-2.3,2.7
			c0,0.1,0,0.1,0,0.2c-0.1,0.3-0.5,0.5-0.8,0.3C258.3,187.2,257.3,187,256.4,186.5z M259.5,260.8c0,0,0-0.1,0-0.1
			C259.5,260.8,259.5,260.8,259.5,260.8C259.5,260.8,259.5,260.8,259.5,260.8z M259.6,260.5C259.6,260.6,259.5,260.6,259.6,260.5
			C259.5,260.6,259.6,260.6,259.6,260.5z M270.9,264.9C270.9,264.9,270.8,264.8,270.9,264.9C270.8,264.9,270.9,264.9,270.9,264.9z
			 M270.7,264.8C270.7,264.8,270.7,264.7,270.7,264.8C270.7,264.7,270.7,264.8,270.7,264.8z M270.5,264.7
			C270.5,264.7,270.5,264.7,270.5,264.7C270.4,264.7,270.4,264.7,270.5,264.7C270.5,264.7,270.5,264.7,270.5,264.7z M270.9,265
			c0,0.1,0.1,0.2,0.1,0.2C271,265.1,271,265.1,270.9,265z"/>
		<path class="st11" d="M219.7,138.2c-0.1,0.1-0.2,0.2-0.2,0.4c0,1.3-0.2,2.2-0.6,2.6c-1.3,1.4-3,3.3-5,5.8
			c-0.4,0.4-0.5,0.9-0.4,1.3c0,0.2,0.1,0.3,0.3,0.4c2.1,1.3,3.5-0.9,4.7-2.2c1.2-1.4,2.3-1.6,4.1-1.6c0.1,0,0.2,0,0.3-0.1l1.9-1.5
			c0.1-0.1,0.2-0.1,0.4-0.1c0.9,0.2,1.8,0,2.5-0.5c0.1-0.1,0.2-0.2,0.2-0.4c-0.3-1.7,0.3-2.6,1.8-3.5c1.3-0.8,2.4-1.8,3.2-3
			c0.1-0.1,0.1-0.2,0.1-0.3c0-0.3-0.2-0.6-0.6-0.7l-1.3-0.1c-0.2,0-0.3-0.1-0.4-0.3c-0.2-0.5-0.6-0.7-1.1-0.9c-0.2,0-0.3,0-0.5,0
			c-1.9,0.7-3.6,0.8-5.3,0.3c-0.5-0.2-0.9-0.3-1.2-0.2c-0.2,0-0.3-0.1-0.3-0.2v-0.2c0-0.2-0.1-0.3-0.3-0.3c-0.8-0.1-1.6,0-2.3,0.3
			c-0.2,0.1-0.4,0.3-0.4,0.5c-0.1,0.3,0.1,0.5,0.5,0.7c0.1,0,0.1,0,0.2,0l1.4-0.4c0.2-0.1,0.3,0,0.3,0.2c0,0.4-0.1,0.6-0.5,0.6
			c-0.7,0-1.1,0-1.5,0.1c-0.2,0-0.4,0.1-0.4,0.3l-0.3,1.4c0,0.1,0,0.2,0.1,0.3c0.1,0.1,0.3,0,0.3-0.1c0.1-0.2,0.3-0.2,0.5-0.1
			c0.1,0.1,0.2,0.2,0.2,0.4C220.3,137.5,220.1,137.9,219.7,138.2z"/>
		<path class="st11" d="M211.4,134.2l2.1,0.2c0.1,0,0.2,0,0.3-0.1c0.1-0.1,0.1-0.3,0-0.5c-0.7-0.7-2.2-1.6-2.7-0.1c0,0,0,0.1,0,0.1
			C211,134,211.1,134.1,211.4,134.2z"/>
		<path class="st11" d="M206.1,134.7c0.8,0.1,1.5,0.1,2.3,0c0.2,0,0.3,0,0.4,0.1c1.2,1.1,2.6,1.7,4.1,1.8c0.3,0,0.5,0,0.6-0.2
			c0.2-0.2,0.3-0.4,0.2-0.7c0-0.1,0.1-0.3,0.2-0.3l0.5-0.1c0.1,0,0.2-0.1,0.2-0.3c0-0.1-0.1-0.3-0.3-0.2h-0.5
			c-0.3,0-0.4,0.1-0.4,0.4l0,0.3c0,0.2-0.1,0.3-0.3,0.3l-0.4,0c-0.1,0-0.3-0.1-0.3-0.2l-0.2-0.6c-0.1-0.2-0.2-0.3-0.4-0.3
			c-2.2-0.1-4.2-0.6-6.1-1.5c0,0-0.1,0-0.1,0c-0.3-0.1-0.7,0.1-0.8,0.4C205,134.1,205.5,134.6,206.1,134.7z"/>
		<path class="st11" d="M215.1,134.3l0.7-0.4c0.1,0,0.2,0,0.2,0c0.1,0.1,0.1,0.2,0,0.3L215,135c-0.1,0.1-0.1,0.2-0.1,0.3
			c0,0.1,0.2,0.2,0.3,0.2c1-0.3,3.2-0.3,3.1-1.7c0-0.2-0.1-0.3-0.3-0.3l-1.3,0.1c-0.1,0-0.2,0-0.3-0.1c-0.5-0.6-1.6-0.4-1.7,0.5
			c0,0.1,0,0.1,0,0.1C214.8,134.3,214.9,134.4,215.1,134.3z"/>
		<path class="st11" d="M146.6,189.3c0,0.2,0,0.3,0,0.5l0.7,2.4c0.1,0.2,0.2,0.2,0.3,0.2h0.8c0.2,0,0.3,0.1,0.2,0.3
			c0,1.4-0.3,3.2,0.5,4.4c1.1,1.8,2,3.3,1.9,5.5c-0.2,2.7,0,4.3,1.6,6.3c0,0,0,0,0.1,0.1c0.1,0.1,0.3,0.1,0.4-0.1l0.3-0.4
			c0.1-0.1,0.1-0.3,0-0.4c-1.7-2.1-2-4.4-0.8-6.9c0.8-1.7,3.1-5.3-0.6-5.8c-0.1,0-0.1,0-0.2-0.1c-0.2-0.1-0.3-0.5-0.2-0.7l3.5-5.8
			c0.2-0.4,0.1-0.7-0.3-0.9c-1.3-0.6-2.2,1.2-2.9,1.9c-1.1,1.1-2.6-0.2-2.3-1.6c0.7-3.2,1.9-6,3.8-8.6c1.6-2.2,1.7-4.2,5.3-4.2
			c0.2,0,0.3,0.1,0.4,0.2c0.5,1,1.5,0.4,2.1,0.4c2.9,0.3,2.9,3.2,1.6,5.2c-0.6,0.9-0.7,1.7-0.4,2.7c0,0.1,0.1,0.2,0.2,0.2
			c0.2,0.1,0.4,0,0.4-0.1c0.9-1.7,1.7-3.5,2.3-5.4c1.2-3.6,5-3.3,7.4-5.7c0.8-0.8,1.6-1.8,2.3-3.1c0.2-0.3,0.6-0.5,1.1-0.4
			c0.2,0,0.3,0,0.5-0.1c1.2-0.6,2.2-1.4,3.1-2.4c0.1-0.2,0.3-0.2,0.5-0.2l1.5,0c0.2,0,0.3,0,0.4-0.2c1.1-1,3-2.5,4.5-2.5
			c0.2,0,0.3,0,0.5-0.1c0.6-0.3,1.3-0.4,2-0.4c0.2,0,0.3,0.2,0.3,0.4c0,0.2-0.3,0.4-0.5,0.4c-0.4,0-0.7,0.2-0.9,0.6
			c-0.1,0.2,0,0.3,0.2,0.2c0.3,0,0.5-0.2,0.7-0.4c0.1-0.1,0.2-0.2,0.4-0.1c1,0.3,1.8,0.1,2.5-0.6c0.1-0.1,0.1-0.1,0-0.2l-1-1
			c0,0,0,0,0,0c-0.1-0.1-0.1-0.3,0-0.5c0.4-0.3,0.6-0.7,0.6-1.2c0-0.2,0.1-0.3,0.3-0.4l1.3-0.6c0.1-0.1,0.2-0.2,0.2-0.3
			c0-0.2-0.1-0.3-0.3-0.4c-1.3-0.1-3.1,0.3-4.2,1.3c-0.2,0.2-0.4,0.2-0.7,0.1c-0.1,0-0.1-0.1-0.2-0.2c0-0.1,0-0.3,0.2-0.4
			c1.5-0.4,2.7-1.7,4.2-1.6c0.2,0,0.3-0.1,0.4-0.2c0.7-0.7,1.4-0.8,2.3-0.2c0.1,0.1,0.3,0.1,0.4,0.1c0.5-0.1,0.9-0.1,1.3,0.2
			c0.2,0.1,0.3,0.1,0.5,0.1l4.3-1.4c0.2-0.1,0.3-0.2,0.4-0.4c0.3-0.8,0-1.3-0.9-1.4c-0.1,0-0.1-0.1-0.2-0.1c-0.1-0.1,0-0.3,0.1-0.3
			c0.8-0.5,1.2-1.2,0.9-2.1c0-0.1,0-0.3,0.1-0.4l1.5-2.3c0.1-0.1,0.1-0.2,0-0.3c-0.1-0.2-0.2-0.3-0.4-0.2l-1.6,0.5
			c-0.3,0.1-0.6,0-0.8-0.3c-0.2-0.3-0.1-0.8,0.3-0.9c0.9-0.5,1.4-1.2,1.5-2.2c0-0.2,0-0.3-0.1-0.4c-0.7-1.1-1.5-0.6-2.3,0.1
			c-0.9,0.9-1.9,1.6-3,2c-0.1,0.1-0.2,0.2-0.3,0.3c-0.8,2.1-2.9,3.1-5.1,3.4c-0.2,0-0.3,0.1-0.4,0.2c-0.8,1.2-1.7,1.8-2.6,2.7
			c-0.4,0.4-0.8,0.5-1.2,0.2c0,0,0,0,0,0c-0.3-0.2-0.4-0.5-0.2-0.8c0.8-1.2,1.7-2.1,2.9-2.9c0,0,0,0,0,0c0.1-0.1,0.1-0.3,0-0.4
			l-0.5-0.6c-0.1-0.1-0.1-0.3-0.1-0.4c0.3-0.7,0.3-1.4-0.2-2c-0.1-0.2-0.1-0.3,0-0.5l0.8-1.2c0.1-0.1,0.2-0.3,0.4-0.4
			c2.2-1.4,4.6-2.4,7.2-3.1c1.3-0.3,2.2,0.1,3.2,0.9c0,0,0.1,0.1,0.1,0.1c0.2,0.1,0.5,0,0.6-0.3l0.4-1.1c0-0.1,0.1-0.2,0.2-0.2
			l5.8-2.5c0.1,0,0.2,0,0.3,0c0.2,0.1,0.3,0.3,0.2,0.5c-0.7,1.5-0.3,2.6,1.3,3.3c0.1,0,0.2,0,0.2,0c0.3,0,0.6-0.3,0.6-0.6
			c0-0.8,0.2-1.5,0.8-2.1c0.1-0.1,0.2-0.3,0.2-0.4c0-0.9,0.3-1.8,0.7-2.7c0,0,0-0.1,0.1-0.2c0.1-0.3-0.1-0.6-0.5-0.7
			c-1.5-0.3-3-0.1-4.3,0.6c-1.1,0.6-1.8,1.8-2.9,2.5c-0.8,0.5-0.9,0.4-0.4-0.4c0.9-1.4,2-2.5,3.5-3.3c0.1-0.1,0.2-0.1,0.2-0.3
			c0-0.2-0.1-0.4-0.3-0.4c-3.3-0.4-4.1,5-7.2,3.6c-1.1-0.5-2.2-0.7-3.4-0.7c-0.1,0-0.2,0-0.3,0c-0.4-0.1-0.6-0.6-0.5-1
			c0.6-1.8-0.3-3.1-2.2-2.6c-0.1,0-0.3,0-0.4-0.1c-0.2-0.2-0.2-0.4,0-0.6c0.2-0.2,0.3-0.5,0.3-0.8c0,0,0-0.1,0-0.1
			c-0.1-0.2-0.3-0.3-0.5-0.2c-20.4,10.8-35.1,26.8-44.1,48C148.1,184.4,147.2,187,146.6,189.3z"/>
		<path class="st11" d="M198.7,137.9c1.3,0.2,3.1,0.6,4.1-0.5c0.8-0.8,0.9-1.9,0.3-3.3c-0.1-0.2-0.2-0.2-0.4-0.2
			c-0.8,0-1.5,0.3-2.1,0.8c-0.1,0.1-0.2,0.2-0.2,0.4l-0.4,1.4c0,0.2-0.2,0.3-0.4,0.3c-0.4-0.1-0.6-0.1-0.8-0.1
			c-0.3,0-0.5,0.2-0.6,0.5C198.1,137.6,198.3,137.9,198.7,137.9z"/>
		<path class="st11" d="M257.4,137l0.1-0.2c0-0.1,0.1-0.1,0.1-0.2c0-0.2-0.1-0.5-0.3-0.5c-0.4-0.1-0.7,0.1-0.7,0.5
			c0,0.2,0,0.4,0.2,0.5C256.9,137.3,257.2,137.3,257.4,137z"/>
		<path class="st11" d="M257.5,138.4c0,0.2,0,0.3,0.2,0.4l0.4,0.1c0,0,0.1,0,0.1,0c0.1,0,0.2-0.2,0.2-0.3c-0.1-0.4-0.3-0.5-0.7-0.4
			C257.6,138.2,257.5,138.3,257.5,138.4z"/>
		<path class="st11" d="M207.7,145.3c0.6-0.7,0.6-1.4,0.2-2.1c-0.1-0.1-0.2-0.2-0.4-0.2c-1.1,0.2-2,0.7-2.7,1.5
			c-0.2,0.2-0.2,0.4-0.2,0.7c0.1,0.4,0.5,0.7,1,0.6l1.8-0.4C207.5,145.5,207.6,145.4,207.7,145.3z"/>
		<path class="st11" d="M133.2,166c0.4,0.4,0.5,1.2,0.6,2.5c0,0.1,0,0.3-0.1,0.4l-1.5,2.9c-1.9,3.5-3.5,7.2-4.6,11.1
			c0,0,0,0.1,0,0.1c0,0.1,0,0.1,0.1,0.1c0,0,0.1,0,0.1,0l4.9-11.2l0.8-1.6c0.1-0.1,0.2-0.3,0.3-0.3c1.3-0.6,2.3-1.2,3.8-1.3
			c2.1-0.2,3.9-0.8,5.2-1.8c1.6-1.1,2.8-3.4,4.5-4.8c0.7-0.6,1.5-1.1,2.3-1.5c0.2-0.1,0.2-0.2-0.1-0.2c-4.3-0.4-8,0.8-11.2,3.5
			c-1.3,1.2-2.2,3.1-3.6,4.5c-0.1,0.1-0.1,0.1-0.2,0.1c-0.1,0-0.2-0.2-0.1-0.3c0.2-0.8,0.9-1.2,1.3-1.9c1.6-3.1,3.4-6.1,5.6-8.8
			c2-2.6,5.7-3,7.4-5.9c1.4-2.4,1.6-5.1,3.7-7.5c0.2-0.2,0.1-0.3-0.1-0.2c-5.6,1.4-9.5,4.9-10.4,10.5c-0.2,1-1.3,3.3-1.9,4.1
			c-1.9,2.5-3.5,5.2-4.9,7.9c0,0.1,0,0.2,0,0.2c0,0.1,0,0.1,0,0.2c0,0.1-0.1,0.1-0.2,0.1c-0.1,0-0.2-0.1-0.2-0.2
			c-0.2-1.9,0.8-3,1-4.5c0.2-1.9,0.1-3.7-0.9-5.4c-1.1-1.8-2.5-3.3-4.2-4.6c-0.1,0-0.2-0.1-0.2,0c-0.1,0-0.2,0.2-0.1,0.3
			c0.6,1.4,0.7,2.8,0.4,4.3C129.5,161,130.1,162.7,133.2,166z"/>
		<path class="st11" d="M319.7,148.1c1.3,5.5,4.7,5.9,8.4,8.9c0.1,0,0.1,0.1,0.2,0c0.1,0,0.2-0.2,0.1-0.3c-0.3-1-1-1.7-1.1-2.7
			c-0.9-5.3-4.6-8.6-9.7-10c-0.2-0.1-0.3,0-0.1,0.2C318.6,145.6,319.4,146.8,319.7,148.1z"/>
		<path class="st11" d="M229.8,146.1c-1,0.2-1.7,0.8-1.7,1.2c0.1,0.5,1,0.7,2,0.5c1-0.2,1.7-0.8,1.7-1.2
			C231.7,146.1,230.8,145.9,229.8,146.1z"/>
		<path class="st11" d="M335.2,167.7c0,0.1,0.1,0.1,0.1,0.1c0.1,0,0.2,0,0.2-0.2c0.2-1,0.4-1.8,1.2-2.6c4.3-4.3,1.1-7.5,2-12.3
			c0,0,0-0.1,0-0.1c0-0.1-0.1-0.1-0.2,0c-2.5,1.7-4.4,4.4-4.7,7.5c-0.2,1.5,0.4,3.1,0.8,4.5C335,165.6,334.8,166.7,335.2,167.7z"/>
		<path class="st11" d="M237,158c0.3,0.5,0.2,0.9-0.3,1.3c-0.1,0.1-0.2,0.2-0.3,0.4c-0.4,0.7-0.4,1.4-0.2,2.2
			c0.1,0.2,0.2,0.3,0.4,0.2l2.3-0.3c0.2,0,0.3-0.1,0.4-0.3l0.6-1.3c0.1-0.1,0.1-0.3,0-0.4c-0.1-0.1-0.2-0.2-0.3-0.2
			c-0.1,0-0.2-0.1-0.3-0.3l-2.1-3.5c-0.1-0.1-0.1-0.3,0-0.4l0.6-0.6c0,0,0-0.1,0.1-0.1c0-0.1,0-0.3-0.2-0.3
			c-0.3-0.1-0.6-0.3-0.8-0.5c-0.3-0.2-0.7-0.3-1.1-0.1c-0.4,0.3-0.6,0.8-0.3,1.3C235.9,156,236.4,157,237,158z"/>
		<path class="st11" d="M232.2,160.8c2.1-0.2,3-1.3,2.5-3.4c0-0.1,0-0.1-0.1-0.2c-0.2-0.2-0.5-0.3-0.7-0.1c-1.1,0.8-1.6,2.3-1.9,3.5
			C231.9,160.8,232,160.8,232.2,160.8z"/>
		<path class="st11" d="M194.6,158.9c-0.1,0-0.3,0.1-0.3,0.2c0,0.2,0.1,0.4,0.3,0.4c0,0,0,0,0,0l0.2,0.1c0.2,0.1,0.2,0.1,0.2-0.1
			l-0.1-0.4C194.8,159,194.7,158.9,194.6,158.9z"/>
		<path class="st11" d="M199,159.1c-0.2-0.1-0.4,0-0.4,0.2c-0.3,0.7-0.9,1.2-1.6,1.5c-0.4,0.2-0.7,0.5-0.6,0.9
			c0,0.1,0.1,0.2,0.2,0.3c1.2,0.6,2.1,0.4,2.9-0.5c0.1-0.2,0.1-0.3,0-0.5c-0.3-0.4-0.4-0.9-0.3-1.4
			C199.3,159.4,199.2,159.2,199,159.1z"/>
		<path class="st11" d="M320.4,160.3C320.4,160.3,320.4,160.4,320.4,160.3c-0.1,0.1-0.1,0.1,0,0.1c3.9,2.8,5.5,7.3,10.8,7.7
			c1.4,0.1,2.6,0.5,3.7,1.2c0.1,0.1,0.2,0,0.3,0c0.1-0.1,0.1-0.3,0-0.4c-1-0.9-1.8-1.8-2.6-3C330,161.8,325.1,160.2,320.4,160.3z"/>
		<path class="st11" d="M342.5,183.7c0,0.1,0.1,0.2,0.2,0.3c0.1,0.1,0.3,0,0.4-0.2c1.2-3.2,4.5-3.9,5.3-7.6c0.6-2.7-0.4-5.3,0.7-8.4
			c0.1-0.2,0-0.3-0.2-0.2c-3.2,1.6-6.2,4.7-6.7,8.4C341.8,178.2,342.6,181.1,342.5,183.7z"/>
		<path class="st11" d="M247.1,173.9l-0.1,0c0,0,0,0,0,0c-0.1,0-0.1,0.1-0.2,0.1l-0.1,1.9c0,0.1,0.1,0.1,0.1,0.2l0.1,0
			c0.4,0,0.7-0.3,0.7-0.8l0-0.5c0,0,0,0,0,0C247.8,174.3,247.5,173.9,247.1,173.9z"/>
		<path class="st11" d="M326.9,173.9c-0.3,0-0.4,0.1-0.1,0.3c0.8,0.7,1.7,1.3,2.3,2.1c1.4,1.9,2.5,4.3,4.2,5.6c2.8,2.2,6.2,2,8.6,4
			c0.1,0.1,0.2,0.1,0.3,0c0.1-0.1,0.2-0.2,0.1-0.3c-0.6-1.1-1.5-1.8-2-2.9C338.1,177.2,332.6,174.3,326.9,173.9z"/>
		<path class="st11" d="M252.6,177.9c-0.2,0.3-0.2,0.7,0.1,0.9c0.2,0.1,0.6,0,0.8-0.4c0.2-0.3,0.2-0.7-0.1-0.9
			C253.2,177.3,252.8,177.5,252.6,177.9z"/>
		<path class="st11" d="M160.4,187.9c-0.5-0.7-1.4-0.9-1.9-0.5l0,0c0,0,0,0.1,0,0.1l2,2.5c0,0,0,0,0,0c0,0,0.1,0,0.1,0l0,0
			c0.5-0.4,0.4-1.3-0.1-1.9L160.4,187.9C160.4,187.9,160.4,187.9,160.4,187.9z"/>
		<path class="st11" d="M348,206c0.1,0.2,0.1,0.2,0.2,0c0.6-1.1,1.2-1.9,2.3-2.6c4-2.4,6-4,6.5-8.9c0.2-2.3,0.9-4.5,2.1-6.6
			c0.1-0.2,0.1-0.2-0.1-0.2c-3.2,1-6,2.8-8.1,5.3c-3.1,3.7-1.9,7.3-3,11.4C347.9,204.9,347.9,205.4,348,206z"/>
		<path class="st11" d="M347.3,207.5c-0.9-1.4-1.6-2.3-2-4c-1.5-7-8-10.6-14.3-12.3c-0.1,0-0.1,0-0.2,0c-0.1,0.1-0.1,0.2,0,0.2
			c1.1,1,2,2.1,2.7,3.3c1.4,2.4,1.9,5.6,4.4,7.8c1.7,1.5,3.9,2.7,6.5,3.7c0.9,0.3,1.6,1.2,2.3,1.7c0.1,0.1,0.3,0.1,0.4,0
			C347.4,207.9,347.4,207.7,347.3,207.5z"/>
		<path class="st11" d="M162.9,192.5l-1.1-1.2c0,0-0.1-0.1-0.2-0.1c-0.2-0.1-0.4,0-0.4,0.2c-0.3,0.9,0,2.6,1.5,2
			c0.1,0,0.1-0.1,0.2-0.1C163,193.1,163.1,192.7,162.9,192.5z"/>
		<path class="st11" d="M163.4,196.8l2.4,0.4c0.1,0,0.3,0,0.4-0.1c0.2-0.2,0.3-0.5,0.1-0.7l-1.1-1.6c-0.1-0.2-0.4-0.3-0.6-0.2
			c-0.7,0.3-1.3,0.8-1.5,1.6C162.9,196.5,163,196.7,163.4,196.8z"/>
		<path class="st11" d="M328.3,202.5c-0.1,0-0.2,0.2-0.2,0.5c0,0.3,0.1,0.5,0.2,0.5s0.2-0.2,0.2-0.5
			C328.5,202.7,328.4,202.5,328.3,202.5z"/>
		<path class="st11" d="M328.2,204.3c0.1,0.2,0.2,0.3,0.4,0.4c0.1,0,0.1,0,0.2,0c0.1,0,0.1-0.2,0.1-0.2l-0.2-0.3
			c-0.1-0.1-0.2-0.2-0.3-0.1C328.2,204.1,328.2,204.2,328.2,204.3z"/>
		<path class="st11" d="M321.7,205.5c-0.4,0.1-0.5,0.9-0.2,1.9c0.2,1,0.7,1.7,1.1,1.6c0.4-0.1,0.5-0.9,0.2-1.9
			C322.6,206.1,322.1,205.4,321.7,205.5z"/>
		<path class="st11" d="M346.6,231c0.1,0.1,0.2,0.1,0.2,0c0.3-0.4,0.4-0.7,0.2-1c-0.5-0.8-0.8-1.7-1.1-2.6c0.2-1.3,0-2.6-0.6-3.7
			c-0.7-7.6-8.2-12.8-14.5-15.2c0,0-0.1,0-0.1,0c-0.1,0-0.1,0.1,0,0.2c2.1,2.7,2.9,5.2,3.6,8.5C336,225.5,342.1,225.9,346.6,231z"/>
		<path class="st11" d="M108.3,219.3c1.7,4.2,5.5,5.6,9.3,7.2c1.5,0.6,2.4,2,3.5,3.1c0,0,0.1,0.1,0.2,0.1c0.2,0,0.3-0.1,0.3-0.3
			l0.2-2.7c-0.3-5.5-0.3-11.3,0.2-17.5c0-0.4,0.1-0.6,0.3-0.7c0.9-0.7,1.7-1.6,2.8-2.1c5.6-2.4,8-4.2,10.2-9.9
			c0.8-2.1,2.1-3.9,3.8-5.3c0.1,0,0.1-0.1,0.1-0.2c0-0.1-0.1-0.2-0.2-0.1c-4.9,1.1-10.3,3.7-13.1,8c-1.4,2.3-1.6,5.6-3.2,7.7
			c-0.1,0.2-0.2,0.2-0.3,0c-0.2-0.2-0.1-0.5,0.1-0.8c0.9-6.6,2.5-13.2,4.7-19.6c1-0.4,1.6-1.1,2.6-1.4c2.9-0.8,5.6-1.6,7.6-3.7
			c0.1-0.1,0.8-1.2,2.1-3.2c1.1-1.6,2.4-3,4-4.1c0,0,0.1-0.1,0.1-0.1c0-0.1-0.1-0.1-0.2-0.1c-4.2,0.4-8.4,1.6-11.5,4.8
			c-1.5,1.6-2.5,4-3.8,6c-0.2-0.2-0.4-0.2-0.5-0.2c0.2-0.3,0.2-0.7-0.1-0.9c-0.1-0.1-0.2-0.3-0.2-0.4c0-2.9,1.1-6.1-0.2-8.9
			c-1.4-2.9-3.6-5.2-6.7-6.7c-0.1,0-0.1,0-0.2,0c-0.1,0-0.1,0.2-0.1,0.3c0.4,0.9,0.8,1.7,0.8,2.8c0,1.8,0.1,3.7,0.1,5.5
			c0.1,2.4,2.3,4.6,4,6c0.9,0.8,1.1,1.6,1.5,2.7c0.2,0.4,0.2,0.7,0.1,0.9c-0.9,1.9-1.5,3.9-2,6c-0.9,4.3-1.8,8.5-2.5,12.8
			c0,0.1-0.2,0.1-0.5,0.1c-0.3-2-0.6-4.1-0.7-6.3c-0.3-5.2-6.7-9.5-11.1-10.7c0,0-0.1,0-0.1,0c0,0,0,0.1,0,0.1
			c1.7,2.5,2.1,3.9,2.4,7.3c0.4,4.5,3.6,7.3,7.5,9.2c0.5,0.2,0.9,1,1.3,2.1c0,0.2,0.1,0.3,0.3,0.3c0.7,0.4,0.9,1,0.6,1.9
			c-0.3,1-0.5,2.1-0.5,3.2c-0.2,5.2-0.7,9.8,0.1,15l-0.1,1.4c0,0.1,0,0.1-0.1,0c0-0.1-0.1-0.2,0-0.3c0-0.2,0-0.3,0-0.5
			c-0.3-1-0.9-1.6-1-2.7c-0.8-8.6-6.5-12.9-14.3-15.1c-0.1,0-0.1,0-0.2,0.1c-0.1,0.1-0.2,0.1-0.3,0c-0.5-0.4-1-0.5-1.7-0.4
			c-0.3,0.1-0.3,0.2-0.1,0.3C106.6,212.4,106.9,215.7,108.3,219.3z"/>
		<path class="st11" d="M352.8,216.1c-2.8,3.4-1.9,7.1-4.2,11.1c-0.2,0.3-0.2,1-0.1,1.9c0,0.2,0.1,0.2,0.2,0.1
			c2.9-4.2,8.1-3.7,11.3-8c1.3-1.8,2-4.4,2.6-6.7c0.4-1.5,1.5-3.2,3.3-5c0.2-0.2,0.2-0.3-0.1-0.2
			C360.8,210.1,355.9,212.3,352.8,216.1z"/>
		<path class="st11" d="M142.8,225.9c0-0.1-0.1-0.1-0.2,0c-3.8,1.9-7.1,4.4-9.8,7.6c-3.7,4.2-5.1,8.1-4.7,13.5
			c0.1,1.8,0,3.6-0.5,5.4c-0.2,0.9,0,1.5,0.2,2.4c0,0.1,0.1,0.1,0.1,0.2c0.1,0,0.2,0,0.3-0.1c0.8-1.9,1.7-3.2,3.5-4.5
			c4.7-3.4,8.6-8.2,8.3-14c-0.2-3.8,0.8-7.2,2.8-10.3C142.8,226,142.8,226,142.8,225.9z"/>
		<path class="st11" d="M327,226.4c0.7,1.2,1.3,2.4,1.7,3.6c1,2.9,0.9,6.9,1.2,9.5c0.4,2.5,1.6,4.8,3.6,6.9c2.6,2.7,6,4.3,7.5,8
			c0.1,0.2,0.2,0.2,0.3,0c1.1-1.5-0.5-3.7-0.4-5c0.2-2.7,0.2-5.3-0.1-7.9c-0.1-1.1-0.5-2.2-1.1-3.3c-2.9-5.3-7.1-9.3-12.6-12
			C326.9,226.2,326.9,226.3,327,226.4z"/>
		<path class="st11" d="M367.5,232.6c-3.2,0.1-6.3,0.7-9.3,1.8c-0.3,0.1-0.6-0.1-1.1,0.1c-4.1,2-7.7,4.4-9.5,8.8
			c-0.9,2.1-1.5,4.2-2.9,6.1c-0.6,0.9-1,1.8-1.1,2.8c0,0,0,0.1,0,0.1c0.1,0.1,0.1,0.1,0.2,0c1.6-1.6,2.8-2.4,5.1-2.9
			c8-1.6,10.3-4.1,13.8-11.4c0.9-1.9,2.5-3.6,4.8-5.2C367.8,232.7,367.8,232.6,367.5,232.6z"/>
		<path class="st11" d="M298.9,246c-0.5,0.6-0.8,1.2-0.9,2c0,0.1-0.1,0.3-0.2,0.4l-0.4,0.6l2.5,0.2l-0.2-2.8c0-0.1-0.1-0.2-0.1-0.3
			C299.3,245.9,299,245.9,298.9,246z"/>
		<path class="st11" d="M206.5,259.7l10.7,0.2c0,0,0,0,0,0c0.1,0,0.2-0.1,0.2-0.2l-0.1-10.6c0-0.1-0.1-0.2-0.2-0.2l-10.6,0
			c-0.1,0-0.2,0.1-0.2,0.2l0,10.4c0,0,0,0,0,0C206.4,259.7,206.4,259.7,206.5,259.7z"/>
		<path class="st11" d="M227.2,259.8l10.6,0c0.1,0,0.1-0.1,0.1-0.1l0-10.6c0-0.1-0.1-0.1-0.1-0.1l-10.6,0c-0.1,0-0.1,0.1-0.1,0.1
			l0,10.6C227.1,259.8,227.1,259.8,227.2,259.8z"/>
		<path class="st11" d="M331.7,252.6c-2.2-4-5.1-7.4-8.8-10.3c0,0-0.1,0-0.1,0c-0.1,0-0.1,0.1-0.1,0.2c0.8,2.1,1.1,4.3,0.9,6.7
			l-0.1,2.8H323l0-2.1c0-0.2-0.1-0.3-0.3-0.3H291c-0.2,0-0.3,0.1-0.3,0.3c-0.1,0.4-0.1,0.8,0,1.2l0,28.4c0,0.2,0.1,0.3,0.3,0.3
			l7.2,0l13.7,0c0.2,0,0.2,0.1,0.2,0.2l0.1,31.7c0,0.1-0.1,0.2-0.2,0.2l-9.7-0.1c-0.2,0-0.2-0.1-0.2-0.2l0-21.3
			c0-0.2-0.1-0.2-0.2-0.2h-6.2l-5,0c-0.2,0-0.3,0.1-0.3,0.3v32.6c0,0.2,0.1,0.2,0.2,0.2l6.1,0l26.3,0c0.2,0,0.3-0.1,0.3-0.3l0-60.2
			c0-1.1,0.2-0.9,0.5,0.7c0.4,2.2,3.9,6.3,5.4,7.9c1.2,1.3,1.6,3.2,2.2,4.8c0.1,0.2,0.2,0.2,0.3,0.1c0.1-0.1,0.2-0.3,0.3-0.6
			l0.5-0.5c-0.2-2.1-0.3-3.4-0.1-4C334.6,263.7,335.2,259,331.7,252.6z M292.1,253.2c0,0-0.1,0-0.1,0
			C292,253.1,292,253.2,292.1,253.2z M290.9,253.6c0,0,0.1,0,0.1,0C291,253.6,291,253.6,290.9,253.6z M291.2,253.7
			C291.2,253.7,291.2,253.7,291.2,253.7c0.1,0,0.1,0,0.2-0.1C291.3,253.6,291.2,253.7,291.2,253.7z M291.7,253.2c0,0,0.1,0,0.1,0
			C291.8,253.2,291.7,253.2,291.7,253.2C291.7,253.2,291.7,253.2,291.7,253.2z M312.5,270.5c0,0.2-0.1,0.2-0.2,0.2l-1.5-0.1
			l-9.4,0.1c-0.1,0-0.2-0.1-0.2-0.2v-11.1c0-0.1,0.1-0.2,0.2-0.2l11.1,0c0.2,0,0.2,0.1,0.2,0.2l-0.2,5.8L312.5,270.5z"/>
		<path class="st11" d="M132.9,271.1c-3.5-2.9-4.6-7.4-8.7-9.9c-3-1.9-6.3-3.2-9.9-3.7c-3.6-0.6-8.7-0.6-12.2,0.2c0,0-0.1,0-0.1,0.1
			c0,0.1,0,0.1,0.1,0.1c2.5,1.1,4.7,2.2,6.7,4.2c2.6,2.7,5.3,6.7,8.5,8.2c3.1,1.4,6.6,2.1,10.5,2c2.8-0.1,5,0.7,7.2,2.3
			c0.1,0,0.1,0,0.2,0c0.1,0,0.1-0.2,0.1-0.3C134.5,273,134.1,272.1,132.9,271.1z"/>
		<path class="st11" d="M366.7,257.7c-0.2,0-0.4,0-0.7-0.1c-5.5-0.8-11.4-0.4-16.6,1.5c-5.9,2.2-8,5.8-11.4,10.7
			c-1,1.4-2.6,1.6-3.5,4.3c-0.1,0.2,0,0.3,0.2,0.1c2.1-1.4,4.4-2.2,6.9-2.2c5-0.1,10.7-0.8,14-4.6c3.5-3.9,6-7.6,11.1-9.5
			c0.1,0,0.1-0.1,0.1-0.1C366.9,257.7,366.8,257.7,366.7,257.7z"/>
	</g>
</g>
<g id="LETTRES">
</g>
<g id="BUSINESS">
</g>
</svg>
