<?xml version="1.0" encoding="utf-8"?>
<!-- Generator: Adobe Illustrator 27.9.0, SVG Export Plug-In . SVG Version: 6.00 Build 0)  -->
<svg version="1.1" xmlns="http://www.w3.org/2000/svg" xmlns:xlink="http://www.w3.org/1999/xlink" x="0px" y="0px"
	 viewBox="0 0 469 469" style="enable-background:new 0 0 469 469;" xml:space="preserve">
<style type="text/css">
	.st0{fill:#009872;}
	.st1{fill:#F9F9C3;}
	.st2{fill:#246665;}
	.st3{fill:#C99030;}
	.st4{fill:#C19338;}
	.st5{fill:#79003B;}
	.st6{fill:#DB214C;}
	.st7{fill:#FF6766;}
	.st8{fill:#5C7E7F;}
	.st9{fill:#495678;}
	.st10{fill:#0E5D99;}
	.st11{fill:#FFFFFF;}
	.st12{fill:#137CCF;}
	.st13{fill:#B8683D;}
	.st14{fill:#007CC4;}
</style>
<g id="UNDER">
	<path class="st0" d="M449.8,234.5c0,118.9-96.4,215.3-215.3,215.3l0,0c-118.9,0-215.3-96.4-215.3-215.3l0,0
		c0-118.9,96.4-215.3,215.3-215.3l0,0C353.4,19.2,449.8,115.6,449.8,234.5L449.8,234.5z"/>
	<path class="st1" d="M395.8,234.5c0,89.1-72.2,161.3-161.3,161.3l0,0c-89.1,0-161.3-72.2-161.3-161.3l0,0
		c0-89.1,72.2-161.3,161.3-161.3l0,0C323.6,73.2,395.8,145.4,395.8,234.5L395.8,234.5z"/>
	<g>
		<path class="st1" d="M126.1,373.1c-3.1,3.9-6.2,7.8-9.2,11.7c-3.3,4.3-9.5,8.2-13.8,2.3c-3.7-5.1,5.9-8.3,3.5-0.1
			c-0.2,0.5,0.1,1.1,0.7,1.2c0,0,0.1,0,0.1,0c1.1,0.2,2.6-1.7,3.2-2.5c4.5-5.6,8.9-11.4,13.2-17.1c0.1-0.2,0.2-0.3,0.1-0.5
			c-0.2-1.3-0.8-2.3-2-3c-0.2-0.1-0.2-0.3-0.2-0.5c0-0.3,0.2-0.5,0.5-0.5c0.1,0,0.3,0.1,0.4,0.2c3.2,2.4,6.3,4.9,9.5,7.4
			c0.1,0.1,0.2,0.2,0.1,0.4c-0.1,0.4-0.3,0.5-0.7,0.5c-0.1,0-0.2-0.1-0.3-0.2C129.3,370.4,127.6,371.2,126.1,373.1z"/>
		<path class="st1" d="M357.4,385.7c-1-3.9-2.2-7.7-3.5-11.5c-0.3-0.9-1-1.5-1.9-0.7c-0.3,0.2-0.4,0.4-0.5,0.4
			c-0.3,0.1-0.6,0-0.7-0.4c-0.1-0.2,0-0.4,0.1-0.6l4.8-3.9c0.1-0.1,0.3-0.1,0.4,0l0.4,0.4c0.2,0.2,0.2,0.4,0,0.5
			c-0.7,0.6-1,1.3-0.8,1.9c3,10.1,5.1,17.3,6.5,21.6c1.2,3.7,1.4,8.7-2.7,10.5c-1.8,0.8-4-1.4-2.9-3.2c0.7-1,2.4-1.6,3.6-2.2
			c0.1-0.1,0.3-0.2,0.3-0.4c0.7-1.9-0.5-5.2-1.2-7.1c-0.1-0.2-0.2-0.3-0.3-0.3c-4.7-2.3-9.4-4.5-14.2-6.8c-1.1-0.5-2.1-0.8-3.3-1.1
			c-0.2,0-0.3,0-0.5,0.1l-3.8,2.5c-0.1,0.1-0.2,0.2-0.1,0.4c2.4,3.6,4.7,7.2,7.1,10.8c1.7,2.6,4.3,1.3,4.1-1.4
			c0-0.3,0.2-0.5,0.4-0.5c0.2,0,0.4,0.1,0.5,0.4c1.3,4.5-3.9,9.8-7.3,5c-1.4-1.9-4.1-6-8-12.2c-0.1-0.2-0.2-0.2-0.4-0.1l-2.1,1.4
			c-0.3,0.2-0.6,0.1-0.8-0.2c-0.1-0.2-0.1-0.4,0-0.6c0.9-1.6,1.4-3.3,1.5-5.2c0.1-1.3-0.4-2.7-0.4-4.1c0-0.3,0.2-0.5,0.5-0.5
			c0.2,0,0.4,0.1,0.4,0.2l3.2,5c0.1,0.1,0.2,0.2,0.4,0.1c3.5-2.1,6.7-4.5,9.7-7.2c0.2-0.2,0.5-0.2,0.7,0c0,0,0,0,0,0.1l0.2,0.3
			c0.1,0.2,0.1,0.3-0.1,0.4c-0.6,0.4-0.9,1-1,1.6c0,0.2,0,0.3,0.1,0.5c1.4,1.8,8.4,4.6,11.5,6C357.4,385.9,357.5,385.9,357.4,385.7z
			"/>
		<circle class="st1" cx="136.4" cy="375.9" r="2.3"/>
		<circle class="st1" cx="320.9" cy="383.4" r="2.3"/>
		<path class="st1" d="M122.5,399.3c0.3,0.8,0.8,1.4,1.5,1.8c0.2,0.1,0.2,0.3,0,0.4l-0.4,0.4c-0.1,0.1-0.3,0.1-0.4,0l-7.6-5.5
			c-0.2-0.1-0.2-0.3-0.1-0.4l0.3-0.4c0.1-0.1,0.3-0.2,0.4-0.1c0,0,0,0,0,0c1.3,1.2,2.5,1,3.6-0.5c0.8-1.1,7.7-9.4,7.5-11.5
			c0-0.2-0.1-0.3-0.3-0.4l-1.4-0.7c-0.3-0.1-0.4-0.5-0.3-0.8c0.1-0.2,0.4-0.4,0.6-0.3l6,1.5c0.9,0.2,1.1,0.7,0.5,1.4
			c-3,4-6,8.3-9.2,12.7c-0.4,0.6-0.8,1.2-1,1.8C122.4,399,122.4,399.1,122.5,399.3z"/>
		<path class="st1" d="M139.8,391.8c1.9-0.6,3.3-0.9,4.2-0.8c4.8,0.4,6.8,4.7,4.4,8.8c-3.3,5.5-5.3,8.9-6.1,10.4
			c-0.7,1.3,1.1,2.2,1.6,3.1c0.1,0.2,0.1,0.5-0.2,0.6c-0.1,0.1-0.3,0.1-0.5,0l-8.1-4.9c-0.1-0.1-0.2-0.2-0.2-0.4
			c0-0.4,0.2-0.6,0.4-0.6c0.1,0,0.3,0,0.5,0.2c1.4,0.9,2.6,0.6,3.5-1c1.7-2.6,3.3-5.3,4.9-8c3-5.2-1.3-7.3-5.6-5.7
			c-0.2,0.1-0.3,0.2-0.4,0.3c-3.1,4.9-5.1,8.2-5.9,9.9c-0.8,1.5-0.3,2.6,1.3,3.1c0.2,0.1,0.3,0.3,0.2,0.4c0,0,0,0,0,0.1l-0.2,0.4
			c-0.1,0.2-0.3,0.3-0.5,0.1l-8-4.8c-0.2-0.1-0.2-0.3-0.1-0.5c0,0,0,0,0-0.1l0.3-0.4c0.1-0.1,0.3-0.2,0.4,0c1.2,1,2.3,0.9,3.1-0.3
			c1.2-1.7,3.2-5,5.9-9.8c0.6-1,0.9-1.8,1.1-2.6c0-0.2,0-0.4-0.2-0.5l-1.7-0.8c-0.1-0.1-0.2-0.2-0.2-0.3l0-0.5
			c0-0.2,0.2-0.4,0.4-0.3l6.6,1.1c0.3,0.1,0.5,0.3,0.4,0.6c0,0.1,0,0.1-0.1,0.2l-1.6,2.8c0,0.1,0,0.2,0.1,0.2
			C139.7,391.8,139.7,391.8,139.8,391.8z"/>
		<path class="st1" d="M322,395.5c-0.2-0.1-0.2-0.3-0.2-0.4c0,0,0,0,0-0.1l4.3-5.5c0.1-0.2,0.4-0.2,0.6-0.1c0,0,0.1,0.1,0.1,0.1
			c3,5,6,10,8.9,14.9c0.5,0.8,1.3,1,2.5,0.8c0.2,0,0.3-0.1,0.4-0.2c0.1-0.1,0.3-0.2,0.5-0.2c0.3-0.1,0.6,0.1,0.6,0.4
			c0,0.2-0.1,0.4-0.3,0.6l-7.8,4.7c-0.2,0.1-0.3,0.1-0.5-0.1L331,410c-0.1-0.1-0.1-0.3,0.1-0.4c0,0,0,0,0,0c2.2-1,1.6-2.6,0.6-4.3
			c-2-3.4-4.1-7.8-6.8-10.6c-0.1-0.1-0.3-0.2-0.4-0.1c-0.6,0.2-1.2,0.5-1.7,1c-0.1,0.1-0.3,0.2-0.5,0.1L322,395.5z"/>
		<path class="st1" d="M311.6,407.4c-5.2-4-1.8-10.3,3.8-11c1.2-0.1,1.8-0.7,2-1.8c0-0.2,0.2-0.3,0.4-0.2c0.1,0,0.2,0.1,0.2,0.2
			l3,5.7c0.1,0.2,0.1,0.4-0.1,0.6c-0.2,0.2-0.3,0.3-0.5,0.3c-0.1,0-0.3-0.1-0.4-0.2c-2.6-2.5-4.9-4.3-8-1.1c-2,1.9-0.1,4.2,2.2,4.3
			c1.4,0.1,3.4,0.1,6.2,0.2c5,0,8.2,4.3,5.7,8.8c-1.6,2.8-4.8,3.8-8,4.5c-0.2,0-0.3,0.1-0.4,0.3l-0.4,0.8c-0.1,0.2-0.3,0.2-0.5,0.2
			c-0.1,0-0.1-0.1-0.2-0.2c-1-2-2.1-3.9-3.1-5.9c-0.1-0.2-0.1-0.4-0.1-0.6c0.1-0.2,0.4-0.3,0.7-0.2c0,0,0.1,0.1,0.1,0.1
			c2,2.3,4.9,3.8,7.9,2.5c2.8-1.2,2.6-5-0.4-5.8C319.1,408,313.7,409,311.6,407.4z"/>
		<path class="st1" d="M155.7,416.9c-1.6,0.4-3.4,0.9-4.8,0.7c-2.6-0.3-4.8-2.5-4.5-5.3c0.8-6.6,8.7-5.6,13.8-5.4
			c0.2,0,0.3-0.1,0.4-0.2c0.8-1.5,1.6-3.8,0.5-5.2c-0.9-1.2-2.6-1.9-3.9-1.2c-1.4,0.8-1.3,2.3-2.3,3.1c-1.2,1-3.1-0.1-3.1-1.6
			c-0.1-1.6,2.1-3.1,3.4-3.5c4.1-1.2,12.1,2.5,9.8,7.9c-1.6,3.8-3.2,7.7-4.9,11.5c-0.2,0.4,0,0.9,0.4,1c0.2,0.1,0.4,0.1,0.5,0
			l2.1-0.6c0.2-0.1,0.3,0,0.2,0.2c-0.4,2.7-9.1,4.4-7.4-1.2C156,416.9,155.9,416.8,155.7,416.9z M150.5,413c0.2,3,4,2.9,6.1,2
			c0.1-0.1,0.2-0.2,0.3-0.3l2.6-5.8c0.1-0.2,0-0.3-0.2-0.3C156.4,408.3,150.2,408,150.5,413z"/>
		<path class="st1" d="M301.1,405.7c0,0.1,0.1,0.1,0.2,0.1c0.1,0,0.1-0.1,0.1-0.1c0.3-2.7,2.7-7.4,6-4.6c0.6,0.5,0.8,1.1,0.7,1.8
			c-0.4,2.7-2.6,1.7-4.3,1.5c-0.3,0-0.6,0.1-0.8,0.4c-1.1,2.2-1,3.5-0.1,5.9c0.7,1.8,1.4,3.5,2.2,5.3c1.1,2.6,1.6,4.7,4.9,3.5
			c0.1,0,0.2,0,0.3,0.1l0.3,0.3c0.1,0.2,0.1,0.4-0.1,0.6c0,0-0.1,0-0.1,0.1l-9.3,3.8c-0.3,0.1-0.4,0-0.4-0.3l0-0.6
			c0-0.2,0.1-0.3,0.2-0.3c2.2-0.6,2-2.2,1.3-4c-1.5-3.7-3-7.4-4.5-11c-0.3-0.6-1-0.9-1.7-0.7c0,0,0,0-0.1,0l-1.1,0.6
			c-0.3,0.1-0.6,0-0.7-0.3c-0.1-0.2-0.1-0.5,0.1-0.6l5-4.7c0.1-0.1,0.4-0.1,0.5,0c0,0,0.1,0.1,0.1,0.1L301.1,405.7z"/>
		<path class="st1" d="M197.3,403.3c-0.1-0.2-0.1-0.4,0-0.7c0.1-0.2,0.2-0.2,0.3-0.2L210,404c0.3,0,0.4,0.3,0.4,0.5
			c0,0.1,0,0.1-0.1,0.2l-0.1,0.3c-0.1,0.2-0.2,0.3-0.4,0.2c-2.2-0.3-3.7-0.2-4.1,2.2c-0.8,4.9-1.4,9.8-1.8,14.7
			c-0.1,1.6-0.1,3.2,0,4.8c0.5,5,6.1,6.3,10.3,5.3c3-0.8,4.8-2.7,5.4-5.8c0.8-4.8,1.5-9.6,2-14.5c0.3-3,1-5.5-2.8-5.7
			c-0.2,0-0.4-0.1-0.4-0.3c-0.4-0.7-0.3-1,0.3-0.9c3.3,0.4,6.6,0.8,9.9,1.3c0.2,0,0.4,0.2,0.3,0.4c0,0,0,0,0,0.1
			c-0.1,0.5-0.5,0.7-1.1,0.6c-2.1-0.4-3.4,0.5-3.6,2.6c-0.9,7.8-1.6,13.1-2.1,15.9c-1.2,7.1-6.9,9.7-13.5,8.5
			c-4.4-0.8-8.1-3-9.1-7.6c-0.3-1.3-0.2-3.7,0.2-7.1c0.4-3.5,0.8-7,1.2-10.4c0.2-1.7,0.2-3.2,0.1-4.4c0-0.2-0.1-0.3-0.3-0.4
			C199.9,404.1,197.5,403.6,197.3,403.3z"/>
		<circle class="st1" cx="251.5" cy="405.7" r="2.3"/>
		<path class="st1" d="M174.3,408.4c1.3-0.6,2.6-1.1,4-1.5c3.4-0.9,6.5,1.6,6.5,5c0,1-0.5,2.8-1.4,5.4c-1.4,4-2.3,6.8-2.7,8.3
			c-0.6,2.1,1.2,1.8,2,2.6c0.2,0.2,0.2,0.6,0,0.8c-0.2,0.1-0.4,0.2-0.6,0.1l-8.8-3.1c-0.1-0.1-0.2-0.2-0.2-0.4l0.1-0.4
			c0.1-0.2,0.2-0.3,0.4-0.3c2.4,0.5,2.8,0.5,3.7-1.8c1.8-4.8,3-8.3,3.5-10.5c1.1-4.5-4.8-4.3-7.2-2.5c-0.1,0.1-0.2,0.2-0.3,0.4
			c-1.3,3.6-2.6,7.2-3.7,10.9c-0.2,0.8-0.1,1.5,0.4,2.1c0,0,0,0,0.1,0l1.6,0.7c0.3,0.1,0.4,0.4,0.3,0.7c-0.1,0.3-0.4,0.4-0.7,0.3
			l-9.1-3.1c-0.2-0.1-0.3-0.2-0.3-0.4c0-0.4,0.2-0.6,0.5-0.6c0.1,0,0.3,0,0.6,0.1c1.3,0.4,2.2-0.1,2.7-1.5c1.6-4.1,3-8.2,4.2-12.4
			c0.2-0.6-0.2-1.2-0.8-1.4c-0.1,0-0.2,0-0.3,0c-0.5,0-0.9-0.1-1.2-0.2c-0.3-0.1-0.4-0.4-0.2-0.7c0.1-0.2,0.2-0.3,0.4-0.3l6.6-0.4
			c0.4,0,0.7,0.3,0.7,0.6c0,0.1,0,0.2,0,0.3l-1,2.8C174,408.4,174.1,408.5,174.3,408.4z"/>
		<path class="st1" d="M294.9,426.1c-10.8,9.6-22.8-14.3-8.2-19c4.3-1.4,8.4,1.7,9.7,5.7c0.1,0.2,0,0.3-0.2,0.3l-12.7,3.7
			c-0.1,0-0.2,0.1-0.2,0.3c0.7,2.8,2.1,4.8,4.1,5.9c4.5,2.5,9.1-0.1,9.1-5.3c0-0.2,0.1-0.3,0.3-0.3c0,0,0,0,0.1,0
			c0.6,0.2,1,0.6,0.9,1.4C297.7,421.6,297,424.2,294.9,426.1z M283.1,415.2l7.9-2.3c0.1,0,0.1-0.1,0.1-0.2c0,0,0,0,0,0l0-0.1
			c-0.7-2.4-3.1-3.8-5.4-3.2l0,0c-2.3,0.7-3.5,3.2-2.8,5.6c0,0,0,0,0,0l0,0.1C282.9,415.2,283,415.3,283.1,415.2z"/>
		<path class="st1" d="M265.8,414c-1.9,0.5-2.2,1.5-1.2,3.2c2,3.2,4.1,6.3,6.3,9.5c0.1,0.2,0.2,0.2,0.3-0.1c0.9-4,1.7-8.1,2.4-12.2
			c0.2-1,0-1.8-1.3-1.6c-0.4,0.1-0.6,0.1-0.8,0c-0.3-0.1-0.5-0.3-0.4-0.6c0-0.1,0.1-0.2,0.2-0.3c0.1-0.1,0.4-0.2,0.7-0.3
			c1.8-0.3,3.5-0.7,5.3-1.1c0.3-0.1,0.5,0.1,0.6,0.3c0.1,0.2,0.1,0.4,0,0.5c-0.4,0.7-1.8,0.7-2.1,2c-1.3,6.4-2.6,12.8-3.9,19.2
			c-0.1,0.4-0.5,0.6-0.8,0.6c-0.2,0-0.3-0.1-0.5-0.3c-3.5-5.1-6.9-10.3-10.4-15.5c-0.7-1.1-1.8-1.6-3.2-1.6c-0.5,0-0.7-0.2-0.7-0.7
			c0-0.2,0.2-0.4,0.4-0.5c2.9-0.6,5.7-1.1,8.6-1.7c0.3-0.1,0.6,0.1,0.7,0.3c0.1,0.2,0.1,0.5-0.2,0.6
			C265.9,413.9,265.9,414,265.8,414z"/>
		<path class="st1" d="M249.3,417.2l-1.5,0.4c-0.1,0-0.3,0-0.3-0.1l-0.3-0.4c-0.1-0.2-0.1-0.4,0.1-0.5c0,0,0,0,0,0l6-3
			c0.3-0.1,0.6,0,0.8,0.3c0,0.1,0.1,0.1,0.1,0.2c0.5,5.6,1,11.2,1.5,16.9c0.1,1.6,1.1,2.2,2.8,1.9c0.2,0,0.3,0,0.4,0.2l0.2,0.6
			c0.1,0.2,0,0.3-0.2,0.4c0,0,0,0-0.1,0l-9.5,0.9c-0.3,0-0.4-0.1-0.4-0.3l0-0.6c0-0.2,0.1-0.3,0.3-0.3c1.7,0,2.5-0.8,2.4-2.5
			c-0.2-4.2-0.6-8.3-1.1-12.4c-0.1-0.6-0.4-1.2-0.8-1.6C249.6,417.2,249.5,417.1,249.3,417.2z"/>
		<path class="st1" d="M227.1,418.9c-0.7-0.3-1.6,0.3-2.1,0.1c-0.2-0.1-0.3-0.3-0.3-0.6c0-0.2,0.2-0.5,0.4-0.6l5.8-2.7
			c0.3-0.1,0.6,0,0.7,0.3c0,0.1,0,0.1,0,0.2l0.3,3c0,0.1,0.1,0.2,0.2,0.1c0,0,0.1,0,0.1-0.1c1.4-1.6,3.1-3.3,5.2-3.7
			c3.9-0.8,6.2,2.4,6.4,5.9c0.2,3.2,0.4,6.4,0.6,9.6c0.1,2,0.1,3.8,2.8,3.6c0.3,0,0.6,0.2,0.6,0.5c0,0.3-0.1,0.5-0.4,0.6
			c-0.2,0.1-0.5,0.1-0.9,0.1c-2.9,0.1-5.8,0.2-8.7,0.5c-0.2,0-0.3-0.1-0.3-0.3c0,0,0,0,0,0l0-0.6c0-0.3,0.1-0.4,0.4-0.4
			c1.8,0.1,2.7-0.8,2.7-2.9c-0.1-3-0.3-6.6-0.7-10.7c-0.4-4.9-5.1-3-7.2-0.8c-0.8,0.8-0.7,1.7-0.6,2.8c0.3,4.3,0,8.6,1,11.2
			c0.1,0.2,0.2,0.3,0.4,0.3c0.7,0.2,1.4,0.3,2.1,0.2c0.2,0,0.4,0.1,0.5,0.3l0.1,0.5c0.1,0.3,0,0.4-0.3,0.4l-9.6,0.6
			c-0.1,0-0.2-0.1-0.2-0.2l-0.1-0.6c0-0.2,0.1-0.3,0.2-0.3c0,0,0,0,0.1,0c1.8,0,2.6-0.9,2.6-2.7c-0.1-4.2-0.4-8.4-0.8-12.6
			C227.8,419.4,227.5,419,227.1,418.9z"/>
	</g>
</g>
<g id="MAIN">
</g>
<g id="SCIENCES">
	<path class="st5" d="M391.6,234.5c0,86.7-70.3,157.1-157.1,157.1l0,0c-86.7,0-157.1-70.3-157.1-157.1
		c0-86.7,70.3-157.1,157.1-157.1C321.3,77.4,391.6,147.8,391.6,234.5L391.6,234.5z"/>
	<g>
		<path class="st1" d="M351,105c-9.4-7.9,6.1-24.6,15.5-14.6c1.8,2,3.2,5.9,0.7,7.9c-1.4,1.1-3.1-0.4-3.4-1.7
			c-0.3-1.5,1.4-2.4,1.5-3.8c0.1-1.7-2-3.1-3.4-3.3c-5.4-0.8-11.3,7.7-8.6,12.4c1.7,3,5.5,3.2,8.4,1.7c0.3-0.1,0.6,0,0.7,0.2
			c0.1,0.2,0,0.5-0.1,0.6C359.1,107,354.2,107.7,351,105z"/>
		<path class="st1" d="M237,39h4.6c0.2,0,0.3,0.1,0.3,0.3v1.3c0,0.2-0.1,0.4-0.4,0.4H237c-0.2,0-0.2,0.1-0.2,0.2c0,4.7,0,9.4,0,14.1
			c0,2.8,2,3,4.2,2.9c0.2,0,0.3,0.1,0.3,0.3c0,0,0,0,0,0V59c0,0.2-0.1,0.3-0.3,0.3c-3.6,0-7.3,0-10.9,0c-0.4,0-0.6-0.1-0.8-0.2
			c-0.2-0.2-0.2-0.5-0.1-0.8c0.1-0.2,0.2-0.2,0.3-0.2c2.5,0.3,3.3-1.2,3.4-3.5c0.1-4.5,0.1-9,0-13.5c0-0.2-0.1-0.2-0.2-0.2h-3.3
			c-0.2,0-0.3-0.1-0.3-0.3l0-1.3c0-0.2,0.1-0.3,0.3-0.3h3.3c0.2,0,0.3-0.1,0.3-0.3c-0.1-4,0.9-7.5,4.4-9.5c2.9-1.6,6.4-1.5,8.8,0.8
			c0.9,0.9,1.2,2.2,0.2,3.2c-2.3,2.4-4-2.7-6.1-3.2c-4.2-0.9-3.5,6.5-3.4,8.7C236.8,38.9,236.9,39,237,39z"/>
		<path class="st1" d="M276.8,43.4c0,0.1-0.1,0.2-0.3,0.2c-0.5,0-0.7-0.2-0.8-0.6c-0.5-5.3-2.3-9.3-8.5-9.1c-0.7,0-1.4,0.3-2.2,0.9
			c-8.8,7.2,18,12.8,10.4,24.5c-1.7,2.6-4.8,3.8-7.9,3.8c-3.2,0-5.9-1.7-8.7-3c-0.4-0.2-0.8,0-1.1,0.3l-0.7,1
			c-0.2,0.2-0.5,0.3-0.7,0.1c-0.2-0.1-0.2-0.3-0.2-0.5l1.4-9.5c0-0.3,0.3-0.5,0.5-0.5c0.5,0,0.7,0.3,0.7,0.8c0,5.3,2.6,8.4,7.8,9.1
			c5.9,0.8,7.5-5.6,3.2-9.1c-3.8-3-6.7-5-8.7-7.6c-2.5-3.2-2.4-7.2,0.7-10.1c4.6-4.2,9-2.1,13.7,0.5c0.5,0.3,1.1,0.1,1.3-0.4
			c0-0.1,0.1-0.2,0.1-0.2c0.1-0.6,0.5-0.9,1.1-0.8c0.2,0,0.3,0.2,0.3,0.4c0,0,0,0,0,0L276.8,43.4z"/>
		<path class="st1" d="M215.4,60.8c-5.4,0.2-9.9-4.4-10.1-10.3c-0.2-5.9,3.9-10.9,9.3-11.1h0c5.4-0.2,9.9,4.4,10.1,10.3
			S220.7,60.6,215.4,60.8L215.4,60.8z M210.3,43.2c-2.3,3.2-0.1,12.9,3.4,14.8c3.1,1.7,6,0.4,6.7-3c0.7-3.6-0.4-9.1-2.9-11.9
			C215.5,40.8,212.2,40.5,210.3,43.2z"/>
		<path class="st1" d="M183.8,47.3c-0.5-0.1-1-0.1-1.4,0c-0.1,0-0.3,0-0.4-0.1l-0.3-0.2c-0.2-0.1-0.2-0.4-0.1-0.6
			c0.1-0.1,0.1-0.1,0.2-0.2c1.9-0.6,3.8-1.3,5.8-1.9c0.2-0.1,0.3-0.1,0.4,0c0.1,0.1,0.2,0.2,0.3,0.4c0.1,0.3-0.1,0.5-0.3,0.7
			c-0.9,0.5-1.4,1.3-1.5,2.4c-0.5,7.4-1.1,14.9-1.7,22.3c-0.3,3.2-0.9,5.1-3.2,7.1c-4.6,4-8.9-4.2-0.5-3.6c0.2,0,0.3,0,0.4-0.1
			c1.4-1.3,1.5-5.1,1.5-7.2c0-0.1-0.1-0.3-0.2-0.4c-3.8-4.1-7.6-8.2-11.6-12.2c-1.1-1.1-2.3-1.6-3.8-1.6c-0.3,0-0.6-0.2-0.6-0.5
			c0-0.3,0.1-0.5,0.4-0.6l8.5-2.8c0.2-0.1,0.4,0,0.4,0.2c0,0,0,0,0,0l0.2,0.6c0.1,0.2,0,0.4-0.2,0.4c-0.7,0.1-1.2,0.5-1.5,1.1
			c-0.1,0.2-0.1,0.3-0.1,0.5c0.2,0.7,0.4,1.2,0.7,1.6c2.6,2.8,5.2,5.5,7.8,8.2c0.2,0.2,0.3,0.2,0.3-0.1c0.3-4.1,1-8.7,0.7-12.8
			C184.1,47.5,184,47.4,183.8,47.3z"/>
		<circle class="st1" cx="314.1" cy="46.7" r="2.3"/>
		<path class="st1" d="M281.2,59.3c0-5.5,3.6-11.2,9.5-11.8c2.6-0.3,4.9,0.5,6.9,2.4c1.3,1.3,3.1,4.7,0.7,5.9c-1.1,0.5-2.4,0-3-1
			c-1.1-1.7,1-4.2-1.7-5.2c-8-2.9-11.6,13.8-3.5,15.5c2.7,0.5,5-0.9,6.5-3c0.1-0.1,0.3-0.2,0.4-0.1c0.5,0.2,0.5,0.7,0.3,1.1
			c-1.8,2.7-4.5,5.2-7.9,5.3C284.4,68.5,281.2,64,281.2,59.3z"/>
		<path class="st1" d="M157.3,48.5c0.1-0.2,0.3-0.3,0.5-0.2c0.1,0,0.1,0.1,0.2,0.2l2.4,5.4c0.1,0.2,0.3,0.3,0.5,0.2l3.6-1.6
			c0.1-0.1,0.3,0,0.4,0.1l0.6,1c0.1,0.2,0,0.4-0.1,0.5c0,0,0,0,0,0l-3.7,1.6c-0.2,0.1-0.2,0.3-0.2,0.4c1.7,4,3.5,8,5.3,12
			c1.2,2.7,3.8,1.7,4-0.9c0-0.3,0.3-0.5,0.6-0.5c0.3,0,0.5,0.2,0.5,0.5c0.2,2.4-0.6,4.2-2.5,5.3c-2,1.2-4.5,0.6-5.5-1.5
			c-2.1-4.4-4.1-8.7-6-13.1c-0.1-0.3-0.4-0.4-0.7-0.3c0,0,0,0,0,0l-2,0.9c-0.3,0.1-0.6,0-0.7-0.3c-0.1-0.2-0.1-0.4,0.1-0.6
			c1.8-2.2,2.6-4.8,2.4-7.9C157,49.4,157.1,49,157.3,48.5z"/>
		<path class="st1" d="M139.1,56c-0.1-0.1-0.2-0.2-0.3-0.2c-0.1-0.1,0-0.3,0.1-0.5c1.4-1.8,2.9-3.5,4.5-5.1c0.1-0.1,0.3-0.1,0.5,0
			c0,0,0,0.1,0.1,0.1c4.2,8,8.5,15.9,12.7,23.8c0.9,1.6,2.2,2.5,3.8,1.2c0.2-0.2,0.5-0.1,0.7,0.1c0.1,0.1,0.1,0.3,0.1,0.4
			c-0.1,0.4-0.4,0.7-0.8,0.9c-2.6,1.3-5.1,2.6-7.7,3.9c-0.2,0.1-0.5,0-0.6-0.2c-0.1-0.2-0.1-0.4,0.1-0.6c0.9-0.9,2.2-1.4,1.4-3.1
			c-2.7-5.3-6.2-11.9-10.4-19.7c-0.4-0.8-0.9-1.5-1.4-1.9c-0.1-0.1-0.3-0.1-0.4,0l-1.5,0.9C139.5,56.1,139.3,56.1,139.1,56z"/>
		<path class="st1" d="M306.8,57.7c0.5-1.2,0.4-2.3-1.2-2.4c-0.3,0-0.6-0.2-0.8-0.4c-0.2-0.2-0.1-0.6,0.1-0.8
			c0.1-0.1,0.2-0.1,0.4-0.1l6.5,0.3c0.4,0,0.6,0.3,0.6,0.7c0,0.1,0,0.2-0.1,0.2c-2,4.5-4.1,9.1-6.2,13.8c-0.4,1-0.8,2-1,3.1
			c0,0.1,0,0.3,0.1,0.3l1.7,1.6c0.2,0.1,0.2,0.4,0.1,0.6c-0.1,0.3-0.4,0.3-0.8,0.2c-2.8-1.3-5.6-2.5-8.4-3.7
			c-0.2-0.1-0.2-0.2-0.2-0.4c0,0,0,0,0,0l0.3-0.5c0.1-0.1,0.2-0.2,0.4-0.1c2.6,1.4,3.1-0.5,4.2-2.7C304.2,64.2,305.6,61,306.8,57.7z
			"/>
		<path class="st1" d="M315.9,79.8c-8.2-5.9-0.8-20.9,8.6-19.1c5.7,1.1,8.4,6.2,5.8,11.7c-0.1,0.2-0.2,0.2-0.4,0.1l-11.7-6
			c-0.2-0.1-0.4,0-0.5,0.2c0,0,0,0,0,0c-1.5,3.6-2,8.3,1.9,10.7c2.5,1.6,5,1.2,7.4-1.1c0.1-0.1,0.2-0.1,0.3,0
			c0.4,0.2,0.5,0.6,0.2,0.9C325.4,81,319.7,82.5,315.9,79.8z M319,65.3l7.2,3.5c0.2,0.1,0.4,0,0.5-0.1c0,0,0,0,0,0l0-0.1
			c1.1-2.2,0.2-4.9-1.9-5.9c0,0,0,0,0,0l-0.1,0c-2.1-1.1-4.8-0.1-5.9,2.1l0,0.1C318.8,65,318.9,65.2,319,65.3z"/>
		<path class="st1" d="M143.2,82.5c-0.6,3.1-1.5,6-4.7,7c-1.9,0.6-3.8-0.2-5-1.7c-2.7-3.2-4.9-6.8-7.1-10.4c-1-1.7-2.3-1.8-3.9-0.6
			c-0.2,0.2-0.6,0.2-0.8-0.1c-0.1-0.1-0.1-0.2-0.1-0.4c0-0.3,0.2-0.5,0.5-0.7c1.8-1,3.5-2.3,5.3-3.4c0.1-0.1,0.3-0.1,0.4,0.1
			c2.5,3.8,4.9,7.5,7.4,11.3c3.3,5.1,6.6,0.7,7.4-3c0-0.1,0-0.3-0.1-0.4c-2.1-3.3-4.3-6.6-6.5-9.8c-1.5-2.2-2.7,0.3-3.8-0.2
			c-0.2-0.1-0.3-0.2-0.4-0.4c-0.1-0.2,0-0.3,0.1-0.4l5.5-3.6c0.1-0.1,0.3-0.1,0.4,0.1c2.8,4.4,5.7,8.8,8.6,13.1
			c0.5,0.7,1.1,1,1.8,0.8c0.2,0,0.3-0.1,0.4-0.2l0.6-0.8c0.2-0.3,0.6-0.3,0.9-0.1c0.3,0.2,0.3,0.6,0.1,0.9l0,0l-4.1,5.6
			c-0.1,0.1-0.3,0.2-0.4,0.1c0,0-0.1-0.1-0.1-0.1l-1.7-2.8c-0.1-0.1-0.2-0.2-0.3-0.1C143.2,82.4,143.2,82.5,143.2,82.5z"/>
		<path class="st1" d="M341.4,74.7c3-1.2,7.1-0.8,8.7,2.2c1.5,2.8-0.2,5.6-1.9,8c-2.4,3.5-4.3,6.3-5.4,8.4c-0.6,1,0.7,2.1,1.4,2.6
			c0.1,0.1,0.2,0.3,0.1,0.5l-0.3,0.4c-0.1,0.1-0.2,0.1-0.3,0.1l-7.9-5.4c-0.2-0.1-0.2-0.3,0-0.5l0.5-0.4c0.1-0.1,0.3-0.1,0.4,0
			c1.3,1.2,2.4,1.1,3.4-0.2c1.8-2.7,3.6-5.3,5.4-8c1-1.5,2.4-4,0.6-5.3c-1.7-1.3-3.6-1.5-5.8-0.8c-0.2,0.1-0.3,0.2-0.4,0.3l-6.6,9.9
			c-0.1,0.2-0.2,0.4-0.1,0.6c0.2,1.1,0.8,1.9,1.8,2.3c0.2,0.1,0.2,0.2,0.1,0.4l-0.3,0.5c-0.1,0.2-0.3,0.2-0.5,0.1l-7.7-5.3
			c-0.1-0.1-0.2-0.2-0.2-0.4c-0.1-0.4,0.1-0.6,0.5-0.6c0.1,0,0.2,0.1,0.4,0.2c1.3,0.9,2.4,0.6,3.4-0.8c2-2.8,4-5.7,5.9-8.6
			c0.6-0.8,1-1.7,1.3-2.7c0.1-0.2,0-0.3-0.1-0.4c-0.4-0.5-1.6-0.9-1.8-1.3c-0.1-0.2-0.1-0.4,0-0.6c0.1-0.2,0.3-0.2,0.5-0.2l6.4,1.4
			c0.3,0.1,0.5,0.4,0.5,0.7c0,0.1,0,0.1-0.1,0.2l-1.7,2.5c-0.1,0.1,0,0.2,0.1,0.3C341.3,74.7,341.4,74.7,341.4,74.7z"/>
		<path class="st1" d="M116.7,96.7c6.1,2.9,10.5-1.8,8.1-7.9c-0.1-0.2,0-0.3,0.1-0.4c0.5-0.3,0.8-0.2,1,0.2
			c1.8,3.4,2.4,7.3-0.1,10.4c-7.7,9.9-24.4-6.3-14.4-15.6c1.9-1.8,6.1-3.1,8.1-1.1c1.1,1.1,1.1,2.2-0.1,3.2c-2.7,2.3-3.7-2-6.2-0.9
			c-3.6,1.6-3,5.7-1,8.4C113.4,94.7,114.9,95.9,116.7,96.7z"/>
		<path class="st1" d="M110.3,109.6c-0.4,3.1-0.6,6-3.4,7.3c-2.9,1.4-6.3-0.4-7.2-3.3c-0.9-3,1.1-7.9,2.8-11.3
			c0.1-0.1,0.1-0.3,0-0.4c-1.9-2.6-5.3-3.8-7-0.4c-1.4,2.8,3.4,3.9,1.6,6.1c-1.3,1.7-3,0.7-3.8-0.8c-2.1-3.6,1.4-8,4.4-9.8
			c2.4-1.4,4.2-1.1,6.1,0.7c2.8,2.7,5.7,5.4,8.5,8c0.5,0.4,0.9,0.5,1.4,0c0.1-0.1,0.2-0.3,0.2-0.5l0.1-1.9c0-0.2,0.2-0.4,0.4-0.4
			c0.2,0,0.3,0.1,0.4,0.3c1,2.6,1,6.8-2.5,7.2c-0.2,0-0.3,0-0.4-0.1l-1.3-0.9C110.5,109.3,110.4,109.4,110.3,109.6z M108.9,107.8
			l-4.9-4.6c-0.1-0.1-0.2-0.1-0.3,0.1c-0.8,1.8-1.4,3.5-1.7,5.2c-0.4,2.6,1.3,5.2,4,4.8c2.2-0.3,2.7-3.1,3-4.9
			C109.1,108.1,109.1,108,108.9,107.8z"/>
		<path class="st1" d="M370,106.2c-3.4,2.8-4.8,8-1.6,11.3c1.6,1.6,3.7,1.9,6.5,0.9c0.3-0.1,0.5-0.1,0.6-0.1
			c0.3,0.2,0.4,0.5,0.3,0.8c0,0.1-0.1,0.2-0.2,0.2c-7.4,5.3-16.5-1.9-12.6-10.3c2.6-5.5,9.8-9.7,15.6-6c4.5,2.9,5.2,9,1,12.5
			c-0.1,0.1-0.3,0.1-0.4,0l-8.8-9.4C370.3,106.1,370.1,106.1,370,106.2z M371.4,105.3l5.7,5.8c0.1,0.1,0.4,0.1,0.5,0l0.1-0.1
			c1.8-1.7,1.8-4.5,0.1-6.2c0,0,0,0,0,0l-0.1-0.1c-1.7-1.7-4.5-1.7-6.2,0c0,0,0,0,0,0l-0.1,0.1C371.3,104.9,371.3,105.2,371.4,105.3
			z"/>
		<path class="st1" d="M68.6,120.5c-1.1,0.4-2,1.2-2.6,2.2c-0.1,0.1-0.2,0.2-0.4,0.1c-0.6-0.2-0.8-0.5-0.5-0.8
			c4.2-5.8,8.4-11.6,12.7-17.4c0.1-0.2,0.2-0.2,0.4-0.1l5,3.4c0.2,0.2,0.3,0.5,0.1,0.7c0,0.1-0.1,0.1-0.2,0.2l-0.3,0.2
			c-0.1,0.1-0.3,0.1-0.4,0c-2.6-1.2-4.7-0.8-6.2,1.2c-1.5,1.9-3,3.9-4.5,6c-0.1,0.2-0.1,0.4,0.1,0.5l8.6,6.3
			c0.1,0.1,0.3,0.1,0.4-0.1c1-1.4,2-2.8,3-4.1c1.4-2,0.6-3.6-0.9-5.1c-0.2-0.2-0.2-0.6,0-0.8c0.2-0.2,0.5-0.2,0.7-0.1l7.7,5.5
			c0.2,0.2,0.3,0.5,0.1,0.8c-0.2,0.2-0.4,0.3-0.7,0.2c-2.2-1.1-3.2-1.7-5,0.6c-1.1,1.4-2.2,2.8-3.2,4.2c-0.1,0.1-0.1,0.3,0.1,0.4
			c2.2,1.7,4.4,3.3,6.7,4.9c2.3,1.6,4,3.1,5.8,0.1c0.2-0.3,0.3-0.4,0.6-0.5c0.3-0.1,0.6,0,0.7,0.3c0.1,0.2,0,0.4-0.1,0.5l-7.2,9.8
			c-0.2,0.2-0.3,0.2-0.5,0.1l-0.4-0.3c-0.1-0.1-0.2-0.3,0-0.4c0,0,0,0,0,0c0.8-0.9,1.3-1.9,1.3-3.1c0-0.2-0.1-0.4-0.2-0.6
			c-0.8-0.8-1.7-1.5-2.6-2.2c-7.6-5.6-13-9.5-16.3-11.8c-0.2-0.1-0.7-0.3-1.4-0.6C68.9,120.4,68.8,120.4,68.6,120.5z"/>
		<path class="st1" d="M382.6,119.9c4.3-5.5,10-1.6,11.4,3.8c0,0.1,0.1,0.3,0.3,0.3l1.5,0.4c0.1,0,0.2,0.2,0.2,0.3
			c0,0.1-0.1,0.1-0.1,0.1c-1.7,1.3-3.3,2.6-5.1,3.9c-0.1,0.1-0.3,0.2-0.4,0.2c-0.2,0-0.3-0.1-0.4-0.3c-0.1-0.2-0.1-0.4,0-0.6
			c1.2-1.4,2.4-3.6,1.9-5.5c-0.6-2.3-2-3.4-4.2-3.2c-0.2,0-0.3,0.1-0.5,0.2c-2.5,2.2-0.8,6.7-0.3,9.4c1,5.5-4.4,9.4-9.2,6.2
			c-2.2-1.5-3.3-4-4.4-6.4c-0.1-0.1-0.2-0.2-0.3-0.3l-1-0.4c-0.1-0.1-0.2-0.2-0.2-0.4c0,0,0-0.1,0.1-0.1l5.4-4.1
			c0.2-0.2,0.6-0.1,0.7,0.1c0.1,0.2,0.1,0.5,0,0.7c-1.1,1.4-2,3.1-2.1,4.9c-0.2,5.9,7.6,6.9,6.4-0.4
			C381.9,126,381.1,121.7,382.6,119.9z"/>
	</g>
	<g>
		<path class="st0" d="M175.4,275.8l0,34.6c0,0.2,0,0.3,0.1,0.5c0.1,0.2,0.1,0.5,0,0.7c-0.1,0.2-0.2,0.3-0.4,0.3l-18.7-0.1
			c-0.3,0-0.5,0.2-0.5,0.5c0,0,0,0,0,0l0.2,24.6c0,0.2,0.1,0.3,0.3,0.3l5.6,0l1.3,0.1c0.2,0,0.3-0.1,0.3-0.3l0.1-17.5
			c0-0.2,0.1-0.3,0.3-0.3h10.9c0.2,0,0.3,0.1,0.3,0.3l-0.2,16.8c0,0.3,0.3,0.6,0.6,0.6c0,0,0,0,0,0l5.9-0.1c0.2,0,0.4-0.2,0.4-0.4
			l0-54.5l-0.1-5.3c0-0.3,0.3-0.6,0.6-0.6c0,0,0,0,0,0l1.2,0.1l1.8,0l11.3-0.1c-0.1,0-0.2,0-0.4,0.1c0.1,6.4-0.3,13.3-0.3,19
			c0.1,14-0.1,27.5,0.2,42.2c0,0.3,0.2,0.5,0.5,0.5h30c0.3,0,0.5-0.2,0.5-0.5l0.4-7.2c0-0.5-0.3-0.9-0.8-0.9c0,0,0,0,0,0l-20.2,0.2
			c-0.3,0-0.6-0.3-0.6-0.6c0,0,0,0,0,0l0.2-30.9c0-0.7,0.3-1,1-1l31.2,0.4c0.3,0,0.6,0.2,0.6,0.6c0.2,13.4-0.2,26.9,0.2,40.3
			c0,0.2,0.1,0.3,0.3,0.3l9.4,0c0.2,0,0.3-0.1,0.3-0.3c0,0,0,0,0,0l0.4-30.2c0.1-0.2,0.1-0.4,0-0.6l0.2-30.4c0-0.4,0.3-0.8,0.8-0.8
			c0,0,0,0,0,0l20.3,0.1l3.3-0.2l7.9,0c0.2,0,0.3,0.1,0.4,0.2c0.2,0.5,0.1,1-0.1,1.6l0,72.3c0,0.2-0.2,0.4-0.4,0.4l-9.1,0.5
			c-0.4,0-0.6-0.2-0.6-0.6c0.2-5.2-0.1-11.9-0.2-15.7c-0.1-7.6,0-12.8,0.1-15.8c0.1-4.1-0.2-6.9,0.1-10.2c0.2-2.4-0.2-4.9,0-7.4
			c0.2-4,0-7.9,0.2-11.8c0-0.8-0.3-1.1-1.1-1.1l-10.6,0c-0.4,0-0.6,0.2-0.6,0.6c-0.1,5.5-0.1,10.8-0.1,16.3c0,14.4,0.1,29.2,0,44.4
			c0,0.2-0.1,0.3-0.3,0.3l-117.9-0.1c-0.3,0-0.6-0.3-0.6-0.6l-0.2-72.3c0-0.5,0.4-0.9,0.9-0.9c10.4-0.1,20.9,0,31.6,0.1
			c0.1-0.1,0.3-0.1,0.5-0.1L175.4,275.8z M164.6,287.3c0-0.2-0.2-0.4-0.4-0.4l0,0l-11.2,0c-0.2,0-0.4,0.2-0.4,0.4l0,0l0,11.2
			c0,0.2,0.2,0.4,0.4,0.4h0l11.2,0c0.2,0,0.4-0.2,0.4-0.4L164.6,287.3z M229,307.8c0-0.3-0.2-0.5-0.5-0.5h-11
			c-0.3,0-0.5,0.2-0.5,0.5l0,0v11c0,0.3,0.2,0.5,0.5,0.5h0h11c0.3,0,0.5-0.2,0.5-0.5V307.8z"/>
		<path class="st0" d="M207.2,276.9l9.5,0c0.3,0,0.5,0.2,0.5,0.5l0,9.7c0,0.3-0.2,0.5-0.5,0.5l-9.5,0c-0.3,0-0.5-0.2-0.5-0.5l0-9.7
			C206.7,277.2,206.9,276.9,207.2,276.9z"/>
		<path class="st0" d="M228,277l9.2,0c0.3,0,0.6,0.3,0.6,0.6l0,9.3c0,0.3-0.3,0.6-0.6,0.6l-9.2,0c-0.3,0-0.6-0.3-0.6-0.6l0-9.3
			C227.4,277.3,227.7,277,228,277z"/>
		<path class="st0" d="M292.5,277.5l3.7,0.2l26.6,0c0.2,0,0.3,0.1,0.3,0.3v72.5c0,0.2-0.1,0.3-0.3,0.3l-32.1,0
			c-0.2,0-0.3-0.1-0.3-0.3l0-32.1c0-0.3,0.2-0.5,0.5-0.5l6,0l4.8,0c0.2,0,0.3,0.1,0.2,0.3l-0.1,5.5v15.9c0,0.3,0.2,0.5,0.5,0.5h9.7
			c0.1,0,0.3-0.1,0.3-0.2c0.2-0.6,0.2-1.3,0.1-2.1l-0.1-14.6l0.2-15c0-0.3-0.3-0.6-0.6-0.6c0,0,0,0,0,0l-13.7,0l-2.2,0.2l-4.8-0.1
			c-0.2,0-0.4-0.2-0.4-0.4l0-25l0-4.1c0-0.2,0.1-0.3,0.2-0.3C291.6,277.4,292.1,277.4,292.5,277.5z M313.1,287.6
			c0-0.4-0.3-0.7-0.7-0.7l0,0l-10.7,0.1c-0.4,0-0.7,0.3-0.7,0.7l0.1,10.6c0,0.4,0.3,0.7,0.7,0.7h0l10.7-0.1c0.4,0,0.7-0.3,0.7-0.7
			L313.1,287.6z"/>
		<g>
			<path class="st1" d="M267,209.9c-0.2,0.1-0.3,0.3-0.4,0.4c-0.2,0.5,0,1.1,0.5,1.4l40.2,19.4c0,0,0,0,0,0c0.1,0.1,0.2,0.3,0.1,0.4
				l-2.8,4.3c-0.1,0.2-0.2,0.2-0.4,0.1l-38.3-18.5c-0.5-0.3-1-0.6-1.2-1.2c-7.2-12.7-14.9-25.6-23.1-38.5l-3.8-5.9
				c-0.1-0.1-0.1-0.3,0-0.4l22.2-35.4c3.7-5.7,7.4-11.4,11.2-17.1c0.2-0.4,0.3-0.7,0.3-1c0-0.1-0.1-0.2-0.1-0.3
				c-0.2-0.2-0.4-0.1-0.6,0c-13.4,14.9-25.1,32-35.9,48.8c0,0-0.1,0.1-0.1,0.1c-0.1,0.1-0.3,0-0.4-0.1
				c-10.9-16.9-22.6-33.5-35.8-48.7c0-0.1-0.1-0.1-0.2-0.1c-0.3-0.1-0.6,0-0.7,0.3c-0.1,0.2,0,0.4,0.1,0.7c0.2,0.3,0.3,0.4,0.3,0.4
				c6,9,11.8,18.1,17.6,27.2l2.2,3.5l13.4,21.8c0.1,0.1,0.1,0.3,0,0.4c-17.9,27.8-34.3,56.5-49.2,86c-0.1,0.2-0.2,0.2-0.4,0
				l-2.8-3.3c-6.5-7.4-12.2-15.1-17.3-23.3c-3.1-5-7.9-13.3-7.7-19.2c0.2-5.4,8.1-7.2,12.3-7.5c11.3-0.6,22.5,1.9,33.3,5.3
				c0.1-0.2,0.2-0.4,0.2-0.6c0-0.2-0.1-0.3-0.2-0.4c-4.8-2.8-97.7-57.9-91-32.6c0.6,2.1,1.3,4.2,2.1,6.3c3.2,6.9,7,13.5,11.3,19.9
				c15.8,23.4,35.3,45.9,54.8,65.2c0.5,0.5,0.5,1,0.1,1.5l-2.9,6.2l-33.1-0.1c-0.2,0-0.3,0.1-0.3,0.3l0.1,74c0,0.4,0.2,0.6,0.6,0.6
				l3.5-0.1l115.2,0c0.3,0,0.5-0.2,0.5-0.5l0-16.2c0-0.2,0.1-0.2,0.3-0.2c3.8,2,7.2,3.6,10.1,4.7c0.6,0.2,0.9,0.7,0.8,1.3
				c-0.3,3.9-0.3,7.9-0.1,11.8c0,0.1,0,0.1,0,0.2c0,0,0.1,0.1,0.2,0.1l10.9-0.4c0.2,0.1,0.3,0,0.3-0.3c-0.1-3.3,0-6,0.2-8.3l4.4,1
				l2.3,0.4c0.5,0.1,0.7,0.4,0.7,0.8l-0.1,5.6c0.1,0.2,0.1,0.4,0.1,0.7c0,0,0,0,0,0c0,0.2,0.1,0.3,0.3,0.3l10.9,0l22.1,0
				c0.2,0,0.3-0.1,0.3-0.3v-67.6l0-5.9c0-0.3-0.3-0.6-0.6-0.6l-27,0.1c-0.3-0.2-0.4-0.4-0.4-0.7l-3.6-7.7c-0.1-0.3-0.1-0.5,0.1-0.8
				c19.4-19.4,37.9-40.6,53.6-63.3c6.2-9,12.3-18.8,15.1-29.3C364.5,152.5,272.7,206.5,267,209.9z M314.8,215.4
				c0,0.2-0.1,0.2-0.3,0.2l-21.6-10.4c0,0,0,0,0,0c0,0,0,0,0,0c5.2-0.6,17.8-1.1,21.3,4C315.5,211,315.2,213.3,314.8,215.4z
				 M280.6,207.2l8.7-1.7c0,0,0.1,0,0.1,0l24.9,12c0.1,0,0.1,0.1,0.1,0.2l-2,5.1c0,0,0,0,0,0c0,0.1-0.1,0.1-0.2,0.1l-31.5-15.4
				c0,0-0.1-0.1-0.1-0.1C280.4,207.3,280.5,207.2,280.6,207.2z M269.3,210.7c-0.1,0-0.1,0-0.2,0c-0.1,0-0.2,0-0.3-0.1
				c0,0-0.1-0.1-0.1-0.1c0-0.1,0-0.2,0.1-0.2l8-2.3c0.2,0,0.3,0,0.5,0l33.6,16.4c0,0,0,0,0,0c0.2,0.1,0.2,0.3,0.1,0.5l-2.3,4.3
				c-0.1,0.2-0.4,0.3-0.7,0.2L269.3,210.7z M289.9,293.7l-6.7-3.2c-0.4-0.2-0.6-0.6-0.6-1l0-5.4c0-0.2,0.1-0.3,0.3-0.2l5.8,2.8
				c0.2,0.1,0.3,0.2,0.4,0.4l1.4,6.1c0,0.1,0,0.2,0,0.3C290.4,293.7,290.2,293.8,289.9,293.7z M290.5,302.2
				C290.5,302.2,290.5,302.2,290.5,302.2c-0.1,0.2-0.1,0.2-0.2,0.2l-7.6-3.6c-0.1,0-0.1-0.1-0.1-0.1l0-6.1c0,0,0,0,0-0.1
				c0-0.1,0.1-0.1,0.2-0.1l7.4,3.6c0.1,0,0.1,0.1,0.1,0.1L290.5,302.2z M244.2,324l3.6,2.3c0.5,0.3,0.8,0.8,0.8,1.4l-0.1,9.5
				c0,0.2-0.2,0.4-0.4,0.4l-8.4,0c-0.1,0-0.2-0.1-0.2-0.2l0.2-16.3L244.2,324z M248.4,314l-5-2.8l1.7-1.4c1.1-1.2,2.3-1.2,3.5,0
				c0.1,0.1,0.1,0.2,0.1,0.4l0,3.7c0,0,0,0.1,0,0.1C248.6,314,248.5,314,248.4,314z M249,275.8l0,6.7l-0.1,12.3
				c0,0.1-0.1,0.3-0.2,0.4l-8.7,6.7c-0.2,0.2-0.4,0.1-0.4-0.2l-0.1-5.1c0-0.2-0.2-0.4-0.4-0.4h-17.3c-0.2,0-0.4-0.1-0.6-0.2
				l-8.5-6.9c-0.7-0.6-0.6-0.8,0.3-0.8l4.5,0c0.2,0,0.3-0.1,0.3-0.3l0-7.8l0-3.4c0-0.2-0.1-0.3-0.3-0.3h-11.1
				c-0.2,0-0.3,0.1-0.2,0.3l0.2,5.8c0,0.1,0,0.2-0.1,0.2c-0.1,0.1-0.3,0.1-0.5,0l-2.1-1.9L190.7,268l-2.6-2.8
				c-0.1-0.1-0.1-0.3-0.1-0.4c13.1-30.4,29.3-59.4,46.3-87.7c0.1-0.1,0.2-0.1,0.3,0l6.4,10.9c7.8,13.2,15.2,26.6,22.4,40.1l3.5,6.9
				c5.1,9.8,9.7,19.7,14,29.9c0.1,0.2,0,0.3-0.1,0.4c-2.6,2.8-5.8,6.1-9.5,9.7c-0.3,0.3-0.6,0.5-0.8,0.5h-21.2
				C249.2,275.5,249,275.6,249,275.8z M201.9,336.8c-0.3,0-0.3-0.1,0-0.2c0.1,0,0.2-0.1,0.4-0.1l13.2-6.8c0.1,0,0.2-0.1,0.3-0.1
				h10.6c0,0,0,0,0,0c0.3,0,0.6,0.3,0.6,0.6l-0.2,6.4c0,0.2-0.1,0.3-0.3,0.3h-24C202.2,336.8,202.1,336.8,201.9,336.8z M205.3,296.6
				v23.5c0,0.3-0.2,0.5-0.5,0.6l-2.8,0.7l-5.4,1l0.1-35c0-0.1,0.1-0.1,0.1-0.1l9.8,8.6c0,0,0.1,0.1,0.1,0.1c0,0.1-0.1,0.2-0.2,0.2
				h-0.9C205.5,296.2,205.3,296.4,205.3,296.6z M206.7,287.1l0-9.7c0-0.3,0.2-0.5,0.5-0.5l9.5,0c0.3,0,0.5,0.2,0.5,0.5l0,9.7
				c0,0.3-0.2,0.5-0.5,0.5l-9.5,0C206.9,287.6,206.7,287.4,206.7,287.1z M298.7,244.1l-3.4,4.4c0,0.1-0.1,0.1-0.2,0l-17.2-8.3
				c0,0-0.1,0-0.1-0.1l-4.5-8.2c0,0,0-0.1,0-0.1c0-0.1,0.1-0.1,0.2-0.1l25.2,12.2c0,0,0,0,0,0C298.8,243.9,298.8,244,298.7,244.1z
				 M287,258l-1.8-3.5c0,0,0-0.1,0-0.1c0-0.1,0.1-0.1,0.2-0.1l3.5,1.7c0,0,0,0,0,0c0.1,0.1,0.1,0.2,0,0.2l-1.7,1.8c0,0,0,0,0,0
				C287.1,258.1,287,258.1,287,258z M287.4,259.2C287.4,259.2,287.4,259.2,287.4,259.2c-0.1,0-0.1,0-0.2,0.1
				C287.3,259.2,287.3,259.2,287.4,259.2z M290,254.5l-5.2-2.6c-0.1-0.1-0.3-0.1-0.4-0.1c-0.1,0-0.2,0-0.3-0.1
				c-0.1,0-0.2-0.1-0.3-0.3c-1.4-2.7-2.9-5.5-4.3-8.2c-0.1-0.2-0.1-0.2,0.1-0.2l14.2,6.8c0,0,0,0,0.1,0c0.1,0.1,0.1,0.3,0,0.4
				l-3.3,4C290.4,254.5,290.1,254.6,290,254.5z M287,259.3c-0.1,0-0.1,0-0.2,0C286.9,259.3,287,259.3,287,259.3z M286.7,259.3
				c-0.1,0-0.1,0-0.1-0.1C286.6,259.2,286.7,259.2,286.7,259.3z M286.4,259.1c0,0-0.1-0.1-0.1-0.1
				C286.3,259,286.4,259.1,286.4,259.1z M267.1,220.1l36.2,17.5c0,0,0,0,0,0c0.1,0,0.1,0.1,0,0.2l-3.2,4.5c0,0.1-0.1,0.1-0.2,0
				l-28.2-13.6c0,0-0.1,0-0.1-0.1l-4.7-8.4c0,0,0-0.1,0-0.1C266.9,220.1,267,220.1,267.1,220.1z M181.3,319.4c0,0.4-0.2,0.5-0.5,0.2
				c-1.3-1.2-2.3-2.7-3-4.5c-3.3-9.4,0.1-22,3.1-31.3c0-0.3,0.1-0.6,0.4-0.8L181.3,319.4z M156.4,312.8
				C156.4,312.8,156.4,312.8,156.4,312.8c0-0.3,0.2-0.5,0.5-0.5l2.3,0l-2.7,11.9L156.4,312.8z M271.2,321.9
				c-0.1,0.2-0.2,0.2-0.3,0.2c-3.5-0.6-6.9-1.5-10.2-2.6c-0.2-0.1-0.3-0.2-0.3-0.3c-0.2-0.8-0.3-1.6-0.1-2.4c0-0.2,0-0.3,0-0.5
				c-0.1-0.2,0-0.5,0.1-0.7c0.1-0.1,0.2-0.2,0.3-0.1c3.2,1.6,6.5,3.1,9.7,4.7C271.1,320.5,271.5,321,271.2,321.9z M271.2,301.1
				c0,0,0,0.1,0,0.1c-0.1,0.1-0.2,0.2-0.3,0.1l-4.3-2.1l-4.8-2.3c0,0-0.1-0.1-0.1-0.1c-0.1-0.2-0.1-0.4,0.1-0.5l4.6-3.7l4.4,2.2
				c0.1,0.1,0.3,0.2,0.3,0.3C271.6,296.4,271,299.6,271.2,301.1z M271.2,312.2l0,6c0,0,0,0,0,0.1c0,0.1-0.1,0.1-0.2,0.1l-10.6-5.1
				c-0.1,0-0.1-0.1-0.1-0.2l0-6.1c0,0,0-0.1,0-0.1c0-0.1,0.1-0.1,0.2-0.1l10.6,5.2C271.2,312,271.2,312.1,271.2,312.2z M271.2,292.9
				c-0.1,0.1-0.2,0.2-0.4,0.1l-3.2-1.6l2.3-2.3l0.8-0.3c0.2-0.1,0.3,0,0.3,0.2l0.2,3.7C271.2,292.8,271.2,292.8,271.2,292.9z
				 M265.4,300.9l5.5,2.7c0.2,0.1,0.2,0.2,0.2,0.4v5.7c0,0.2-0.1,0.3-0.3,0.2l-10.3-5c-0.2-0.1-0.3-0.2-0.3-0.4
				c-0.2-2.1-0.1-4.2,0.2-6.1L265.4,300.9z M282,350c0,0.2-0.2,0.4-0.4,0.4l-9.1,0.5c-0.4,0-0.6-0.2-0.6-0.6
				c0.2-5.2-0.1-11.9-0.2-15.7c-0.1-7.6,0-12.8,0.1-15.8c0.1-4.1-0.2-6.9,0.1-10.2c0.2-2.4-0.2-4.9,0-7.4c0.2-4,0-7.9,0.2-11.8
				c0-0.8-0.3-1.1-1.1-1.1l-10.6,0c-0.4,0-0.6,0.2-0.6,0.6c-0.1,5.5-0.1,10.8-0.1,16.3c0,14.4,0.1,29.2,0,44.4
				c0,0.2-0.1,0.3-0.3,0.3l-117.9-0.1c-0.3,0-0.6-0.3-0.6-0.6l-0.2-72.3c0-0.5,0.4-0.9,0.9-0.9c10.4-0.1,20.9,0,31.6,0.1
				c0.1-0.1,0.3-0.1,0.5-0.1l1.7-0.1l0,34.6c0,0.2,0,0.3,0.1,0.5c0.1,0.2,0.1,0.5,0,0.7c-0.1,0.2-0.2,0.3-0.4,0.3l-18.7-0.1
				c0,0,0,0,0,0c-0.3,0-0.5,0.2-0.5,0.5l0.2,24.6c0,0.2,0.1,0.3,0.3,0.3l5.6,0l1.3,0.1c0.2,0,0.3-0.1,0.3-0.3l0.1-17.5
				c0-0.2,0.1-0.3,0.3-0.3h10.9c0.2,0,0.3,0.1,0.3,0.3l-0.2,16.8c0,0,0,0,0,0c0,0.3,0.3,0.6,0.6,0.6l5.9-0.1c0.2,0,0.4-0.2,0.4-0.4
				l0-54.5l-0.1-5.3c0,0,0,0,0,0c0-0.3,0.3-0.6,0.6-0.6l1.2,0.1l1.8,0l11.3-0.1c-0.1,0-0.2,0-0.4,0.1c0.1,6.4-0.3,13.3-0.3,19
				c0.1,14-0.1,27.5,0.2,42.2c0,0.3,0.2,0.5,0.5,0.5h30c0.3,0,0.5-0.2,0.5-0.5l0.4-7.2c0,0,0,0,0-0.1c0-0.5-0.4-0.8-0.8-0.8
				l-20.2,0.2c0,0,0,0,0,0c-0.3,0-0.6-0.3-0.6-0.6l0.2-30.9c0-0.7,0.3-1,1-1l31.2,0.4c0.3,0,0.6,0.2,0.6,0.6
				c0.2,13.4-0.2,26.9,0.2,40.3c0,0.2,0.1,0.3,0.3,0.3l9.4,0c0,0,0,0,0,0c0.2,0,0.3-0.1,0.3-0.3l0.4-30.2c0.1-0.2,0.1-0.4,0-0.6
				l0.2-30.4c0,0,0,0,0,0c0-0.4,0.3-0.8,0.8-0.8l20.3,0.1l3.3-0.2l7.9,0c0.2,0,0.3,0.1,0.4,0.2c0.2,0.5,0.1,1-0.1,1.6L282,350z
				 M282.5,277.7l2.2-2.3c0,0,0.1-0.1,0.1-0.1c0.1-0.1,0.3,0,0.3,0.2l1.8,4.9l1.1,3.5c0.1,0.3,0,0.3-0.2,0.2l-4.7-2.3
				c-0.3-0.1-0.5-0.4-0.5-0.8L282.5,277.7z M282.6,301c0-0.2,0.1-0.3,0.3-0.2c2.4,1.1,4.7,2.2,6.9,3.3c0.6,0.3,0.9,0.7,0.7,1.4
				c0,0.1-0.1,0.3,0,0.4l0.1,1.6c0,0.2,0.1,0.3,0.3,0.3l1.4,0c0.2,0,0.3,0.1,0.3,0.3l-0.3,3.2c0,0.2-0.1,0.3-0.3,0.2l-8.9-4.3
				c-0.3-0.1-0.4-0.4-0.4-0.7L282.6,301z M287.4,320.2c-0.1,0.1-0.3,0.2-0.5,0.3c-1.3,0.7-2.7,1.3-4.2,1.6l-0.1-0.1
				c0,0-0.1-0.1-0.1-0.1l0.1-4c0-0.2,0.1-0.2,0.2-0.1l4.5,2.1C287.5,320,287.5,320.1,287.4,320.2z M289.3,318.5
				c-0.1,0.2-0.3,0.2-0.4,0.1l-5.9-2.9c-0.2-0.1-0.3-0.3-0.3-0.5v-5.6c0,0,0-0.1,0-0.1c0.1-0.1,0.2-0.2,0.4-0.1l8.5,4.2
				c0.2,0.1,0.2,0.2,0.2,0.4C291.2,315.5,290.4,317.1,289.3,318.5z M296.2,277.6l26.6,0c0.2,0,0.3,0.1,0.3,0.3v72.5
				c0,0.2-0.1,0.3-0.3,0.3l-32.1,0c-0.2,0-0.3-0.1-0.3-0.3l0-32.1c0-0.3,0.2-0.5,0.5-0.5l6,0l4.8,0c0.2,0,0.3,0.1,0.2,0.3l-0.1,5.5
				v15.9c0,0.3,0.2,0.5,0.5,0.5h9.7c0.1,0,0.3-0.1,0.3-0.2c0.2-0.6,0.2-1.3,0.1-2.1l-0.1-14.6l0.2-15c0,0,0,0,0,0
				c0-0.3-0.3-0.6-0.6-0.6l-13.7,0l-2.2,0.2l-4.8-0.1c-0.2,0-0.4-0.2-0.4-0.4l0-25l0-4.1c0-0.2,0.1-0.3,0.2-0.3
				c0.5-0.2,1-0.2,1.5-0.1L296.2,277.6z M308.4,308.3c-0.1-0.2,0-0.3,0.2-0.3l3.1-0.2c0,0,0,0,0,0c0.2,0,0.3,0.1,0.3,0.3l0.1,12.4
				c0,0.1-0.1,0.2-0.2,0.3c-0.1,0-0.1,0-0.2,0l-1.4-6.3L308.4,308.3z"/>
			<path class="st1" d="M249.4,250.4c-4.1-13.1-22.1-14.8-27.6-1.9c-2.3,5.4-1.5,10.6,2.3,15.6C235.1,275.8,252.7,265.9,249.4,250.4
				z"/>
			<path class="st1" d="M238.3,276.4h-11.4c-0.2,0-0.2,0.1-0.2,0.2l0,4.4l0,6.7c0,0.3,0.2,0.5,0.5,0.5H238c0.3,0,0.6-0.2,0.6-0.6
				l0-8.6l0-2.4C238.6,276.5,238.5,276.4,238.3,276.4z M237.8,287c0,0.3-0.3,0.6-0.6,0.6l-9.2,0c-0.3,0-0.6-0.3-0.6-0.6l0-9.3
				c0-0.3,0.3-0.6,0.6-0.6l9.2,0c0.3,0,0.6,0.3,0.6,0.6L237.8,287z"/>
			<path class="st1" d="M164.6,298.5l0-11.2c0-0.2-0.2-0.4-0.4-0.4l-11.2,0c-0.2,0-0.4,0.2-0.4,0.4l0,11.2c0,0,0,0,0,0
				c0,0.2,0.2,0.4,0.4,0.4l11.2,0C164.4,298.9,164.6,298.7,164.6,298.5z M163.5,298.3l-10.1,0c-0.2,0-0.3-0.1-0.3-0.3l0-10.2
				c0-0.2,0.1-0.3,0.3-0.3l10.1,0c0.2,0,0.3,0.1,0.3,0.3l0,10.2C163.9,298.1,163.7,298.3,163.5,298.3z"/>
			<path class="st1" d="M301.7,298.9l10.7-0.1c0.4,0,0.7-0.3,0.7-0.7l-0.1-10.6c0-0.4-0.3-0.7-0.7-0.7l-10.7,0.1
				c-0.4,0-0.7,0.3-0.7,0.7l0.1,10.6C301,298.6,301.3,298.9,301.7,298.9z M301.7,287.7c0-0.2,0.1-0.3,0.3-0.3l10.2,0
				c0.1,0,0.2,0.1,0.2,0.2l0,10.3c0,0.2-0.1,0.3-0.3,0.3c-2.6,0.2-5.1,0.1-7.4-0.2l-2.4-6.2C301.8,290.6,301.6,289.2,301.7,287.7z"
				/>
			<path class="st1" d="M228.5,307.4h-11h0c-0.3,0-0.5,0.2-0.5,0.5v11c0,0.3,0.2,0.5,0.5,0.5h11c0.3,0,0.5-0.2,0.5-0.5v-11
				C229,307.6,228.7,307.4,228.5,307.4z M217.7,308.2c0-0.2,0.1-0.3,0.3-0.3l3.9,0.2l3.5,2.8c0.1,0.1,0.1,0.2,0,0.3l-7.6,4.1
				L217.7,308.2z"/>
		</g>
	</g>
</g>
<g id="HEALTH_00000128469052700009300670000012666611077201334713_">
</g>
<g id="COMMUNICATION">
</g>
<g id="EDUCATION">
</g>
<g id="POLITICAL">
</g>
<g id="LETTRES">
</g>
<g id="BUSINESS">
</g>
</svg>
